<?xml version="1.0" standalone="no"?>
<!DOCTYPE svg PUBLIC "-//W3C//DTD SVG 1.1//EN" "http://www.w3.org/Graphics/SVG/1.1/DTD/svg11.dtd" >
<svg xmlns="http://www.w3.org/2000/svg" xmlns:xlink="http://www.w3.org/1999/xlink" version="1.1">
<metadata>
Created by FontForge 20170910 at Tue Sep 11 08:45:10 2007
 By jimmywarting
(c) 2007 by P22 type foundry. All rights reserved.
</metadata>
<defs>
<font id="P22UndergroundCYPro-Heavy" horiz-adv-x="580" >
  <font-face 
    font-family="P22 Underground CY Pro"
    font-weight="750"
    font-stretch="normal"
    units-per-em="1000"
    panose-1="0 0 8 0 0 0 0 0 0 0"
    ascent="750"
    descent="-250"
    x-height="470"
    cap-height="700"
    bbox="-685 -390 1480 1086"
    underline-thickness="50"
    underline-position="-100"
    stemh="140"
    stemv="140"
    unicode-range="U+0020-FB02"
  />
<missing-glyph horiz-adv-x="700" 
d="M65 700h570l5 -5v-690l-5 -5h-570l-5 5v690zM105 605v-130h25v90l45 -50l45 50v-90h25v130h-25l-45 -55l-45 55h-25zM280 605v-130h25v130h-25zM340 605v-130h25v90l65 -90h30v130h-25v-90l-65 90h-30zM495 605v-130h45c40 0 70 20 70 65s-30 65 -70 65h-45zM520 580h20
c25 0 45 -10 45 -40s-20 -40 -45 -40h-20v80zM150 405v-25h45v-105h25v105h45v25h-115zM290 405v-130h25v60h65v-60h25v130h-25v-45h-65v45h-25zM440 405v-130h90v25h-65v30h45v25h-45v25h60v25h-85zM270 170v30c-10 5 -25 10 -45 10c-42 0 -75 -30 -75 -70s30 -70 75 -70
c15 0 35 5 50 15v66l-50 -1v-25h25v-25c-10 -5 -15 -5 -25 -5c-30 0 -45 20 -45 45s18 42 45 42c18 0 25 -1 45 -12zM355 205l-55 -130h30l10 25h50l10 -25h30l-55 130h-20zM365 170l17 -45h-34zM450 205v-130h25v40h20c30 0 50 20 50 45s-20 45 -50 45h-45zM475 180h20
c12 0 20 -7 20 -20c0 -12 -8 -20 -20 -20h-20v40z" />
    <glyph glyph-name="f_f" unicode="ff" horiz-adv-x="800" 
d="M25 470h75v10c0 130 80 225 220 225c45 0 70 -7 100 -20v-140l-5 -5c-30 22 -55 30 -83 30c-67 0 -92 -40 -92 -95v-5h220v10c0 140 80 235 220 235c45 0 70 -7 100 -20v-140l-5 -5c-30 22 -55 30 -83 30c-67 0 -92 -40 -92 -105v-5h175l5 -5v-130l-5 -5h-175v-325l-5 -5
h-130l-5 5v325h-220v-325l-5 -5h-130l-5 5v325h-75l-5 5v131z" />
    <glyph glyph-name="t_t" unicode="tt" horiz-adv-x="810" 
d="M110 590h130l5 -6v-114h220v115l5 5h130l5 -6v-114h180l5 -5v-130l-5 -5h-180v-110c0 -80 35 -100 75 -100c28 0 66 7 105 35l5 -5v-135c-27 -16 -78 -30 -110 -30c-150 0 -215 90 -215 220v125h-220v-110c0 -80 40 -100 70 -100c28 0 55 5 90 25l5 -5v-135
c-25 -12 -68 -20 -95 -20c-145 0 -210 90 -210 220v125h-80l-5 5v130l5 5h80v115z" />
    <glyph glyph-name="uni0457_uni0457" unicode="&#x457;&#x457;" horiz-adv-x="520" 
d="M5 695h10l80 -80v-10l-80 -80h-10l-80 80v10zM255 695h10l80 -80v-10l-80 -80h-10l-80 80v10zM65 470h130l5 -5v-460l-5 -5h-130l-5 5v460zM505 695h10l80 -80v-10l-80 -80h-10l-80 80v10zM325 470h130l5 -5v-460l-5 -5h-130l-5 5v460z" />
    <glyph glyph-name="uni0407_uni0407" unicode="&#x407;&#x407;" horiz-adv-x="520" 
d="M65 700h130l5 -5v-690l-5 -5h-130l-5 5v690zM0 930h10l85 -85v-10l-85 -85h-10l-85 85v10zM255 930h10l85 -85v-10l-85 -85h-10l-85 85v10zM325 700h130l5 -5v-690l-5 -5h-130l-5 5v690zM510 930h10l85 -85v-10l-85 -85h-10l-85 85v10z" />
    <glyph glyph-name=".notdef" horiz-adv-x="700" 
d="M65 700h570l5 -5v-690l-5 -5h-570l-5 5v690zM105 605v-130h25v90l45 -50l45 50v-90h25v130h-25l-45 -55l-45 55h-25zM280 605v-130h25v130h-25zM340 605v-130h25v90l65 -90h30v130h-25v-90l-65 90h-30zM495 605v-130h45c40 0 70 20 70 65s-30 65 -70 65h-45zM520 580h20
c25 0 45 -10 45 -40s-20 -40 -45 -40h-20v80zM150 405v-25h45v-105h25v105h45v25h-115zM290 405v-130h25v60h65v-60h25v130h-25v-45h-65v45h-25zM440 405v-130h90v25h-65v30h45v25h-45v25h60v25h-85zM270 170v30c-10 5 -25 10 -45 10c-42 0 -75 -30 -75 -70s30 -70 75 -70
c15 0 35 5 50 15v66l-50 -1v-25h25v-25c-10 -5 -15 -5 -25 -5c-30 0 -45 20 -45 45s18 42 45 42c18 0 25 -1 45 -12zM355 205l-55 -130h30l10 25h50l10 -25h30l-55 130h-20zM365 170l17 -45h-34zM450 205v-130h25v40h20c30 0 50 20 50 45s-20 45 -50 45h-45zM475 180h20
c12 0 20 -7 20 -20c0 -12 -8 -20 -20 -20h-20v40z" />
    <glyph glyph-name=".null" horiz-adv-x="0" 
 />
    <glyph glyph-name="CR" horiz-adv-x="0" 
 />
    <glyph glyph-name="space" unicode=" " horiz-adv-x="300" 
 />
    <glyph glyph-name="exclam" unicode="!" horiz-adv-x="260" 
d="M65 700h130l5 -5v-115l-20 -365l-5 -5h-90l-5 5l-20 365v115zM125 135h10l80 -80v-10l-80 -80h-10l-80 80v10z" />
    <glyph glyph-name="quotedbl" unicode="&#x22;" horiz-adv-x="460" 
d="M65 700h130l5 -5v-95l-30 -135l-5 -5h-70l-5 5l-30 135v95zM265 700h130l5 -5v-95l-30 -135l-5 -5h-70l-5 5l-30 135v95z" />
    <glyph glyph-name="numbersign" unicode="#" horiz-adv-x="600" 
d="M55 535h82l8 120l5 5h115l5 -5l-8 -120h91l12 120l5 5h115l5 -5l-12 -120h77l5 -5v-110l-5 -5h-87l-8 -100h85l5 -5v-110l-5 -5h-93l-10 -150l-5 -5h-115l-5 5l10 150h-94l-11 -150l5 -5h-125l-5 5l11 150h-63l-5 5v110l5 5h73l7 100h-70l-5 5v110zM250 415l-7 -100h92
l8 100h-93z" />
    <glyph glyph-name="dollar" unicode="$" horiz-adv-x="520" 
d="M195 800h130l5 -5v-92c54 -18 102 -56 140 -108l-108 -80h-10c-32 30 -62 55 -97 55c-45 0 -65 -30 -65 -60c0 -100 300 -90 300 -300c0 -97 -65 -183 -160 -213v-92l-5 -5h-130l-5 5v87c-78 18 -145 69 -180 148l115 77h10c35 -67 80 -87 120 -87c50 0 85 30 85 80
c0 100 -300 85 -300 300c0 93 62 170 150 195v90z" />
    <glyph glyph-name="percent" unicode="%" horiz-adv-x="800" 
d="M205 705c90 0 165 -70 165 -160s-75 -160 -165 -160s-165 70 -165 160s75 160 165 160zM205 580c-20 0 -35 -15 -35 -35s15 -35 35 -35s35 15 35 35s-15 35 -35 35zM555 700h155l5 -5l-460 -690l-10 -5h-155l-5 5l460 690zM595 315c90 0 165 -70 165 -160
s-75 -160 -165 -160s-165 70 -165 160s75 160 165 160zM595 190c-20 0 -35 -15 -35 -35s15 -35 35 -35s35 15 35 35s-15 35 -35 35z" />
    <glyph glyph-name="ampersand" unicode="&#x26;" horiz-adv-x="700" 
d="M675 375l5 -5c-55 -75 -100 -138 -145 -190c53 -58 105 -115 165 -175l-5 -5h-170l-75 75c-50 -55 -115 -90 -190 -90c-132 0 -240 95 -240 217c0 93 50 148 125 193c-35 45 -55 80 -55 140c0 100 80 180 185 180s185 -80 185 -180c0 -80 -40 -125 -110 -165
c10 -15 73 -85 90 -100c33 35 60 75 80 105h155zM265 445c40 25 65 45 65 75c0 35 -20 55 -54 55c-36 0 -56 -20 -56 -55c0 -25 20 -50 45 -75zM230 305c-40 -25 -65 -55 -65 -103c0 -42 43 -77 95 -77c43 0 70 15 95 45c-45 45 -85 95 -125 135z" />
    <glyph glyph-name="quotesingle" unicode="'" horiz-adv-x="260" 
d="M65 700h130l5 -5v-95l-30 -135l-5 -5h-70l-5 5l-30 135v95z" />
    <glyph glyph-name="parenleft" unicode="(" horiz-adv-x="380" 
d="M315 720l5 -5c-60 -85 -130 -260 -130 -485s70 -400 130 -485l-5 -5h-155c-50 85 -120 255 -120 490s70 405 120 490h155z" />
    <glyph glyph-name="parenright" unicode=")" horiz-adv-x="380" 
d="M65 720h155c50 -85 120 -255 120 -490s-70 -405 -120 -490h-155l-5 5c60 85 130 260 130 485s-70 400 -130 485z" />
    <glyph glyph-name="asterisk" unicode="*" horiz-adv-x="640" 
d="M240 700h160l5 -5l-40 -190l150 120h5l80 -130v-5l-190 -60l190 -70v-5l-80 -130h-5l-150 130l40 -190l-5 -5h-160l-5 5l40 190l-150 -130h-5l-80 130v5l190 70l-190 60v5l80 130h5l150 -120l-40 190z" />
    <glyph glyph-name="plus" unicode="+" horiz-adv-x="520" 
d="M195 560h130l5 -5v-120h120l5 -5v-130l-5 -5h-120v-120l-5 -5h-130l-5 5v120h-120l-5 5v130l5 5h120v120z" />
    <glyph glyph-name="comma" unicode="," horiz-adv-x="260" 
d="M65 140h130l5 -5v-120c0 -85 -60 -145 -165 -145c-10 0 -18 0 -35 5v5c35 15 60 60 60 130v125z" />
    <glyph glyph-name="hyphen" unicode="-" horiz-adv-x="400" 
d="M45 305h310l5 -5v-130l-5 -5h-310l-5 5v130z" />
    <glyph glyph-name="period" unicode="." horiz-adv-x="260" 
d="M65 140h130l5 -5v-130l-5 -5h-130l-5 5v130z" />
    <glyph glyph-name="slash" unicode="/" horiz-adv-x="360" 
d="M215 700h129l5 -5l-200 -940l-5 -5h-129l-5 5l200 940z" />
    <glyph glyph-name="zero" unicode="0" horiz-adv-x="600" 
d="M300 715c159 0 260 -163 260 -365s-101 -365 -260 -365s-260 163 -260 365s101 365 260 365zM300 575c-65 0 -110 -79 -110 -225s45 -225 110 -225s110 79 110 225s-45 225 -110 225z" />
    <glyph glyph-name="one" unicode="1" horiz-adv-x="260" 
d="M195 705l5 -5v-695l-5 -5h-130l-5 5v582l5 10z" />
    <glyph glyph-name="two" unicode="2" horiz-adv-x="480" 
d="M30 445v185c45 47 100 85 180 85c130 0 220 -95 220 -210c0 -85 -44 -153 -85 -225l-80 -140h170l5 -5v-130l-5 -5h-405l-5 5l185 320c40 70 70 125 70 180c0 40 -33 70 -70 70c-80 0 -140 -80 -175 -135z" />
    <glyph glyph-name="three" unicode="3" horiz-adv-x="540" 
d="M25 700h435l5 -5l-125 -255c110 -40 160 -110 160 -205c0 -145 -110 -250 -260 -250c-100 0 -185 70 -220 145l100 90h10c10 -35 50 -95 110 -95s110 45 110 110s-60 110 -120 110c-35 0 -60 -5 -95 -20l-5 5l117 230h-222l-5 5v130z" />
    <glyph glyph-name="four" unicode="4" horiz-adv-x="690" 
d="M555 735l5 -5v-460h115l5 -5v-130l-5 -5h-115v-125l-5 -5h-130l-5 5v125h-405l-5 5zM420 410l-120 -140h120v140z" />
    <glyph glyph-name="five" unicode="5" horiz-adv-x="540" 
d="M140 700h355l5 -5l-85 -135h-150l-5 -100c120 10 240 -80 240 -230c0 -135 -115 -245 -255 -245c-85 0 -165 35 -215 110l85 110h10c35 -55 70 -80 120 -80c55 0 105 45 105 105c0 65 -50 112 -115 112c-50 0 -70 -7 -125 -32l-5 5l30 380z" />
    <glyph glyph-name="six" unicode="6" horiz-adv-x="550" 
d="M472 700l5 -5c-91 -66 -188 -167 -244 -270c22 6 45 10 67 10c120 0 220 -100 220 -220c0 -130 -100 -230 -230 -230c-115 0 -250 85 -250 285c0 175 150 355 250 430h182zM185 250c5 -90 55 -125 105 -125c45 0 80 40 80 90c0 45 -35 80 -80 80s-75 -15 -105 -45z" />
    <glyph glyph-name="seven" unicode="7" horiz-adv-x="560" 
d="M35 700h520l5 -5l-345 -690l-10 -5h-150l-5 5l280 555h-295l-5 5v130z" />
    <glyph glyph-name="eight" unicode="8" horiz-adv-x="540" 
d="M270 715c105 0 200 -75 200 -185c0 -60 -30 -110 -85 -145c65 -45 115 -105 115 -185c0 -120 -105 -215 -230 -215s-230 95 -230 215c0 80 50 140 115 185c-55 35 -85 85 -85 145c0 110 95 185 200 185zM270 450c30 20 50 46 50 80c0 25 -20 45 -50 45s-50 -20 -50 -45
c0 -34 20 -60 50 -80zM270 320c-35 -30 -80 -65 -80 -120c0 -40 35 -75 80 -75s80 35 80 75c0 55 -45 90 -80 120z" />
    <glyph glyph-name="nine" unicode="9" horiz-adv-x="550" 
d="M78 0l-5 5c91 66 188 167 244 270c-22 -6 -45 -10 -67 -10c-120 0 -220 100 -220 220c0 130 100 230 230 230c115 0 250 -85 250 -285c0 -175 -150 -355 -250 -430h-182zM365 450c-5 90 -55 125 -105 125c-45 0 -80 -40 -80 -90c0 -45 35 -80 80 -80s75 15 105 45z" />
    <glyph glyph-name="colon" unicode=":" horiz-adv-x="260" 
d="M65 460h130l5 -5v-130l-5 -5h-130l-5 5v130zM65 140h130l5 -5v-130l-5 -5h-130l-5 5v130z" />
    <glyph glyph-name="semicolon" unicode=";" horiz-adv-x="260" 
d="M65 460h130l5 -5v-130l-5 -5h-130l-5 5v130zM65 140h130l5 -5v-120c0 -85 -60 -145 -165 -145c-10 0 -18 0 -35 5v5c35 15 60 60 60 130v125z" />
    <glyph glyph-name="less" unicode="&#x3c;" horiz-adv-x="520" 
d="M450 590l5 -5v-145l-5 -5l-210 -70l210 -70l5 -5v-145l-5 -5l-390 162l-5 5v115l5 5z" />
    <glyph glyph-name="equal" unicode="=" horiz-adv-x="520" 
d="M70 535h380l5 -5v-130l-5 -5h-380l-5 5v130zM70 335h380l5 -5v-130l-5 -5h-380l-5 5v130z" />
    <glyph glyph-name="greater" unicode="&#x3e;" horiz-adv-x="520" 
d="M65 585l5 5l390 -163l5 -5v-115l-5 -5l-390 -162l-5 5v145l5 5l210 70l-210 70l-5 5v145z" />
    <glyph glyph-name="question" unicode="?" horiz-adv-x="460" 
d="M120 525l-85 65c35 75 100 125 175 125c130 0 215 -75 215 -180c0 -150 -135 -200 -135 -255c0 -20 5 -30 22 -43l-85 -87c-32 20 -87 65 -87 130c0 115 130 130 130 235c0 35 -20 60 -60 60c-35 0 -60 -15 -80 -50h-10zM225 135h10l80 -80v-10l-80 -80h-10l-80 80v10z
" />
    <glyph glyph-name="at" unicode="@" horiz-adv-x="840" 
d="M275 300l50 125c20 11 50 25 95 25c95 0 165 -55 165 -160v-55c0 -60 10 -75 35 -75c15 0 30 20 30 100c0 127 -95 225 -230 225s-230 -108 -230 -245c0 -138 105 -245 230 -245c40 0 75 5 115 30h10l50 -105c-65 -35 -120 -45 -175 -45c-195 0 -360 155 -360 365
s165 365 360 365c205 0 360 -155 360 -345c0 -150 -80 -215 -170 -215c-45 0 -75 5 -110 35c-30 -25 -70 -35 -100 -35c-60 0 -140 30 -140 125s95 130 200 140c0 20 -20 35 -42 35c-44 0 -83 -10 -138 -50zM460 165v50c-80 -5 -85 -33 -85 -45c0 -15 12 -25 25 -25
c20 0 40 5 60 20z" />
    <glyph glyph-name="A" unicode="A" horiz-adv-x="700" 
d="M280 700h140l5 -5l265 -690l-5 -5h-155l-5 5l-50 140h-250l-50 -140l-5 -5h-155l-5 5l265 690zM350 520l-80 -235h160z" />
    <glyph glyph-name="B" unicode="B" horiz-adv-x="550" 
d="M65 700h185c130 0 235 -70 235 -190c0 -60 -30 -105 -70 -125c60 -25 105 -95 105 -170c0 -140 -100 -215 -230 -215h-225l-5 5v690zM200 560v-130h50c55 0 80 25 80 65s-25 65 -80 65h-50zM200 290v-150h80c50 0 85 20 85 75s-35 75 -85 75h-80z" />
    <glyph glyph-name="C" unicode="C" horiz-adv-x="710" 
d="M650 495l-5 -5c-65 55 -140 80 -235 80c-120 0 -215 -100 -215 -220s95 -220 215 -220c95 0 170 25 235 80l5 -5v-155c-65 -47 -145 -65 -240 -65c-204 0 -370 164 -370 365s166 365 370 365c95 0 175 -18 240 -65v-155z" />
    <glyph glyph-name="D" unicode="D" horiz-adv-x="710" 
d="M65 700h235c215 0 370 -157 370 -350s-155 -350 -370 -350h-235l-5 5v690zM200 560v-420h100c130 0 220 85 220 210s-90 210 -220 210h-100z" />
    <glyph glyph-name="E" unicode="E" 
d="M65 700h470l5 -5v-130l-5 -5h-335v-125h245l5 -5v-130l-5 -5h-245v-155h345l5 -5v-130l-5 -5h-480l-5 5v690z" />
    <glyph glyph-name="F" unicode="F" horiz-adv-x="560" 
d="M65 700h460l5 -5v-130l-5 -5h-325v-135h235l5 -5v-130l-5 -5h-235v-280l-5 -5h-130l-5 5v690z" />
    <glyph glyph-name="G" unicode="G" horiz-adv-x="720" 
d="M670 515l-5 -5c-75 45 -160 60 -245 60c-135 0 -225 -100 -225 -220s90 -220 230 -220c35 0 80 5 105 15v130h-105l-5 5v130l5 5h240l5 -5v-365c-75 -40 -155 -60 -245 -60c-215 0 -385 160 -385 365c0 200 165 365 380 365c95 0 175 -10 250 -45v-155z" />
    <glyph glyph-name="H" unicode="H" horiz-adv-x="720" 
d="M65 700h130l5 -5v-260h320v260l5 5h130l5 -5v-690l-5 -5h-130l-5 5v290h-320v-290l-5 -5h-130l-5 5v690z" />
    <glyph glyph-name="I" unicode="I" horiz-adv-x="260" 
d="M65 700h130l5 -5v-690l-5 -5h-130l-5 5v690z" />
    <glyph glyph-name="J" unicode="J" horiz-adv-x="520" 
d="M305 700h130l5 -5v-490c0 -120 -75 -220 -235 -220c-90 0 -170 65 -195 150l115 60h5c15 -50 45 -75 85 -75c70 0 85 45 85 130v445z" />
    <glyph glyph-name="K" unicode="K" horiz-adv-x="720" 
d="M65 700h130l5 -5v-260l270 260l10 5h175l5 -5l-325 -330l375 -360l-5 -5h-195l-10 5l-300 290v-290l-5 -5h-130l-5 5v690z" />
    <glyph glyph-name="L" unicode="L" horiz-adv-x="500" 
d="M65 700h130l5 -5v-555h265l5 -5v-130l-5 -5h-400l-5 5v690z" />
    <glyph glyph-name="M" unicode="M" horiz-adv-x="820" 
d="M65 700h130l10 -5l205 -255l205 255l10 5h130l5 -5v-690l-5 -5h-130l-5 5v480l-205 -250h-10l-205 250v-480l-5 -5h-130l-5 5v690z" />
    <glyph glyph-name="N" unicode="N" horiz-adv-x="760" 
d="M65 700h135l10 -5l350 -455v455l5 5h130l5 -5v-690l-5 -5h-135l-10 5l-350 455v-455l-5 -5h-130l-5 5v690z" />
    <glyph glyph-name="O" unicode="O" horiz-adv-x="820" 
d="M410 715c205 0 370 -160 370 -365s-165 -365 -370 -365s-370 160 -370 365s165 365 370 365zM410 570c-120 0 -215 -95 -215 -220s95 -220 215 -220s215 95 215 220s-95 220 -215 220z" />
    <glyph glyph-name="P" unicode="P" horiz-adv-x="560" 
d="M65 700h215c160 0 250 -105 250 -225s-90 -225 -250 -225h-80v-245l-5 -5h-130l-5 5v690zM200 560v-170h70c65 0 105 25 105 85s-40 85 -105 85h-70z" />
    <glyph glyph-name="Q" unicode="Q" horiz-adv-x="820" 
d="M770 105v-10l-85 -95h-10l-56 48c-59 -40 -131 -63 -209 -63c-205 0 -370 160 -370 365s165 365 370 365s370 -160 370 -365c0 -75 -23 -144 -61 -202zM535 300h10l57 -50c15 29 23 63 23 100c0 125 -95 220 -215 220s-215 -95 -215 -220s95 -220 215 -220
c33 0 64 7 92 20l-52 45v10z" />
    <glyph glyph-name="R" unicode="R" horiz-adv-x="640" 
d="M65 700h185c150 0 240 -95 240 -210c0 -80 -40 -135 -100 -165l240 -320l-5 -5h-160l-5 5l-210 275h-50v-275l-5 -5h-130l-5 5v690zM200 560v-140h50c50 0 85 20 85 70s-35 70 -85 70h-50z" />
    <glyph glyph-name="S" unicode="S" horiz-adv-x="540" 
d="M342 525h-10c-22 30 -52 45 -77 45c-35 0 -50 -20 -50 -50c0 -80 295 -80 295 -310c0 -120 -100 -225 -235 -225c-105 0 -200 55 -235 155l115 77h10c25 -67 70 -87 110 -87c50 0 85 30 85 80c0 120 -295 115 -295 310c0 115 89 195 200 195c85 0 140 -35 195 -110z" />
    <glyph glyph-name="T" unicode="T" horiz-adv-x="620" 
d="M35 700h550l5 -5v-130l-5 -5h-205v-555l-5 -5h-130l-5 5v555h-205l-5 5v130z" />
    <glyph glyph-name="U" unicode="U" horiz-adv-x="740" 
d="M65 700h130l5 -5v-365c0 -135 75 -200 170 -200s170 65 170 200v365l5 5h130l5 -5v-385c0 -205 -140 -325 -310 -325s-310 120 -310 325v385z" />
    <glyph glyph-name="V" unicode="V" horiz-adv-x="700" 
d="M15 700h150l5 -5l180 -485l180 485l5 5h150l5 -5l-265 -690l-5 -5h-140l-5 5l-265 690z" />
    <glyph glyph-name="W" unicode="W" horiz-adv-x="1080" 
d="M15 700h150l5 -5l160 -485l135 475l5 5h140l5 -5l135 -475l160 485l5 5h150l5 -5l-245 -690l-5 -5h-140l-5 5l-135 415l-135 -415l-5 -5h-140l-5 5l-245 690z" />
    <glyph glyph-name="X" unicode="X" horiz-adv-x="720" 
d="M45 700h160l10 -5l145 -210l145 210l10 5h160l5 -5l-235 -325l265 -365l-5 -5h-160l-10 5l-175 250l-175 -250l-10 -5h-160l-5 5l265 365l-235 325z" />
    <glyph glyph-name="Y" unicode="Y" horiz-adv-x="640" 
d="M15 700h140l5 -5l160 -235l160 235l5 5h140l5 -5l-240 -380v-310l-5 -5h-130l-5 5v310l-240 380z" />
    <glyph glyph-name="Z" unicode="Z" horiz-adv-x="650" 
d="M25 700h585l5 -5l-355 -555h355l5 -6v-129l-5 -5h-600l-5 5l355 555h-340l-5 5v130z" />
    <glyph glyph-name="bracketleft" unicode="[" horiz-adv-x="300" 
d="M25 720h230l5 -5v-130l-5 -5h-95v-700h95l5 -5v-130l-5 -5h-230l-5 5v970z" />
    <glyph glyph-name="backslash" unicode="\" horiz-adv-x="360" 
d="M15 700h129l5 -5l200 -940l-5 -5h-129l-5 5l-200 940z" />
    <glyph glyph-name="bracketright" unicode="]" horiz-adv-x="300" 
d="M45 720h230l5 -5v-970l-5 -5h-230l-5 5v130l5 5h95v700h-95l-5 5v130z" />
    <glyph glyph-name="asciicircum" unicode="^" horiz-adv-x="520" 
d="M202 700h115l5 -5l163 -390l-5 -5h-145l-5 5l-70 210l-70 -210l-5 -5h-145l-5 5l162 390z" />
    <glyph glyph-name="underscore" unicode="_" horiz-adv-x="500" 
d="M45 -50h410l5 -5v-130l-5 -5h-410l-5 5v130z" />
    <glyph glyph-name="grave" unicode="`" 
d="M104 690h156l10 -5l135 -145l-5 -5h-130l-10 5l-160 145z" />
    <glyph glyph-name="a" unicode="a" horiz-adv-x="510" 
d="M55 310l55 145c30 15 70 30 125 30c110 0 225 -65 225 -200v-280l-5 -5h-130l-5 5v15c-40 -25 -74 -35 -115 -35c-75 0 -165 40 -165 145c0 120 125 170 280 175c0 25 -35 60 -90 60s-110 -20 -170 -60zM320 135v75c-105 -5 -140 -30 -140 -65c0 -25 25 -40 45 -40
c35 0 60 10 95 30z" />
    <glyph glyph-name="b" unicode="b" horiz-adv-x="600" 
d="M65 700h130l5 -5v-245c32 20 75 35 120 35c138 0 240 -112 240 -250s-102 -250 -240 -250c-45 0 -88 15 -120 35v-15l-5 -5h-130l-5 5v690zM200 290v-110c30 -45 70 -60 110 -60c61 0 110 52 110 115s-49 115 -110 115c-40 0 -80 -20 -110 -60z" />
    <glyph glyph-name="c" unicode="c" horiz-adv-x="500" 
d="M460 300l-5 -5c-50 40 -110 55 -155 55c-75 0 -120 -50 -120 -115s45 -115 120 -115c45 0 105 15 155 55l5 -5v-135c-40 -30 -95 -50 -160 -50c-155 0 -260 112 -260 250s105 250 260 250c65 0 120 -20 160 -50v-135z" />
    <glyph glyph-name="d" unicode="d" horiz-adv-x="600" 
d="M405 700h130l5 -5v-690l-5 -5h-130l-5 5v15c-32 -20 -75 -35 -120 -35c-138 0 -240 112 -240 250s102 250 240 250c45 0 88 -15 120 -35v245zM400 180v110c-30 40 -70 60 -110 60c-61 0 -110 -52 -110 -115s49 -115 110 -115c40 0 80 15 110 60z" />
    <glyph glyph-name="e" unicode="e" horiz-adv-x="550" 
d="M495 160v-125c-45 -30 -115 -50 -180 -50c-165 0 -275 110 -275 255c0 135 95 245 245 245c145 0 225 -120 225 -215c0 -30 0 -45 -5 -65l-5 -5h-320c15 -70 70 -95 135 -95c55 0 115 15 175 60zM185 300h185c-5 35 -40 65 -85 65c-60 0 -85 -30 -100 -65z" />
    <glyph glyph-name="f" unicode="f" horiz-adv-x="440" 
d="M25 470h75v10c0 140 80 235 220 235c45 0 70 -7 100 -20v-140l-5 -5c-30 22 -55 30 -83 30c-67 0 -92 -40 -92 -105v-5h175l5 -5v-130l-5 -5h-175v-325l-5 -5h-130l-5 5v325h-75l-5 5v131z" />
    <glyph glyph-name="g" unicode="g" horiz-adv-x="500" 
d="M480 470l5 -5v-110l-5 -5h-47c4 -16 7 -33 7 -50c0 -102 -85 -185 -190 -185c-12 0 -25 2 -35 5c-5 -5 -10 -10 -10 -20c0 -40 290 -10 290 -210c0 -100 -95 -155 -235 -155s-255 35 -255 145c0 55 35 105 95 135c-20 15 -35 40 -35 75c0 34 15 60 45 85
c-35 35 -50 70 -50 125c0 102 85 185 190 185c26 0 52 -6 75 -15h155zM195 -20c-29 -20 -50 -45 -50 -80c0 -25 30 -45 115 -45c65 0 95 20 95 45c0 50 -110 60 -160 80zM250 365c-36 0 -65 -29 -65 -65s29 -65 65 -65s65 29 65 65s-29 65 -65 65z" />
    <glyph glyph-name="h" unicode="h" horiz-adv-x="600" 
d="M65 700h130l5 -5v-245c35 20 80 35 125 35c150 0 225 -85 225 -220v-260l-5 -5h-130l-5 5v235c0 80 -40 110 -100 110c-40 0 -82 -19 -110 -50v-295l-5 -5h-130l-5 5v690z" />
    <glyph glyph-name="i" unicode="i" horiz-adv-x="260" 
d="M65 470h130l5 -5v-460l-5 -5h-130l-5 5v460zM125 705h10l90 -90v-10l-90 -90h-10l-90 90v10z" />
    <glyph glyph-name="j" unicode="j" horiz-adv-x="260" 
d="M65 470h130l5 -5v-535c0 -130 -70 -195 -185 -195c-10 0 -35 0 -55 10v130l5 5c20 -10 30 -10 40 -10c30 0 55 10 55 95v500zM125 705h10l90 -90v-10l-90 -90h-10l-90 90v10z" />
    <glyph glyph-name="k" unicode="k" horiz-adv-x="540" 
d="M65 700h130l5 -5v-375l140 145l10 5h155l5 -5l-205 -205l225 -255l-5 -5h-155l-10 5l-160 175v-175l-5 -5h-130l-5 5v690z" />
    <glyph glyph-name="l" unicode="l" horiz-adv-x="360" 
d="M55 700h130l5 -5v-505c0 -45 25 -70 60 -70s65 10 95 40l5 -5v-140c-25 -15 -70 -30 -105 -30c-130 0 -195 80 -195 195v515z" />
    <glyph glyph-name="m" unicode="m" horiz-adv-x="910" 
d="M65 470h130l5 -5v-15c35 20 70 35 115 35c80 0 135 -25 170 -65c45 40 105 65 160 65c150 0 215 -85 215 -220v-260l-5 -5h-130l-5 5v235c0 80 -40 110 -85 110s-75 -20 -105 -50v-295l-5 -5h-130l-5 5v235c0 80 -40 110 -85 110s-75 -20 -105 -50v-295l-5 -5h-130l-5 5
v460z" />
    <glyph glyph-name="n" unicode="n" horiz-adv-x="600" 
d="M65 470h130l5 -5v-15c35 20 80 35 125 35c150 0 225 -85 225 -220v-260l-5 -5h-130l-5 5v235c0 80 -40 110 -100 110c-40 0 -82 -19 -110 -50v-295l-5 -5h-130l-5 5v460z" />
    <glyph glyph-name="o" unicode="o" 
d="M290 485c140 0 250 -110 250 -250s-110 -250 -250 -250s-250 110 -250 250s110 250 250 250zM290 350c-65 0 -110 -50 -110 -115s45 -115 110 -115s110 50 110 115s-45 115 -110 115z" />
    <glyph glyph-name="p" unicode="p" horiz-adv-x="600" 
d="M65 470h130l5 -5v-15c32 20 75 35 120 35c138 0 240 -112 240 -250s-102 -250 -240 -250c-45 0 -88 15 -120 35v-245l-5 -5h-130l-5 5v690zM200 290v-110c30 -45 70 -60 110 -60c61 0 110 52 110 115s-49 115 -110 115c-40 0 -80 -20 -110 -60z" />
    <glyph glyph-name="q" unicode="q" horiz-adv-x="600" 
d="M405 470h130l5 -5v-690l-5 -5h-130l-5 5v245c-32 -20 -75 -35 -120 -35c-138 0 -240 112 -240 250s102 250 240 250c45 0 88 -15 120 -35v15zM400 180v110c-30 40 -70 60 -110 60c-61 0 -110 -52 -110 -115s49 -115 110 -115c40 0 80 15 110 60z" />
    <glyph glyph-name="r" unicode="r" horiz-adv-x="430" 
d="M65 470h130l5 -5v-15c35 20 80 35 125 35c30 0 60 -5 90 -20l5 -140l-5 -5c-30 25 -80 30 -105 30c-40 0 -82 -19 -110 -50v-295l-5 -5h-130l-5 5v460z" />
    <glyph glyph-name="s" unicode="s" horiz-adv-x="470" 
d="M390 315l-5 -5c-60 35 -100 45 -150 45c-25 0 -45 -10 -45 -30c0 -45 240 -5 240 -180c0 -85 -75 -160 -195 -160c-60 0 -135 15 -180 45v136l5 4c55 -35 120 -55 175 -55c40 0 55 10 55 30c0 55 -240 15 -240 180c0 80 70 160 185 160c70 0 115 -15 155 -40v-130z" />
    <glyph glyph-name="t" unicode="t" horiz-adv-x="450" 
d="M110 590h130l5 -6v-114h180l5 -5v-130l-5 -5h-180v-110c0 -80 35 -100 75 -100c28 0 66 7 105 35l5 -5v-135c-27 -16 -78 -30 -110 -30c-150 0 -215 90 -215 220v125h-80l-5 5v130l5 5h80v115z" />
    <glyph glyph-name="u" unicode="u" horiz-adv-x="600" 
d="M55 470h130l5 -5v-235c0 -80 40 -110 100 -110c40 0 82 19 110 50v295l5 5h130l5 -5v-460l-5 -5h-130l-5 5v15c-35 -20 -80 -35 -125 -35c-150 0 -225 85 -225 220v260z" />
    <glyph glyph-name="v" unicode="v" horiz-adv-x="520" 
d="M15 470h145l5 -5l95 -275l95 275l5 5h145l5 -5l-185 -460l-5 -5h-120l-5 5l-185 460z" />
    <glyph glyph-name="w" unicode="w" horiz-adv-x="820" 
d="M14 470h146l5 -5l95 -275l90 255l5 5h110l5 -5l90 -255l95 275l5 5h146l4 -5l-185 -460l-5 -5h-120l-5 5l-85 225l-85 -225l-5 -5h-120l-5 5l-185 460z" />
    <glyph glyph-name="x" unicode="x" horiz-adv-x="520" 
d="M25 470h155l10 -5l70 -100l70 100l10 5h155l5 -5l-160 -220l170 -240l-5 -5h-155l-10 5l-80 115l-80 -115l-10 -5h-155l-5 5l170 240l-160 220z" />
    <glyph glyph-name="y" unicode="y" horiz-adv-x="560" 
d="M15 470h145l10 -5l110 -255l110 255l10 5h145l5 -5l-280 -580c-40 -70 -110 -125 -240 -125l-5 7v118l5 5c60 0 100 20 125 70l50 100l-195 405z" />
    <glyph glyph-name="z" unicode="z" horiz-adv-x="460" 
d="M35 470h400l5 -5l-195 -325h190l5 -5v-130l-5 -5h-420l-5 5l195 325h-171l-4 5v130z" />
    <glyph glyph-name="braceleft" unicode="{" horiz-adv-x="400" 
d="M360 715v-130l-5 -5c-50 0 -70 -43 -70 -80c0 -33 13 -67 13 -120c0 -50 -23 -108 -83 -150c60 -43 83 -100 83 -150c0 -53 -13 -87 -13 -120c0 -38 20 -80 70 -80l5 -5v-130l-5 -5c-110 0 -215 60 -215 220c0 33 10 67 10 120c0 45 -30 80 -105 80l-5 5v130l5 5
c75 0 105 35 105 80c0 53 -10 87 -10 120c0 160 105 220 215 220z" />
    <glyph glyph-name="bar" unicode="|" horiz-adv-x="260" 
d="M65 700h130l5 -5v-990l-5 -5h-130l-5 5v990z" />
    <glyph glyph-name="braceright" unicode="}" horiz-adv-x="400" 
d="M40 715l5 5c110 0 215 -60 215 -220c0 -33 -10 -67 -10 -120c0 -45 30 -80 105 -80l5 -5v-130l-5 -5c-75 0 -105 -35 -105 -80c0 -53 10 -87 10 -120c0 -160 -105 -220 -215 -220l-5 5v130l5 5c50 0 70 42 70 80c0 33 -13 67 -13 120c0 50 23 107 83 150
c-60 42 -83 100 -83 150c0 53 13 87 13 120c0 37 -20 80 -70 80l-5 5v130z" />
    <glyph glyph-name="asciitilde" unicode="~" horiz-adv-x="520" 
d="M467 427l5 -5c-22 -55 -67 -137 -147 -137c-68 0 -108 37 -218 37c-20 0 -40 -10 -55 -20l-5 5c23 55 68 138 148 138c67 0 107 -38 217 -38c20 0 40 10 55 20z" />
    <glyph glyph-name="uni00A0" unicode="&#xa0;" horiz-adv-x="300" 
 />
    <glyph glyph-name="exclamdown" unicode="&#xa1;" horiz-adv-x="260" 
d="M195 -240h-130l-5 5v115l20 365l5 5h90l5 -5l20 -365v-115zM135 325h-10l-80 80v10l80 80h10l80 -80v-10z" />
    <glyph glyph-name="cent" unicode="&#xa2;" horiz-adv-x="510" 
d="M245 700h110l5 -5v-95c41 -8 77 -24 105 -45v-135l-5 -5c-30 25 -65 40 -100 50v-220c35 10 70 25 100 50l5 -5v-135c-28 -21 -64 -38 -105 -45v-105l-5 -5h-110l-5 5v107c-119 27 -195 125 -195 243c0 117 76 216 195 242v98zM240 255v200c-35 -20 -55 -55 -55 -100
s20 -80 55 -100z" />
    <glyph glyph-name="sterling" unicode="&#xa3;" horiz-adv-x="628" 
d="M445 505h-10c-5 40 -30 65 -60 65c-45 0 -65 -45 -78 -185h148l5 -5l-50 -130l-5 -5h-110c-5 -50 -10 -75 -20 -105h350l5 -5l-75 -130l-10 -5h-510l-5 5c60 50 105 140 115 240h-80l-5 5l50 130l5 5h45c25 230 75 330 225 330c60 0 105 -25 140 -65z" />
    <glyph glyph-name="currency" unicode="&#xa4;" horiz-adv-x="520" 
d="M95 615h10l60 -62c28 12 58 19 90 19c34 0 67 -8 96 -22l64 65h10l85 -85v-10l-62 -63c16 -29 24 -62 24 -97s-8 -68 -24 -97l62 -63v-10l-85 -85h-10l-64 65c-29 -14 -62 -22 -96 -22c-32 0 -62 7 -90 19l-60 -62h-10l-85 85v10l55 56c-18 31 -28 66 -28 104
c0 37 10 73 28 103l-55 57v10zM255 447c-47 0 -86 -39 -86 -87s39 -87 86 -87s86 39 86 87s-39 87 -86 87z" />
    <glyph glyph-name="yen" unicode="&#xa5;" horiz-adv-x="560" 
d="M15 700h145l10 -5l110 -205l110 206l10 4h145l5 -5l-150 -250h105l5 -5v-130l-5 -5h-155v-60h155l5 -5v-130l-5 -5h-155v-100l-5 -5h-130l-5 5v100h-155l-5 5v130l5 5h155v60h-155l-5 5v130l5 5h105l-150 250z" />
    <glyph glyph-name="brokenbar" unicode="&#xa6;" horiz-adv-x="260" 
d="M65 700h130l5 -5v-430l-5 -5h-130l-5 5v430zM65 140h130l5 -5v-430l-5 -5h-130l-5 5v430z" />
    <glyph glyph-name="section" unicode="&#xa7;" horiz-adv-x="600" 
d="M410 535h-5c-30 25 -50 40 -90 40c-35 0 -40 -20 -40 -35c0 -70 280 -90 280 -310c0 -70 -45 -130 -95 -170v-15c0 -105 -80 -180 -200 -180c-85 0 -165 45 -200 125l110 80h5c30 -55 55 -65 85 -65s50 15 50 40c0 80 -265 85 -265 305c0 67 30 120 80 160v30
c0 110 90 175 190 175c80 0 130 -35 185 -95zM215 395c-10 -10 -20 -20 -20 -45c0 -80 110 -95 195 -165c10 10 15 20 15 45c0 80 -105 95 -190 165z" />
    <glyph glyph-name="dieresis" unicode="&#xa8;" 
d="M170 695h10l80 -80v-10l-80 -80h-10l-80 80v10zM400 695h10l80 -80v-10l-80 -80h-10l-80 80v10z" />
    <glyph glyph-name="copyright" unicode="&#xa9;" horiz-adv-x="800" 
d="M400 715c195 0 360 -155 360 -365s-165 -365 -360 -365s-360 155 -360 365s165 365 360 365zM400 595c-125 0 -230 -105 -230 -245s105 -245 230 -245s230 105 230 245s-105 245 -230 245zM510 395l-5 -5c-25 20 -55 30 -95 30c-35 0 -65 -30 -65 -65s30 -65 65 -65
c40 0 70 15 95 35l5 -7v-123c-20 -15 -55 -30 -100 -30c-108 0 -195 85 -195 190s87 190 195 190c45 0 80 -10 100 -25v-125z" />
    <glyph glyph-name="ordfeminine" unicode="&#xaa;" horiz-adv-x="400" 
d="M255 710h110l5 -5v-300l-5 -5h-110l-5 5v5c-15 -10 -35 -15 -60 -15c-80 0 -155 70 -155 160s75 160 155 160c25 0 45 -5 60 -15v5zM250 530v50c-15 20 -30 25 -50 25c-28 0 -50 -22 -50 -50s22 -50 50 -50c20 0 35 5 50 25zM50 365h315l5 -5v-110l-5 -5h-315l-5 5v110z
" />
    <glyph glyph-name="guillemotleft" unicode="&#xab;" horiz-adv-x="480" 
d="M225 435l5 -5v-150l-45 -45l45 -45v-150l-5 -5l-195 195v10zM425 435l5 -5v-150l-45 -45l45 -45v-150l-5 -5l-195 195v10z" />
    <glyph glyph-name="logicalnot" unicode="&#xac;" horiz-adv-x="520" 
d="M70 415h380l5 -5v-235l-5 -5h-130l-5 5v100h-245l-5 5v130z" />
    <glyph glyph-name="uni00AD" unicode="&#xad;" horiz-adv-x="400" 
d="M45 305h310l5 -5v-130l-5 -5h-310l-5 5v130z" />
    <glyph glyph-name="registered" unicode="&#xae;" horiz-adv-x="520" 
d="M260 730c121 0 220 -99 220 -220s-99 -220 -220 -220s-220 99 -220 220s99 220 220 220zM260 655c-78 0 -140 -64 -140 -145c0 -82 62 -145 140 -145c77 0 140 63 140 145c0 81 -63 145 -140 145zM185 625h70c40 0 90 -25 90 -85c0 -30 -10 -45 -35 -65l40 -70l-5 -5h-55
l-10 5l-30 60h-10v-60l-5 -5h-50l-5 5v215zM240 565v-50h15c15 0 25 10 25 25s-11 25 -25 25h-15z" />
    <glyph glyph-name="macron" unicode="&#xaf;" 
d="M125 670h330l5 -5v-110l-5 -5h-330l-5 5v110z" />
    <glyph glyph-name="degree" unicode="&#xb0;" horiz-adv-x="400" 
d="M200 725c90 0 165 -70 165 -160s-75 -160 -165 -160s-165 70 -165 160s75 160 165 160zM200 600c-20 0 -35 -15 -35 -35s15 -35 35 -35s35 15 35 35s-15 35 -35 35z" />
    <glyph glyph-name="plusminus" unicode="&#xb1;" horiz-adv-x="520" 
d="M195 580h130l5 -5v-120h120l5 -5v-130l-5 -5h-120v-120l-5 -5h-130l-5 5v120h-120l-5 5v130l5 5h120v120zM70 140h380l5 -5v-130l-5 -5h-380l-5 5v130z" />
    <glyph glyph-name="twosuperior" unicode="&#xb2;" horiz-adv-x="330" 
d="M40 705v135c25 20 55 35 105 35c70 0 145 -60 145 -150c0 -40 -20 -85 -48 -135l-17 -30h60l5 -5v-110l-5 -5h-260l-5 5l117 190c23 40 28 60 28 80s-15 40 -40 40c-40 0 -60 -20 -80 -55z" />
    <glyph glyph-name="threesuperior" unicode="&#xb3;" horiz-adv-x="340" 
d="M35 860h275l5 -5l-80 -150c45 -25 80 -65 80 -130c0 -85 -75 -150 -155 -150c-48 0 -102 20 -135 65l75 85h5c19 -24 35 -30 55 -30s35 15 35 40s-15 40 -45 40c-20 0 -45 -5 -60 -10l-5 5l60 120h-110l-5 5v110z" />
    <glyph glyph-name="acute" unicode="&#xb4;" 
d="M320 690h156l4 -5l-160 -145l-10 -5h-130l-5 5l135 145z" />
    <glyph glyph-name="mu" unicode="&#xb5;" horiz-adv-x="610" 
d="M65 470h130l5 -5v-235c0 -80 40 -110 100 -110c40 0 82 19 110 50v184v111l5 5h130l5 -5v-115c0 -156 5 -261 25 -345l-5 -5h-130l-5 5l-5 30c-45 -35 -100 -50 -145 -50c-30 0 -50 0 -85 10v-220l-5 -5h-130l-5 5v690z" />
    <glyph glyph-name="paragraph" unicode="&#xb6;" horiz-adv-x="740" 
d="M655 700l5 -5v-690l-5 -5h-130l-5 5v555h-120v-555l-5 -5h-130l-5 5v245c-140 5 -220 110 -220 225c0 120 80 225 240 225h375z" />
    <glyph glyph-name="periodcentered" unicode="&#xb7;" horiz-adv-x="260" 
d="M65 460h130l5 -5v-130l-5 -5h-130l-5 5v130z" />
    <glyph glyph-name="cedilla" unicode="&#xb8;" 
d="M235 0h105l-10 -40c30 -15 55 -45 55 -90c0 -70 -65 -115 -135 -115c-35 0 -73 15 -95 50l50 60h5c22 -15 32 -15 40 -15c15 0 25 7 25 20c0 12 -15 38 -70 20l-5 5z" />
    <glyph glyph-name="onesuperior" unicode="&#xb9;" horiz-adv-x="240" 
d="M175 865l5 -5v-415l-5 -5h-110l-5 5v315l5 10z" />
    <glyph glyph-name="ordmasculine" unicode="&#xba;" horiz-adv-x="400" 
d="M200 715c90 0 165 -70 165 -160s-75 -160 -165 -160s-165 70 -165 160s75 160 165 160zM200 605c-25 0 -50 -20 -50 -50s25 -50 50 -50s50 20 50 50s-25 50 -50 50zM50 365h310l5 -5v-110l-5 -5h-310l-5 5v110z" />
    <glyph glyph-name="guillemotright" unicode="&#xbb;" horiz-adv-x="480" 
d="M50 430l5 5l195 -195v-10l-195 -195l-5 5v150l45 45l-45 45v150zM250 430l5 5l195 -195v-10l-195 -195l-5 5v150l45 45l-45 45v150z" />
    <glyph glyph-name="onequarter" unicode="&#xbc;" horiz-adv-x="800" 
d="M175 705l5 -5v-415l-5 -5h-110l-5 5v315l5 10zM505 700h145l5 -5l-391 -690l-10 -5h-144l-5 5l390 690zM715 450l5 -5v-280h55l5 -5v-90l-5 -5h-55v-60l-5 -5h-90l-5 5v60h-215l-5 5zM620 240l-60 -75h60v75z" />
    <glyph glyph-name="onehalf" unicode="&#xbd;" horiz-adv-x="800" 
d="M175 705l5 -5v-415l-5 -5h-110l-5 5v315l5 10zM485 700h145l5 -5l-391 -690l-10 -5h-144l-5 5l390 690zM520 265v135c25 20 55 35 105 35c70 0 145 -60 145 -150c0 -40 -20 -85 -48 -135l-17 -30h60l5 -5v-110l-5 -5h-260l-5 5l117 190c23 40 28 60 28 80s-15 40 -40 40
c-40 0 -60 -20 -80 -55z" />
    <glyph glyph-name="threequarters" unicode="&#xbe;" horiz-adv-x="800" 
d="M35 700h275l5 -5l-80 -150c45 -25 80 -65 80 -130c0 -85 -75 -150 -155 -150c-48 0 -102 20 -135 65l75 85h5c19 -24 35 -30 55 -30s35 15 35 40s-15 40 -45 40c-20 0 -45 -5 -60 -10l-5 5l60 120h-110l-5 5v110zM545 700h145l5 -5l-391 -690l-10 -5h-144l-5 5l390 690z
M715 450l5 -5v-280h55l5 -5v-90l-5 -5h-55v-60l-5 -5h-90l-5 5v60h-215l-5 5zM620 240l-60 -75h60v75z" />
    <glyph glyph-name="questiondown" unicode="&#xbf;" horiz-adv-x="460" 
d="M340 -65l85 -65c-35 -75 -100 -125 -175 -125c-130 0 -215 75 -215 180c0 150 135 200 135 255c0 20 -5 30 -22 43l85 87c32 -20 87 -65 87 -130c0 -115 -130 -130 -130 -235c0 -35 20 -60 60 -60c35 0 60 15 80 50h10zM235 325h-10l-80 80v10l80 80h10l80 -80v-10z" />
    <glyph glyph-name="Agrave" unicode="&#xc0;" horiz-adv-x="700" 
d="M280 700h140l5 -5l265 -690l-5 -5h-155l-5 5l-50 140h-250l-50 -140l-5 -5h-155l-5 5l265 690zM350 520l-80 -235h160zM154 905h166l10 -5l135 -125l-5 -5h-140l-10 5l-160 125z" />
    <glyph glyph-name="Aacute" unicode="&#xc1;" horiz-adv-x="700" 
d="M280 700h140l5 -5l265 -690l-5 -5h-155l-5 5l-50 140h-250l-50 -140l-5 -5h-155l-5 5l265 690zM350 520l-80 -235h160zM380 905h166l4 -5l-160 -125l-10 -5h-140l-5 5l135 125z" />
    <glyph glyph-name="Acircumflex" unicode="&#xc2;" horiz-adv-x="700" 
d="M280 700h140l5 -5l265 -690l-5 -5h-155l-5 5l-50 140h-250l-50 -140l-5 -5h-155l-5 5l265 690zM350 520l-80 -235h160zM280 905h140l10 -5l120 -125l-5 -5h-140l-10 5l-45 55l-45 -55l-10 -5h-140l-5 5l120 123z" />
    <glyph glyph-name="Atilde" unicode="&#xc3;" horiz-adv-x="700" 
d="M280 700h140l5 -5l265 -690l-5 -5h-155l-5 5l-50 140h-250l-50 -140l-5 -5h-155l-5 5l265 690zM350 520l-80 -235h160zM565 906l5 -5c-20 -75 -70 -135 -145 -135c-70 0 -145 40 -210 40c-25 0 -60 -10 -80 -40l-5 5c20 75 70 135 145 135c70 0 145 -40 210 -40
c25 0 60 10 80 40z" />
    <glyph glyph-name="Adieresis" unicode="&#xc4;" horiz-adv-x="700" 
d="M280 700h140l5 -5l265 -690l-5 -5h-155l-5 5l-50 140h-250l-50 -140l-5 -5h-155l-5 5l265 690zM350 520l-80 -235h160zM210 930h10l85 -85v-10l-85 -85h-10l-85 85v10zM480 930h10l85 -85v-10l-85 -85h-10l-85 85v10z" />
    <glyph glyph-name="Aring" unicode="&#xc5;" horiz-adv-x="700" 
d="M280 700h140l5 -5l265 -690l-5 -5h-155l-5 5l-50 140h-250l-50 -140l-5 -5h-155l-5 5l265 690zM350 520l-80 -235h160zM350 920c50 0 95 -40 95 -90s-45 -90 -95 -90s-95 40 -95 90s45 90 95 90zM350 855c-15 0 -25 -10 -25 -25s10 -25 25 -25s25 10 25 25s-10 25 -25 25
z" />
    <glyph glyph-name="AE" unicode="&#xc6;" horiz-adv-x="1060" 
d="M540 700h475l5 -5v-130l-5 -5h-335v-130h245l5 -5v-130l-5 -5h-245v-150h345l5 -5v-130l-5 -5h-480l-5 5v140h-250l-100 -140l-10 -5h-165l-5 5l520 690zM540 490l-150 -205h150v205z" />
    <glyph glyph-name="Ccedilla" unicode="&#xc7;" horiz-adv-x="710" 
d="M650 495l-5 -5c-65 55 -140 80 -235 80c-120 0 -215 -100 -215 -220s95 -220 215 -220c95 0 170 25 235 80l5 -5v-155c-65 -47 -145 -65 -240 -65c-204 0 -370 164 -370 365s166 365 370 365c95 0 175 -18 240 -65v-155zM357 -60h128l5 -5l-53 -165l-5 -5h-100l-5 5
l20 165z" />
    <glyph glyph-name="Egrave" unicode="&#xc8;" 
d="M65 700h470l5 -5v-130l-5 -5h-335v-125h245l5 -5v-130l-5 -5h-245v-155h345l5 -5v-130l-5 -5h-480l-5 5v690zM114 905h166l10 -5l135 -125l-5 -5h-140l-10 5l-160 125z" />
    <glyph glyph-name="Eacute" unicode="&#xc9;" 
d="M65 700h470l5 -5v-130l-5 -5h-335v-125h245l5 -5v-130l-5 -5h-245v-155h345l5 -5v-130l-5 -5h-480l-5 5v690zM340 905h166l4 -5l-160 -125l-10 -5h-140l-5 5l135 125z" />
    <glyph glyph-name="Ecircumflex" unicode="&#xca;" 
d="M65 700h470l5 -5v-130l-5 -5h-335v-125h245l5 -5v-130l-5 -5h-245v-155h345l5 -5v-130l-5 -5h-480l-5 5v690zM240 905h140l10 -5l120 -125l-5 -5h-140l-10 5l-45 55l-45 -55l-10 -5h-140l-5 5l120 123z" />
    <glyph glyph-name="Edieresis" unicode="&#xcb;" 
d="M65 700h470l5 -5v-130l-5 -5h-335v-125h245l5 -5v-130l-5 -5h-245v-155h345l5 -5v-130l-5 -5h-480l-5 5v690zM170 930h10l85 -85v-10l-85 -85h-10l-85 85v10zM440 930h10l85 -85v-10l-85 -85h-10l-85 85v10z" />
    <glyph glyph-name="Igrave" unicode="&#xcc;" horiz-adv-x="260" 
d="M65 700h130l5 -5v-690l-5 -5h-130l-5 5v690zM-51 905h176l10 -5l110 -125l-5 -5h-145l-10 5l-140 125z" />
    <glyph glyph-name="Iacute" unicode="&#xcd;" horiz-adv-x="260" 
d="M65 700h130l5 -5v-690l-5 -5h-130l-5 5v690zM135 905h176l4 -5l-140 -125l-10 -5h-145l-5 5l110 125z" />
    <glyph glyph-name="Icircumflex" unicode="&#xce;" horiz-adv-x="260" 
d="M65 700h130l5 -5v-690l-5 -5h-130l-5 5v690zM57 905h145l10 -5l100 -125l-5 -5h-135l-10 5l-32 37l-33 -37l-10 -5h-135l-5 5l100 125z" />
    <glyph glyph-name="Idieresis" unicode="&#xcf;" horiz-adv-x="260" 
d="M65 700h130l5 -5v-690l-5 -5h-130l-5 5v690zM20 930h10l85 -85v-10l-85 -85h-10l-85 85v10zM230 930h10l85 -85v-10l-85 -85h-10l-85 85v10z" />
    <glyph glyph-name="Eth" unicode="&#xd0;" horiz-adv-x="710" 
d="M65 700h235c215 0 370 -157 370 -350s-155 -350 -370 -350h-235l-5 5v280h-55l-5 5v130l5 5h55v270zM200 560v-135h155l5 -5v-130l-5 -5h-155v-145h100c130 0 220 85 220 210s-90 210 -220 210h-100z" />
    <glyph glyph-name="Ntilde" unicode="&#xd1;" horiz-adv-x="760" 
d="M65 700h135l10 -5l350 -455v455l5 5h130l5 -5v-690l-5 -5h-135l-10 5l-350 455v-455l-5 -5h-130l-5 5v690zM605 906l5 -5c-20 -75 -70 -135 -145 -135c-70 0 -145 40 -210 40c-25 0 -60 -10 -80 -40l-5 5c20 75 70 135 145 135c70 0 145 -40 210 -40c25 0 60 10 80 40z
" />
    <glyph glyph-name="Ograve" unicode="&#xd2;" horiz-adv-x="820" 
d="M410 715c205 0 370 -160 370 -365s-165 -365 -370 -365s-370 160 -370 365s165 365 370 365zM410 570c-120 0 -215 -95 -215 -220s95 -220 215 -220s215 95 215 220s-95 220 -215 220zM214 905h166l10 -5l135 -125l-5 -5h-140l-10 5l-160 125z" />
    <glyph glyph-name="Oacute" unicode="&#xd3;" horiz-adv-x="820" 
d="M410 715c205 0 370 -160 370 -365s-165 -365 -370 -365s-370 160 -370 365s165 365 370 365zM410 570c-120 0 -215 -95 -215 -220s95 -220 215 -220s215 95 215 220s-95 220 -215 220zM440 905h166l4 -5l-160 -125l-10 -5h-140l-5 5l135 125z" />
    <glyph glyph-name="Ocircumflex" unicode="&#xd4;" horiz-adv-x="820" 
d="M410 715c205 0 370 -160 370 -365s-165 -365 -370 -365s-370 160 -370 365s165 365 370 365zM410 570c-120 0 -215 -95 -215 -220s95 -220 215 -220s215 95 215 220s-95 220 -215 220zM340 905h140l10 -5l120 -125l-5 -5h-140l-10 5l-45 55l-45 -55l-10 -5h-140l-5 5
l120 123z" />
    <glyph glyph-name="Otilde" unicode="&#xd5;" horiz-adv-x="820" 
d="M410 715c205 0 370 -160 370 -365s-165 -365 -370 -365s-370 160 -370 365s165 365 370 365zM410 570c-120 0 -215 -95 -215 -220s95 -220 215 -220s215 95 215 220s-95 220 -215 220zM625 906l5 -5c-20 -75 -70 -135 -145 -135c-70 0 -145 40 -210 40
c-25 0 -60 -10 -80 -40l-5 5c20 75 70 135 145 135c70 0 145 -40 210 -40c25 0 60 10 80 40z" />
    <glyph glyph-name="Odieresis" unicode="&#xd6;" horiz-adv-x="820" 
d="M410 715c205 0 370 -160 370 -365s-165 -365 -370 -365s-370 160 -370 365s165 365 370 365zM410 570c-120 0 -215 -95 -215 -220s95 -220 215 -220s215 95 215 220s-95 220 -215 220zM270 930h10l85 -85v-10l-85 -85h-10l-85 85v10zM540 930h10l85 -85v-10l-85 -85h-10
l-85 85v10z" />
    <glyph glyph-name="multiply" unicode="&#xd7;" horiz-adv-x="520" 
d="M150 565h10l100 -105l100 105h10l90 -90v-10l-105 -100l105 -100v-10l-90 -90h-10l-100 105l-100 -105h-10l-90 90v10l105 100l-105 100v10z" />
    <glyph glyph-name="Oslash" unicode="&#xd8;" horiz-adv-x="820" 
d="M410 715c75 0 145 -22 204 -60l96 95h5l95 -95v-5l-94 -94c40 -58 64 -129 64 -206c0 -205 -165 -365 -370 -365c-76 0 -147 22 -205 60l-90 -90h-5l-100 100v5l90 89c-38 57 -60 126 -60 201c0 205 165 365 370 365zM213 260l292 288c-28 14 -61 22 -95 22
c-120 0 -215 -95 -215 -220c0 -33 6 -63 18 -90zM605 445l-292 -292c29 -15 62 -23 97 -23c120 0 215 95 215 220c0 34 -7 66 -20 95z" />
    <glyph glyph-name="Ugrave" unicode="&#xd9;" horiz-adv-x="740" 
d="M65 700h130l5 -5v-365c0 -135 75 -200 170 -200s170 65 170 200v365l5 5h130l5 -5v-385c0 -205 -140 -325 -310 -325s-310 120 -310 325v385zM174 905h166l10 -5l135 -125l-5 -5h-140l-10 5l-160 125z" />
    <glyph glyph-name="Uacute" unicode="&#xda;" horiz-adv-x="740" 
d="M65 700h130l5 -5v-365c0 -135 75 -200 170 -200s170 65 170 200v365l5 5h130l5 -5v-385c0 -205 -140 -325 -310 -325s-310 120 -310 325v385zM400 905h166l4 -5l-160 -125l-10 -5h-140l-5 5l135 125z" />
    <glyph glyph-name="Ucircumflex" unicode="&#xdb;" horiz-adv-x="740" 
d="M65 700h130l5 -5v-365c0 -135 75 -200 170 -200s170 65 170 200v365l5 5h130l5 -5v-385c0 -205 -140 -325 -310 -325s-310 120 -310 325v385zM300 905h140l10 -5l120 -125l-5 -5h-140l-10 5l-45 55l-45 -55l-10 -5h-140l-5 5l120 123z" />
    <glyph glyph-name="Udieresis" unicode="&#xdc;" horiz-adv-x="740" 
d="M65 700h130l5 -5v-365c0 -135 75 -200 170 -200s170 65 170 200v365l5 5h130l5 -5v-385c0 -205 -140 -325 -310 -325s-310 120 -310 325v385zM230 930h10l85 -85v-10l-85 -85h-10l-85 85v10zM500 930h10l85 -85v-10l-85 -85h-10l-85 85v10z" />
    <glyph glyph-name="Yacute" unicode="&#xdd;" horiz-adv-x="640" 
d="M15 700h140l5 -5l160 -235l160 235l5 5h140l5 -5l-240 -380v-310l-5 -5h-130l-5 5v310l-240 380zM350 905h166l4 -5l-160 -125l-10 -5h-140l-5 5l135 125z" />
    <glyph glyph-name="Thorn" unicode="&#xde;" horiz-adv-x="560" 
d="M65 700h130l5 -5v-115h90c160 0 240 -105 240 -225s-80 -225 -240 -225h-90v-125l-5 -5h-130l-5 5v690zM200 440v-170h80c65 0 100 25 100 85s-35 85 -100 85h-80z" />
    <glyph glyph-name="germandbls" unicode="&#xdf;" horiz-adv-x="620" 
d="M65 0l-5 5v475c0 145 90 235 210 235c125 0 200 -70 200 -165c0 -100 -55 -130 -55 -185c0 -65 165 -60 165 -220c0 -85 -75 -160 -195 -160c-50 0 -95 10 -140 35v140l5 5c55 -35 90 -50 135 -50c35 0 50 15 50 30c0 65 -165 75 -165 210c0 85 55 125 55 175
c0 35 -25 52 -55 52c-40 0 -70 -27 -70 -107v-470l-5 -5h-130z" />
    <glyph glyph-name="agrave" unicode="&#xe0;" horiz-adv-x="510" 
d="M55 310l55 145c30 15 70 30 125 30c110 0 225 -65 225 -200v-280l-5 -5h-130l-5 5v15c-40 -25 -74 -35 -115 -35c-75 0 -165 40 -165 145c0 120 125 170 280 175c0 25 -35 60 -90 60s-110 -20 -170 -60zM320 135v75c-105 -5 -140 -30 -140 -65c0 -25 25 -40 45 -40
c35 0 60 10 95 30zM64 690h156l10 -5l135 -145l-5 -5h-130l-10 5l-160 145z" />
    <glyph glyph-name="aacute" unicode="&#xe1;" horiz-adv-x="510" 
d="M55 310l55 145c30 15 70 30 125 30c110 0 225 -65 225 -200v-280l-5 -5h-130l-5 5v15c-40 -25 -74 -35 -115 -35c-75 0 -165 40 -165 145c0 120 125 170 280 175c0 25 -35 60 -90 60s-110 -20 -170 -60zM320 135v75c-105 -5 -140 -30 -140 -65c0 -25 25 -40 45 -40
c35 0 60 10 95 30zM280 690h156l4 -5l-160 -145l-10 -5h-130l-5 5l135 145z" />
    <glyph glyph-name="acircumflex" unicode="&#xe2;" horiz-adv-x="510" 
d="M55 310l55 145c30 15 70 30 125 30c110 0 225 -65 225 -200v-280l-5 -5h-130l-5 5v15c-40 -25 -74 -35 -115 -35c-75 0 -165 40 -165 145c0 120 125 170 280 175c0 25 -35 60 -90 60s-110 -20 -170 -60zM320 135v75c-105 -5 -140 -30 -140 -65c0 -25 25 -40 45 -40
c35 0 60 10 95 30zM190 690h120l10 -5l130 -145l-5 -5h-135l-10 5l-50 65l-50 -65l-10 -5h-135l-5 5l130 145z" />
    <glyph glyph-name="atilde" unicode="&#xe3;" horiz-adv-x="510" 
d="M55 310l55 145c30 15 70 30 125 30c110 0 225 -65 225 -200v-280l-5 -5h-130l-5 5v15c-40 -25 -74 -35 -115 -35c-75 0 -165 40 -165 145c0 120 125 170 280 175c0 25 -35 60 -90 60s-110 -20 -170 -60zM320 135v75c-105 -5 -140 -30 -140 -65c0 -25 25 -40 45 -40
c35 0 60 10 95 30zM445 680l5 -5c-20 -75 -70 -135 -135 -135c-70 0 -125 40 -190 40c-25 0 -50 -10 -70 -40l-5 5c20 75 70 135 135 135c70 0 125 -40 190 -40c25 0 50 10 70 40z" />
    <glyph glyph-name="adieresis" unicode="&#xe4;" horiz-adv-x="510" 
d="M55 310l55 145c30 15 70 30 125 30c110 0 225 -65 225 -200v-280l-5 -5h-130l-5 5v15c-40 -25 -74 -35 -115 -35c-75 0 -165 40 -165 145c0 120 125 170 280 175c0 25 -35 60 -90 60s-110 -20 -170 -60zM320 135v75c-105 -5 -140 -30 -140 -65c0 -25 25 -40 45 -40
c35 0 60 10 95 30zM130 695h10l80 -80v-10l-80 -80h-10l-80 80v10zM360 695h10l80 -80v-10l-80 -80h-10l-80 80v10z" />
    <glyph glyph-name="aring" unicode="&#xe5;" horiz-adv-x="510" 
d="M55 310l55 145c30 15 70 30 125 30c110 0 225 -65 225 -200v-280l-5 -5h-130l-5 5v15c-40 -25 -74 -35 -115 -35c-75 0 -165 40 -165 145c0 120 125 170 280 175c0 25 -35 60 -90 60s-110 -20 -170 -60zM320 135v75c-105 -5 -140 -30 -140 -65c0 -25 25 -40 45 -40
c35 0 60 10 95 30zM250 725c65 0 120 -50 120 -115s-55 -115 -120 -115s-120 50 -120 115s55 115 120 115zM250 645c-20 0 -35 -15 -35 -35s15 -35 35 -35s35 15 35 35s-15 35 -35 35z" />
    <glyph glyph-name="ae" unicode="&#xe6;" horiz-adv-x="830" 
d="M55 310l55 145c30 15 70 30 125 30c60 0 125 -20 165 -60c40 40 95 60 165 60c145 0 225 -110 225 -245c0 -10 0 -20 -5 -35l-5 -5h-318c13 -70 68 -95 133 -95c55 0 115 15 175 60l5 -5v-125c-45 -30 -115 -50 -180 -50s-140 15 -205 75c-35 -35 -100 -75 -175 -75
c-85 0 -175 40 -175 150c0 115 125 160 280 170c0 25 -35 60 -90 60s-110 -20 -170 -60zM320 175v35c-105 -5 -150 -30 -150 -65c0 -25 25 -40 55 -40c55 0 95 30 95 70zM466 300h184c-5 35 -40 65 -85 65c-60 0 -85 -30 -99 -65z" />
    <glyph glyph-name="ccedilla" unicode="&#xe7;" horiz-adv-x="500" 
d="M460 300l-5 -5c-50 40 -110 55 -155 55c-75 0 -120 -50 -120 -115s45 -115 120 -115c45 0 105 15 155 55l5 -5v-135c-40 -30 -95 -50 -160 -50c-155 0 -260 112 -260 250s105 250 260 250c65 0 120 -20 160 -50v-135zM247 -60h128l5 -5l-53 -165l-5 -5h-100l-5 5l20 165z
" />
    <glyph glyph-name="egrave" unicode="&#xe8;" horiz-adv-x="550" 
d="M495 160v-125c-45 -30 -115 -50 -180 -50c-165 0 -275 110 -275 255c0 135 95 245 245 245c145 0 225 -120 225 -215c0 -30 0 -45 -5 -65l-5 -5h-320c15 -70 70 -95 135 -95c55 0 115 15 175 60zM185 300h185c-5 35 -40 65 -85 65c-60 0 -85 -30 -100 -65zM94 690h156
l10 -5l135 -145l-5 -5h-130l-10 5l-160 145z" />
    <glyph glyph-name="eacute" unicode="&#xe9;" horiz-adv-x="550" 
d="M495 160v-125c-45 -30 -115 -50 -180 -50c-165 0 -275 110 -275 255c0 135 95 245 245 245c145 0 225 -120 225 -215c0 -30 0 -45 -5 -65l-5 -5h-320c15 -70 70 -95 135 -95c55 0 115 15 175 60zM185 300h185c-5 35 -40 65 -85 65c-60 0 -85 -30 -100 -65zM310 690h156
l4 -5l-160 -145l-10 -5h-130l-5 5l135 145z" />
    <glyph glyph-name="ecircumflex" unicode="&#xea;" horiz-adv-x="550" 
d="M495 160v-125c-45 -30 -115 -50 -180 -50c-165 0 -275 110 -275 255c0 135 95 245 245 245c145 0 225 -120 225 -215c0 -30 0 -45 -5 -65l-5 -5h-320c15 -70 70 -95 135 -95c55 0 115 15 175 60zM185 300h185c-5 35 -40 65 -85 65c-60 0 -85 -30 -100 -65zM220 690h120
l10 -5l130 -145l-5 -5h-135l-10 5l-50 65l-50 -65l-10 -5h-135l-5 5l130 145z" />
    <glyph glyph-name="edieresis" unicode="&#xeb;" horiz-adv-x="550" 
d="M495 160v-125c-45 -30 -115 -50 -180 -50c-165 0 -275 110 -275 255c0 135 95 245 245 245c145 0 225 -120 225 -215c0 -30 0 -45 -5 -65l-5 -5h-320c15 -70 70 -95 135 -95c55 0 115 15 175 60zM185 300h185c-5 35 -40 65 -85 65c-60 0 -85 -30 -100 -65zM160 695h10
l80 -80v-10l-80 -80h-10l-80 80v10zM390 695h10l80 -80v-10l-80 -80h-10l-80 80v10z" />
    <glyph glyph-name="igrave" unicode="&#xec;" horiz-adv-x="260" 
d="M65 470h130l5 -5v-460l-5 -5h-130l-5 5v460zM-36 690h151l10 -5l100 -145l-5 -5h-130l-10 5l-120 145z" />
    <glyph glyph-name="iacute" unicode="&#xed;" horiz-adv-x="260" 
d="M65 470h130l5 -5v-460l-5 -5h-130l-5 5v460zM145 690h151l4 -5l-120 -145l-10 -5h-130l-5 5l100 145z" />
    <glyph glyph-name="icircumflex" unicode="&#xee;" horiz-adv-x="260" 
d="M65 470h130l5 -5v-460l-5 -5h-130l-5 5v460zM72 690h115l10 -5l113 -145l-5 -5h-135l-10 5l-30 40l-30 -40l-10 -5h-135l-5 5l112 145z" />
    <glyph glyph-name="idieresis" unicode="&#xef;" horiz-adv-x="260" 
d="M25 695h10l80 -80v-10l-80 -80h-10l-80 80v10zM225 695h10l80 -80v-10l-80 -80h-10l-80 80v10zM65 470h130l5 -5v-460l-5 -5h-130l-5 5v460z" />
    <glyph glyph-name="eth" unicode="&#xf0;" 
d="M144 700h176c20 -15 35 -30 50 -40l135 50l5 -5v-113l-5 -10l-50 -17c55 -85 85 -190 85 -290c0 -205 -135 -290 -255 -290c-135 0 -245 108 -245 240s110 240 245 240c15 0 36 0 75 -10c-10 25 -20 45 -40 67l-145 -55l-5 5v113l5 10l55 20c-27 27 -56 55 -91 80z
M395 280c-30 35 -66 50 -110 50c-60 0 -100 -45 -100 -105s40 -105 100 -105c50 0 110 45 110 160z" />
    <glyph glyph-name="ntilde" unicode="&#xf1;" horiz-adv-x="600" 
d="M65 470h130l5 -5v-15c35 20 80 35 125 35c150 0 225 -85 225 -220v-260l-5 -5h-130l-5 5v235c0 80 -40 110 -100 110c-40 0 -82 -19 -110 -50v-295l-5 -5h-130l-5 5v460zM505 680l5 -5c-20 -75 -70 -135 -135 -135c-70 0 -125 40 -190 40c-25 0 -50 -10 -70 -40l-5 5
c20 75 70 135 135 135c70 0 125 -40 190 -40c25 0 50 10 70 40z" />
    <glyph glyph-name="ograve" unicode="&#xf2;" 
d="M290 485c140 0 250 -110 250 -250s-110 -250 -250 -250s-250 110 -250 250s110 250 250 250zM290 350c-65 0 -110 -50 -110 -115s45 -115 110 -115s110 50 110 115s-45 115 -110 115zM104 690h156l10 -5l135 -145l-5 -5h-130l-10 5l-160 145z" />
    <glyph glyph-name="oacute" unicode="&#xf3;" 
d="M290 485c140 0 250 -110 250 -250s-110 -250 -250 -250s-250 110 -250 250s110 250 250 250zM290 350c-65 0 -110 -50 -110 -115s45 -115 110 -115s110 50 110 115s-45 115 -110 115zM320 690h156l4 -5l-160 -145l-10 -5h-130l-5 5l135 145z" />
    <glyph glyph-name="ocircumflex" unicode="&#xf4;" 
d="M290 485c140 0 250 -110 250 -250s-110 -250 -250 -250s-250 110 -250 250s110 250 250 250zM290 350c-65 0 -110 -50 -110 -115s45 -115 110 -115s110 50 110 115s-45 115 -110 115zM230 690h120l10 -5l130 -145l-5 -5h-135l-10 5l-50 65l-50 -65l-10 -5h-135l-5 5
l130 145z" />
    <glyph glyph-name="otilde" unicode="&#xf5;" 
d="M290 485c140 0 250 -110 250 -250s-110 -250 -250 -250s-250 110 -250 250s110 250 250 250zM290 350c-65 0 -110 -50 -110 -115s45 -115 110 -115s110 50 110 115s-45 115 -110 115zM485 680l5 -5c-20 -75 -70 -135 -135 -135c-70 0 -125 40 -190 40
c-25 0 -50 -10 -70 -40l-5 5c20 75 70 135 135 135c70 0 125 -40 190 -40c25 0 50 10 70 40z" />
    <glyph glyph-name="odieresis" unicode="&#xf6;" 
d="M290 485c140 0 250 -110 250 -250s-110 -250 -250 -250s-250 110 -250 250s110 250 250 250zM290 350c-65 0 -110 -50 -110 -115s45 -115 110 -115s110 50 110 115s-45 115 -110 115zM170 695h10l80 -80v-10l-80 -80h-10l-80 80v10zM400 695h10l80 -80v-10l-80 -80h-10
l-80 80v10z" />
    <glyph glyph-name="divide" unicode="&#xf7;" horiz-adv-x="520" 
d="M255 600h10l75 -75v-10l-75 -75h-10l-75 75v10zM70 425h380l5 -5v-110l-5 -5h-380l-5 5v110zM255 290h10l75 -75v-10l-75 -75h-10l-75 75v10z" />
    <glyph glyph-name="oslash" unicode="&#xf8;" 
d="M465 520h10l100 -100v-10l-62 -62c17 -34 27 -73 27 -113c0 -138 -112 -250 -250 -250c-41 0 -79 10 -113 27l-62 -62h-10l-100 100v10l62 62c-17 34 -27 72 -27 113c0 138 112 250 250 250c40 0 79 -10 113 -27zM290 350c-65 0 -110 -50 -110 -115s45 -115 110 -115
s110 50 110 115s-45 115 -110 115z" />
    <glyph glyph-name="ugrave" unicode="&#xf9;" horiz-adv-x="600" 
d="M55 470h130l5 -5v-235c0 -80 40 -110 100 -110c40 0 82 19 110 50v295l5 5h130l5 -5v-460l-5 -5h-130l-5 5v15c-35 -20 -80 -35 -125 -35c-150 0 -225 85 -225 220v260zM114 690h156l10 -5l135 -145l-5 -5h-130l-10 5l-160 145z" />
    <glyph glyph-name="uacute" unicode="&#xfa;" horiz-adv-x="600" 
d="M55 470h130l5 -5v-235c0 -80 40 -110 100 -110c40 0 82 19 110 50v295l5 5h130l5 -5v-460l-5 -5h-130l-5 5v15c-35 -20 -80 -35 -125 -35c-150 0 -225 85 -225 220v260zM330 690h156l4 -5l-160 -145l-10 -5h-130l-5 5l135 145z" />
    <glyph glyph-name="ucircumflex" unicode="&#xfb;" horiz-adv-x="600" 
d="M55 470h130l5 -5v-235c0 -80 40 -110 100 -110c40 0 82 19 110 50v295l5 5h130l5 -5v-460l-5 -5h-130l-5 5v15c-35 -20 -80 -35 -125 -35c-150 0 -225 85 -225 220v260zM240 690h120l10 -5l130 -145l-5 -5h-135l-10 5l-50 65l-50 -65l-10 -5h-135l-5 5l130 145z" />
    <glyph glyph-name="udieresis" unicode="&#xfc;" horiz-adv-x="600" 
d="M55 470h130l5 -5v-235c0 -80 40 -110 100 -110c40 0 82 19 110 50v295l5 5h130l5 -5v-460l-5 -5h-130l-5 5v15c-35 -20 -80 -35 -125 -35c-150 0 -225 85 -225 220v260zM180 695h10l80 -80v-10l-80 -80h-10l-80 80v10zM410 695h10l80 -80v-10l-80 -80h-10l-80 80v10z" />
    <glyph glyph-name="yacute" unicode="&#xfd;" horiz-adv-x="560" 
d="M15 470h145l10 -5l110 -255l110 255l10 5h145l5 -5l-280 -580c-40 -70 -110 -125 -240 -125l-5 7v118l5 5c60 0 100 20 125 70l50 100l-195 405zM310 690h156l4 -5l-160 -145l-10 -5h-130l-5 5l135 145z" />
    <glyph glyph-name="thorn" unicode="&#xfe;" horiz-adv-x="600" 
d="M65 700h130l5 -5v-245c32 20 75 35 120 35c138 0 240 -112 240 -250s-102 -250 -240 -250c-45 0 -88 15 -120 35v-245l-5 -5h-130l-5 5v920zM200 290v-110c30 -45 70 -60 110 -60c61 0 110 52 110 115s-49 115 -110 115c-40 0 -80 -20 -110 -60z" />
    <glyph glyph-name="ydieresis" unicode="&#xff;" horiz-adv-x="560" 
d="M15 470h145l10 -5l110 -255l110 255l10 5h145l5 -5l-280 -580c-40 -70 -110 -125 -240 -125l-5 7v118l5 5c60 0 100 20 125 70l50 100l-195 405zM160 695h10l80 -80v-10l-80 -80h-10l-80 80v10zM390 695h10l80 -80v-10l-80 -80h-10l-80 80v10z" />
    <glyph glyph-name="dotlessi" unicode="&#x131;" horiz-adv-x="260" 
d="M65 470h130l5 -5v-460l-5 -5h-130l-5 5v460z" />
    <glyph glyph-name="Lslash" unicode="&#x141;" horiz-adv-x="500" 
d="M64 700h132l4 -4v-266l175 90l5 -5v-130l-5 -10l-175 -90v-145h266l4 -5v-131l-4 -4h-402l-4 4v206l-75 -40l-5 5v130l5 10l75 40v341z" />
    <glyph glyph-name="lslash" unicode="&#x142;" horiz-adv-x="380" 
d="M75 700h130l5 -5v-235l122 70l5 -5v-123l-5 -10l-122 -72v-130c0 -45 25 -70 60 -70s65 10 95 40l5 -5v-140c-25 -15 -70 -30 -105 -30c-130 0 -195 80 -195 195v70l-80 -46l-5 5v123l5 10l80 48v305z" />
    <glyph glyph-name="OE" unicode="&#x152;" horiz-adv-x="1080" 
d="M1035 700l5 -5v-130l-5 -5h-320c25 -35 45 -85 55 -130h175l5 -5v-130l-5 -5h-170c-10 -55 -30 -110 -60 -150h330l5 -5v-130l-5 -5h-530c-35 -10 -70 -15 -105 -15c-205 0 -370 160 -370 365s165 365 370 365c35 0 70 -5 105 -15h520zM410 570
c-120 0 -215 -95 -215 -220s95 -220 215 -220s215 95 215 220s-95 220 -215 220z" />
    <glyph glyph-name="oe" unicode="&#x153;" horiz-adv-x="930" 
d="M875 160v-125c-45 -30 -115 -50 -180 -50c-90 0 -165 35 -215 90c-45 -55 -110 -90 -190 -90c-140 0 -250 110 -250 250s110 250 250 250c75 0 140 -35 185 -85c45 50 110 85 190 85c145 0 225 -120 225 -215c0 -30 0 -45 -5 -65l-5 -5h-318c13 -70 68 -95 133 -95
c55 0 115 15 175 60zM290 350c-65 0 -110 -50 -110 -115s45 -115 110 -115s110 50 110 115s-45 115 -110 115zM566 300h184c-5 35 -40 65 -85 65c-60 0 -85 -30 -99 -65z" />
    <glyph glyph-name="Scaron" unicode="&#x160;" horiz-adv-x="540" 
d="M342 525h-10c-22 30 -52 45 -77 45c-35 0 -50 -20 -50 -50c0 -80 295 -80 295 -310c0 -120 -100 -225 -235 -225c-105 0 -200 55 -235 155l115 77h10c25 -67 70 -87 110 -87c50 0 85 30 85 80c0 120 -295 115 -295 310c0 115 89 195 200 195c85 0 140 -35 195 -110z
M60 905h140l10 -5l45 -55l45 55l10 5h140l5 -5l-120 -125l-10 -5h-140l-10 7l-120 123z" />
    <glyph glyph-name="scaron" unicode="&#x161;" horiz-adv-x="470" 
d="M390 315l-5 -5c-60 35 -100 45 -150 45c-25 0 -45 -10 -45 -30c0 -45 240 -5 240 -180c0 -85 -75 -160 -195 -160c-60 0 -135 15 -180 45v136l5 4c55 -35 120 -55 175 -55c40 0 55 10 55 30c0 55 -240 15 -240 180c0 80 70 160 185 160c70 0 115 -15 155 -40v-130z
M33 690h135l10 -5l50 -65l50 65l10 5h135l5 -5l-130 -145l-10 -5h-120l-10 5l-130 145z" />
    <glyph glyph-name="Ydieresis" unicode="&#x178;" horiz-adv-x="640" 
d="M15 700h140l5 -5l160 -235l160 235l5 5h140l5 -5l-240 -380v-310l-5 -5h-130l-5 5v310l-240 380zM180 930h10l85 -85v-10l-85 -85h-10l-85 85v10zM450 930h10l85 -85v-10l-85 -85h-10l-85 85v10z" />
    <glyph glyph-name="Zcaron" unicode="&#x17d;" horiz-adv-x="650" 
d="M25 700h585l5 -5l-355 -555h355l5 -6v-129l-5 -5h-600l-5 5l355 555h-340l-5 5v130zM115 905h140l10 -5l45 -55l45 55l10 5h140l5 -5l-120 -125l-10 -5h-140l-10 7l-120 123z" />
    <glyph glyph-name="zcaron" unicode="&#x17e;" horiz-adv-x="460" 
d="M35 470h400l5 -5l-195 -325h190l5 -5v-130l-5 -5h-420l-5 5l195 325h-171l-4 5v130zM35 690h135l10 -5l50 -65l50 65l10 5h135l5 -5l-130 -145l-10 -5h-120l-10 5l-130 145z" />
    <glyph glyph-name="florin" unicode="&#x192;" horiz-adv-x="440" 
d="M25 470h75v10c0 140 80 235 220 235c45 0 70 -7 100 -20v-140l-5 -5c-30 22 -55 30 -83 30c-67 0 -92 -40 -92 -105v-5h175l5 -5v-130l-5 -5h-175v-400c0 -130 -70 -195 -185 -195c-10 0 -35 0 -55 10v130l5 5c20 -10 30 -10 40 -10c30 0 55 10 55 95v365h-75l-5 5v131z
" />
    <glyph glyph-name="uni02B0" unicode="&#x2b0;" horiz-adv-x="420" 
d="M65 700h100l5 -5v-135c15 5 30 10 50 10c100 0 150 -60 150 -135v-150l-5 -5h-100l-5 5v125c0 30 -15 45 -45 45c-20 0 -35 -10 -45 -20v-150l-5 -5h-100l-5 5v410z" />
    <glyph glyph-name="uni02B1" unicode="&#x2b1;" horiz-adv-x="420" 
d="M260 595l-5 -5c-15 5 -30 10 -40 10c-30 0 -40 -15 -45 -35v-5c15 5 30 10 50 10c100 0 150 -60 150 -135v-150l-5 -5h-100l-5 5v125c0 30 -15 45 -45 45c-20 0 -35 -10 -45 -20v-150l-5 -5h-100l-5 5v230c0 135 40 200 140 200c10 0 40 0 60 -10v-110z" />
    <glyph glyph-name="uni02B2" unicode="&#x2b2;" horiz-adv-x="270" 
d="M105 560h100l5 -5v-240c0 -135 -40 -200 -140 -200c-10 0 -40 0 -60 10v110l5 5c15 -5 30 -10 40 -10c30 0 45 20 45 90v235zM150 740h10l65 -65v-10l-65 -65h-10l-65 65v10z" />
    <glyph glyph-name="uni02B3" unicode="&#x2b3;" horiz-adv-x="320" 
d="M65 560h100l5 -5v-5c20 15 40 20 55 20c10 0 30 0 50 -10l5 -120l-5 -5c-15 15 -30 20 -60 20c-20 0 -35 -10 -45 -20v-150l-5 -5h-100l-5 5v270z" />
    <glyph glyph-name="uni02B4" unicode="&#x2b4;" horiz-adv-x="320" 
d="M255 280h-100l-5 5v5c-20 -15 -40 -20 -55 -20c-10 0 -30 0 -50 10l-5 120l5 5c15 -15 30 -20 60 -20c20 0 35 10 45 20v150l5 5h100l5 -5v-270z" />
    <glyph glyph-name="uni02B5" unicode="&#x2b5;" horiz-adv-x="360" 
d="M155 560h100l5 -5v-235c0 -70 16 -90 45 -90c10 0 25 5 40 10l5 -5v-110c-20 -10 -50 -10 -60 -10c-100 0 -140 85 -140 170v5c-20 -15 -40 -20 -55 -20c-10 0 -30 0 -50 10l-5 120l5 5c15 -15 30 -20 60 -20c20 0 35 10 45 20v150z" />
    <glyph glyph-name="uni02B6" unicode="&#x2b6;" horiz-adv-x="360" 
d="M65 560h100l5 -5v-55h10l45 55l10 5h109l6 -5l-70 -85c35 -20 50 -45 50 -90c0 -70 -55 -100 -105 -100h-162l-3 5v270zM170 420v-45h20c10 0 25 5 25 22c0 18 -15 23 -25 23h-20z" />
    <glyph glyph-name="uni02B7" unicode="&#x2b7;" horiz-adv-x="540" 
d="M15 560h110l10 -5l40 -115l40 105l5 5h100l5 -5l40 -105l40 115l10 5h110l5 -5l-105 -270l-5 -5h-105l-5 5l-40 115l-40 -115l-5 -5h-105l-5 5l-105 270z" />
    <glyph glyph-name="uni02B8" unicode="&#x2b8;" horiz-adv-x="360" 
d="M15 560h105l10 -5l47 -125l53 125l10 5h105l5 -5l-165 -340c-25 -40 -75 -80 -160 -80l-5 5v100l5 5c38 0 60 10 70 25l20 37l-105 248z" />
    <glyph glyph-name="uni02B9" unicode="&#x2b9;" horiz-adv-x="260" 
d="M82 700h143l5 -5l-65 -230l-5 -5h-85l-5 5l7 230z" />
    <glyph glyph-name="uni02BA" unicode="&#x2ba;" horiz-adv-x="440" 
d="M82 700h143l5 -5l-65 -230l-5 -5h-85l-5 5l7 230zM262 700h143l5 -5l-65 -230l-5 -5h-85l-5 5l7 230z" />
    <glyph glyph-name="uni02BE" unicode="&#x2be;" 
d="M230 720l5 5c60 0 115 -50 115 -115s-55 -115 -115 -115l-5 5v70l5 5c20 5 30 15 30 35s-10 30 -30 35l-5 6v69z" />
    <glyph glyph-name="uni02BF" unicode="&#x2bf;" 
d="M350 720v-69l-5 -6c-20 -5 -30 -15 -30 -35s10 -30 30 -35l5 -5v-70l-5 -5c-60 0 -115 50 -115 115s55 115 115 115z" />
    <glyph glyph-name="uni02C0" unicode="&#x2c0;" horiz-adv-x="350" 
d="M112 577l-82 63c30 45 57 75 125 75c93 0 155 -63 155 -150c0 -123 -100 -105 -100 -220v-60l-5 -5h-100l-5 5v60c0 165 93 140 93 220c0 17 -19 32 -38 32c-13 0 -28 -10 -38 -20h-5z" />
    <glyph glyph-name="uni02C1" unicode="&#x2c1;" horiz-adv-x="350" 
d="M237 577h-5c-10 10 -25 20 -37 20c-20 0 -39 -15 -39 -32c0 -80 94 -55 94 -220v-60l-5 -5h-100l-5 5v60c0 115 -100 97 -100 220c0 87 62 150 155 150c67 0 95 -30 125 -75z" />
    <glyph glyph-name="uni02C4" unicode="&#x2c4;" 
d="M232 680h115l10 -5l93 -165l-5 -5h-115l-10 5l-30 67l-30 -67l-10 -5h-115l-5 5l92 165z" />
    <glyph glyph-name="uni02C5" unicode="&#x2c5;" 
d="M135 680h115l10 -5l30 -68l30 68l10 5h115l5 -5l-93 -165l-10 -5h-115l-10 5l-92 165z" />
    <glyph glyph-name="circumflex" unicode="&#x2c6;" 
d="M230 690h120l10 -5l130 -145l-5 -5h-135l-10 5l-50 65l-50 -65l-10 -5h-135l-5 5l130 145z" />
    <glyph glyph-name="caron" unicode="&#x2c7;" 
d="M95 690h135l10 -5l50 -65l50 65l10 5h135l5 -5l-130 -145l-10 -5h-120l-10 5l-130 145z" />
    <glyph glyph-name="uni02C8" unicode="&#x2c8;" 
d="M225 670h130l5 -5v-145l-5 -5h-130l-5 5v145z" />
    <glyph glyph-name="uni02C9" unicode="&#x2c9;" 
d="M135 650h310l5 -5v-130l-5 -5h-310l-5 5v130z" />
    <glyph glyph-name="uni02CA" unicode="&#x2ca;" 
d="M320 690h156l4 -5l-160 -145l-10 -5h-130l-5 5l135 145z" />
    <glyph glyph-name="uni02CB" unicode="&#x2cb;" 
d="M104 690h156l10 -5l135 -145l-5 -5h-130l-10 5l-160 145z" />
    <glyph glyph-name="uni02CC" unicode="&#x2cc;" 
d="M225 -40h130l5 -5v-145l-5 -5h-130l-5 5v145z" />
    <glyph glyph-name="uni02CD" unicode="&#x2cd;" 
d="M125 -40h330l5 -5v-110l-5 -5h-330l-5 5v110z" />
    <glyph glyph-name="uni02CE" unicode="&#x2ce;" 
d="M104 -20h156l10 -5l135 -145l-5 -5h-130l-10 5l-160 145z" />
    <glyph glyph-name="uni02CF" unicode="&#x2cf;" 
d="M320 -20h156l4 -5l-160 -145l-10 -5h-130l-5 5l135 145z" />
    <glyph glyph-name="uni02D0" unicode="&#x2d0;" horiz-adv-x="300" 
d="M35 470h230l5 -5v-70l-5 -23l-63 -97l-5 -5h-95l-5 5l-62 97l-5 23v70zM102 200h95l5 -5l63 -98l5 -22v-70l-5 -5h-230l-5 5v70l5 22l62 98z" />
    <glyph glyph-name="uni02D1" unicode="&#x2d1;" horiz-adv-x="300" 
d="M35 470h230l5 -5v-70l-5 -23l-63 -97l-5 -5h-95l-5 5l-62 97l-5 23v70z" />
    <glyph glyph-name="uni02D2" unicode="&#x2d2;" 
d="M230 345l5 5c60 0 115 -50 115 -115s-55 -115 -115 -115l-5 5v70l5 5c20 5 30 15 30 35s-10 30 -30 35l-5 6v69z" />
    <glyph glyph-name="uni02D3" unicode="&#x2d3;" 
d="M350 345v-69l-5 -6c-20 -5 -30 -15 -30 -35s10 -30 30 -35l5 -5v-70l-5 -5c-60 0 -115 50 -115 115s55 115 115 115z" />
    <glyph glyph-name="uni02D4" unicode="&#x2d4;" 
d="M225 -80h130l5 -5v-40h55l5 -5v-100l-5 -5h-250l-5 5v100l5 5h55v40z" />
    <glyph glyph-name="uni02D5" unicode="&#x2d5;" 
d="M165 -80h250l5 -5v-100l-5 -5h-55v-40l-5 -5h-130l-5 5v40h-55l-5 5v100z" />
    <glyph glyph-name="uni02D6" unicode="&#x2d6;" 
d="M240 -60h100l5 -5v-43h50l5 -5v-92l-5 -5h-50v-40l-5 -5h-100l-5 5v40h-50l-5 5v92l5 5h50v43z" />
    <glyph glyph-name="uni02D7" unicode="&#x2d7;" 
d="M165 -95h250l5 -5v-100l-5 -5h-250l-5 5v100z" />
    <glyph glyph-name="breve" unicode="&#x2d8;" 
d="M110 690h125l5 -5c0 -30 20 -45 50 -45s50 15 50 45l5 5h125l5 -5c-9 -115 -90 -165 -185 -165s-175 50 -185 165z" />
    <glyph glyph-name="dotaccent" unicode="&#x2d9;" 
d="M285 705h10l90 -90v-10l-90 -90h-10l-90 90v10z" />
    <glyph glyph-name="ring" unicode="&#x2da;" 
d="M290 725c65 0 120 -50 120 -115s-55 -115 -120 -115s-120 50 -120 115s55 115 120 115zM290 645c-20 0 -35 -15 -35 -35s15 -35 35 -35s35 15 35 35s-15 35 -35 35z" />
    <glyph glyph-name="ogonek" unicode="&#x2db;" 
d="M495 125v-125c-40 -20 -85 -60 -85 -95c0 -25 20 -40 45 -40c15 0 25 5 40 15l5 -5v-100c-20 -15 -43 -20 -70 -20c-74 0 -135 56 -135 120c0 105 65 170 200 250z" />
    <glyph glyph-name="tilde" unicode="&#x2dc;" 
d="M485 680l5 -5c-20 -75 -70 -135 -135 -135c-70 0 -125 40 -190 40c-25 0 -50 -10 -70 -40l-5 5c20 75 70 135 135 135c70 0 125 -40 190 -40c25 0 50 10 70 40z" />
    <glyph glyph-name="hungarumlaut" unicode="&#x2dd;" 
d="M235 690h135l5 -5l-110 -145l-10 -5h-115l-5 5l90 145zM425 690h135l5 -5l-110 -145l-10 -5h-115l-5 5l90 145z" />
    <glyph glyph-name="uni02DE" unicode="&#x2de;" 
d="M465 400l5 10l145 45l5 -5c-15 -60 5 -70 20 -70c10 0 20 10 20 25c0 10 0 20 -20 40v5l75 55c35 -30 45 -70 45 -100c0 -70 -55 -125 -120 -125c-40 0 -65 15 -85 45l-65 -20l-5 7z" />
    <glyph glyph-name="uni02DF" unicode="&#x2df;" 
d="M243 700l47 -48l47 48h5l56 -63v-5l-40 -27l40 -28v-5l-56 -62h-5l-47 48l-47 -48h-5l-55 62v5l40 28l-40 27v5l55 63h5z" />
    <glyph glyph-name="uni02E0" unicode="&#x2e0;" horiz-adv-x="360" 
d="M15 560h120l5 -5l40 -135l40 135l5 5h120l5 -5l-85 -220c30 -35 42 -63 42 -93c0 -70 -58 -127 -127 -127s-128 57 -128 127c0 30 13 58 43 93l-85 220zM180 270c-10 -10 -15 -15 -15 -25c0 -8 7 -15 15 -15s15 7 15 15c0 10 -5 15 -15 25z" />
    <glyph glyph-name="uni02E1" unicode="&#x2e1;" horiz-adv-x="270" 
d="M65 700h100l5 -5v-235c0 -70 15 -90 45 -90c10 0 25 5 40 10l5 -5v-110c-20 -10 -50 -10 -60 -10c-100 0 -140 65 -140 200v240z" />
    <glyph glyph-name="uni02E2" unicode="&#x2e2;" horiz-adv-x="305" 
d="M250 455l-5 -5c-35 20 -60 25 -80 25c-5 0 -10 -4 -10 -9c0 -16 115 -6 115 -89c0 -59 -44 -107 -125 -107c-32 0 -73 5 -100 20v100l5 5c35 -21 60 -30 95 -30c10 0 15 5 15 10c0 20 -110 15 -110 95c0 56 33 100 105 100c40 0 60 -5 95 -20v-95z" />
    <glyph glyph-name="uni02E3" unicode="&#x2e3;" horiz-adv-x="330" 
d="M18 560h102l10 -5l35 -50l35 50l10 5h101l4 -5l-90 -130l95 -140l-4 -5h-103l-13 5l-35 55l-35 -55l-12 -5h-105l-3 5l95 140l-90 130z" />
    <glyph glyph-name="uni02E4" unicode="&#x2e4;" horiz-adv-x="350" 
d="M237 577h-5c-10 10 -25 20 -37 20c-20 0 -39 -15 -39 -32c0 -90 94 -43 94 -220v-60l-5 -5h-100l-5 5v60c0 115 -100 97 -100 220c0 87 62 150 155 150c67 0 95 -30 125 -75z" />
    <glyph glyph-name="uni02E5" unicode="&#x2e5;" horiz-adv-x="360" 
d="M45 720h250l5 -5v-710l-5 -5h-130l-5 5v575h-115l-5 5v130z" />
    <glyph glyph-name="uni02E6" unicode="&#x2e6;" horiz-adv-x="360" 
d="M165 700h130l5 -5v-690l-5 -5h-130l-5 5v450h-115l-5 5v130l5 5h115v100z" />
    <glyph glyph-name="uni02E7" unicode="&#x2e7;" horiz-adv-x="360" 
d="M165 700h130l5 -5v-690l-5 -5h-130l-5 5v275h-115l-5 5v130l5 5h115v275z" />
    <glyph glyph-name="uni02E8" unicode="&#x2e8;" horiz-adv-x="360" 
d="M165 700h130l5 -5v-690l-5 -5h-130l-5 5v100h-115l-5 5v130l5 5h115v450z" />
    <glyph glyph-name="uni02E9" unicode="&#x2e9;" horiz-adv-x="360" 
d="M165 700h130l5 -5v-690l-5 -5h-250l-5 5v130l5 5h115v555z" />
    <glyph glyph-name="uni02EF" unicode="&#x2ef;" 
d="M135 -70h115l10 -5l30 -68l30 68l10 5h115l5 -5l-93 -165l-10 -5h-115l-10 5l-92 165z" />
    <glyph glyph-name="uni02F0" unicode="&#x2f0;" 
d="M232 -70h115l10 -5l93 -165l-5 -5h-115l-10 5l-30 67l-30 -67l-10 -5h-115l-5 5l92 165z" />
    <glyph glyph-name="uni02F3" unicode="&#x2f3;" 
d="M290 -25c65 0 120 -50 120 -115s-55 -115 -120 -115s-120 50 -120 115s55 115 120 115zM290 -105c-20 0 -35 -15 -35 -35s15 -35 35 -35s35 15 35 35s-15 35 -35 35z" />
    <glyph glyph-name="uni02F4" unicode="&#x2f4;" 
d="M104 310h156l10 -5l135 -145l-5 -5h-130l-10 5l-160 145z" />
    <glyph glyph-name="uni02F6" unicode="&#x2f6;" 
d="M235 310h135l5 -5l-110 -145l-10 -5h-115l-5 5l90 145zM425 310h135l5 -5l-110 -145l-10 -5h-115l-5 5l90 145z" />
    <glyph glyph-name="uni02F7" unicode="&#x2f7;" 
d="M485 -70l5 -5c-20 -75 -70 -135 -135 -135c-70 0 -125 40 -190 40c-25 0 -50 -10 -70 -40l-5 5c20 75 70 135 135 135c70 0 125 -40 190 -40c25 0 50 10 70 40z" />
    <glyph glyph-name="uni0300" unicode="&#x300;" horiz-adv-x="0" 
d="M-476 690h156l10 -5l135 -145l-5 -5h-130l-10 5l-160 145z" />
    <glyph glyph-name="uni0301" unicode="&#x301;" horiz-adv-x="0" 
d="M-260 690h156l4 -5l-160 -145l-10 -5h-130l-5 5l135 145z" />
    <glyph glyph-name="uni0302" unicode="&#x302;" horiz-adv-x="0" 
d="M-350 690h120l10 -5l130 -145l-5 -5h-135l-10 5l-50 65l-50 -65l-10 -5h-135l-5 5l130 145z" />
    <glyph glyph-name="uni0303" unicode="&#x303;" horiz-adv-x="0" 
d="M-95 680l5 -5c-20 -75 -70 -135 -135 -135c-70 0 -125 40 -190 40c-25 0 -50 -10 -70 -40l-5 5c20 75 70 135 135 135c70 0 125 -40 190 -40c25 0 50 10 70 40z" />
    <glyph glyph-name="uni0304" unicode="&#x304;" horiz-adv-x="0" 
d="M-455 670h330l5 -5v-110l-5 -5h-330l-5 5v110z" />
    <glyph glyph-name="uni0305" unicode="&#x305;" horiz-adv-x="0" 
d="M-455 670h330l5 -5v-110l-5 -5h-330l-5 5v110z" />
    <glyph glyph-name="uni0306" unicode="&#x306;" horiz-adv-x="0" 
d="M-470 690h125l5 -5c0 -30 20 -45 50 -45s50 15 50 45l5 5h125l5 -5c-9 -115 -90 -165 -185 -165s-175 50 -185 165z" />
    <glyph glyph-name="uni0307" unicode="&#x307;" horiz-adv-x="0" 
d="M-295 705h10l90 -90v-10l-90 -90h-10l-90 90v10z" />
    <glyph glyph-name="uni0308" unicode="&#x308;" horiz-adv-x="0" 
d="M-410 695h10l80 -80v-10l-80 -80h-10l-80 80v10zM-180 695h10l80 -80v-10l-80 -80h-10l-80 80v10z" />
    <glyph glyph-name="uni0309" unicode="&#x309;" horiz-adv-x="0" 
d="M-335 610l-55 65c30 35 65 50 100 50c75 0 120 -50 120 -105c0 -60 -70 -70 -73 -100l-5 -5h-90l-5 5c0 52 68 65 68 100c0 5 -5 10 -15 10s-25 -5 -40 -20h-5z" />
    <glyph glyph-name="uni030A" unicode="&#x30a;" horiz-adv-x="0" 
d="M-290 725c65 0 120 -50 120 -115s-55 -115 -120 -115s-120 50 -120 115s55 115 120 115zM-290 645c-20 0 -35 -15 -35 -35s15 -35 35 -35s35 15 35 35s-15 35 -35 35z" />
    <glyph glyph-name="uni030B" unicode="&#x30b;" horiz-adv-x="0" 
d="M-345 690h135l5 -5l-110 -145l-10 -5h-115l-5 5l90 145zM-155 690h135l5 -5l-110 -145l-10 -5h-115l-5 5l90 145z" />
    <glyph glyph-name="uni030C" unicode="&#x30c;" horiz-adv-x="0" 
d="M-485 690h135l10 -5l50 -65l50 65l10 5h135l5 -5l-130 -145l-10 -5h-120l-10 5l-130 145z" />
    <glyph glyph-name="uni030D" unicode="&#x30d;" horiz-adv-x="0" 
d="M-355 670h130l5 -5v-145l-5 -5h-130l-5 5v145z" />
    <glyph glyph-name="uni030E" unicode="&#x30e;" horiz-adv-x="0" 
d="M-445 670h130l5 -5v-145l-5 -5h-130l-5 5v145zM-265 670h130l5 -5v-145l-5 -5h-130l-5 5v145z" />
    <glyph glyph-name="uni030F" unicode="&#x30f;" horiz-adv-x="0" 
d="M-560 690h135l10 -5l90 -145l-5 -5h-115l-10 5l-110 145zM-370 690h135l10 -5l90 -145l-5 -5h-115l-10 5l-110 145z" />
    <glyph glyph-name="uni0310" unicode="&#x310;" horiz-adv-x="0" 
d="M-470 690h125l5 -5c0 -30 20 -45 50 -45s50 15 50 45l5 5h125l5 -5c-9 -115 -90 -165 -185 -165s-175 50 -185 165zM-295 845h10l90 -90v-10l-90 -90h-10l-90 90v10z" />
    <glyph glyph-name="uni0311" unicode="&#x311;" horiz-adv-x="0" 
d="M-458 515l-5 5c9 127 103 160 173 160s162 -33 172 -160l-5 -5h-122l-5 5c5 20 -15 35 -40 35s-45 -15 -40 -35l-5 -5h-123z" />
    <glyph glyph-name="uni0312" unicode="&#x312;" horiz-adv-x="0" 
d="M-238 520h-127l-5 5l52 165l5 5h100l5 -5l-20 -165z" />
    <glyph glyph-name="uni0313" unicode="&#x313;" horiz-adv-x="0" 
d="M-340 695h127l5 -5l-52 -165l-5 -5h-100l-5 5l20 165z" />
    <glyph glyph-name="uni0314" unicode="&#x314;" horiz-adv-x="0" 
d="M-368 695h128l10 -5l20 -165l-5 -5h-100l-5 5l-53 165z" />
    <glyph glyph-name="uni0315" unicode="&#x315;" horiz-adv-x="0" 
d="M-55 740h130l5 -5l-40 -165l-5 -5h-100l-5 5l10 165z" />
    <glyph glyph-name="uni0316" unicode="&#x316;" horiz-adv-x="0" 
d="M-476 -20h156l10 -5l135 -145l-5 -5h-130l-10 5l-160 145z" />
    <glyph glyph-name="uni0317" unicode="&#x317;" horiz-adv-x="0" 
d="M-260 -20h156l4 -5l-160 -145l-10 -5h-130l-5 5l135 145z" />
    <glyph glyph-name="uni031A" unicode="&#x31a;" horiz-adv-x="0" 
d="M-190 650h205l5 -5v-205l-5 -5h-130l-5 5v70h-70l-5 5v130z" />
    <glyph glyph-name="uni031B" unicode="&#x31b;" horiz-adv-x="0" 
d="M-65 550h110l5 -5v-35c0 -95 -80 -140 -175 -140v5c45 30 55 60 55 130v40z" />
    <glyph glyph-name="uni031C" unicode="&#x31c;" horiz-adv-x="0" 
d="M-230 -30v-69l-5 -6c-20 -5 -30 -15 -30 -35s10 -30 30 -35l5 -5v-70l-5 -5c-60 0 -115 50 -115 115s55 115 115 115z" />
    <glyph glyph-name="uni031D" unicode="&#x31d;" horiz-adv-x="0" 
d="M-355 -80h130l5 -5v-40h55l5 -5v-100l-5 -5h-250l-5 5v100l5 5h55v40z" />
    <glyph glyph-name="uni031E" unicode="&#x31e;" horiz-adv-x="0" 
d="M-415 -80h250l5 -5v-100l-5 -5h-55v-40l-5 -5h-130l-5 5v40h-55l-5 5v100z" />
    <glyph glyph-name="uni0320" unicode="&#x320;" horiz-adv-x="0" 
d="M-415 -95h250l5 -5v-100l-5 -5h-250l-5 5v100z" />
    <glyph glyph-name="uni0321" unicode="&#x321;" horiz-adv-x="0" 
d="M-185 40h130l5 -5v-105c0 -130 -70 -195 -185 -195c-10 0 -35 0 -55 10v130l5 5c20 -10 30 -10 40 -10c30 0 55 10 55 95v70z" />
    <glyph glyph-name="uni0322" unicode="&#x322;" horiz-adv-x="0" 
d="M-185 40h130l5 -5v-70c0 -85 25 -95 55 -95c10 0 20 0 40 10l5 -5v-130c-20 -10 -45 -10 -55 -10c-115 0 -185 65 -185 195v105z" />
    <glyph glyph-name="uni0323" unicode="&#x323;" horiz-adv-x="0" 
d="M-295 -45h10l90 -90v-10l-90 -90h-10l-90 90v10z" />
    <glyph glyph-name="uni0324" unicode="&#x324;" horiz-adv-x="0" 
d="M-410 -55h10l80 -80v-10l-80 -80h-10l-80 80v10zM-180 -55h10l80 -80v-10l-80 -80h-10l-80 80v10z" />
    <glyph glyph-name="uni0325" unicode="&#x325;" horiz-adv-x="0" 
d="M-290 -25c65 0 120 -50 120 -115s-55 -115 -120 -115s-120 50 -120 115s55 115 120 115zM-290 -105c-20 0 -35 -15 -35 -35s15 -35 35 -35s35 15 35 35s-15 35 -35 35z" />
    <glyph glyph-name="uni0326" unicode="&#x326;" horiz-adv-x="0" 
d="M-343 -60h128l5 -5l-53 -165l-5 -5h-100l-5 5l20 165z" />
    <glyph glyph-name="uni0327" unicode="&#x327;" horiz-adv-x="0" 
d="M-345 0h105l-10 -40c30 -15 55 -45 55 -90c0 -70 -65 -115 -135 -115c-35 0 -73 15 -95 50l50 60h5c22 -15 32 -15 40 -15c15 0 25 7 25 20c0 12 -15 38 -70 20l-5 5z" />
    <glyph glyph-name="uni0328" unicode="&#x328;" horiz-adv-x="0" 
d="M-85 125v-125c-40 -20 -85 -60 -85 -95c0 -25 20 -40 45 -40c15 0 25 5 40 15l5 -5v-100c-20 -15 -43 -20 -70 -20c-74 0 -135 56 -135 120c0 105 65 170 200 250z" />
    <glyph glyph-name="uni0329" unicode="&#x329;" horiz-adv-x="0" 
d="M-355 -80h130l5 -5v-145l-5 -5h-130l-5 5v145z" />
    <glyph glyph-name="uni032A" unicode="&#x32a;" horiz-adv-x="0" 
d="M-475 -80h370l5 -5v-145l-5 -5h-130l-5 5v40h-100v-40l-5 -5h-130l-5 5v145z" />
    <glyph glyph-name="uni032C" unicode="&#x32c;" horiz-adv-x="0" 
d="M-485 -60h135l10 -5l50 -65l50 65l10 5h135l5 -5l-130 -145l-10 -5h-120l-10 5l-130 145z" />
    <glyph glyph-name="uni032D" unicode="&#x32d;" horiz-adv-x="0" 
d="M-350 -60h120l10 -5l130 -145l-5 -5h-135l-10 5l-50 65l-50 -65l-10 -5h-135l-5 5l130 145z" />
    <glyph glyph-name="uni032E" unicode="&#x32e;" horiz-adv-x="0" 
d="M-470 -60h125l5 -5c0 -30 20 -45 50 -45s50 15 50 45l5 5h125l5 -5c-9 -115 -90 -165 -185 -165s-175 50 -185 165z" />
    <glyph glyph-name="uni032F" unicode="&#x32f;" horiz-adv-x="0" 
d="M-458 -235l-5 5c9 127 103 160 173 160s162 -33 172 -160l-5 -5h-122l-5 5c5 20 -15 35 -40 35s-45 -15 -40 -35l-5 -5h-123z" />
    <glyph glyph-name="uni0330" unicode="&#x330;" horiz-adv-x="0" 
d="M-95 -70l5 -5c-20 -75 -70 -135 -135 -135c-70 0 -125 40 -190 40c-25 0 -50 -10 -70 -40l-5 5c20 75 70 135 135 135c70 0 125 -40 190 -40c25 0 50 10 70 40z" />
    <glyph glyph-name="uni0331" unicode="&#x331;" horiz-adv-x="0" 
d="M-455 -80h330l5 -5v-110l-5 -5h-330l-5 5v110z" />
    <glyph glyph-name="uni0334" unicode="&#x334;" horiz-adv-x="0" 
d="M-95 305l5 -5c-20 -75 -70 -135 -135 -135c-70 0 -125 40 -190 40c-25 0 -50 -10 -70 -40l-5 5c20 75 70 135 135 135c70 0 125 -40 190 -40c25 0 50 10 70 40z" />
    <glyph glyph-name="uni0335" unicode="&#x335;" horiz-adv-x="0" 
d="M-455 295h330l5 -5v-110l-5 -5h-330l-5 5v110z" />
    <glyph glyph-name="uni0336" unicode="&#x336;" horiz-adv-x="0" 
d="M-575 305h570l5 -5v-130l-5 -5h-570l-5 5v130z" />
    <glyph glyph-name="uni0339" unicode="&#x339;" horiz-adv-x="0" 
d="M-350 -30l5 5c60 0 115 -50 115 -115s-55 -115 -115 -115l-5 5v70l5 5c20 5 30 15 30 35s-10 30 -30 35l-5 6v69z" />
    <glyph glyph-name="uni033A" unicode="&#x33a;" horiz-adv-x="0" 
d="M-475 -40h130l5 -5v-40h100v40l5 5h130l5 -5v-145l-5 -5h-370l-5 5v145z" />
    <glyph glyph-name="uni033B" unicode="&#x33b;" horiz-adv-x="0" 
d="M-425 -45h270l5 -5v-200l-5 -5h-270l-5 5v200zM-320 -140v-20h60v20h-60z" />
    <glyph glyph-name="uni033D" unicode="&#x33d;" horiz-adv-x="0" 
d="M-338 700l48 -34l47 34h5l57 -64v-5l-42 -26l42 -27v-5l-57 -63h-5l-47 34l-48 -34h-5l-56 63v5l41 27l-41 26v5l56 64h5z" />
    <glyph glyph-name="uni033E" unicode="&#x33e;" horiz-adv-x="0" 
d="M-343 712l5 5c80 5 120 -17 120 -67c0 -45 -35 -65 -35 -100c0 -10 0 -28 15 -43l-5 -5c-80 -5 -120 18 -120 68c0 45 35 65 35 100c0 10 0 27 -15 42z" />
    <glyph glyph-name="uni0342" unicode="&#x342;" horiz-adv-x="0" 
d="M-95 680l5 -5c-20 -75 -70 -135 -135 -135c-70 0 -125 40 -190 40c-25 0 -50 -10 -70 -40l-5 5c20 75 70 135 135 135c70 0 125 -40 190 -40c25 0 50 10 70 40z" />
    <glyph glyph-name="uni0344" unicode="&#x344;" horiz-adv-x="0" 
d="M-320 700h107l5 -5l-57 -165l-5 -5h-80l-5 5l25 165zM-429 680h10l64 -65v-10l-65 -65h-10l-65 65v10zM-159 680h10l64 -65v-10l-65 -65h-10l-65 65v10z" />
    <glyph glyph-name="uni0345" unicode="&#x345;" horiz-adv-x="0" 
d="M-345 -60h110l5 -5v-15c0 -50 27 -65 50 -65c10 0 15 0 35 10l5 -5v-115c-20 -10 -45 -10 -55 -10c-95 0 -155 57 -155 185v15z" />
    <glyph glyph-name="uni0346" unicode="&#x346;" horiz-adv-x="0" 
d="M-475 670h370l5 -5v-145l-5 -5h-130l-5 5v40h-100v-40l-5 -5h-130l-5 5v145z" />
    <glyph glyph-name="uni0348" unicode="&#x348;" horiz-adv-x="0" 
d="M-445 -40h130l5 -5v-145l-5 -5h-130l-5 5v145zM-265 -40h130l5 -5v-145l-5 -5h-130l-5 5v145z" />
    <glyph glyph-name="uni034D" unicode="&#x34d;" horiz-adv-x="0" 
d="M-480 -115l82 82l10 5h75l5 -5l-40 -47h115l-40 47l5 5h75l10 -5l83 -82v-10l-83 -83l-10 -5h-75l-5 5l40 48h-115l40 -48l-5 -5h-75l-10 5l-82 83v10z" />
    <glyph glyph-name="uni034E" unicode="&#x34e;" horiz-adv-x="0" 
d="M-295 -40h10l82 -83l5 -10v-75l-5 -5l-47 40v-62l-5 -5h-70l-5 5v62l-48 -40l-5 5v75l5 10z" />
    <glyph glyph-name="uni0351" unicode="&#x351;" horiz-adv-x="0" 
d="M-230 720v-69l-5 -6c-20 -5 -30 -15 -30 -35s10 -30 30 -35l5 -5v-70l-5 -5c-60 0 -115 50 -115 115s55 115 115 115z" />
    <glyph glyph-name="uni0352" unicode="&#x352;" horiz-adv-x="0" 
d="M-295 705h10l90 -90v-10l-90 -90h-10l-90 90v10zM-458 695l-5 5c9 127 103 160 173 160s162 -33 172 -160l-5 -5h-122l-5 5c5 20 -15 35 -40 35s-45 -15 -40 -35l-5 -5h-123z" />
    <glyph glyph-name="uni0353" unicode="&#x353;" horiz-adv-x="0" 
d="M-338 -10l48 -34l47 34h5l57 -64v-5l-42 -26l42 -27v-5l-57 -63h-5l-47 34l-48 -34h-5l-56 63v5l41 27l-41 26v5l56 64h5z" />
    <glyph glyph-name="uni0357" unicode="&#x357;" horiz-adv-x="0" 
d="M-350 720l5 5c60 0 115 -50 115 -115s-55 -115 -115 -115l-5 5v70l5 5c20 5 30 15 30 35s-10 30 -30 35l-5 6v69z" />
    <glyph glyph-name="uni0359" unicode="&#x359;" horiz-adv-x="0" 
d="M-325 -55h68l5 -5l-3 -30l32 17h5l26 -58v-5l-48 -14l48 -14v-5l-26 -59h-5l-32 18l4 -30l-5 -5h-69l-5 5l5 30l-33 -18h-5l-25 59v5l48 14l-48 14v5l25 58h5l33 -17l-5 30z" />
    <glyph glyph-name="pi" unicode="&#x3c0;" horiz-adv-x="640" 
d="M15 470h610l5 -5v-130l-5 -5h-95v-105c0 -85 25 -95 55 -95c10 0 20 0 40 10l5 -5v-140c-20 -10 -45 -10 -55 -10c-115 0 -185 65 -185 195v150h-135c0 -95 -12 -220 -35 -325l-5 -5h-140l-5 5c35 105 45 240 45 325h-100l-5 5v129z" />
    <glyph glyph-name="uni0400" unicode="&#x400;" 
d="M65 700h470l5 -5v-130l-5 -5h-335v-125h245l5 -5v-130l-5 -5h-245v-155h345l5 -5v-130l-5 -5h-480l-5 5v690zM114 905h166l10 -5l135 -125l-5 -5h-140l-10 5l-160 125z" />
    <glyph glyph-name="uni0401" unicode="&#x401;" 
d="M65 700h470l5 -5v-130l-5 -5h-335v-125h245l5 -5v-130l-5 -5h-245v-155h345l5 -5v-130l-5 -5h-480l-5 5v690zM170 930h10l85 -85v-10l-85 -85h-10l-85 85v10zM440 930h10l85 -85v-10l-85 -85h-10l-85 85v10z" />
    <glyph glyph-name="uni0402" unicode="&#x402;" horiz-adv-x="820" 
d="M35 700h510l5 -5v-130l-5 -5h-205v-135c40 35 110 50 145 50c165 0 285 -100 285 -285v-260c0 -130 -70 -195 -185 -195c-10 0 -35 0 -55 10v130l5 5c20 -10 30 -10 40 -10c30 0 55 10 55 95v200c0 110 -50 162 -145 162c-65 0 -135 -32 -145 -77v-245l-5 -5h-130l-5 5
v555h-165l-5 5v130z" />
    <glyph glyph-name="uni0403" unicode="&#x403;" horiz-adv-x="560" 
d="M65 700h460l5 -5v-130l-5 -5h-325v-555l-5 -5h-130l-5 5v690zM340 905h166l4 -5l-160 -125l-10 -5h-140l-5 5l135 125z" />
    <glyph glyph-name="uni0404" unicode="&#x404;" horiz-adv-x="710" 
d="M650 495l-5 -5c-65 55 -140 80 -235 80c-92 0 -170 -59 -201 -140h296l5 -5v-130l-5 -5h-302c26 -92 108 -160 207 -160c95 0 170 25 235 80l5 -5v-155c-65 -47 -145 -65 -240 -65c-204 0 -370 164 -370 365s166 365 370 365c95 0 175 -18 240 -65v-155z" />
    <glyph glyph-name="uni0405" unicode="&#x405;" horiz-adv-x="540" 
d="M342 525h-10c-22 30 -52 45 -77 45c-35 0 -50 -20 -50 -50c0 -80 295 -80 295 -310c0 -120 -100 -225 -235 -225c-105 0 -200 55 -235 155l115 77h10c25 -67 70 -87 110 -87c50 0 85 30 85 80c0 120 -295 115 -295 310c0 115 89 195 200 195c85 0 140 -35 195 -110z" />
    <glyph glyph-name="uni0406" unicode="&#x406;" horiz-adv-x="260" 
d="M65 700h130l5 -5v-690l-5 -5h-130l-5 5v690z" />
    <glyph glyph-name="uni0407" unicode="&#x407;" horiz-adv-x="260" 
d="M65 700h130l5 -5v-690l-5 -5h-130l-5 5v690zM20 930h10l85 -85v-10l-85 -85h-10l-85 85v10zM230 930h10l85 -85v-10l-85 -85h-10l-85 85v10z" />
    <glyph glyph-name="uni0408" unicode="&#x408;" horiz-adv-x="520" 
d="M305 700h130l5 -5v-490c0 -120 -75 -220 -235 -220c-90 0 -170 65 -195 150l115 60h5c15 -50 45 -75 85 -75c70 0 85 45 85 130v445z" />
    <glyph glyph-name="uni0409" unicode="&#x409;" horiz-adv-x="1020" 
d="M230 700h425l5 -5v-260h95c135 0 235 -75 235 -215s-100 -220 -235 -220h-230l-5 5v555h-180l-65 -380c-30 -145 -120 -195 -250 -195l-5 7v123l5 5c60 0 105 30 120 95l75 480zM660 295v-155h85c60 0 95 20 95 80c0 55 -35 75 -95 75h-85z" />
    <glyph glyph-name="uni040A" unicode="&#x40a;" horiz-adv-x="1000" 
d="M65 700h130l5 -5v-260h300v260l5 5h130l5 -5v-260h95c135 0 235 -75 235 -215s-100 -220 -235 -220h-230l-5 5v290h-300v-290l-5 -5h-130l-5 5v690zM640 295v-155h85c60 0 95 20 95 80c0 55 -35 75 -95 75h-85z" />
    <glyph glyph-name="uni040B" unicode="&#x40b;" horiz-adv-x="820" 
d="M35 700h510l5 -5v-130l-5 -5h-205v-135c40 35 110 50 145 50c165 0 285 -100 285 -285v-185l-5 -5h-130l-5 5v160c0 110 -50 162 -145 162c-65 0 -135 -32 -145 -77v-245l-5 -5h-130l-5 5v555h-165l-5 5v130z" />
    <glyph glyph-name="uni040C" unicode="&#x40c;" horiz-adv-x="680" 
d="M65 700h130l5 -5v-240h60l220 240l10 5h155l5 -5l-275 -300l295 -390l-5 -5h-155l-10 5l-240 310h-60v-310l-5 -5h-130l-5 5v690zM387 905h166l4 -5l-160 -125l-10 -5h-140l-5 5l135 125z" />
    <glyph glyph-name="uni040D" unicode="&#x40d;" horiz-adv-x="760" 
d="M65 700h130l5 -5v-455l350 455l10 5h135l5 -5v-690l-5 -5h-130l-5 5v455l-350 -455l-10 -5h-135l-5 5v690zM184 905h166l10 -5l135 -125l-5 -5h-140l-10 5l-160 125z" />
    <glyph glyph-name="uni040E" unicode="&#x40e;" horiz-adv-x="680" 
d="M15 700h140l10 -5l175 -390l175 390l10 5h140l5 -5l-280 -580c-40 -70 -105 -130 -270 -130l-5 7v118l5 5c80 0 110 15 137 40l8 10l-255 530zM180 905h103l5 -5c7 -20 22 -35 52 -35s45 15 50 35l5 5h105l5 -5c-10 -95 -85 -135 -165 -135s-155 40 -165 135z" />
    <glyph glyph-name="uni040F" unicode="&#x40f;" horiz-adv-x="700" 
d="M65 700h130l5 -5v-555h300v555l5 5h130l5 -5v-690l-5 -5h-215v-175l-5 -5h-130l-5 5v175h-215l-5 5v690z" />
    <glyph glyph-name="uni0410" unicode="&#x410;" horiz-adv-x="700" 
d="M280 700h140l5 -5l265 -690l-5 -5h-155l-5 5l-50 140h-250l-50 -140l-5 -5h-155l-5 5l265 690zM350 520l-80 -235h160z" />
    <glyph glyph-name="uni0411" unicode="&#x411;" horiz-adv-x="560" 
d="M65 700h420l5 -5v-130l-5 -5h-285v-125h95c135 0 235 -75 235 -215s-100 -220 -235 -220h-230l-5 5v690zM200 295v-155h85c60 0 95 20 95 80c0 55 -35 75 -95 75h-85z" />
    <glyph glyph-name="uni0412" unicode="&#x412;" horiz-adv-x="560" 
d="M65 700h185c130 0 235 -70 235 -190c0 -60 -30 -105 -70 -125c60 -25 105 -95 105 -170c0 -140 -100 -215 -230 -215h-225l-5 5v690zM200 560v-130h50c55 0 80 25 80 65s-25 65 -80 65h-50zM200 290v-150h80c50 0 85 20 85 75s-35 75 -85 75h-80z" />
    <glyph glyph-name="uni0413" unicode="&#x413;" horiz-adv-x="560" 
d="M65 700h460l5 -5v-130l-5 -5h-325v-555l-5 -5h-130l-5 5v690z" />
    <glyph glyph-name="uni0414" unicode="&#x414;" horiz-adv-x="810" 
d="M205 700h480l5 -5v-555h75l5 -5v-310l-5 -5h-130l-5 5v175h-450v-175l-5 -5h-130l-5 5v310l5 5h86c10 20 14 40 21 70l48 485zM325 560l-33 -373c-2 -12 -2 -22 -7 -47h265v420h-225z" />
    <glyph glyph-name="uni0415" unicode="&#x415;" 
d="M65 700h470l5 -5v-130l-5 -5h-335v-125h245l5 -5v-130l-5 -5h-245v-155h345l5 -5v-130l-5 -5h-480l-5 5v690z" />
    <glyph glyph-name="uni0416" unicode="&#x416;" horiz-adv-x="1020" 
d="M445 700h130l5 -5v-240h60l180 240l10 5h155l5 -5l-235 -300l255 -390l-5 -5h-155l-10 5l-200 310h-60v-310l-5 -5h-130l-5 5v310h-60l-200 -310l-10 -5h-155l-5 5l255 390l-235 300l5 5h155l10 -5l180 -240h60v240z" />
    <glyph glyph-name="uni0417" unicode="&#x417;" horiz-adv-x="550" 
d="M120 525l-80 95c40 50 120 95 200 95c157 0 240 -84 240 -195c0 -60 -30 -110 -70 -140c70 -30 110 -100 110 -175c0 -120 -100 -220 -270 -220c-90 0 -180 35 -230 95l80 115h10c40 -35 90 -65 140 -65c80 0 115 40 115 75c0 60 -35 80 -100 80h-110l-5 5v130l5 5h100
c40 0 70 30 70 80c0 34 -35 65 -85 65c-40 0 -70 -15 -110 -45h-10z" />
    <glyph glyph-name="uni0418" unicode="&#x418;" horiz-adv-x="760" 
d="M65 700h130l5 -5v-455l350 455l10 5h135l5 -5v-690l-5 -5h-130l-5 5v455l-350 -455l-10 -5h-135l-5 5v690z" />
    <glyph glyph-name="uni0419" unicode="&#x419;" horiz-adv-x="760" 
d="M65 700h130l5 -5v-455l350 455l10 5h135l5 -5v-690l-5 -5h-130l-5 5v455l-350 -455l-10 -5h-135l-5 5v690zM220 905h103l5 -5c7 -20 22 -35 52 -35s45 15 50 35l5 5h105l5 -5c-10 -95 -85 -135 -165 -135s-155 40 -165 135z" />
    <glyph glyph-name="uni041A" unicode="&#x41a;" horiz-adv-x="680" 
d="M65 700h130l5 -5v-240h60l220 240l10 5h155l5 -5l-275 -300l295 -390l-5 -5h-155l-10 5l-240 310h-60v-310l-5 -5h-130l-5 5v690z" />
    <glyph glyph-name="uni041B" unicode="&#x41b;" horiz-adv-x="760" 
d="M230 700h465l5 -5v-690l-5 -5h-130l-5 5v555h-220l-65 -380c-30 -145 -120 -195 -250 -195l-5 7v123l5 5c60 0 105 30 120 95l75 480z" />
    <glyph glyph-name="uni041C" unicode="&#x41c;" horiz-adv-x="820" 
d="M65 700h130l10 -5l205 -255l205 255l10 5h130l5 -5v-690l-5 -5h-130l-5 5v480l-205 -250h-10l-205 250v-480l-5 -5h-130l-5 5v690z" />
    <glyph glyph-name="uni041D" unicode="&#x41d;" horiz-adv-x="720" 
d="M65 700h130l5 -5v-260h320v260l5 5h130l5 -5v-690l-5 -5h-130l-5 5v290h-320v-290l-5 -5h-130l-5 5v690z" />
    <glyph glyph-name="uni041E" unicode="&#x41e;" horiz-adv-x="820" 
d="M410 715c205 0 370 -160 370 -365s-165 -365 -370 -365s-370 160 -370 365s165 365 370 365zM410 570c-120 0 -215 -95 -215 -220s95 -220 215 -220s215 95 215 220s-95 220 -215 220z" />
    <glyph glyph-name="uni041F" unicode="&#x41f;" horiz-adv-x="700" 
d="M65 700h570l5 -5v-690l-5 -5h-130l-5 5v555h-300v-555l-5 -5h-130l-5 5v690z" />
    <glyph glyph-name="uni0420" unicode="&#x420;" horiz-adv-x="560" 
d="M65 700h215c160 0 250 -105 250 -225s-90 -225 -250 -225h-80v-245l-5 -5h-130l-5 5v690zM200 560v-170h70c65 0 105 25 105 85s-40 85 -105 85h-70z" />
    <glyph glyph-name="uni0421" unicode="&#x421;" horiz-adv-x="710" 
d="M650 495l-5 -5c-65 55 -140 80 -235 80c-120 0 -215 -100 -215 -220s95 -220 215 -220c95 0 170 25 235 80l5 -5v-155c-65 -47 -145 -65 -240 -65c-204 0 -370 164 -370 365s166 365 370 365c95 0 175 -18 240 -65v-155z" />
    <glyph glyph-name="uni0422" unicode="&#x422;" horiz-adv-x="620" 
d="M35 700h550l5 -5v-130l-5 -5h-205v-555l-5 -5h-130l-5 5v555h-205l-5 5v130z" />
    <glyph glyph-name="uni0423" unicode="&#x423;" horiz-adv-x="680" 
d="M15 700h140l10 -5l175 -390l175 390l10 5h140l5 -5l-280 -580c-40 -70 -105 -130 -270 -130l-5 7v118l5 5c80 0 110 15 137 40l8 10l-255 530z" />
    <glyph glyph-name="uni0424" unicode="&#x424;" horiz-adv-x="820" 
d="M345 740h130l5 -5v-85c170 -15 300 -135 300 -300s-130 -285 -300 -300v-85l-5 -5h-130l-5 5v85c-170 15 -300 135 -300 300s130 285 300 300v85zM340 190v320c-85 -10 -145 -75 -145 -160s60 -150 145 -160zM480 510v-320c85 10 145 75 145 160s-60 150 -145 160z" />
    <glyph glyph-name="uni0425" unicode="&#x425;" horiz-adv-x="720" 
d="M45 700h160l10 -5l145 -210l145 210l10 5h160l5 -5l-235 -325l265 -365l-5 -5h-160l-10 5l-175 250l-175 -250l-10 -5h-160l-5 5l265 365l-235 325z" />
    <glyph glyph-name="uni0426" unicode="&#x426;" horiz-adv-x="780" 
d="M65 700h130l5 -5v-555h300v555l5 5h130l5 -5v-555h95l5 -5v-310l-5 -5h-130l-5 5v175h-535l-5 5v690z" />
    <glyph glyph-name="uni0427" unicode="&#x427;" horiz-adv-x="680" 
d="M55 700h130l5 -5v-140c0 -110 50 -163 145 -163c65 0 135 33 145 78v225l5 5h130l5 -5v-690l-5 -5h-130l-5 5v290c-40 -35 -110 -50 -145 -50c-165 0 -285 100 -285 285v165z" />
    <glyph glyph-name="uni0428" unicode="&#x428;" horiz-adv-x="1000" 
d="M65 700h130l5 -5v-555h230v555l5 5h130l5 -5v-555h230v555l5 5h130l5 -5v-690l-5 -5h-870l-5 5v690z" />
    <glyph glyph-name="uni0429" unicode="&#x429;" horiz-adv-x="1080" 
d="M65 700h130l5 -5v-555h230v555l5 5h130l5 -5v-555h230v555l5 5h130l5 -5v-555h95l5 -5v-310l-5 -5h-130l-5 5v175h-835l-5 5v690z" />
    <glyph glyph-name="uni042A" unicode="&#x42a;" horiz-adv-x="740" 
d="M35 700h340l5 -5v-260h95c135 0 235 -75 235 -215s-100 -220 -235 -220h-230l-5 5v555h-205l-5 5v130zM380 295v-155h85c60 0 95 20 95 80c0 55 -35 75 -95 75h-85z" />
    <glyph glyph-name="uni042B" unicode="&#x42b;" horiz-adv-x="800" 
d="M65 700h130l5 -5v-260h95c135 0 235 -75 235 -215s-100 -220 -235 -220h-230l-5 5v690zM200 295v-155h85c60 0 95 20 95 80c0 55 -35 75 -95 75h-85zM605 700h130l5 -5v-690l-5 -5h-130l-5 5v690z" />
    <glyph glyph-name="uni042C" unicode="&#x42c;" 
d="M65 700h130l5 -5v-260h115c135 0 235 -75 235 -215s-100 -220 -235 -220h-250l-5 5v690zM200 295v-155h105c60 0 95 20 95 80c0 55 -35 75 -95 75h-105z" />
    <glyph glyph-name="uni042D" unicode="&#x42d;" horiz-adv-x="710" 
d="M60 495v155c65 47 145 65 240 65c204 0 370 -164 370 -365s-166 -365 -370 -365c-95 0 -175 18 -240 65v155l5 5c65 -55 140 -80 235 -80c99 0 181 68 207 160h-302l-5 5v130l5 5h296c-31 81 -109 140 -201 140c-95 0 -170 -25 -235 -80z" />
    <glyph glyph-name="uni042E" unicode="&#x42e;" horiz-adv-x="1040" 
d="M65 700h130l5 -5v-260h89c38 160 180 280 351 280c199 0 360 -163 360 -363c0 -203 -161 -367 -360 -367c-180 0 -329 134 -356 310h-84v-290l-5 -5h-130l-5 5v690zM640 570c-110 0 -205 -94 -205 -217c0 -126 95 -223 205 -223s205 97 205 223c0 123 -95 217 -205 217z
" />
    <glyph glyph-name="uni042F" unicode="&#x42f;" horiz-adv-x="640" 
d="M575 700l5 -5v-690l-5 -5h-130l-5 5v275h-50l-210 -275l-5 -5h-160l-5 5l240 320c-65 30 -95 85 -95 165c0 115 85 210 225 210h195zM440 560h-50c-55 0 -85 -20 -85 -70s30 -70 85 -70h50v140z" />
    <glyph glyph-name="uni0430" unicode="&#x430;" horiz-adv-x="510" 
d="M55 310l55 145c30 15 70 30 125 30c110 0 225 -65 225 -200v-280l-5 -5h-130l-5 5v15c-40 -25 -74 -35 -115 -35c-75 0 -165 40 -165 145c0 120 125 170 280 175c0 25 -35 60 -90 60s-110 -20 -170 -60zM320 135v75c-105 -5 -140 -30 -140 -65c0 -25 25 -40 45 -40
c35 0 60 10 95 30z" />
    <glyph glyph-name="uni0431" unicode="&#x431;" 
d="M480 710v-130l-5 -5c-13 -5 -48 -10 -65 -10c-40 0 -80 10 -110 10c-60 0 -100 -65 -105 -130c35 15 70 20 105 20c130 0 240 -105 240 -235c0 -142 -109 -245 -240 -245c-130 0 -260 77 -260 350c0 295 155 380 250 380c45 0 85 -10 120 -10c25 0 50 5 65 10zM185 295
c0 -105 40 -175 115 -175c60 0 95 45 95 110c0 55 -40 100 -95 100c-45 0 -70 -5 -115 -35z" />
    <glyph glyph-name="uni0432" unicode="&#x432;" horiz-adv-x="540" 
d="M65 470h215c95 0 190 -30 190 -130c0 -40 -10 -65 -40 -88c45 -17 70 -47 70 -112c0 -93 -80 -140 -180 -140h-255l-5 5v460zM200 340v-50h105c15 0 25 7 25 25s-10 25 -25 25h-105zM200 190v-60h130c20 0 30 12 30 30s-10 30 -30 30h-130z" />
    <glyph glyph-name="uni0433" unicode="&#x433;" horiz-adv-x="440" 
d="M65 470h340l5 -5v-130l-5 -5h-205v-325l-5 -5h-130l-5 5v460z" />
    <glyph glyph-name="uni0434" unicode="&#x434;" horiz-adv-x="660" 
d="M160 470h375l5 -5v-325h75l5 -5v-270l-5 -5h-130l-5 5v135h-300v-135l-5 -5h-130l-5 5v270l5 5h65c10 20 15 40 17 55l28 270zM280 330l-13 -138c-2 -22 -2 -32 -7 -52h140v190h-120z" />
    <glyph glyph-name="uni0435" unicode="&#x435;" horiz-adv-x="550" 
d="M495 160v-125c-45 -30 -115 -50 -180 -50c-165 0 -275 110 -275 255c0 135 95 245 245 245c145 0 225 -120 225 -215c0 -30 0 -45 -5 -65l-5 -5h-320c15 -70 70 -95 135 -95c55 0 115 15 175 60zM185 300h185c-5 35 -40 65 -85 65c-60 0 -85 -30 -100 -65z" />
    <glyph glyph-name="uni0436" unicode="&#x436;" horiz-adv-x="780" 
d="M325 470h130l5 -5v-145h25l105 145l10 5h145l5 -5l-150 -210l170 -250l-5 -5h-155l-10 5l-115 175h-25v-175l-5 -5h-130l-5 5v175h-25l-115 -175l-10 -5h-155l-5 5l170 250l-150 210l5 5h145l10 -5l105 -145h25v145z" />
    <glyph glyph-name="uni0437" unicode="&#x437;" horiz-adv-x="480" 
d="M50 320v126c50 29 105 39 155 39c145 0 215 -65 215 -145c0 -40 -20 -70 -50 -90c40 -20 70 -60 70 -120c0 -90 -85 -145 -235 -145c-55 0 -125 15 -165 45v125l5 5c50 -40 115 -55 160 -55c65 0 95 20 95 45s-17 40 -40 40h-110l-5 5v90l5 5h100c20 0 30 15 30 30
c0 25 -20 45 -75 45c-50 0 -100 -15 -150 -50z" />
    <glyph glyph-name="uni0438" unicode="&#x438;" 
d="M65 470h130l5 -5v-235l167 235l10 5h137l6 -5v-460l-6 -5h-130l-4 5v235l-167 -235l-10 -5h-138l-5 5v460z" />
    <glyph glyph-name="uni0439" unicode="&#x439;" 
d="M65 470h130l5 -5v-235l167 235l10 5h137l6 -5v-460l-6 -5h-130l-4 5v235l-167 -235l-10 -5h-138l-5 5v460zM110 690h125l5 -5c0 -30 20 -45 50 -45s50 15 50 45l5 5h125l5 -5c-9 -115 -90 -165 -185 -165s-175 50 -185 165z" />
    <glyph glyph-name="uni043A" unicode="&#x43a;" horiz-adv-x="560" 
d="M65 470h130l5 -5v-145h40l115 145l10 5h150l5 -5l-170 -210l200 -250l-5 -5h-155l-10 5l-140 175h-40v-175l-5 -5h-130l-5 5v460z" />
    <glyph glyph-name="uni043B" unicode="&#x43b;" horiz-adv-x="600" 
d="M160 470h375l5 -5v-460l-5 -5h-130l-5 5v325h-120l-30 -198c-20 -87 -85 -147 -225 -147l-5 5v125l5 5c45 0 80 20 95 80l35 265z" />
    <glyph glyph-name="uni043C" unicode="&#x43c;" horiz-adv-x="670" 
d="M65 470h122l10 -5l138 -170l137 170l10 5h123l5 -5v-460l-5 -5h-130l-5 5v250l-130 -165h-10l-130 165v-250l-5 -5h-130l-5 5v460z" />
    <glyph glyph-name="uni043D" unicode="&#x43d;" 
d="M65 470h130l5 -5v-145h180v145l5 5h130l5 -5v-460l-5 -5h-130l-5 5v175h-180v-175l-5 -5h-130l-5 5v460z" />
    <glyph glyph-name="uni043E" unicode="&#x43e;" 
d="M290 485c140 0 250 -110 250 -250s-110 -250 -250 -250s-250 110 -250 250s110 250 250 250zM290 350c-65 0 -110 -50 -110 -115s45 -115 110 -115s110 50 110 115s-45 115 -110 115z" />
    <glyph glyph-name="uni043F" unicode="&#x43f;" 
d="M65 470h450l5 -5v-460l-5 -5h-130l-5 5v325h-180v-325l-5 -5h-130l-5 5v460z" />
    <glyph glyph-name="uni0440" unicode="&#x440;" horiz-adv-x="600" 
d="M65 470h130l5 -5v-15c32 20 75 35 120 35c138 0 240 -112 240 -250s-102 -250 -240 -250c-45 0 -88 15 -120 35v-245l-5 -5h-130l-5 5v690zM200 290v-110c30 -45 70 -60 110 -60c61 0 110 52 110 115s-49 115 -110 115c-40 0 -80 -20 -110 -60z" />
    <glyph glyph-name="uni0441" unicode="&#x441;" horiz-adv-x="500" 
d="M460 300l-5 -5c-50 40 -110 55 -155 55c-75 0 -120 -50 -120 -115s45 -115 120 -115c45 0 105 15 155 55l5 -5v-135c-40 -30 -95 -50 -160 -50c-155 0 -260 112 -260 250s105 250 260 250c65 0 120 -20 160 -50v-135z" />
    <glyph glyph-name="uni0442" unicode="&#x442;" horiz-adv-x="460" 
d="M15 470h430l5 -5v-130l-5 -5h-145v-325l-5 -5h-130l-5 5v325h-145l-5 5v130z" />
    <glyph glyph-name="uni0443" unicode="&#x443;" horiz-adv-x="560" 
d="M15 470h145l10 -5l110 -255l110 255l10 5h145l5 -5l-280 -580c-40 -70 -110 -125 -240 -125l-5 7v118l5 5c60 0 100 20 125 70l50 100l-195 405z" />
    <glyph glyph-name="uni0444" unicode="&#x444;" horiz-adv-x="680" 
d="M275 700h130l5 -5v-215c135 -20 230 -121 230 -245c0 -125 -90 -225 -230 -245v-215l-5 -5h-130l-5 5v215c-140 20 -230 120 -230 245c0 124 95 225 230 245v215zM270 125v220c-60 -20 -85 -58 -85 -110s20 -90 85 -110zM410 345v-220c65 20 85 58 85 110s-25 90 -85 110
z" />
    <glyph glyph-name="uni0445" unicode="&#x445;" horiz-adv-x="520" 
d="M25 470h155l10 -5l70 -100l70 100l10 5h155l5 -5l-160 -220l170 -240l-5 -5h-155l-10 5l-80 115l-80 -115l-10 -5h-155l-5 5l170 240l-160 220z" />
    <glyph glyph-name="uni0446" unicode="&#x446;" horiz-adv-x="660" 
d="M65 470h130l5 -5v-325h180v325l5 5h130l5 -5v-325h95l5 -5v-270l-5 -5h-130l-5 5v135h-415l-5 5v460z" />
    <glyph glyph-name="uni0447" unicode="&#x447;" 
d="M55 470h130l5 -5v-85c0 -70 30 -115 100 -115c40 0 65 5 90 25v175l5 5h130l5 -5v-460l-5 -5h-130l-5 5v152c-30 -12 -60 -22 -105 -22c-150 0 -225 100 -225 240v90z" />
    <glyph glyph-name="uni0448" unicode="&#x448;" horiz-adv-x="840" 
d="M65 470h130l5 -5v-325h150v325l5 5h130l5 -5v-325h150v325l5 5h130l5 -5v-460l-5 -5h-710l-5 5v460z" />
    <glyph glyph-name="uni0449" unicode="&#x449;" horiz-adv-x="920" 
d="M65 470h130l5 -5v-325h150v325l5 5h130l5 -5v-325h150v325l5 5h130l5 -5v-325h95l5 -5v-270l-5 -5h-130l-5 5v135h-675l-5 5v460z" />
    <glyph glyph-name="uni044A" unicode="&#x44a;" horiz-adv-x="620" 
d="M35 470h280l5 -5v-125h100c80 0 170 -48 170 -170c0 -123 -90 -170 -170 -170h-235l-5 5v325h-145l-5 5v130zM320 220v-80h80c30 0 45 15 45 40s-15 40 -45 40h-80z" />
    <glyph glyph-name="uni044B" unicode="&#x44b;" horiz-adv-x="740" 
d="M65 470h130l5 -5v-125h100c80 0 170 -48 170 -170c0 -123 -90 -170 -170 -170h-235l-5 5v460zM200 220v-80h80c30 0 45 15 45 40s-15 40 -45 40h-80zM545 470h130l5 -5v-460l-5 -5h-130l-5 5v460z" />
    <glyph glyph-name="uni044C" unicode="&#x44c;" horiz-adv-x="520" 
d="M65 470h130l5 -5v-125h120c80 0 170 -48 170 -170c0 -123 -90 -170 -170 -170h-255l-5 5v460zM200 220v-80h100c30 0 45 15 45 40s-15 40 -45 40h-100z" />
    <glyph glyph-name="uni044D" unicode="&#x44d;" horiz-adv-x="500" 
d="M40 300v135c40 30 95 50 160 50c155 0 260 -112 260 -250s-105 -250 -260 -250c-65 0 -120 20 -160 50v135l5 5c50 -40 110 -55 155 -55c52 0 90 24 108 60h-183l-5 5v100l5 5h183c-18 36 -56 60 -108 60c-45 0 -105 -15 -155 -55z" />
    <glyph glyph-name="uni044E" unicode="&#x44e;" horiz-adv-x="810" 
d="M85 470h130l5 -5v-155h61c31 102 125 175 239 175c140 0 250 -110 250 -250s-110 -250 -250 -250c-118 0 -214 77 -242 185h-58v-165l-5 -5h-130l-5 5v460zM520 350c-65 0 -110 -50 -110 -115s45 -115 110 -115s110 50 110 115s-45 115 -110 115z" />
    <glyph glyph-name="uni044F" unicode="&#x44f;" horiz-adv-x="540" 
d="M475 470l5 -5v-460l-5 -5h-130l-5 5v125h-30l-110 -125l-10 -5h-175l-5 5l130 145c-65 25 -100 75 -100 150c0 117 87 170 165 170h270zM340 330h-110c-30 0 -45 -15 -45 -40s15 -40 45 -40h110v80z" />
    <glyph glyph-name="uni0450" unicode="&#x450;" horiz-adv-x="550" 
d="M495 160v-125c-45 -30 -115 -50 -180 -50c-165 0 -275 110 -275 255c0 135 95 245 245 245c145 0 225 -120 225 -215c0 -30 0 -45 -5 -65l-5 -5h-320c15 -70 70 -95 135 -95c55 0 115 15 175 60zM185 300h185c-5 35 -40 65 -85 65c-60 0 -85 -30 -100 -65zM94 690h156
l10 -5l135 -145l-5 -5h-130l-10 5l-160 145z" />
    <glyph glyph-name="uni0451" unicode="&#x451;" horiz-adv-x="550" 
d="M495 160v-125c-45 -30 -115 -50 -180 -50c-165 0 -275 110 -275 255c0 135 95 245 245 245c145 0 225 -120 225 -215c0 -30 0 -45 -5 -65l-5 -5h-320c15 -70 70 -95 135 -95c55 0 115 15 175 60zM185 300h185c-5 35 -40 65 -85 65c-60 0 -85 -30 -100 -65zM160 695h10
l80 -80v-10l-80 -80h-10l-80 80v10zM390 695h10l80 -80v-10l-80 -80h-10l-80 80v10z" />
    <glyph glyph-name="uni0452" unicode="&#x452;" horiz-adv-x="600" 
d="M65 700h130l5 -5v-50h175l5 -5v-130l-5 -5h-175v-95c35 20 80 35 125 35c150 0 225 -85 225 -220v-295c0 -130 -70 -195 -185 -195c-10 0 -35 0 -55 10v130l5 5c20 -10 30 -10 40 -10c30 0 55 10 55 95v235c0 80 -40 110 -100 110c-40 0 -82 -19 -110 -50v-255l-5 -5
h-130l-5 5v500h-55l-5 5v130l5 5h55v50z" />
    <glyph glyph-name="uni0453" unicode="&#x453;" horiz-adv-x="440" 
d="M65 470h340l5 -5v-130l-5 -5h-205v-325l-5 -5h-130l-5 5v460zM280 690h156l4 -5l-160 -145l-10 -5h-130l-5 5l135 145z" />
    <glyph glyph-name="uni0454" unicode="&#x454;" horiz-adv-x="500" 
d="M460 300l-5 -5c-50 40 -110 55 -155 55c-52 0 -90 -24 -108 -60h183l5 -5v-100l-5 -5h-183c18 -36 56 -60 108 -60c45 0 105 15 155 55l5 -5v-135c-40 -30 -95 -50 -160 -50c-155 0 -260 112 -260 250s105 250 260 250c65 0 120 -20 160 -50v-135z" />
    <glyph glyph-name="uni0455" unicode="&#x455;" horiz-adv-x="470" 
d="M390 315l-5 -5c-60 35 -100 45 -150 45c-25 0 -45 -10 -45 -30c0 -45 240 -5 240 -180c0 -85 -75 -160 -195 -160c-60 0 -135 15 -180 45v136l5 4c55 -35 120 -55 175 -55c40 0 55 10 55 30c0 55 -240 15 -240 180c0 80 70 160 185 160c70 0 115 -15 155 -40v-130z" />
    <glyph glyph-name="uni0456" unicode="&#x456;" horiz-adv-x="260" 
d="M65 470h130l5 -5v-460l-5 -5h-130l-5 5v460zM125 705h10l90 -90v-10l-90 -90h-10l-90 90v10z" />
    <glyph glyph-name="uni0457" unicode="&#x457;" horiz-adv-x="260" 
d="M25 695h10l80 -80v-10l-80 -80h-10l-80 80v10zM225 695h10l80 -80v-10l-80 -80h-10l-80 80v10zM65 470h130l5 -5v-460l-5 -5h-130l-5 5v460z" />
    <glyph glyph-name="uni0458" unicode="&#x458;" horiz-adv-x="260" 
d="M65 470h130l5 -5v-535c0 -130 -70 -195 -185 -195c-10 0 -35 0 -55 10v130l5 5c20 -10 30 -10 40 -10c30 0 55 10 55 95v500zM125 705h10l90 -90v-10l-90 -90h-10l-90 90v10z" />
    <glyph glyph-name="uni0459" unicode="&#x459;" horiz-adv-x="820" 
d="M160 470h355l5 -5v-125h100c80 0 170 -48 170 -170c0 -123 -90 -170 -170 -170h-235l-5 5v325h-100l-30 -198c-20 -87 -85 -147 -225 -147l-5 7v123l5 5c45 0 80 20 95 80l35 265zM520 220v-80h80c30 0 45 15 45 40s-15 40 -45 40h-80z" />
    <glyph glyph-name="uni045A" unicode="&#x45a;" horiz-adv-x="800" 
d="M65 470h130l5 -5v-145h160v145l5 5h130l5 -5v-125h100c80 0 170 -48 170 -170c0 -123 -90 -170 -170 -170h-235l-5 5v175h-160v-175l-5 -5h-130l-5 5v460zM500 220v-80h80c30 0 45 15 45 40s-15 40 -45 40h-80z" />
    <glyph glyph-name="uni045B" unicode="&#x45b;" horiz-adv-x="600" 
d="M65 700h130l5 -5v-50h175l5 -5v-130l-5 -5h-175v-95c35 20 80 35 125 35c150 0 225 -85 225 -220v-220l-5 -5h-130l-5 5v195c0 80 -40 110 -100 110c-40 0 -82 -19 -110 -50v-255l-5 -5h-130l-5 5v500h-55l-5 5v130l5 5h55v50z" />
    <glyph glyph-name="uni045C" unicode="&#x45c;" 
d="M320 690h156l4 -5l-160 -145l-10 -5h-130l-5 5l135 145zM65 470h130l5 -5v-145h40l115 145l10 5h150l5 -5l-170 -210l200 -250l-5 -5h-155l-10 5l-140 175h-40v-175l-5 -5h-130l-5 5v460z" />
    <glyph glyph-name="uni045D" unicode="&#x45d;" 
d="M65 470h130l5 -5v-235l167 235l10 5h137l6 -5v-460l-6 -5h-130l-4 5v235l-167 -235l-10 -5h-138l-5 5v460zM104 690h156l10 -5l135 -145l-5 -5h-130l-10 5l-160 145z" />
    <glyph glyph-name="uni045E" unicode="&#x45e;" horiz-adv-x="560" 
d="M15 470h145l10 -5l110 -255l110 255l10 5h145l5 -5l-280 -580c-40 -70 -110 -125 -240 -125l-5 7v118l5 5c60 0 100 20 125 70l50 100l-195 405zM100 690h125l5 -5c0 -30 20 -45 50 -45s50 15 50 45l5 5h125l5 -5c-9 -115 -90 -165 -185 -165s-175 50 -185 165z" />
    <glyph glyph-name="uni045F" unicode="&#x45f;" horiz-adv-x="560" 
d="M65 470h130l5 -5v-325h160v325l5 5h130l5 -5v-460l-5 -5h-145v-135l-5 -5h-130l-5 5v135h-145l-5 5v460z" />
    <glyph glyph-name="uni0460" unicode="&#x460;" horiz-adv-x="940" 
d="M404 500h132l4 -4v-261c0 -75 25 -120 105 -120c45 0 110 45 110 205c0 136 -75 270 -163 375l5 5h150l10 -5c70 -85 143 -224 143 -375c0 -256 -144 -335 -255 -335c-95 0 -135 25 -175 65c-40 -40 -80 -65 -175 -65c-112 0 -255 79 -255 335c0 152 72 290 142 376l10 4
h150l5 -5c-87 -105 -162 -238 -162 -375c0 -160 65 -205 110 -205c80 0 105 45 105 120v261z" />
    <glyph glyph-name="uni0461" unicode="&#x461;" horiz-adv-x="780" 
d="M334 370h112l4 -4v-131c0 -67 20 -115 75 -115s75 40 75 115c0 65 -25 135 -73 231l4 4h145l4 -4c40 -91 60 -151 60 -231c0 -155 -80 -250 -205 -250c-70 0 -105 15 -145 60c-40 -45 -75 -60 -145 -60c-125 0 -205 95 -205 250c0 80 20 140 60 231l4 4h144l4 -4
c-47 -96 -72 -166 -72 -231c0 -75 20 -115 75 -115s75 48 75 115v131z" />
    <glyph glyph-name="uni0462" unicode="&#x462;" horiz-adv-x="720" 
d="M205 740h130l5 -5v-95h205l5 -5v-130l-5 -5h-205v-65h115c135 0 235 -75 235 -215s-100 -220 -235 -220h-250l-5 5v495h-165l-5 5v130l5 5h165v95zM340 295v-155h105c60 0 95 20 95 80c0 55 -35 75 -95 75h-105z" />
    <glyph glyph-name="uni0463" unicode="&#x463;" horiz-adv-x="640" 
d="M185 700h130l5 -5v-155h165l5 -5v-130l-5 -5h-165v-60h120c80 0 170 -48 170 -170c0 -123 -90 -170 -170 -170h-255l-5 5v395h-145l-5 5v130l5 5h145v155zM320 220v-80h100c30 0 45 15 45 40s-15 40 -45 40h-100z" />
    <glyph glyph-name="uni0464" unicode="&#x464;" horiz-adv-x="950" 
d="M85 700h130l5 -5v-260h70c39 160 185 280 360 280c95 0 175 -18 240 -65v-155l-5 -5c-65 55 -140 80 -235 80c-92 0 -170 -59 -201 -140h296l5 -5v-130l-5 -5h-302c26 -92 108 -160 207 -160c95 0 170 25 235 80l5 -5v-155c-65 -47 -145 -65 -240 -65
c-185 0 -339 135 -366 310h-64v-290l-5 -5h-130l-5 5v690z" />
    <glyph glyph-name="uni0465" unicode="&#x465;" horiz-adv-x="730" 
d="M85 470h130l5 -5v-168h57c27 108 122 188 253 188c65 0 120 -20 160 -50v-135l-5 -5c-50 40 -110 55 -155 55c-52 0 -90 -24 -108 -60h183l5 -5v-100l-5 -5h-183c18 -36 56 -60 108 -60c45 0 105 15 155 55l5 -5v-135c-40 -30 -95 -50 -160 -50c-137 0 -234 87 -256 202
h-54v-182l-5 -5h-130l-5 5v460z" />
    <glyph glyph-name="uni0466" unicode="&#x466;" horiz-adv-x="700" 
d="M280 700h140l5 -5l265 -690l-5 -5h-155l-5 5l-50 140h-55v-140l-5 -5h-130l-5 5v140h-55l-50 -140l-5 -5h-155l-5 5l265 690zM350 520l-80 -235h160z" />
    <glyph glyph-name="uni0467" unicode="&#x467;" horiz-adv-x="540" 
d="M207 470h125l5 -5l193 -460l-5 -5h-140l-10 5l-24 60h-21v-60l-5 -5h-110l-5 5v60h-22l-23 -60l-10 -5h-140l-5 5l192 460zM270 280l-40 -95h80z" />
    <glyph glyph-name="uni0468" unicode="&#x468;" horiz-adv-x="960" 
d="M65 700h130l5 -5v-260h235l100 260l5 5h140l5 -5l265 -690l-5 -5h-155l-5 5l-50 140h-55v-140l-5 -5h-130l-5 5v140h-55l-50 -140l-5 -5h-155l-5 5l110 290h-180v-290l-5 -5h-130l-5 5v690zM610 520l-80 -235h160z" />
    <glyph glyph-name="uni0469" unicode="&#x469;" horiz-adv-x="760" 
d="M65 470h130l5 -5v-155h157l65 155l5 5h125l5 -5l193 -460l-5 -5h-140l-10 5l-24 60h-21v-60l-5 -5h-110l-5 5v60h-22l-23 -60l-10 -5h-140l-5 5l69 165h-99v-165l-5 -5h-130l-5 5v460zM490 280l-40 -95h80z" />
    <glyph glyph-name="uni046A" unicode="&#x46a;" horiz-adv-x="900" 
d="M60 700h780l5 -5l-230 -310l275 -380l-5 -5h-160l-10 5l-195 275v-275l-5 -5h-130l-5 5v275l-195 -275l-10 -5h-160l-5 5l275 380l-230 310zM340 560l110 -160l110 160h-220z" />
    <glyph glyph-name="uni046B" unicode="&#x46b;" horiz-adv-x="700" 
d="M40 470h620l5 -5l-145 -205l170 -255l-5 -5h-158l-10 5l-97 155v-155l-5 -5h-130l-5 5v155l-98 -155l-10 -5h-157l-5 5l170 255l-145 205zM275 350l75 -90l75 90h-150z" />
    <glyph glyph-name="uni046C" unicode="&#x46c;" horiz-adv-x="1140" 
d="M65 700h130l5 -5v-260h288l-193 260l5 5h780l5 -5l-230 -310l275 -380l-5 -5h-160l-10 5l-195 275v-275l-5 -5h-130l-5 5v275l-195 -275l-10 -5h-160l-5 5l210 290h-260v-290l-5 -5h-130l-5 5v690zM580 560l110 -160l110 160h-220z" />
    <glyph glyph-name="uni046D" unicode="&#x46d;" horiz-adv-x="920" 
d="M65 470h130l5 -5v-155h165l-110 155l5 5h620l5 -5l-145 -205l170 -255l-5 -5h-158l-10 5l-97 155v-155l-5 -5h-130l-5 5v155l-98 -155l-10 -5h-157l-5 5l110 165h-140v-165l-5 -5h-130l-5 5v460zM495 350l75 -90l75 90h-150z" />
    <glyph glyph-name="uni046E" unicode="&#x46e;" horiz-adv-x="550" 
d="M45 905h140l10 -5l45 -55l45 55l10 5h140l5 -5l-120 -125l-10 -5h-140l-10 7l-120 123zM120 525l-80 95c40 50 120 95 200 95c157 0 240 -84 240 -195c0 -60 -30 -110 -70 -140c70 -30 110 -100 110 -175c0 -120 -100 -220 -270 -220h-15l20 -160l-5 -5h-115l-5 5
l-60 295l5 5h150c120 0 140 45 140 80c0 60 -35 80 -100 80h-110l-5 5v130l5 5h100c40 0 70 30 70 80c0 34 -35 65 -85 65c-40 0 -70 -15 -110 -45h-10z" />
    <glyph glyph-name="uni046F" unicode="&#x46f;" horiz-adv-x="485" 
d="M50 320v126c50 29 105 39 155 39c145 0 215 -65 215 -145c0 -40 -20 -70 -50 -90c40 -20 70 -60 70 -120c0 -80 -63 -145 -215 -145h-13l12 -140l-5 -5h-115l-5 5l-54 275l5 5h145c72 0 105 10 105 35c0 20 -17 30 -40 30h-110l-5 5v90l5 5h100c20 0 30 15 30 30
c0 25 -20 45 -75 45c-50 0 -100 -15 -150 -50zM25 690h135l10 -5l50 -65l50 65l10 5h135l5 -5l-130 -145l-10 -5h-120l-10 5l-130 145z" />
    <glyph glyph-name="uni0470" unicode="&#x470;" horiz-adv-x="760" 
d="M315 700h130l5 -5v-346c74 23 120 86 120 191v155l5 5h130l5 -5v-175c0 -179 -107 -294 -260 -320v-195l-5 -5h-130l-5 5v195c-154 26 -260 141 -260 320v175l5 5h130l5 -5v-155c0 -105 45 -168 120 -191v346z" />
    <glyph glyph-name="uni0471" unicode="&#x471;" horiz-adv-x="680" 
d="M55 470h130l5 -5v-240c0 -65 30 -90 80 -105v576l4 4h132l4 -4v-576c70 15 90 75 90 125c0 75 -5 105 -45 220l4 5h132l9 -5c35 -105 40 -130 40 -220c0 -140 -92 -245 -230 -257v-214l-4 -4h-132l-4 4v211c-132 15 -220 95 -220 235v245z" />
    <glyph glyph-name="uni0472" unicode="&#x472;" horiz-adv-x="820" 
d="M410 715c204 0 370 -164 370 -365s-166 -365 -370 -365s-370 164 -370 365s166 365 370 365zM210 435h400c-30 85 -110 135 -200 135s-170 -50 -200 -135zM620 295h-420c20 -105 110 -165 210 -165s190 60 210 165z" />
    <glyph glyph-name="uni0473" unicode="&#x473;" 
d="M290 485c142 0 250 -110 250 -250s-108 -250 -250 -250c-143 0 -250 110 -250 250s107 250 250 250zM194 285h192c-16 45 -50 65 -96 65c-45 0 -80 -20 -96 -65zM386 185h-192c16 -45 51 -65 96 -65c46 0 80 20 96 65z" />
    <glyph glyph-name="uni0474" unicode="&#x474;" horiz-adv-x="700" 
d="M15 700h150l5 -5l180 -485l125 360c29 76 75 145 220 145l5 -8v-122l-5 -5c-45 0 -73 -26 -95 -75l-175 -500l-5 -5h-140l-5 5l-265 690z" />
    <glyph glyph-name="uni0475" unicode="&#x475;" horiz-adv-x="520" 
d="M15 470h145l5 -5l95 -275l45 150c29 76 65 145 210 145l5 -8v-122l-5 -5c-45 0 -65 -25 -85 -75l-105 -270l-5 -5h-120l-5 5l-185 460z" />
    <glyph glyph-name="uni0476" unicode="&#x476;" horiz-adv-x="700" 
d="M15 700h150l5 -5l180 -485l125 360c29 76 75 145 220 145l5 -8v-122l-5 -5c-45 0 -73 -26 -95 -75l-175 -500l-5 -5h-140l-5 5l-265 690zM290 905h150l10 -5l73 -125l-5 -5h-123l-10 5l-100 125zM80 905h150l10 -5l73 -125l-5 -5h-123l-10 5l-100 125z" />
    <glyph glyph-name="uni0477" unicode="&#x477;" horiz-adv-x="520" 
d="M15 470h145l5 -5l95 -275l45 150c29 76 65 145 210 145l5 -8v-122l-5 -5c-45 0 -65 -25 -85 -75l-105 -270l-5 -5h-120l-5 5l-185 460zM-9 690h135l10 -5l90 -145l-5 -5h-115l-10 5l-110 145zM181 690h135l10 -5l90 -145l-5 -5h-115l-10 5l-110 145z" />
    <glyph glyph-name="uni0478" unicode="&#x478;" horiz-adv-x="1380" 
d="M410 715c205 0 370 -160 370 -365s-165 -365 -370 -365s-370 160 -370 365s165 365 370 365zM410 570c-120 0 -215 -95 -215 -220s95 -220 215 -220s215 95 215 220s-95 220 -215 220zM835 470h145l10 -5l110 -255l110 255l10 5h145l5 -5l-280 -580
c-40 -70 -110 -125 -240 -125l-5 7v118l5 5c60 0 100 20 125 70l50 100l-195 405z" />
    <glyph glyph-name="uni0479" unicode="&#x479;" horiz-adv-x="1120" 
d="M290 485c140 0 250 -110 250 -250s-110 -250 -250 -250s-250 110 -250 250s110 250 250 250zM290 350c-65 0 -110 -50 -110 -115s45 -115 110 -115s110 50 110 115s-45 115 -110 115zM575 470h145l10 -5l110 -255l110 255l10 5h145l5 -5l-280 -580
c-40 -70 -110 -125 -240 -125l-5 7v118l5 5c60 0 100 20 125 70l50 100l-195 405z" />
    <glyph glyph-name="uni047A" unicode="&#x47a;" horiz-adv-x="820" 
d="M405 780h10l73 -73c167 -35 292 -179 292 -357c0 -179 -125 -323 -292 -357l-73 -73h-10l-73 73c-168 34 -292 178 -292 357c0 178 124 322 292 357zM405 480l-75 75c-80 -32 -135 -110 -135 -205c0 -96 55 -174 135 -205l75 75h10l75 -75c79 31 135 109 135 205
c0 95 -56 173 -135 205l-75 -75h-10z" />
    <glyph glyph-name="uni047B" unicode="&#x47b;" 
d="M285 535h10l57 -58c109 -27 188 -124 188 -242c0 -119 -79 -216 -188 -242l-57 -58h-10l-58 58c-109 26 -187 123 -187 242c0 118 78 215 187 242zM285 275l-57 57c-30 -20 -48 -56 -48 -97c0 -42 18 -77 48 -97l57 57h10l57 -57c30 20 48 55 48 97c0 41 -18 77 -48 97
l-57 -57h-10z" />
    <glyph glyph-name="uni047C" unicode="&#x47c;" horiz-adv-x="940" 
d="M255 885h105l220 -45v35l5 5h100l5 -5v-140l-5 -5h-105l-220 45v-35l-5 -5h-100l-5 5v140zM404 500h132l4 -4v-261c0 -75 25 -120 105 -120c45 0 110 45 110 205c0 136 -75 270 -163 375l5 5h150l10 -5c70 -85 143 -224 143 -375c0 -256 -144 -335 -255 -335
c-95 0 -135 25 -175 65c-40 -40 -80 -65 -175 -65c-112 0 -255 79 -255 335c0 152 72 290 142 376l10 4h150l5 -5c-87 -105 -162 -238 -162 -375c0 -160 65 -205 110 -205c80 0 105 45 105 120v261z" />
    <glyph glyph-name="uni047D" unicode="&#x47d;" horiz-adv-x="780" 
d="M185 662h105l200 -32v35l5 5h100l5 -5v-138l-5 -5h-105l-200 33v-35l-5 -5h-100l-5 5v137zM334 370h112l4 -4v-131c0 -67 20 -120 75 -120c50 0 70 45 70 120c0 65 -20 135 -68 231l4 4h145l4 -4c40 -91 60 -151 60 -231c0 -155 -80 -250 -205 -250
c-70 0 -105 15 -145 60c-40 -45 -75 -60 -145 -60c-125 0 -205 95 -205 250c0 80 20 140 60 231l4 4h144l4 -4c-47 -96 -67 -166 -67 -231c0 -75 20 -120 70 -120c55 0 75 53 75 120v131z" />
    <glyph glyph-name="uni047E" unicode="&#x47e;" horiz-adv-x="940" 
d="M255 875h430l5 -5v-125l-5 -5h-90l-5 5v30h-70v-30l-5 -5h-90l-5 5v30h-70v-30l-5 -5h-90l-5 5v125zM404 500h132l4 -4v-261c0 -75 25 -120 105 -120c45 0 110 45 110 205c0 136 -75 270 -163 375l5 5h150l10 -5c70 -85 143 -224 143 -375c0 -256 -144 -335 -255 -335
c-95 0 -135 25 -175 65c-40 -40 -80 -65 -175 -65c-112 0 -255 79 -255 335c0 152 72 290 142 376l10 4h150l5 -5c-87 -105 -162 -238 -162 -375c0 -160 65 -205 110 -205c80 0 105 45 105 120v261z" />
    <glyph glyph-name="uni047F" unicode="&#x47f;" horiz-adv-x="780" 
d="M185 670h410l5 -5v-145l-5 -5h-100l-5 5v40h-45v-40l-5 -5h-100l-5 5v40h-45v-40l-5 -5h-100l-5 5v145zM334 370h112l4 -4v-131c0 -67 20 -120 75 -120c50 0 70 45 70 120c0 65 -20 135 -68 231l4 4h145l4 -4c40 -91 60 -151 60 -231c0 -155 -80 -250 -205 -250
c-70 0 -105 15 -145 60c-40 -45 -75 -60 -145 -60c-125 0 -205 95 -205 250c0 80 20 140 60 231l4 4h144l4 -4c-47 -96 -67 -166 -67 -231c0 -75 20 -120 70 -120c55 0 75 53 75 120v131z" />
    <glyph glyph-name="uni0480" unicode="&#x480;" horiz-adv-x="710" 
d="M650 495l-5 -5c-65 55 -140 80 -235 80c-120 0 -215 -100 -215 -220s105 -225 245 -225h130l5 -5l-60 -295l-5 -5h-115l-5 5l20 160h-5c-205 0 -365 165 -365 365c0 201 166 365 370 365c95 0 175 -18 240 -65v-155z" />
    <glyph glyph-name="uni0481" unicode="&#x481;" horiz-adv-x="500" 
d="M460 300l-5 -5c-50 40 -110 55 -155 55c-75 0 -120 -50 -120 -115s45 -110 170 -110h70l5 -5l-55 -275l-5 -5h-115l-5 5l20 140h-5c-90 5 -220 95 -220 250c0 138 105 250 260 250c65 0 120 -20 160 -50v-135z" />
    <glyph glyph-name="uni048A" unicode="&#x48a;" horiz-adv-x="800" 
d="M65 700h130l5 -5v-455l350 455l10 5h135l5 -5v-555h95l5 -5l-55 -310l-5 -5h-115l-5 5l20 175h-75l-5 5v455l-350 -455l-10 -5h-135l-5 5v690zM220 905h103l5 -5c7 -20 22 -35 52 -35s45 15 50 35l5 5h105l5 -5c-10 -95 -85 -135 -165 -135s-155 40 -165 135z" />
    <glyph glyph-name="uni048B" unicode="&#x48b;" horiz-adv-x="640" 
d="M85 470h130l5 -5v-248l166 248l10 5h138l6 -5v-325h95l5 -5l-45 -270l-5 -5h-120l-5 5l15 135h-76l-4 5v247l-168 -247l-10 -5h-137l-5 5v460zM110 690h125l5 -5c0 -30 20 -45 50 -45s50 15 50 45l5 5h125l5 -5c-9 -115 -90 -165 -185 -165s-175 50 -185 165z" />
    <glyph glyph-name="uni048C" unicode="&#x48c;" horiz-adv-x="660" 
d="M145 740h130l5 -5v-95h125l5 -5v-130l-5 -5h-125v-65h115c135 0 235 -75 235 -215s-100 -220 -235 -220h-250l-5 5v495h-105l-5 5v130l5 5h105v95zM280 295v-155h105c60 0 95 20 95 80c0 55 -35 75 -95 75h-105z" />
    <glyph glyph-name="uni048D" unicode="&#x48d;" horiz-adv-x="600" 
d="M145 700h130l5 -5v-155h125l5 -5v-130l-5 -5h-125v-60h120c80 0 170 -48 170 -170c0 -123 -90 -170 -170 -170h-255l-5 5v395h-105l-5 5v130l5 5h105v155zM280 220v-80h100c30 0 45 15 45 40s-15 40 -45 40h-100z" />
    <glyph glyph-name="uni048E" unicode="&#x48e;" horiz-adv-x="560" 
d="M64 700h216c160 0 250 -105 250 -225c0 -42 -11 -81 -32 -115l42 -35v-5l-70 -80h-5l-49 41c-37 -20 -83 -31 -136 -31h-80v-245l-5 -5h-130l-5 5v690zM200 560v-170h70h16l-46 40v5l70 80h5l59 -51c1 4 1 7 1 11c0 60 -40 85 -105 85h-70z" />
    <glyph glyph-name="uni048F" unicode="&#x48f;" horiz-adv-x="610" 
d="M65 470h130l5 -5v-15c32 20 75 35 120 35c138 0 240 -112 240 -250c0 -44 -10 -85 -29 -121l54 -44v-5l-75 -85h-5l-54 44c-37 -25 -82 -39 -131 -39c-45 0 -88 15 -120 35v-245l-5 -5h-130l-5 5v690zM200 290v-110c30 -45 70 -60 110 -60c7 0 15 1 22 2l-57 48v5l75 85
h5l62 -52c2 9 3 18 3 27c0 63 -49 115 -110 115c-40 0 -80 -20 -110 -60z" />
    <glyph glyph-name="uni0490" unicode="&#x490;" horiz-adv-x="560" 
d="M65 700h325v135l5 5h130l5 -5v-270l-5 -5h-325v-555l-5 -5h-130l-5 5v690z" />
    <glyph glyph-name="uni0491" unicode="&#x491;" horiz-adv-x="440" 
d="M65 470h205v115l5 5h130l5 -5v-250l-5 -5h-205v-325l-5 -5h-130l-5 5v460z" />
    <glyph glyph-name="uni0492" unicode="&#x492;" horiz-adv-x="560" 
d="M65 700h460l5 -5v-130l-5 -5h-325v-135h205l5 -5v-130l-5 -5h-205v-280l-5 -5h-130l-5 5v280h-65l-5 5v130l5 5h65v270z" />
    <glyph glyph-name="uni0493" unicode="&#x493;" horiz-adv-x="440" 
d="M65 470h340l5 -5v-130l-5 -5h-205v-65h115l5 -5v-110l-5 -5h-115v-140l-5 -5h-130l-5 5v140h-55l-5 5v110l5 5h55v200z" />
    <glyph glyph-name="uni0494" unicode="&#x494;" horiz-adv-x="660" 
d="M65 700h460l5 -5v-130l-5 -5h-325v-120c55 35 110 35 145 35c167 0 285 -113 285 -315c0 -245 -123 -355 -265 -355c-35 0 -70 5 -95 15v155l5 5c25 -25 52 -30 89 -30c56 0 111 60 111 210c0 121 -60 170 -130 170c-65 0 -115 -30 -145 -70v-255l-5 -5h-130l-5 5v690z
" />
    <glyph glyph-name="uni0495" unicode="&#x495;" 
d="M65 470h340l5 -5v-130l-5 -5h-205v-75c35 20 60 30 120 30c160 0 230 -125 230 -275c0 -165 -105 -275 -240 -275c-35 0 -65 5 -90 15v145l5 5c27 -20 42 -30 84 -30c51 0 101 50 101 140c0 100 -40 140 -100 140c-50 0 -90 -28 -110 -60v-85l-5 -5h-130l-5 5v460z" />
    <glyph glyph-name="uni0496" unicode="&#x496;" horiz-adv-x="1040" 
d="M445 700h130l5 -5v-240h60l180 240l10 5h155l5 -5l-235 -300l255 -390v-180l-5 -5h-130l-5 5v175l-30 5l-200 310h-60v-310l-5 -5h-130l-5 5v310h-60l-200 -310l-10 -5h-155l-5 5l255 390l-235 300l5 5h155l10 -5l180 -240h60v240z" />
    <glyph glyph-name="uni0497" unicode="&#x497;" horiz-adv-x="800" 
d="M325 470h130l5 -5v-145h25l105 145l10 5h145l5 -5l-150 -210l170 -250v-140l-5 -5h-130l-5 5v135l-30 5l-115 175h-25v-175l-5 -5h-130l-5 5v175h-25l-115 -175l-10 -5h-155l-5 5l170 250l-150 210l5 5h145l10 -5l105 -145h25v145z" />
    <glyph glyph-name="uni0498" unicode="&#x498;" horiz-adv-x="550" 
d="M120 525l-80 95c40 50 120 95 200 95c157 0 240 -84 240 -195c0 -60 -30 -110 -70 -140c70 -30 110 -100 110 -175c0 -96 -63 -178 -175 -208c27 -36 40 -75 40 -122c0 -64 -61 -120 -135 -120c-27 0 -50 5 -70 20v100l5 5c15 -11 25 -15 40 -15c25 0 44 15 44 40
c0 29 -30 61 -63 83c-74 9 -144 41 -186 92l80 115h10c40 -35 90 -65 140 -65c80 0 115 40 115 75c0 60 -35 80 -100 80h-110l-5 5v130l5 5h100c40 0 70 30 70 80c0 34 -35 65 -85 65c-40 0 -70 -15 -110 -45h-10z" />
    <glyph glyph-name="uni0499" unicode="&#x499;" horiz-adv-x="480" 
d="M50 320v126c50 29 105 39 155 39c145 0 215 -65 215 -145c0 -40 -20 -70 -50 -90c40 -20 70 -60 70 -120c0 -70 -50 -115 -138 -135c25 -35 38 -74 38 -120c0 -64 -61 -120 -135 -120c-27 0 -50 5 -70 20v100l5 5c15 -11 25 -15 40 -15c25 0 44 15 44 40
c0 30 -29 63 -64 85c-45 6 -90 20 -120 40v125l5 5c50 -40 115 -55 160 -55c65 0 95 20 95 45s-17 40 -40 40h-110l-5 5v90l5 5h100c20 0 30 15 30 30c0 25 -20 45 -75 45c-50 0 -100 -15 -150 -50z" />
    <glyph glyph-name="uni049A" unicode="&#x49a;" horiz-adv-x="700" 
d="M65 700h130l5 -5v-240h60l220 240l10 5h155l5 -5l-275 -300l295 -390v-180l-5 -5h-130l-5 5v175l-30 5l-240 310h-60v-310l-5 -5h-130l-5 5v690z" />
    <glyph glyph-name="uni049B" unicode="&#x49b;" 
d="M65 470h130l5 -5v-145h40l115 145l10 5h150l5 -5l-170 -210l200 -250v-140l-5 -5h-130l-5 5v135l-30 5l-140 175h-40v-175l-5 -5h-130l-5 5v460z" />
    <glyph glyph-name="uni049C" unicode="&#x49c;" horiz-adv-x="690" 
d="M65 700h130l5 -5v-240h40v190l5 5h110l5 -5v-85l120 135l10 5h155l5 -5l-275 -300l295 -390l-5 -5h-155l-10 5l-140 185v-65l-5 -5h-110l-5 5v190h-40v-310l-5 -5h-130l-5 5v690z" />
    <glyph glyph-name="uni049D" unicode="&#x49d;" 
d="M65 470h130l5 -5v-145h30v105l5 5h50l5 -5v-42l65 82l10 5h150l5 -5l-170 -210l200 -250l-5 -5h-155l-10 5l-90 112v-52l-5 -5h-50l-5 5v115h-30v-175l-5 -5h-130l-5 5v460z" />
    <glyph glyph-name="uni049E" unicode="&#x49e;" horiz-adv-x="680" 
d="M65 700h130l5 -5v-70h75l5 -5v-110l-5 -5h-75v-50h60l220 240l10 5h155l5 -5l-275 -300l295 -390l-5 -5h-155l-10 5l-240 310h-60v-310l-5 -5h-130l-5 5v500h-55l-5 5v110l5 5h55v70z" />
    <glyph glyph-name="uni049F" unicode="&#x49f;" 
d="M65 700h130l5 -5v-50h75l5 -5v-130l-5 -5h-75v-185h40l115 145l10 5h150l5 -5l-170 -210l200 -250l-5 -5h-155l-10 5l-140 175h-40v-175l-5 -5h-130l-5 5v500h-55l-5 5v131l5 4h55v50z" />
    <glyph glyph-name="uni04A0" unicode="&#x4a0;" horiz-adv-x="860" 
d="M35 700h340l5 -5v-240h60l220 240l10 5h155l5 -5l-275 -300l295 -390l-5 -5h-155l-10 5l-240 310h-60v-310l-5 -5h-130l-5 5v555h-205l-5 5v130z" />
    <glyph glyph-name="uni04A1" unicode="&#x4a1;" horiz-adv-x="680" 
d="M35 470h280l5 -5v-145h40l115 145l10 5h150l5 -5l-170 -210l200 -250l-5 -5h-155l-10 5l-140 175h-40v-175l-5 -5h-130l-5 5v325h-145l-5 5v130z" />
    <glyph glyph-name="uni04A2" unicode="&#x4a2;" horiz-adv-x="800" 
d="M65 700h130l5 -5v-260h320v260l5 5h130l5 -5v-555h95l5 -5v-310l-5 -5h-130l-5 5v175h-95l-5 5v290h-320v-290l-5 -5h-130l-5 5v690z" />
    <glyph glyph-name="uni04A3" unicode="&#x4a3;" horiz-adv-x="660" 
d="M65 470h130l5 -5v-145h180v145l5 5h130l5 -5v-325h95l5 -5v-270l-5 -5h-130l-5 5v135h-95l-5 5v175h-180v-175l-5 -5h-130l-5 5v460z" />
    <glyph glyph-name="uni04A4" unicode="&#x4a4;" horiz-adv-x="900" 
d="M65 700h130l5 -5v-260h320v260l5 5h340l5 -5v-130l-5 -5h-205v-555l-5 -5h-130l-5 5v290h-320v-290l-5 -5h-130l-5 5v690z" />
    <glyph glyph-name="uni04A5" unicode="&#x4a5;" horiz-adv-x="700" 
d="M65 470h130l5 -5v-145h180v145l5 5h280l5 -5v-130l-5 -5h-145v-325l-5 -5h-130l-5 5v175h-180v-175l-5 -5h-130l-5 5v460z" />
    <glyph glyph-name="uni04A6" unicode="&#x4a6;" horiz-adv-x="1100" 
d="M65 700h570l5 -5v-255c55 35 110 35 145 35c167 0 285 -113 285 -315c0 -245 -123 -355 -265 -355c-35 0 -70 5 -95 15v155l5 5c25 -25 52 -30 89 -30c56 0 111 60 111 210c0 121 -60 170 -130 170c-65 0 -115 -30 -145 -70v-255l-5 -5h-130l-5 5v555h-300v-555l-5 -5
h-130l-5 5v690z" />
    <glyph glyph-name="uni04A7" unicode="&#x4a7;" horiz-adv-x="880" 
d="M65 470h430l5 -5v-170c35 20 60 30 120 30c160 0 230 -145 230 -305c0 -185 -105 -285 -240 -285c-35 0 -65 5 -90 15v145l5 5c27 -20 42 -30 84 -30c51 0 101 40 101 150s-40 170 -100 170c-50 0 -90 -28 -110 -60v-125l-5 -5h-130l-5 5v325h-160v-325l-5 -5h-130l-5 5
v460z" />
    <glyph glyph-name="uni04A8" unicode="&#x4a8;" horiz-adv-x="800" 
d="M650 495l-5 -5c-65 55 -140 80 -235 80c-120 0 -215 -100 -215 -220c0 -84 46 -158 115 -195c5 177 110 290 245 290c113 0 205 -86 205 -205c0 -110 -87 -207 -229 -241c31 -29 70 -47 109 -47c47 0 95 15 165 70l5 -5v-157c-60 -35 -95 -55 -170 -55
c-126 0 -241 73 -296 186c-173 31 -304 180 -304 359c0 201 166 365 370 365c95 0 175 -18 240 -65v-155zM471 135c91 18 127 73 127 105c0 37 -19 57 -43 57c-50 0 -84 -53 -84 -162z" />
    <glyph glyph-name="uni04A9" unicode="&#x4a9;" 
d="M480 300l-5 -5c-50 40 -110 55 -155 55c-85 0 -140 -60 -140 -145c0 -30 8 -57 22 -79c35 97 110 154 208 154c110 0 170 -70 170 -160c0 -87 -85 -189 -237 -195c22 -37 64 -55 107 -55c42 0 57 5 85 25l5 -5v-140c-25 -10 -48 -15 -90 -15c-126 0 -252 100 -269 227
c-86 48 -141 137 -141 243c0 158 115 280 280 280c65 0 120 -20 160 -50v-135zM335 60c71 0 100 39 100 60c0 15 -10 25 -25 25c-29 0 -60 -32 -75 -85z" />
    <glyph glyph-name="uni04AA" unicode="&#x4aa;" horiz-adv-x="710" 
d="M650 495l-5 -5c-65 55 -140 80 -235 80c-120 0 -215 -100 -215 -220s95 -220 215 -220c95 0 170 25 235 80l5 -5v-155c-49 -36 -107 -54 -174 -61c26 -37 39 -74 39 -124c0 -56 -59 -110 -120 -110c-25 0 -50 5 -70 20v105l5 5c15 -15 25 -20 40 -20c10 0 25 10 25 35
c0 17 -19 60 -49 91c-174 29 -306 179 -306 359c0 201 166 365 370 365c95 0 175 -18 240 -65v-155z" />
    <glyph glyph-name="uni04AB" unicode="&#x4ab;" horiz-adv-x="500" 
d="M460 300l-5 -5c-50 40 -110 55 -155 55c-75 0 -120 -50 -120 -115s45 -115 120 -115c45 0 105 15 155 55l5 -5v-135c-26 -20 -60 -35 -95 -45c27 -37 41 -74 41 -125c0 -56 -59 -110 -120 -110c-25 0 -50 5 -70 20v105l5 5c15 -15 25 -20 40 -20c10 0 25 10 25 35
c0 18 -20 59 -51 90c-120 25 -195 125 -195 245c0 138 105 250 260 250c65 0 120 -20 160 -50v-135z" />
    <glyph glyph-name="uni04AC" unicode="&#x4ac;" horiz-adv-x="620" 
d="M35 700h550l5 -5v-130l-5 -5h-205v-420h95l5 -5v-310l-5 -5h-130l-5 5v175h-95l-5 5v555h-205l-5 5v130z" />
    <glyph glyph-name="uni04AD" unicode="&#x4ad;" horiz-adv-x="460" 
d="M15 470h430l5 -5v-130l-5 -5h-145v-190h95l5 -5v-270l-5 -5h-130l-5 5v135h-95l-5 5v325h-145l-5 5v130z" />
    <glyph glyph-name="uni04AE" unicode="&#x4ae;" horiz-adv-x="640" 
d="M15 700h140l5 -5l160 -235l160 235l5 5h140l5 -5l-240 -380v-310l-5 -5h-130l-5 5v310l-240 380z" />
    <glyph glyph-name="uni04AF" unicode="&#x4af;" horiz-adv-x="520" 
d="M15 470h144l5 -5l96 -273l96 273l5 5h144l5 -5l-180 -455v-235l-5 -5h-130l-5 5v235l-180 455z" />
    <glyph glyph-name="uni04B0" unicode="&#x4b0;" horiz-adv-x="640" 
d="M15 700h140l5 -5l160 -235l160 235l5 5h140l5 -5l-190 -300h80l5 -5v-130l-5 -5h-130v-250l-5 -5h-130l-5 5v250h-130l-5 5v130l5 5h80l-190 300z" />
    <glyph glyph-name="uni04B1" unicode="&#x4b1;" horiz-adv-x="520" 
d="M15 470h144l5 -5l96 -273l96 273l5 5h144l5 -5l-160 -400h95l5 -5v-130l-5 -5h-115v-150l-5 -5h-130l-5 5v150h-115l-5 5v130l5 5h95l-160 400z" />
    <glyph glyph-name="uni04B2" unicode="&#x4b2;" horiz-adv-x="740" 
d="M45 700h160l10 -5l145 -210l145 210l10 5h160l5 -5l-235 -325l265 -365v-180l-5 -5h-130l-5 5v175l-35 5l-175 249l-175 -249l-10 -5h-160l-5 5l265 365l-235 325z" />
    <glyph glyph-name="uni04B3" unicode="&#x4b3;" horiz-adv-x="540" 
d="M25 470h154l10 -5l71 -100l70 100l10 5h155l5 -5l-160 -220l170 -240v-140l-5 -5h-130l-5 5v135l-30 5l-80 115l-80 -115l-10 -5h-155l-5 5l170 240l-160 220z" />
    <glyph glyph-name="uni04B4" unicode="&#x4b4;" horiz-adv-x="920" 
d="M35 700h490l5 -5v-130l-5 -5h-185v-420h300v555l5 5h130l5 -5v-555h95l5 -5v-310l-5 -5h-130l-5 5v175h-535l-5 5v555h-165l-5 5v130z" />
    <glyph glyph-name="uni04B5" unicode="&#x4b5;" horiz-adv-x="720" 
d="M35 470h330l5 -5v-130l-5 -5h-105v-190h180v325l5 5h130l5 -5v-325h95l5 -5v-270l-5 -5h-130l-5 5v135h-415l-5 5v325h-85l-5 5v130z" />
    <glyph glyph-name="uni04B6" unicode="&#x4b6;" horiz-adv-x="760" 
d="M55 700h130l5 -5v-140c0 -110 50 -163 145 -163c65 0 135 33 145 78v225l5 5h130l5 -5v-555h95l5 -5v-310l-5 -5h-130l-5 5v175h-95l-5 5v290c-40 -35 -110 -50 -145 -50c-165 0 -285 100 -285 285v165z" />
    <glyph glyph-name="uni04B7" unicode="&#x4b7;" horiz-adv-x="660" 
d="M55 470h130l5 -5v-85c0 -70 30 -115 100 -115c40 0 65 5 90 25v175l5 5h130l5 -5v-325h95l5 -5v-270l-5 -5h-130l-5 5v135h-95l-5 5v152c-30 -12 -60 -22 -105 -22c-150 0 -225 100 -225 240v90z" />
    <glyph glyph-name="uni04B8" unicode="&#x4b8;" horiz-adv-x="680" 
d="M55 700h130l5 -5v-140c0 -79 25 -128 75 -150v100l5 5h130l5 -5v-101c38 13 68 37 75 66v225l5 5h130l5 -5v-690l-5 -5h-130l-5 5v290c-20 -18 -48 -31 -75 -39v-111l-5 -5h-130l-5 5v106c-128 25 -215 121 -215 279v165z" />
    <glyph glyph-name="uni04B9" unicode="&#x4b9;" 
d="M55 470h130l5 -5v-85c0 -48 14 -84 45 -102v97l5 5h90l5 -5v-107c17 4 31 10 45 22v175l5 5h130l5 -5v-460l-5 -5h-130l-5 5v152c-15 -6 -29 -11 -45 -15v-97l-5 -5h-90l-5 5v92c-123 17 -185 111 -185 238v90z" />
    <glyph glyph-name="uni04BA" unicode="&#x4ba;" horiz-adv-x="680" 
d="M65 700h130l5 -5v-270c40 35 110 50 145 50c165 0 285 -100 285 -285v-185l-5 -5h-130l-5 5v160c0 110 -50 163 -145 163c-65 0 -135 -33 -145 -78v-245l-5 -5h-130l-5 5v690z" />
    <glyph glyph-name="uni04BB" unicode="&#x4bb;" horiz-adv-x="600" 
d="M65 700h130l5 -5v-245c35 20 80 35 125 35c150 0 225 -85 225 -220v-260l-5 -5h-130l-5 5v235c0 80 -40 110 -100 110c-40 0 -82 -19 -110 -50v-295l-5 -5h-130l-5 5v690z" />
    <glyph glyph-name="uni04BC" unicode="&#x4bc;" horiz-adv-x="1000" 
d="M925 285h-525c25 -93 110 -153 200 -153c85 0 177 23 240 78l5 -5v-160c-65 -40 -142 -60 -245 -60c-187 0 -334 130 -367 300c-138 0 -213 52 -213 165c0 10 0 35 10 55h142l5 -5c-10 -20 -10 -25 -10 -35c0 -29 17 -40 69 -40c36 164 185 290 364 290
c150 0 340 -110 340 -360c0 -5 0 -54 -5 -65zM400 425h385c-8 57 -70 142 -185 142c-90 0 -168 -50 -200 -142z" />
    <glyph glyph-name="uni04BD" unicode="&#x4bd;" horiz-adv-x="690" 
d="M140 415l5 -5c-5 -15 -5 -25 -5 -35c0 -23 11 -51 49 -64c28 101 113 174 236 174c145 0 225 -120 225 -215c0 -30 0 -45 -5 -65l-5 -5h-318c13 -70 68 -95 133 -95c55 0 115 15 175 60l5 -5v-125c-45 -30 -115 -50 -180 -50c-149 0 -253 89 -272 213
c-91 15 -153 72 -153 162c0 10 0 35 10 55h100zM326 300h184c-5 35 -40 65 -85 65c-60 0 -85 -30 -99 -65z" />
    <glyph glyph-name="uni04BE" unicode="&#x4be;" horiz-adv-x="1000" 
d="M172 505l5 -5c-10 -20 -10 -25 -10 -35c0 -29 17 -40 69 -40c36 164 185 290 364 290c150 0 340 -110 340 -360c0 -5 0 -54 -5 -65l-10 -5h-525c25 -93 110 -153 200 -153c85 0 177 23 240 78l5 -5v-163c-52 -36 -114 -48 -182 -55c-35 -23 -54 -59 -54 -90
c0 -15 16 -32 41 -32c10 0 10 0 30 20l5 -5v-105c-20 -15 -40 -20 -65 -20c-69 0 -128 53 -128 112c0 52 14 94 43 122c-153 27 -272 146 -302 296c-138 0 -213 52 -213 165c0 10 0 35 10 55h142zM400 425h385c-8 57 -70 142 -185 142c-90 0 -168 -50 -200 -142z" />
    <glyph glyph-name="uni04BF" unicode="&#x4bf;" horiz-adv-x="690" 
d="M325 300h185c-5 35 -40 65 -85 65c-60 0 -85 -30 -100 -65zM140 415l5 -5c-5 -15 -5 -25 -5 -35c0 -23 11 -51 49 -64c28 101 113 174 236 174c145 0 225 -120 225 -215c0 -30 0 -45 -5 -65l-5 -5h-318c13 -70 68 -95 133 -95c55 0 115 15 175 60l5 -5v-125
c-40 -30 -84 -75 -84 -130c0 -25 19 -40 44 -40c15 0 25 5 40 15l5 -5v-100c-20 -15 -43 -20 -70 -20c-74 0 -135 56 -135 120c0 44 15 87 30 110h-10c-149 0 -253 89 -272 213c-91 15 -153 72 -153 162c0 10 0 35 10 55h100z" />
    <glyph glyph-name="uni04C0" unicode="&#x4c0;" horiz-adv-x="260" 
d="M65 700h130l5 -5v-690l-5 -5h-130l-5 5v690z" />
    <glyph glyph-name="uni04C1" unicode="&#x4c1;" horiz-adv-x="1020" 
d="M445 700h130l5 -5v-240h60l180 240l10 5h155l5 -5l-235 -300l255 -390l-5 -5h-155l-10 5l-200 310h-60v-310l-5 -5h-130l-5 5v310h-60l-200 -310l-10 -5h-155l-5 5l255 390l-235 300l5 5h155l10 -5l180 -240h60v240zM350 905h103l5 -5c7 -20 22 -35 52 -35s45 15 50 35
l5 5h105l5 -5c-10 -95 -85 -135 -165 -135s-155 40 -165 135z" />
    <glyph glyph-name="uni04C2" unicode="&#x4c2;" horiz-adv-x="740" 
d="M190 690h125l5 -5c0 -30 20 -45 50 -45s50 15 50 45l5 5h125l5 -5c-9 -115 -90 -165 -185 -165s-175 50 -185 165zM305 470h130l5 -5v-145h25l105 145l10 5h145l5 -5l-150 -210l170 -250l-5 -5h-155l-10 5l-115 175h-25v-175l-5 -5h-130l-5 5v175h-25l-115 -175l-10 -5
h-155l-5 5l170 250l-150 210l5 5h145l10 -5l105 -145h25v145z" />
    <glyph glyph-name="uni04C3" unicode="&#x4c3;" horiz-adv-x="640" 
d="M65 700h130l5 -5v-240h20l215 240l10 5h160l5 -5l-245 -275c155 -60 245 -160 245 -320c0 -184 -88 -295 -235 -295c-38 0 -70 4 -95 15v150l5 5c30 -25 52 -25 75 -25c50 0 95 30 95 150s-115 215 -230 215h-25v-310l-5 -5h-130l-5 5v690z" />
    <glyph glyph-name="uni04C4" unicode="&#x4c4;" 
d="M85 470h130l5 -5v-145h7l122 145l10 5h151l5 -5l-138 -170c128 -50 173 -161 173 -265c0 -194 -88 -295 -210 -295c-43 0 -65 3 -90 10v150l5 5c27 -20 42 -25 84 -25c18 0 64 25 64 155c0 60 -56 150 -196 150h13v-175l-5 -5h-130l-5 5v460z" />
    <glyph glyph-name="uni04C5" unicode="&#x4c5;" horiz-adv-x="800" 
d="M230 700h465l5 -5v-555h95l5 -5l-55 -310l-5 -5h-115l-5 5l20 175h-75l-5 5v555h-220l-65 -380c-30 -145 -120 -195 -250 -195l-5 7v123l5 5c60 0 105 30 120 95l75 480z" />
    <glyph glyph-name="uni04C6" unicode="&#x4c6;" horiz-adv-x="640" 
d="M160 470h375l5 -5v-325h95l5 -5l-45 -270l-5 -5h-120l-5 5l15 135h-75l-5 5v325h-120l-30 -198c-20 -87 -85 -147 -225 -147l-5 5v125l5 5c45 0 80 20 95 80l35 265z" />
    <glyph glyph-name="uni04C7" unicode="&#x4c7;" horiz-adv-x="720" 
d="M65 700h130l5 -5v-260h320v260l5 5h130l5 -5v-695c0 -130 -70 -195 -185 -195c-10 0 -35 0 -55 10v130l5 5c20 -10 30 -10 40 -10c30 0 55 10 55 95v260h-320v-290l-5 -5h-130l-5 5v690z" />
    <glyph glyph-name="uni04C8" unicode="&#x4c8;" horiz-adv-x="560" 
d="M65 470h130l5 -5v-145h160v145l5 5h130l5 -5v-535c0 -130 -70 -195 -185 -195c-10 0 -35 0 -55 10v130l5 5c20 -10 30 -10 40 -10c30 0 55 10 55 95v215h-160v-175l-5 -5h-130l-5 5v460z" />
    <glyph glyph-name="uni04C9" unicode="&#x4c9;" horiz-adv-x="760" 
d="M65 700h130l5 -5v-260h320v260l5 5h130l5 -5v-555h95l5 -5l-55 -310l-5 -5h-115l-5 5l20 175h-75l-5 5v290h-320v-290l-5 -5h-130l-5 5v690z" />
    <glyph glyph-name="uni04CA" unicode="&#x4ca;" horiz-adv-x="640" 
d="M85 470h130l5 -5v-145h180v145l5 5h130l5 -5v-325h95l5 -5l-45 -270l-5 -5h-120l-5 5l15 135h-75l-5 5v175h-180v-175l-5 -5h-130l-5 5v460z" />
    <glyph glyph-name="uni04CB" unicode="&#x4cb;" horiz-adv-x="680" 
d="M55 700h130l5 -5v-140c0 -110 50 -163 145 -163c65 0 135 33 145 78v225l5 5h130l5 -5v-690l-5 -5h-95v-175l-5 -5h-130l-5 5v310l5 5h95v155c-40 -35 -110 -50 -145 -50c-165 0 -285 100 -285 285v165z" />
    <glyph glyph-name="uni04CC" unicode="&#x4cc;" 
d="M55 470h130l5 -5v-65c0 -70 30 -115 100 -115c40 0 65 5 90 25v155l5 5h130l5 -5v-460l-5 -5h-75v-135l-5 -5h-130l-5 5v230l5 5h75v77c-30 -12 -60 -22 -105 -22c-150 0 -225 100 -225 240v70z" />
    <glyph glyph-name="uni04CD" unicode="&#x4cd;" horiz-adv-x="860" 
d="M65 700h130l10 -5l205 -245l205 245l10 5h130l5 -5v-555h95l5 -5l-55 -310l-5 -5h-115l-5 5l20 175h-75l-5 5v480l-205 -240h-10l-205 240v-480l-5 -5h-130l-5 5v690z" />
    <glyph glyph-name="uni04CE" unicode="&#x4ce;" horiz-adv-x="730" 
d="M85 470h122l10 -5l138 -170l137 170l10 5h123l5 -5v-325h95l5 -5l-45 -270l-5 -5h-120l-5 5l15 135h-75l-5 5v250l-130 -165h-10l-130 165v-250l-5 -5h-130l-5 5v460z" />
    <glyph glyph-name="uni04CF" unicode="&#x4cf;" horiz-adv-x="260" 
d="M65 700h130l5 -5v-690l-5 -5h-130l-5 5v690z" />
    <glyph glyph-name="uni04D0" unicode="&#x4d0;" horiz-adv-x="700" 
d="M280 700h140l5 -5l265 -690l-5 -5h-155l-5 5l-50 140h-250l-50 -140l-5 -5h-155l-5 5l265 690zM350 520l-80 -235h160zM190 905h103l5 -5c7 -20 22 -35 52 -35s45 15 50 35l5 5h105l5 -5c-10 -95 -85 -135 -165 -135s-155 40 -165 135z" />
    <glyph glyph-name="uni04D1" unicode="&#x4d1;" horiz-adv-x="510" 
d="M55 310l55 145c30 15 70 30 125 30c110 0 225 -65 225 -200v-280l-5 -5h-130l-5 5v15c-40 -25 -74 -35 -115 -35c-75 0 -165 40 -165 145c0 120 125 170 280 175c0 25 -35 60 -90 60s-110 -20 -170 -60zM320 135v75c-105 -5 -140 -30 -140 -65c0 -25 25 -40 45 -40
c35 0 60 10 95 30zM70 690h125l5 -5c0 -30 20 -45 50 -45s50 15 50 45l5 5h125l5 -5c-9 -115 -90 -165 -185 -165s-175 50 -185 165z" />
    <glyph glyph-name="uni04D2" unicode="&#x4d2;" horiz-adv-x="700" 
d="M280 700h140l5 -5l265 -690l-5 -5h-155l-5 5l-50 140h-250l-50 -140l-5 -5h-155l-5 5l265 690zM350 520l-80 -235h160zM210 930h10l85 -85v-10l-85 -85h-10l-85 85v10zM480 930h10l85 -85v-10l-85 -85h-10l-85 85v10z" />
    <glyph glyph-name="uni04D3" unicode="&#x4d3;" horiz-adv-x="510" 
d="M55 310l55 145c30 15 70 30 125 30c110 0 225 -65 225 -200v-280l-5 -5h-130l-5 5v15c-40 -25 -74 -35 -115 -35c-75 0 -165 40 -165 145c0 120 125 170 280 175c0 25 -35 60 -90 60s-110 -20 -170 -60zM320 135v75c-105 -5 -140 -30 -140 -65c0 -25 25 -40 45 -40
c35 0 60 10 95 30zM130 695h10l80 -80v-10l-80 -80h-10l-80 80v10zM360 695h10l80 -80v-10l-80 -80h-10l-80 80v10z" />
    <glyph glyph-name="uni04D4" unicode="&#x4d4;" horiz-adv-x="1060" 
d="M540 700h475l5 -5v-130l-5 -5h-335v-130h245l5 -5v-130l-5 -5h-245v-150h345l5 -5v-130l-5 -5h-480l-5 5v140h-250l-100 -140l-10 -5h-165l-5 5l520 690zM540 490l-150 -205h150v205z" />
    <glyph glyph-name="uni04D5" unicode="&#x4d5;" horiz-adv-x="830" 
d="M55 310l55 145c30 15 70 30 125 30c60 0 125 -20 165 -60c40 40 95 60 165 60c145 0 225 -110 225 -245c0 -10 0 -20 -5 -35l-5 -5h-318c13 -70 68 -95 133 -95c55 0 115 15 175 60l5 -5v-125c-45 -30 -115 -50 -180 -50s-140 15 -205 75c-35 -35 -100 -75 -175 -75
c-85 0 -175 40 -175 150c0 115 125 160 280 170c0 25 -35 60 -90 60s-110 -20 -170 -60zM320 175v35c-105 -5 -150 -30 -150 -65c0 -25 25 -40 55 -40c55 0 95 30 95 70zM466 300h184c-5 35 -40 65 -85 65c-60 0 -85 -30 -99 -65z" />
    <glyph glyph-name="uni04D6" unicode="&#x4d6;" 
d="M65 700h470l5 -5v-130l-5 -5h-335v-125h245l5 -5v-130l-5 -5h-245v-155h345l5 -5v-130l-5 -5h-480l-5 5v690zM150 905h103l5 -5c7 -20 22 -35 52 -35s45 15 50 35l5 5h105l5 -5c-10 -95 -85 -135 -165 -135s-155 40 -165 135z" />
    <glyph glyph-name="uni04D7" unicode="&#x4d7;" horiz-adv-x="550" 
d="M495 160v-125c-45 -30 -115 -50 -180 -50c-165 0 -275 110 -275 255c0 135 95 245 245 245c145 0 225 -120 225 -215c0 -30 0 -45 -5 -65l-5 -5h-320c15 -70 70 -95 135 -95c55 0 115 15 175 60zM185 300h185c-5 35 -40 65 -85 65c-60 0 -85 -30 -100 -65zM100 690h125
l5 -5c0 -30 20 -45 50 -45s50 15 50 45l5 5h125l5 -5c-9 -115 -90 -165 -185 -165s-175 50 -185 165z" />
    <glyph glyph-name="uni04D8" unicode="&#x4d8;" horiz-adv-x="790" 
d="M135 495v160c65 40 142 60 245 60c210 0 370 -165 370 -365s-165 -365 -370 -365c-150 0 -340 110 -340 360c0 5 0 35 5 65l10 5h530c-25 92 -115 155 -205 155s-175 -25 -240 -80zM585 275h-390c7 -58 70 -145 185 -145c90 0 172 52 205 145z" />
    <glyph glyph-name="uni04D9" unicode="&#x4d9;" horiz-adv-x="550" 
d="M60 320l50 135c30 15 70 30 125 30c165 0 275 -110 275 -255c0 -135 -95 -245 -245 -245c-145 0 -225 115 -225 230c0 30 0 35 5 55l10 5h313c-13 60 -68 90 -133 90s-105 -15 -170 -50zM364 175h-184c5 -45 45 -70 85 -70c55 0 85 25 99 70z" />
    <glyph glyph-name="uni04DA" unicode="&#x4da;" horiz-adv-x="790" 
d="M135 495v160c65 40 142 60 245 60c210 0 370 -165 370 -365s-165 -365 -370 -365c-150 0 -340 110 -340 360c0 5 0 35 5 65l10 5h530c-25 92 -115 155 -205 155s-175 -25 -240 -80zM585 275h-390c7 -58 70 -145 185 -145c90 0 172 52 205 145zM240 930h10l85 -85v-10
l-85 -85h-10l-85 85v10zM510 930h10l85 -85v-10l-85 -85h-10l-85 85v10z" />
    <glyph glyph-name="uni04DB" unicode="&#x4db;" horiz-adv-x="550" 
d="M60 320l50 135c30 15 70 30 125 30c165 0 275 -110 275 -255c0 -135 -95 -245 -245 -245c-145 0 -225 115 -225 230c0 30 0 35 5 55l10 5h313c-13 60 -68 90 -133 90s-105 -15 -170 -50zM364 175h-184c5 -45 45 -70 85 -70c55 0 85 25 99 70zM130 695h10l80 -80v-10
l-80 -80h-10l-80 80v10zM360 695h10l80 -80v-10l-80 -80h-10l-80 80v10z" />
    <glyph glyph-name="uni04DC" unicode="&#x4dc;" horiz-adv-x="1020" 
d="M445 700h130l5 -5v-240h60l180 240l10 5h155l5 -5l-235 -300l255 -390l-5 -5h-155l-10 5l-200 310h-60v-310l-5 -5h-130l-5 5v310h-60l-200 -310l-10 -5h-155l-5 5l255 390l-235 300l5 5h155l10 -5l180 -240h60v240zM370 930h10l85 -85v-10l-85 -85h-10l-85 85v10z
M640 930h10l85 -85v-10l-85 -85h-10l-85 85v10z" />
    <glyph glyph-name="uni04DD" unicode="&#x4dd;" horiz-adv-x="780" 
d="M325 470h130l5 -5v-145h25l105 145l10 5h145l5 -5l-150 -210l170 -250l-5 -5h-155l-10 5l-115 175h-25v-175l-5 -5h-130l-5 5v175h-25l-115 -175l-10 -5h-155l-5 5l170 250l-150 210l5 5h145l10 -5l105 -145h25v145zM270 695h10l80 -80v-10l-80 -80h-10l-80 80v10z
M500 695h10l80 -80v-10l-80 -80h-10l-80 80v10z" />
    <glyph glyph-name="uni04DE" unicode="&#x4de;" horiz-adv-x="550" 
d="M120 525l-80 95c40 50 120 95 200 95c157 0 240 -84 240 -195c0 -60 -30 -110 -70 -140c70 -30 110 -100 110 -175c0 -120 -100 -220 -270 -220c-90 0 -180 35 -230 95l80 115h10c40 -35 90 -65 140 -65c80 0 115 40 115 75c0 60 -35 80 -100 80h-110l-5 5v130l5 5h100
c40 0 70 30 70 80c0 34 -35 65 -85 65c-40 0 -70 -15 -110 -45h-10zM110 930h10l85 -85v-10l-85 -85h-10l-85 85v10zM380 930h10l85 -85v-10l-85 -85h-10l-85 85v10z" />
    <glyph glyph-name="uni04DF" unicode="&#x4df;" horiz-adv-x="480" 
d="M50 320v126c50 29 105 39 155 39c145 0 215 -65 215 -145c0 -40 -20 -70 -50 -90c40 -20 70 -60 70 -120c0 -90 -85 -145 -235 -145c-55 0 -125 15 -165 45v125l5 5c50 -40 115 -55 160 -55c65 0 95 20 95 45s-17 40 -40 40h-110l-5 5v90l5 5h100c20 0 30 15 30 30
c0 25 -20 45 -75 45c-50 0 -100 -15 -150 -50zM100 695h10l80 -80v-10l-80 -80h-10l-80 80v10zM330 695h10l80 -80v-10l-80 -80h-10l-80 80v10z" />
    <glyph glyph-name="uni04E0" unicode="&#x4e0;" horiz-adv-x="540" 
d="M25 700h435l5 -5l-125 -255c110 -40 160 -110 160 -205c0 -145 -110 -250 -260 -250c-100 0 -185 70 -220 145l100 90h10c10 -35 50 -95 110 -95s110 45 110 110s-60 110 -120 110c-35 0 -60 -5 -95 -20l-5 5l117 230h-222l-5 5v130z" />
    <glyph glyph-name="uni04E1" unicode="&#x4e1;" horiz-adv-x="500" 
d="M35 470h420l5 -5l-145 -240c90 -40 155 -105 155 -225c0 -140 -115 -265 -250 -265c-70 0 -145 20 -200 70l80 100h10c25 -25 70 -35 110 -35c60 0 110 50 110 130s-75 125 -150 125c-25 0 -65 -5 -90 -15l-5 5l140 215h-190l-5 5v130z" />
    <glyph glyph-name="uni04E2" unicode="&#x4e2;" horiz-adv-x="760" 
d="M65 700h130l5 -5v-455l350 455l10 5h135l5 -5v-690l-5 -5h-130l-5 5v455l-350 -455l-10 -5h-135l-5 5v690zM215 895h330l5 -5v-110l-5 -5h-330l-5 5v110z" />
    <glyph glyph-name="uni04E3" unicode="&#x4e3;" 
d="M65 470h130l5 -5v-235l167 235l10 5h137l6 -5v-460l-6 -5h-130l-4 5v235l-167 -235l-10 -5h-138l-5 5v460zM125 670h330l5 -5v-110l-5 -5h-330l-5 5v110z" />
    <glyph glyph-name="uni04E4" unicode="&#x4e4;" horiz-adv-x="760" 
d="M65 700h130l5 -5v-455l350 455l10 5h135l5 -5v-690l-5 -5h-130l-5 5v455l-350 -455l-10 -5h-135l-5 5v690zM240 930h10l85 -85v-10l-85 -85h-10l-85 85v10zM510 930h10l85 -85v-10l-85 -85h-10l-85 85v10z" />
    <glyph glyph-name="uni04E5" unicode="&#x4e5;" 
d="M65 470h130l5 -5v-235l167 235l10 5h137l6 -5v-460l-6 -5h-130l-4 5v235l-167 -235l-10 -5h-138l-5 5v460zM170 695h10l80 -80v-10l-80 -80h-10l-80 80v10zM400 695h10l80 -80v-10l-80 -80h-10l-80 80v10z" />
    <glyph glyph-name="uni04E6" unicode="&#x4e6;" horiz-adv-x="820" 
d="M410 715c205 0 370 -160 370 -365s-165 -365 -370 -365s-370 160 -370 365s165 365 370 365zM410 570c-120 0 -215 -95 -215 -220s95 -220 215 -220s215 95 215 220s-95 220 -215 220zM270 930h10l85 -85v-10l-85 -85h-10l-85 85v10zM540 930h10l85 -85v-10l-85 -85h-10
l-85 85v10z" />
    <glyph glyph-name="uni04E7" unicode="&#x4e7;" 
d="M290 485c140 0 250 -110 250 -250s-110 -250 -250 -250s-250 110 -250 250s110 250 250 250zM290 350c-65 0 -110 -50 -110 -115s45 -115 110 -115s110 50 110 115s-45 115 -110 115zM170 695h10l80 -80v-10l-80 -80h-10l-80 80v10zM400 695h10l80 -80v-10l-80 -80h-10
l-80 80v10z" />
    <glyph glyph-name="uni04E8" unicode="&#x4e8;" horiz-adv-x="820" 
d="M410 715c204 0 370 -164 370 -365s-166 -365 -370 -365s-370 164 -370 365s166 365 370 365zM210 435h400c-30 85 -110 135 -200 135s-170 -50 -200 -135zM620 295h-420c20 -105 110 -165 210 -165s190 60 210 165z" />
    <glyph glyph-name="uni04E9" unicode="&#x4e9;" 
d="M290 485c142 0 250 -110 250 -250s-108 -250 -250 -250c-143 0 -250 110 -250 250s107 250 250 250zM194 285h192c-16 45 -50 65 -96 65c-45 0 -80 -20 -96 -65zM386 185h-192c16 -45 51 -65 96 -65c46 0 80 20 96 65z" />
    <glyph glyph-name="uni04EA" unicode="&#x4ea;" horiz-adv-x="820" 
d="M410 715c204 0 370 -164 370 -365s-166 -365 -370 -365s-370 164 -370 365s166 365 370 365zM210 435h400c-30 85 -110 135 -200 135s-170 -50 -200 -135zM620 295h-420c20 -105 110 -165 210 -165s190 60 210 165zM270 930h10l85 -85v-10l-85 -85h-10l-85 85v10z
M540 930h10l85 -85v-10l-85 -85h-10l-85 85v10z" />
    <glyph glyph-name="uni04EB" unicode="&#x4eb;" 
d="M290 485c142 0 250 -110 250 -250s-108 -250 -250 -250c-143 0 -250 110 -250 250s107 250 250 250zM194 285h192c-16 45 -50 65 -96 65c-45 0 -80 -20 -96 -65zM386 185h-192c16 -45 51 -65 96 -65c46 0 80 20 96 65zM170 695h10l80 -80v-10l-80 -80h-10l-80 80v10z
M400 695h10l80 -80v-10l-80 -80h-10l-80 80v10z" />
    <glyph glyph-name="uni04EC" unicode="&#x4ec;" horiz-adv-x="710" 
d="M60 495v155c65 47 145 65 240 65c204 0 370 -164 370 -365s-166 -365 -370 -365c-95 0 -175 18 -240 65v155l5 5c65 -55 140 -80 235 -80c99 0 181 68 207 160h-302l-5 5v130l5 5h296c-31 81 -109 140 -201 140c-95 0 -170 -25 -235 -80zM180 925h10l80 -80v-10l-80 -80
h-10l-80 80v10zM410 925h10l80 -80v-10l-80 -80h-10l-80 80v10z" />
    <glyph glyph-name="uni04ED" unicode="&#x4ed;" horiz-adv-x="500" 
d="M40 300v135c40 30 95 50 160 50c155 0 260 -112 260 -250s-105 -250 -260 -250c-65 0 -120 20 -160 50v135l5 5c50 -40 110 -55 155 -55c52 0 90 24 108 60h-183l-5 5v100l5 5h183c-18 36 -56 60 -108 60c-45 0 -105 -15 -155 -55zM90 695h10l80 -80v-10l-80 -80h-10
l-80 80v10zM320 695h10l80 -80v-10l-80 -80h-10l-80 80v10z" />
    <glyph glyph-name="uni04EE" unicode="&#x4ee;" horiz-adv-x="680" 
d="M15 700h140l10 -5l175 -390l175 390l10 5h140l5 -5l-280 -580c-40 -70 -105 -130 -270 -130l-5 7v118l5 5c80 0 110 15 137 40l8 10l-255 530zM175 895h330l5 -5v-110l-5 -5h-330l-5 5v110z" />
    <glyph glyph-name="uni04EF" unicode="&#x4ef;" horiz-adv-x="560" 
d="M15 470h145l10 -5l110 -255l110 255l10 5h145l5 -5l-280 -580c-40 -70 -110 -125 -240 -125l-5 7v118l5 5c60 0 100 20 125 70l50 100l-195 405zM115 670h330l5 -5v-110l-5 -5h-330l-5 5v110z" />
    <glyph glyph-name="uni04F0" unicode="&#x4f0;" horiz-adv-x="680" 
d="M15 700h140l10 -5l175 -390l175 390l10 5h140l5 -5l-280 -580c-40 -70 -105 -130 -270 -130l-5 7v118l5 5c80 0 110 15 137 40l8 10l-255 530zM200 930h10l85 -85v-10l-85 -85h-10l-85 85v10zM470 930h10l85 -85v-10l-85 -85h-10l-85 85v10z" />
    <glyph glyph-name="uni04F1" unicode="&#x4f1;" horiz-adv-x="560" 
d="M15 470h145l10 -5l110 -255l110 255l10 5h145l5 -5l-280 -580c-40 -70 -110 -125 -240 -125l-5 7v118l5 5c60 0 100 20 125 70l50 100l-195 405zM160 695h10l80 -80v-10l-80 -80h-10l-80 80v10zM390 695h10l80 -80v-10l-80 -80h-10l-80 80v10z" />
    <glyph glyph-name="uni04F2" unicode="&#x4f2;" horiz-adv-x="680" 
d="M15 700h140l10 -5l175 -390l175 390l10 5h140l5 -5l-280 -580c-40 -70 -105 -130 -270 -130l-5 7v118l5 5c80 0 110 15 137 40l8 10l-255 530zM250 905h150l5 -5l-100 -125l-10 -5h-123l-5 5l73 125zM460 905h150l5 -5l-100 -125l-10 -5h-123l-5 5l73 125z" />
    <glyph glyph-name="uni04F3" unicode="&#x4f3;" horiz-adv-x="560" 
d="M15 470h145l10 -5l110 -255l110 255l10 5h145l5 -5l-280 -580c-40 -70 -110 -125 -240 -125l-5 7v118l5 5c60 0 100 20 125 70l50 100l-195 405zM225 690h135l5 -5l-110 -145l-10 -5h-115l-5 5l90 145zM415 690h135l5 -5l-110 -145l-10 -5h-115l-5 5l90 145z" />
    <glyph glyph-name="uni04F4" unicode="&#x4f4;" horiz-adv-x="680" 
d="M55 700h130l5 -5v-140c0 -110 50 -163 145 -163c65 0 135 33 145 78v225l5 5h130l5 -5v-690l-5 -5h-130l-5 5v290c-40 -35 -110 -50 -145 -50c-165 0 -285 100 -285 285v165zM190 930h10l85 -85v-10l-85 -85h-10l-85 85v10zM460 930h10l85 -85v-10l-85 -85h-10l-85 85v10
z" />
    <glyph glyph-name="uni04F5" unicode="&#x4f5;" 
d="M55 470h130l5 -5v-85c0 -70 30 -115 100 -115c40 0 65 5 90 25v175l5 5h130l5 -5v-460l-5 -5h-130l-5 5v152c-30 -12 -60 -22 -105 -22c-150 0 -225 100 -225 240v90zM170 695h10l80 -80v-10l-80 -80h-10l-80 80v10zM400 695h10l80 -80v-10l-80 -80h-10l-80 80v10z" />
    <glyph glyph-name="uni04F6" unicode="&#x4f6;" horiz-adv-x="560" 
d="M65 700h460l5 -5v-130l-5 -5h-325v-420h95l5 -5v-310l-5 -5h-130l-5 5v175h-95l-5 5v690z" />
    <glyph glyph-name="uni04F7" unicode="&#x4f7;" horiz-adv-x="440" 
d="M65 470h340l5 -5v-130l-5 -5h-205v-190h95l5 -5v-270l-5 -5h-130l-5 5v135h-95l-5 5v460z" />
    <glyph glyph-name="uni04F8" unicode="&#x4f8;" horiz-adv-x="800" 
d="M65 700h130l5 -5v-260h95c135 0 235 -75 235 -215s-100 -220 -235 -220h-230l-5 5v690zM200 295v-155h85c60 0 95 20 95 80c0 55 -35 75 -95 75h-85zM605 700h130l5 -5v-690l-5 -5h-130l-5 5v690zM260 930h10l85 -85v-10l-85 -85h-10l-85 85v10zM530 930h10l85 -85v-10
l-85 -85h-10l-85 85v10z" />
    <glyph glyph-name="uni04F9" unicode="&#x4f9;" horiz-adv-x="740" 
d="M65 470h130l5 -5v-125h100c80 0 170 -48 170 -170c0 -123 -90 -170 -170 -170h-235l-5 5v460zM200 220v-80h80c30 0 45 15 45 40s-15 40 -45 40h-80zM545 470h130l5 -5v-460l-5 -5h-130l-5 5v460zM250 695h10l80 -80v-10l-80 -80h-10l-80 80v10zM480 695h10l80 -80v-10
l-80 -80h-10l-80 80v10z" />
    <glyph glyph-name="uni04FA" unicode="&#x4fa;" horiz-adv-x="560" 
d="M65 700h460l5 -5v-130l-5 -5h-325v-125h225l5 -5v-130l-5 -5h-225v-155h95l5 -5v-135c0 -130 -70 -195 -185 -195c-10 0 -35 0 -55 10v130l5 5c20 -10 30 -10 40 -10c30 0 50 10 55 55v5h-95l-5 5v290h-65l-5 5v130l5 5h65v260z" />
    <glyph glyph-name="uni04FB" unicode="&#x4fb;" horiz-adv-x="420" 
d="M65 470h340l5 -5v-130l-5 -5h-205v-45h115l5 -5v-110l-5 -5h-115v-45h95l5 -5v-185c0 -130 -70 -195 -185 -195c-10 0 -35 0 -55 10v130l5 5c20 -10 30 -10 40 -10c30 0 55 10 55 95v35h-95l-5 5v160h-55l-5 5v110l5 5h55v180z" />
    <glyph glyph-name="uni04FC" unicode="&#x4fc;" horiz-adv-x="700" 
d="M50 700h155l10 -5l145 -210l145 210l10 5h160l5 -5l-225 -315c95 -100 225 -245 225 -370c0 -124 -59 -205 -205 -205c-30 0 -65 10 -90 25v145l5 5c27 -25 48 -30 85 -30c31 0 50 20 50 60c0 75 -75 155 -155 254l-185 -259l-10 -5h-160l-5 5l265 365l-230 325z" />
    <glyph glyph-name="uni04FD" unicode="&#x4fd;" horiz-adv-x="520" 
d="M25 470h155l10 -5l70 -100l70 100l10 5h155l5 -5l-150 -210c81 -95 170 -195 170 -325s-87 -195 -195 -195c-35 0 -55 5 -80 15v135l5 5c25 -20 37 -25 74 -25c27 0 56 20 56 65c0 70 -76 165 -111 205l-89 -130l-10 -5h-155l-5 5l170 240l-160 220z" />
    <glyph glyph-name="uni04FE" unicode="&#x4fe;" horiz-adv-x="720" 
d="M45 700h160l10 -5l145 -210l145 210l10 5h160l5 -5l-190 -260h155l5 -5v-130l-5 -5h-145l210 -290l-5 -5h-160l-10 5l-175 250l-175 -250l-10 -5h-160l-5 5l210 290h-145l-5 5v130l5 5h155l-190 260z" />
    <glyph glyph-name="uni04FF" unicode="&#x4ff;" horiz-adv-x="520" 
d="M25 470h155l10 -5l70 -100l70 100l10 5h155l5 -5l-114 -160h89l5 -5v-110l-5 -5h-90l125 -180l-5 -5h-155l-10 5l-80 115l-80 -115l-10 -5h-155l-5 5l125 180h-90l-5 5v110l5 5h90l-115 160z" />
    <glyph glyph-name="uni2000" unicode="&#x2000;" horiz-adv-x="500" 
 />
    <glyph glyph-name="uni2001" unicode="&#x2001;" horiz-adv-x="1000" 
 />
    <glyph glyph-name="uni2002" unicode="&#x2002;" horiz-adv-x="500" 
 />
    <glyph glyph-name="uni2003" unicode="&#x2003;" horiz-adv-x="1000" 
 />
    <glyph glyph-name="uni2004" unicode="&#x2004;" horiz-adv-x="333" 
 />
    <glyph glyph-name="uni2005" unicode="&#x2005;" horiz-adv-x="250" 
 />
    <glyph glyph-name="uni2006" unicode="&#x2006;" horiz-adv-x="167" 
 />
    <glyph glyph-name="uni2007" unicode="&#x2007;" horiz-adv-x="565" 
 />
    <glyph glyph-name="uni2008" unicode="&#x2008;" horiz-adv-x="283" 
 />
    <glyph glyph-name="uni2009" unicode="&#x2009;" horiz-adv-x="200" 
 />
    <glyph glyph-name="uni200A" unicode="&#x200a;" horiz-adv-x="100" 
 />
    <glyph glyph-name="uni200B" unicode="&#x200b;" horiz-adv-x="0" 
 />
    <glyph glyph-name="uni200C" unicode="&#x200c;" horiz-adv-x="0" 
 />
    <glyph glyph-name="uni200D" unicode="&#x200d;" horiz-adv-x="0" 
 />
    <glyph glyph-name="uni200E" unicode="&#x200e;" horiz-adv-x="520" 
d="M65 580h245v105h10l170 -170v-10l-170 -170h-10v105h-110v-435l-5 -5h-130l-5 5v570z" />
    <glyph glyph-name="uni200F" unicode="&#x200f;" horiz-adv-x="520" 
d="M200 685h10v-105h245l5 -5v-570l-5 -5h-130l-5 5v435h-110v-105h-10l-170 170v10z" />
    <glyph glyph-name="uni2010" unicode="&#x2010;" horiz-adv-x="400" 
d="M45 305h310l5 -5v-130l-5 -5h-310l-5 5v130z" />
    <glyph glyph-name="uni2011" unicode="&#x2011;" horiz-adv-x="400" 
d="M45 305h310l5 -5v-130l-5 -5h-310l-5 5v130z" />
    <glyph glyph-name="figuredash" unicode="&#x2012;" horiz-adv-x="520" 
d="M45 305h430l5 -5v-130l-5 -5h-430l-5 5v130z" />
    <glyph glyph-name="endash" unicode="&#x2013;" horiz-adv-x="500" 
d="M45 305h410l5 -5v-130l-5 -5h-410l-5 5v130z" />
    <glyph glyph-name="emdash" unicode="&#x2014;" horiz-adv-x="1000" 
d="M45 305h910l5 -5v-130l-5 -5h-910l-5 5v130z" />
    <glyph glyph-name="uni2015" unicode="&#x2015;" horiz-adv-x="1000" 
d="M45 305h910l5 -5v-130l-5 -5h-910l-5 5v130z" />
    <glyph glyph-name="uni2016" unicode="&#x2016;" horiz-adv-x="500" 
d="M65 700h130l5 -5v-690l-5 -5h-130l-5 5v690zM305 700h130l5 -5v-690l-5 -5h-130l-5 5v690z" />
    <glyph glyph-name="underscoredbl" unicode="&#x2017;" horiz-adv-x="500" 
d="M45 -30h410l5 -5v-130l-5 -5h-410l-5 5v130zM45 -250h410l5 -5v-130l-5 -5h-410l-5 5v130z" />
    <glyph glyph-name="quoteleft" unicode="&#x2018;" horiz-adv-x="260" 
d="M195 440h-130l-5 5v115c0 95 88 140 185 140v-5c-45 -33 -45 -60 -45 -130v-120z" />
    <glyph glyph-name="quoteright" unicode="&#x2019;" horiz-adv-x="260" 
d="M65 700h130l5 -5v-115c0 -95 -88 -140 -185 -140v5c45 32 45 60 45 130v120z" />
    <glyph glyph-name="quotesinglbase" unicode="&#x201a;" horiz-adv-x="260" 
d="M65 120h130l5 -5v-115c0 -95 -88 -140 -185 -140v5c45 32 45 60 45 130v120z" />
    <glyph glyph-name="quotereversed" unicode="&#x201b;" horiz-adv-x="260" 
d="M65 700h130l5 -5v-120c0 -70 0 -98 45 -130v-5c-97 0 -185 45 -185 140v115z" />
    <glyph glyph-name="quotedblleft" unicode="&#x201c;" horiz-adv-x="460" 
d="M195 440h-130l-5 5v115c0 95 88 140 185 140v-5c-45 -33 -45 -60 -45 -130v-120zM395 470h-130l-5 5v85c0 95 88 140 185 140v-5c-45 -33 -45 -60 -45 -130v-90z" />
    <glyph glyph-name="quotedblright" unicode="&#x201d;" horiz-adv-x="460" 
d="M65 700h130l5 -5v-115c0 -95 -88 -140 -185 -140v5c45 32 45 60 45 130v120zM265 700h130l5 -5v-85c0 -95 -88 -140 -185 -140v5c45 32 45 60 45 130v90z" />
    <glyph glyph-name="quotedblbase" unicode="&#x201e;" horiz-adv-x="460" 
d="M65 120h130l5 -5v-115c0 -95 -88 -140 -185 -140v5c45 32 45 60 45 130v120zM265 120h130l5 -5v-85c0 -95 -88 -140 -185 -140v5c45 32 45 60 45 130v90z" />
    <glyph glyph-name="uni201F" unicode="&#x201f;" horiz-adv-x="460" 
d="M65 700h130l5 -5v-90c0 -70 0 -98 45 -130v-5c-97 0 -185 45 -185 140v85zM265 700h130l5 -5v-120c0 -70 0 -98 45 -130v-5c-97 0 -185 45 -185 140v115z" />
    <glyph glyph-name="dagger" unicode="&#x2020;" horiz-adv-x="440" 
d="M140 700h160l5 -5l-40 -140l140 40l5 -5v-145l-5 -5l-140 35l40 -120v-10l-45 -275l-5 -5h-70l-5 5l-45 275v10l40 120l-140 -35l-5 5v145l5 5l140 -40l-40 140z" />
    <glyph glyph-name="daggerdbl" unicode="&#x2021;" horiz-adv-x="440" 
d="M140 700h160l5 -5l-40 -140l140 40l5 -5v-145l-5 -5l-140 35l40 -120v-10l-40 -120l140 35l5 -5v-145l-5 -5l-140 40l40 -140l-5 -5h-160l-5 5l40 140l-140 -40l-5 5v145l5 5l140 -35l-40 120v10l40 120l-140 -35l-5 5v145l5 5l140 -40l-40 140z" />
    <glyph glyph-name="bullet" unicode="&#x2022;" horiz-adv-x="500" 
d="M245 400h10l160 -160v-10l-160 -160h-10l-160 160v10z" />
    <glyph glyph-name="uni2023" unicode="&#x2023;" horiz-adv-x="500" 
d="M145 395l10 5l280 -160v-10l-280 -160l-10 5v320z" />
    <glyph glyph-name="onedotenleader" unicode="&#x2024;" horiz-adv-x="500" 
d="M185 140h130l5 -5v-130l-5 -5h-130l-5 5v130z" />
    <glyph glyph-name="twodotenleader" unicode="&#x2025;" horiz-adv-x="500" 
d="M70 130h120l5 -5v-120l-5 -5h-120l-5 5v120zM320 130h120l5 -5v-120l-5 -5h-120l-5 5v120z" />
    <glyph glyph-name="ellipsis" unicode="&#x2026;" horiz-adv-x="1000" 
d="M65 140h130l5 -5v-130l-5 -5h-130l-5 5v130zM398 140h130l5 -5v-130l-5 -5h-130l-5 5v130zM731 140h130l5 -5v-130l-5 -5h-130l-5 5v130z" />
    <glyph glyph-name="uni2027" unicode="&#x2027;" horiz-adv-x="260" 
d="M65 315h130l5 -5v-130l-5 -5h-130l-5 5v130z" />
    <glyph glyph-name="perthousand" unicode="&#x2030;" horiz-adv-x="1160" 
d="M205 705c90 0 165 -70 165 -160s-75 -160 -165 -160s-165 70 -165 160s75 160 165 160zM205 580c-20 0 -35 -15 -35 -35s15 -35 35 -35s35 15 35 35s-15 35 -35 35zM555 700h155l5 -5l-460 -690l-10 -5h-155l-5 5l460 690zM595 315c90 0 165 -70 165 -160
s-75 -160 -165 -160s-165 70 -165 160s75 160 165 160zM595 190c-20 0 -35 -15 -35 -35s15 -35 35 -35s35 15 35 35s-15 35 -35 35zM955 315c90 0 165 -70 165 -160s-75 -160 -165 -160s-165 70 -165 160s75 160 165 160zM955 190c-20 0 -35 -15 -35 -35s15 -35 35 -35
s35 15 35 35s-15 35 -35 35z" />
    <glyph glyph-name="uni2031" unicode="&#x2031;" horiz-adv-x="1520" 
d="M205 705c90 0 165 -70 165 -160s-75 -160 -165 -160s-165 70 -165 160s75 160 165 160zM205 580c-20 0 -35 -15 -35 -35s15 -35 35 -35s35 15 35 35s-15 35 -35 35zM555 700h155l5 -5l-460 -690l-10 -5h-155l-5 5l460 690zM595 315c90 0 165 -70 165 -160
s-75 -160 -165 -160s-165 70 -165 160s75 160 165 160zM595 190c-20 0 -35 -15 -35 -35s15 -35 35 -35s35 15 35 35s-15 35 -35 35zM955 315c90 0 165 -70 165 -160s-75 -160 -165 -160s-165 70 -165 160s75 160 165 160zM955 190c-20 0 -35 -15 -35 -35s15 -35 35 -35
s35 15 35 35s-15 35 -35 35zM1315 315c90 0 165 -70 165 -160s-75 -160 -165 -160s-165 70 -165 160s75 160 165 160zM1315 190c-20 0 -35 -15 -35 -35s15 -35 35 -35s35 15 35 35s-15 35 -35 35z" />
    <glyph glyph-name="uni2032" unicode="&#x2032;" horiz-adv-x="260" 
d="M82 700h143l5 -5l-65 -230l-5 -5h-85l-5 5l7 230z" />
    <glyph glyph-name="uni2033" unicode="&#x2033;" horiz-adv-x="440" 
d="M82 700h143l5 -5l-65 -230l-5 -5h-85l-5 5l7 230zM262 700h143l5 -5l-65 -230l-5 -5h-85l-5 5l7 230z" />
    <glyph glyph-name="uni2034" unicode="&#x2034;" horiz-adv-x="620" 
d="M82 700h143l5 -5l-65 -230l-5 -5h-85l-5 5l7 230zM262 700h143l5 -5l-65 -230l-5 -5h-85l-5 5l7 230zM442 700h143l5 -5l-65 -230l-5 -5h-85l-5 5l7 230z" />
    <glyph glyph-name="uni2035" unicode="&#x2035;" horiz-adv-x="260" 
d="M35 700h142l5 -5l8 -230l-5 -5h-85l-5 5l-65 230z" />
    <glyph glyph-name="uni2036" unicode="&#x2036;" horiz-adv-x="440" 
d="M35 700h142l5 -5l8 -230l-5 -5h-85l-5 5l-65 230zM215 700h142l5 -5l8 -230l-5 -5h-85l-5 5l-65 230z" />
    <glyph glyph-name="uni2037" unicode="&#x2037;" horiz-adv-x="620" 
d="M35 700h142l5 -5l8 -230l-5 -5h-85l-5 5l-65 230zM215 700h142l5 -5l8 -230l-5 -5h-85l-5 5l-65 230zM395 700h142l5 -5l8 -230l-5 -5h-85l-5 5l-65 230z" />
    <glyph glyph-name="guilsinglleft" unicode="&#x2039;" horiz-adv-x="280" 
d="M225 435l5 -5v-150l-45 -45l45 -45v-150l-5 -5l-195 195v10z" />
    <glyph glyph-name="guilsinglright" unicode="&#x203a;" horiz-adv-x="280" 
d="M50 430l5 5l195 -195v-10l-195 -195l-5 5v150l45 45l-45 45v150z" />
    <glyph glyph-name="uni203B" unicode="&#x203b;" horiz-adv-x="700" 
d="M-5 700h141l10 -5l204 -245l203 245l10 5h142l5 -5l-285 -345l285 -345l-5 -5h-142l-10 5l-203 245l-204 -245l-10 -5h-141l-5 5l285 345l-285 345zM100 430h10l75 -75v-10l-75 -75h-10l-75 75v10zM590 430h10l75 -75v-10l-75 -75h-10l-75 75v10zM270 60v10l75 75h10
l75 -75v-10l-75 -75h-10zM270 630v10l75 75h10l75 -75v-10l-75 -75h-10z" />
    <glyph glyph-name="exclamdbl" unicode="&#x203c;" horiz-adv-x="480" 
d="M65 700h130l5 -5v-115l-20 -365l-5 -5h-90l-5 5l-20 365v115zM125 135h10l80 -80v-10l-80 -80h-10l-80 80v10zM285 700h130l5 -5v-115l-20 -365l-5 -5h-90l-5 5l-20 365v115zM345 135h10l80 -80v-10l-80 -80h-10l-80 80v10z" />
    <glyph glyph-name="uni203D" unicode="&#x203d;" horiz-adv-x="600" 
d="M20 670l115 42l11 -6l56 -139l53 -197c65 55 168 55 168 132c0 37 -27 73 -62 73c-19 0 -45 -9 -67 -29l-5 3l-72 111c40 40 90 55 144 55c116 0 209 -99 209 -213c0 -202 -255 -187 -255 -265c0 -11 0 -17 10 -37l-86 -42l-12 6l-167 361l-46 133zM290 155h10l80 -80
v-10l-80 -80h-10l-80 80v10z" />
    <glyph glyph-name="uni203E" unicode="&#x203e;" horiz-adv-x="500" 
d="M45 870h410l5 -5v-130l-5 -5h-410l-5 5v130z" />
    <glyph glyph-name="uni2042" unicode="&#x2042;" horiz-adv-x="1032" 
d="M192 250h128l4 -4l-32 -152l120 96h4l64 -104v-4l-152 -48l152 -56v-4l-64 -104h-4l-120 104l32 -152l-4 -4h-128l-4 4l32 152l-120 -104h-4l-64 104v4l152 56l-152 48v4l64 104h4l120 -96l-32 152zM457 700h128l4 -4l-32 -152l120 96h4l64 -104v-4l-152 -48l152 -56v-4
l-64 -104h-4l-120 104l32 -152l-4 -4h-128l-4 4l32 152l-120 -104h-4l-64 104v4l152 56l-152 48v4l64 104h4l120 -96l-32 152zM712 250h128l4 -4l-32 -152l120 96h4l64 -104v-4l-152 -48l152 -56v-4l-64 -104h-4l-120 104l32 -152l-4 -4h-128l-4 4l32 152l-120 -104h-4
l-64 104v4l152 56l-152 48v4l64 104h4l120 -96l-32 152z" />
    <glyph glyph-name="uni2043" unicode="&#x2043;" horiz-adv-x="400" 
d="M45 305h310l5 -5v-130l-5 -5h-310l-5 5v130z" />
    <glyph glyph-name="fraction" unicode="&#x2044;" horiz-adv-x="40" 
d="M145 700h145l5 -5l-391 -690l-10 -5h-144l-5 5l390 690z" />
    <glyph glyph-name="uni2045" unicode="&#x2045;" horiz-adv-x="300" 
d="M25 720h230l5 -5v-130l-5 -5h-95v-275h95l5 -5v-130l-5 -5h-95v-285h95l5 -5v-130l-5 -5h-230l-5 5v970z" />
    <glyph glyph-name="uni2046" unicode="&#x2046;" horiz-adv-x="300" 
d="M45 720h230l5 -5v-970l-5 -5h-230l-5 5v130l5 5h95v285h-95l-5 5v130l5 5h95v275h-95l-5 5v130z" />
    <glyph glyph-name="uni2047" unicode="&#x2047;" horiz-adv-x="900" 
d="M120 525l-85 65c35 75 100 125 175 125c130 0 215 -75 215 -180c0 -150 -135 -200 -135 -255c0 -20 5 -30 22 -43l-85 -87c-32 20 -87 65 -87 130c0 115 130 130 130 235c0 35 -20 60 -60 60c-35 0 -60 -15 -80 -50h-10zM225 135h10l80 -80v-10l-80 -80h-10l-80 80v10z
M560 525l-85 65c35 75 100 125 175 125c130 0 215 -75 215 -180c0 -150 -135 -200 -135 -255c0 -20 5 -30 22 -43l-85 -87c-32 20 -87 65 -87 130c0 115 130 130 130 235c0 35 -20 60 -60 60c-35 0 -60 -15 -80 -50h-10zM665 135h10l80 -80v-10l-80 -80h-10l-80 80v10z" />
    <glyph glyph-name="uni2048" unicode="&#x2048;" horiz-adv-x="700" 
d="M120 525l-85 65c35 75 100 125 175 125c130 0 215 -75 215 -180c0 -150 -135 -200 -135 -255c0 -20 5 -30 22 -43l-85 -87c-32 20 -87 65 -87 130c0 115 130 130 130 235c0 35 -20 60 -60 60c-35 0 -60 -15 -80 -50h-10zM225 135h10l80 -80v-10l-80 -80h-10l-80 80v10z
M505 700h130l5 -5v-115l-20 -365l-5 -5h-90l-5 5l-20 365v115zM565 135h10l80 -80v-10l-80 -80h-10l-80 80v10z" />
    <glyph glyph-name="uni2049" unicode="&#x2049;" horiz-adv-x="700" 
d="M65 700h130l5 -5v-115l-20 -365l-5 -5h-90l-5 5l-20 365v115zM125 135h10l80 -80v-10l-80 -80h-10l-80 80v10zM360 525l-85 65c35 75 100 125 175 125c130 0 215 -75 215 -180c0 -150 -135 -200 -135 -255c0 -20 5 -30 22 -43l-85 -87c-32 20 -87 65 -87 130
c0 115 130 130 130 235c0 35 -20 60 -60 60c-35 0 -60 -15 -80 -50h-10zM465 135h10l80 -80v-10l-80 -80h-10l-80 80v10z" />
    <glyph glyph-name="uni204B" unicode="&#x204b;" horiz-adv-x="740" 
d="M85 700h375c160 0 240 -105 240 -225c0 -115 -80 -220 -220 -225v-245l-5 -5h-130l-5 5v555h-120v-555l-5 -5h-130l-5 5v690z" />
    <glyph glyph-name="uni204C" unicode="&#x204c;" horiz-adv-x="500" 
d="M250 385h145l5 -5v-290l-5 -5h-145c-94 0 -170 67 -170 150s76 150 170 150zM310 175v120h-60v-120h60z" />
    <glyph glyph-name="uni204D" unicode="&#x204d;" horiz-adv-x="500" 
d="M105 385h145c94 0 170 -67 170 -150s-76 -150 -170 -150h-145l-5 5v290zM190 295v-120h60v120h-60z" />
    <glyph glyph-name="uni204E" unicode="&#x204e;" horiz-adv-x="640" 
d="M240 620h160l5 -5l-40 -190l150 120h5l80 -130v-5l-190 -60l190 -70v-5l-80 -130h-5l-150 130l40 -190l-5 -5h-160l-5 5l40 190l-150 -130h-5l-80 130v5l190 70l-190 60v5l80 130h5l150 -120l-40 190z" />
    <glyph glyph-name="uni204F" unicode="&#x204f;" horiz-adv-x="260" 
d="M65 460h130l5 -5v-130l-5 -5h-130l-5 5v130zM65 140h130l5 -5v-125c0 -70 25 -115 60 -130v-5c-17 -5 -25 -5 -35 -5c-105 0 -165 60 -165 145v120z" />
    <glyph glyph-name="uni2051" unicode="&#x2051;" horiz-adv-x="512" 
d="M192 720h128l4 -4l-32 -152l120 96h4l64 -104v-4l-152 -48l152 -56v-4l-64 -104h-4l-120 104l32 -152l-4 -4h-128l-4 4l32 152l-120 -104h-4l-64 104v4l152 56l-152 48v4l64 104h4l120 -96l-32 152zM192 230h128l4 -4l-32 -152l120 96h4l64 -104v-4l-152 -48l152 -56v-4
l-64 -104h-4l-120 104l32 -152l-4 -4h-128l-4 4l32 152l-120 -104h-4l-64 104v4l152 56l-152 48v4l64 104h4l120 -96l-32 152z" />
    <glyph glyph-name="uni2052" unicode="&#x2052;" horiz-adv-x="650" 
d="M67 700h120l5 -5v-120l-5 -5h-120l-5 5v120zM475 700h155l5 -5l-460 -690l-10 -5h-155l-5 5l460 690zM462 130h120l5 -5v-120l-5 -5h-120l-5 5v120z" />
    <glyph glyph-name="uni2053" unicode="&#x2053;" horiz-adv-x="520" 
d="M467 307l5 -5c-22 -55 -67 -137 -147 -137c-68 0 -108 37 -218 37c-20 0 -40 -10 -55 -20l-5 5c23 55 68 138 148 138c67 0 107 -38 217 -38c20 0 40 10 55 20z" />
    <glyph glyph-name="uni2055" unicode="&#x2055;" horiz-adv-x="640" 
d="M260 660h120l5 -5l-15 -155l100 115h10l80 -80v-10l-115 -95l150 15l5 -5v-120l-5 -5l-150 15l114 -100v-10l-79 -80h-10l-100 120l15 -155l-5 -5h-120l-5 5l15 155l-100 -120h-10l-80 80v10l115 100l-150 -15l-5 5v120l5 5l150 -15l-115 96v9l80 80h10l100 -115l-15 155
z" />
    <glyph glyph-name="uni2056" unicode="&#x2056;" horiz-adv-x="660" 
d="M65 710h130l5 -5v-130l-5 -5h-130l-5 5v130zM65 130h130l5 -5v-130l-5 -5h-130l-5 5v130zM465 410h130l5 -5v-130l-5 -5h-130l-5 5v130z" />
    <glyph glyph-name="uni2057" unicode="&#x2057;" horiz-adv-x="800" 
d="M82 700h143l5 -5l-65 -230l-5 -5h-85l-5 5l7 230zM262 700h143l5 -5l-65 -230l-5 -5h-85l-5 5l7 230zM442 700h143l5 -5l-65 -230l-5 -5h-85l-5 5l7 230zM622 700h143l5 -5l-65 -230l-5 -5h-85l-5 5l7 230z" />
    <glyph glyph-name="uni2058" unicode="&#x2058;" horiz-adv-x="840" 
d="M355 710h130l5 -5v-130l-5 -5h-130l-5 5v130zM65 430h130l5 -5v-130l-5 -5h-130l-5 5v130zM645 430h130l5 -5v-130l-5 -5h-130l-5 5v130zM355 140h130l5 -5v-130l-5 -5h-130l-5 5v130z" />
    <glyph glyph-name="uni2059" unicode="&#x2059;" horiz-adv-x="760" 
d="M65 710h130l5 -5v-130l-5 -5h-130l-5 5v130zM565 710h130l5 -5v-130l-5 -5h-130l-5 5v130zM315 430h130l5 -5v-130l-5 -5h-130l-5 5v130zM65 140h130l5 -5v-130l-5 -5h-130l-5 5v130zM565 140h130l5 -5v-130l-5 -5h-130l-5 5v130z" />
    <glyph glyph-name="uni205A" unicode="&#x205a;" horiz-adv-x="260" 
d="M65 710h130l5 -5v-130l-5 -5h-130l-5 5v130zM65 140h130l5 -5v-130l-5 -5h-130l-5 5v130z" />
    <glyph glyph-name="uni205B" unicode="&#x205b;" horiz-adv-x="840" 
d="M355 750h130l5 -5v-130l-5 -5h-130l-5 5v130zM65 440h130l5 -5v-130l-5 -5h-130l-5 5v130zM645 440h130l5 -5v-130l-5 -5h-130l-5 5v130zM355 90h130l5 -5v-130l-5 -5h-130l-5 5v130z" />
    <glyph glyph-name="uni205C" unicode="&#x205c;" horiz-adv-x="760" 
d="M315 700h130l5 -5v-255h275l5 -5v-130l-5 -5h-275v-295l-5 -5h-130l-5 5v295h-275l-5 5v130l5 5h275v255zM65 710h130l5 -5v-130l-5 -5h-130l-5 5v130zM565 710h130l5 -5v-130l-5 -5h-130l-5 5v130zM65 130h130l5 -5v-130l-5 -5h-130l-5 5v130zM565 130h130l5 -5v-130
l-5 -5h-130l-5 5v130z" />
    <glyph glyph-name="uni205D" unicode="&#x205d;" horiz-adv-x="260" 
d="M65 700h130l5 -5v-130l-5 -5h-130l-5 5v130zM65 430h130l5 -5v-130l-5 -5h-130l-5 5v130zM65 140h130l5 -5v-130l-5 -5h-130l-5 5v130z" />
    <glyph glyph-name="uni205E" unicode="&#x205e;" horiz-adv-x="260" 
d="M65 710h130l5 -5v-130l-5 -5h-130l-5 5v130zM65 515h130l5 -5v-130l-5 -5h-130l-5 5v130zM65 325h130l5 -5v-130l-5 -5h-130l-5 5v130zM65 130h130l5 -5v-130l-5 -5h-130l-5 5v130z" />
    <glyph glyph-name="zerosuperior" unicode="&#x2070;" horiz-adv-x="420" 
d="M210 875c105 0 180 -95 180 -225s-75 -225 -180 -225s-180 95 -180 225s75 225 180 225zM210 755c-30 0 -55 -25 -55 -105s25 -105 55 -105s55 25 55 105s-25 105 -55 105z" />
    <glyph glyph-name="uni2071" unicode="&#x2071;" horiz-adv-x="230" 
d="M65 720h100l5 -5v-270l-5 -5h-100l-5 5v270zM110 900h10l65 -65v-10l-65 -65h-10l-65 65v10z" />
    <glyph glyph-name="foursuperior" unicode="&#x2074;" horiz-adv-x="400" 
d="M315 890l5 -5v-280h55l5 -5v-90l-5 -5h-55v-60l-5 -5h-90l-5 5v60h-215l-5 5zM220 680l-60 -75h60v75z" />
    <glyph glyph-name="fivesuperior" unicode="&#x2075;" horiz-adv-x="340" 
d="M105 860h205l5 -5l-62 -115h-60l-3 -20c70 -15 125 -50 125 -145c0 -85 -75 -150 -155 -150c-48 0 -102 20 -135 65l75 85h5c19 -24 35 -30 55 -30s35 15 35 40s-15 40 -45 40s-45 -5 -75 -15l-5 5l30 240z" />
    <glyph glyph-name="sixsuperior" unicode="&#x2076;" horiz-adv-x="380" 
d="M310 860l5 -5c-45 -41 -105 -90 -130 -140c15 5 20 5 25 5c65 0 140 -45 140 -145c0 -95 -75 -150 -156 -150c-77 0 -164 55 -164 178c0 114 72 202 135 257h145zM150 601v-3c0 -33 20 -53 45 -53c20 0 35 15 35 40c0 20 -15 35 -36 35c-19 0 -33 -10 -44 -19z" />
    <glyph glyph-name="sevensuperior" unicode="&#x2077;" horiz-adv-x="490" 
d="M110 860h330l5 -5l-200 -410l-10 -5h-125l-5 5l150 295h-145l-5 5v110z" />
    <glyph glyph-name="eightsuperior" unicode="&#x2078;" horiz-adv-x="380" 
d="M190 875c80 0 140 -53 140 -117c0 -36 -15 -68 -50 -93c40 -35 60 -63 60 -115c0 -65 -60 -125 -150 -125s-150 60 -150 125c0 52 20 80 60 115c-35 25 -50 57 -50 93c0 64 60 117 140 117zM190 719c10 11 20 21 20 36c0 10 -7 20 -20 20c-15 0 -20 -10 -20 -20
c0 -15 10 -25 20 -36zM190 615c-20 -15 -30 -40 -30 -55c0 -20 15 -35 30 -35s30 15 30 35c0 15 -10 40 -30 55z" />
    <glyph glyph-name="ninesuperior" unicode="&#x2079;" horiz-adv-x="380" 
d="M70 440l-5 5c45 41 105 90 130 140c-15 -5 -20 -5 -25 -5c-65 0 -140 45 -140 145c0 95 75 150 156 150c77 0 164 -55 164 -178c0 -114 -72 -202 -135 -257h-145zM230 699v3c0 33 -20 53 -45 53c-20 0 -35 -15 -35 -40c0 -20 15 -35 36 -35c19 0 33 10 44 19z" />
    <glyph glyph-name="uni207A" unicode="&#x207a;" horiz-adv-x="440" 
d="M170 810h100l5 -5v-105h105l5 -5v-100l-5 -5h-105v-105l-5 -5h-100l-5 5v105h-105l-5 5v100l5 5h105v105z" />
    <glyph glyph-name="uni207B" unicode="&#x207b;" horiz-adv-x="440" 
d="M60 700h320l5 -5v-100l-5 -5h-320l-5 5v100z" />
    <glyph glyph-name="uni207C" unicode="&#x207c;" horiz-adv-x="440" 
d="M60 780h320l5 -5v-100l-5 -5h-320l-5 5v100zM60 620h320l5 -5v-100l-5 -5h-320l-5 5v100z" />
    <glyph glyph-name="uni207D" unicode="&#x207d;" horiz-adv-x="300" 
d="M280 935l5 -5c-73 -90 -110 -175 -110 -285s37 -195 110 -285l-5 -5h-140c-45 60 -90 155 -90 290s45 230 90 290h140z" />
    <glyph glyph-name="uni207E" unicode="&#x207e;" horiz-adv-x="300" 
d="M20 935h140c45 -60 90 -155 90 -290s-45 -230 -90 -290h-140l-5 5c72 90 110 175 110 285s-38 195 -110 285z" />
    <glyph glyph-name="uni207F" unicode="&#x207f;" horiz-adv-x="420" 
d="M65 720h100l5 -5v-5c15 5 30 10 50 10c100 0 150 -60 150 -135v-140l-5 -5h-100l-5 5v115c0 30 -15 45 -45 45c-20 0 -35 -10 -45 -20v-140l-5 -5h-100l-5 5v270z" />
    <glyph glyph-name="zeroinferior" unicode="&#x2080;" horiz-adv-x="420" 
d="M210 275c105 0 180 -95 180 -225s-75 -225 -180 -225s-180 95 -180 225s75 225 180 225zM210 155c-30 0 -55 -25 -55 -105s25 -105 55 -105s55 25 55 105s-25 105 -55 105z" />
    <glyph glyph-name="oneinferior" unicode="&#x2081;" horiz-adv-x="240" 
d="M175 265l5 -5v-415l-5 -5h-110l-5 5v315l5 10z" />
    <glyph glyph-name="twoinferior" unicode="&#x2082;" horiz-adv-x="330" 
d="M40 105v135c25 20 55 35 105 35c70 0 145 -60 145 -150c0 -40 -20 -85 -48 -135l-17 -30h60l5 -5v-110l-5 -5h-260l-5 5l117 190c23 40 28 60 28 80s-15 40 -40 40c-40 0 -60 -20 -80 -55z" />
    <glyph glyph-name="threeinferior" unicode="&#x2083;" horiz-adv-x="340" 
d="M35 260h275l5 -5l-80 -150c45 -25 80 -65 80 -130c0 -85 -75 -150 -155 -150c-48 0 -102 20 -135 65l75 85h5c19 -24 35 -30 55 -30s35 15 35 40s-15 40 -45 40c-20 0 -45 -5 -60 -10l-5 5l60 120h-110l-5 5v110z" />
    <glyph glyph-name="fourinferior" unicode="&#x2084;" horiz-adv-x="400" 
d="M315 290l5 -5v-280h55l5 -5v-90l-5 -5h-55v-60l-5 -5h-90l-5 5v60h-215l-5 5zM220 80l-60 -75h60v75z" />
    <glyph glyph-name="fiveinferior" unicode="&#x2085;" horiz-adv-x="340" 
d="M105 260h205l5 -5l-62 -115h-60l-3 -20c70 -15 125 -50 125 -145c0 -85 -75 -150 -155 -150c-48 0 -102 20 -135 65l75 85h5c19 -24 35 -30 55 -30s35 15 35 40s-15 40 -45 40s-45 -5 -75 -15l-5 5l30 240z" />
    <glyph glyph-name="sixinferior" unicode="&#x2086;" horiz-adv-x="380" 
d="M310 260l5 -5c-45 -41 -105 -90 -130 -140c15 5 20 5 25 5c65 0 140 -45 140 -145c0 -95 -75 -150 -156 -150c-77 0 -164 55 -164 178c0 114 72 202 135 257h145zM150 1v-3c0 -33 20 -53 45 -53c20 0 35 15 35 40c0 20 -15 35 -36 35c-19 0 -33 -10 -44 -19z" />
    <glyph glyph-name="seveninferior" unicode="&#x2087;" horiz-adv-x="490" 
d="M110 260h330l5 -5l-200 -410l-10 -5h-125l-5 5l150 295h-145l-5 5v110z" />
    <glyph glyph-name="eightinferior" unicode="&#x2088;" horiz-adv-x="380" 
d="M190 275c80 0 140 -53 140 -117c0 -36 -15 -68 -50 -93c40 -35 60 -63 60 -115c0 -65 -60 -125 -150 -125s-150 60 -150 125c0 52 20 80 60 115c-35 25 -50 57 -50 93c0 64 60 117 140 117zM190 119c10 11 20 21 20 36c0 10 -7 20 -20 20c-15 0 -20 -10 -20 -20
c0 -15 10 -25 20 -36zM190 15c-20 -15 -30 -40 -30 -55c0 -20 15 -35 30 -35s30 15 30 35c0 15 -10 40 -30 55z" />
    <glyph glyph-name="nineinferior" unicode="&#x2089;" horiz-adv-x="380" 
d="M70 -160l-5 5c45 41 105 90 130 140c-15 -5 -20 -5 -25 -5c-65 0 -140 45 -140 145c0 95 75 150 156 150c77 0 164 -55 164 -178c0 -114 -72 -202 -135 -257h-145zM230 99v3c0 33 -20 53 -45 53c-20 0 -35 -15 -35 -40c0 -20 15 -35 36 -35c19 0 33 10 44 19z" />
    <glyph glyph-name="uni208A" unicode="&#x208a;" horiz-adv-x="440" 
d="M170 210h100l5 -5v-105h105l5 -5v-100l-5 -5h-105v-105l-5 -5h-100l-5 5v105h-105l-5 5v100l5 5h105v105z" />
    <glyph glyph-name="uni208B" unicode="&#x208b;" horiz-adv-x="440" 
d="M60 100h320l5 -5v-100l-5 -5h-320l-5 5v100z" />
    <glyph glyph-name="uni208C" unicode="&#x208c;" horiz-adv-x="440" 
d="M60 180h320l5 -5v-100l-5 -5h-320l-5 5v100zM60 20h320l5 -5v-100l-5 -5h-320l-5 5v100z" />
    <glyph glyph-name="uni208D" unicode="&#x208d;" horiz-adv-x="300" 
d="M280 335l5 -5c-73 -90 -110 -175 -110 -285s37 -195 110 -285l-5 -5h-140c-45 60 -90 155 -90 290s45 230 90 290h140z" />
    <glyph glyph-name="uni208E" unicode="&#x208e;" horiz-adv-x="300" 
d="M20 335h140c45 -60 90 -155 90 -290s-45 -230 -90 -290h-140l-5 5c72 90 110 175 110 285s-38 195 -110 285z" />
    <glyph glyph-name="colonmonetary" unicode="&#x20a1;" horiz-adv-x="520" 
d="M495 482l-5 -5c-55 78 -119 103 -175 103c-91 0 -164 -103 -164 -230c0 -132 73 -225 171 -225c37 0 128 25 168 97l5 -5v-172c-40 -35 -60 -40 -116 -56l-15 -84l-5 -5h-99l-5 5l15 85c-15 0 -33 2 -49 5l-17 -90l-5 -5h-99l-5 5l25 150c-61 66 -115 140 -115 295
c0 177 90 300 190 345l20 100l5 5h99l5 -5l-15 -80c16 -1 40 -3 50 -3l16 83l5 5h99l5 -5l-22 -115c18 -10 28 -21 33 -25v-173z" />
    <glyph glyph-name="uni20A2" unicode="&#x20a2;" horiz-adv-x="520" 
d="M480 515l-5 -5c-60 53 -105 65 -155 65c-60 0 -130 -65 -130 -225c0 -90 20 -155 50 -190v245l5 5h130l5 -5v-15c35 20 60 30 100 35v-130l-5 -5c-35 -5 -67 -19 -95 -50v-110c30 5 60 25 95 60l5 -5v-145c-35 -30 -90 -55 -160 -55c-165 0 -280 145 -280 365
s115 365 280 365c70 0 125 -25 160 -55v-145z" />
    <glyph glyph-name="franc" unicode="&#x20a3;" horiz-adv-x="520" 
d="M85 700h400l5 -5v-130l-5 -5h-265v-85h155l5 -5v-110l-5 -5h-155v-60h155l5 -5v-110l-5 -5h-155v-170l-5 -5h-130l-5 5v170h-75l-5 5v110l5 5h75v60h-75l-5 5v110l5 5h75v220z" />
    <glyph glyph-name="lira" unicode="&#x20a4;" horiz-adv-x="520" 
d="M415 505h-10c-5 40 -30 65 -60 65c-37 0 -57 -30 -70 -115h160l5 -5l-40 -90l-5 -5h-131c-4 -46 -4 -53 -5 -60h136l5 -5l-40 -90l-5 -5h-106c-4 -21 -8 -37 -14 -55h300l5 -5l-75 -130l-10 -5h-460l-5 5c50 41 89 110 107 190h-82l-5 5l40 90l5 5h55c2 20 5 40 7 60h-82
l-5 5l40 90l5 5h54c28 180 82 260 216 260c60 0 105 -25 140 -65z" />
    <glyph glyph-name="uni20A6" unicode="&#x20a6;" horiz-adv-x="520" 
d="M45 700h160l10 -5l125 -390v390l5 5h130l5 -5v-250h45l5 -5v-150l-5 -5h-45v-280l-5 -5h-160l-10 5l-125 390v-390l-5 -5h-130l-5 5v280h-45l-5 5v150l5 5h45v250z" />
    <glyph glyph-name="peseta" unicode="&#x20a7;" horiz-adv-x="1080" 
d="M65 700h175c160 0 250 -105 250 -225v-5h30v115l5 5h130l5 -6v-114h144c24 9 49 15 81 15c60 0 85 -10 125 -30v-130l-5 -5c-60 30 -80 35 -120 35c-25 0 -45 -10 -45 -30c0 -35 200 -15 200 -180c0 -85 -60 -160 -240 -160c-210 0 -280 90 -280 220v125h-84
c-42 -49 -109 -80 -196 -80h-40v-245l-5 -5h-130l-5 5v690zM200 560v-170h30c65 0 105 25 105 85s-40 85 -105 85h-30zM660 330v-110c0 -80 40 -105 140 -105c80 0 100 10 100 30c0 35 -200 35 -200 175v10h-40z" />
    <glyph glyph-name="uni20A8" unicode="&#x20a8;" horiz-adv-x="860" 
d="M65 700h165c150 0 240 -95 240 -210c0 -80 -40 -135 -100 -165l115 -150c35 -45 100 -60 150 -60c30 0 45 10 45 30c0 55 -190 35 -190 180c0 80 70 160 185 160c40 0 75 -5 115 -30v-130l-5 -5c-60 35 -90 35 -110 35c-25 0 -45 -10 -45 -30c0 -45 190 -25 190 -180
c0 -85 -75 -160 -185 -160c-135 0 -215 35 -280 120l-125 175h-30v-275l-5 -5h-130l-5 5v690zM200 560v-140h30c50 0 85 20 85 70s-35 70 -85 70h-30z" />
    <glyph glyph-name="dong" unicode="&#x20ab;" horiz-adv-x="520" 
d="M335 720h130l5 -5v-35h45l5 -5v-110l-5 -5h-45v-375l-5 -5h-130l-5 5v5c-33 -20 -55 -25 -80 -25c-105 0 -190 85 -190 190s85 190 190 190c25 0 47 -1 80 -19v34h-135l-5 5v110l5 5h135v35zM330 327v55c-35 35 -53 30 -70 30c-36 0 -54 -27 -54 -57c0 -31 18 -58 54 -58
c17 0 40 0 70 30zM75 120h370l5 -5v-130l-5 -5h-370l-5 5v130z" />
    <glyph glyph-name="Euro" unicode="&#x20ac;" horiz-adv-x="810" 
d="M750 495l-5 -5c-65 55 -140 80 -235 80c-96 0 -175 -64 -204 -150h299l5 -5v-130l-5 -5h-299c29 -87 108 -150 204 -150c95 0 170 25 235 80l5 -5v-155c-65 -47 -145 -65 -240 -65c-180 0 -330 127 -363 295h-142l-5 5l110 130l10 5h27c33 167 183 295 363 295
c95 0 175 -18 240 -65v-155z" />
    <glyph glyph-name="uni20AE" unicode="&#x20ae;" horiz-adv-x="520" 
d="M35 700h450l5 -5v-130l-5 -5h-155v-70l66 36l7 -2l45 -73l-2 -7l-116 -74v-70l66 36l7 -2l45 -73l-2 -7l-116 -74v-175l-5 -5h-130l-5 5v100l-66 -41l-7 2l-45 83l2 7l116 69v70l-66 -41l-7 2l-45 83l2 7l116 69v145h-155l-5 5v130z" />
    <glyph glyph-name="uni20B1" unicode="&#x20b1;" horiz-adv-x="520" 
d="M45 700h175c128 0 211 -67 239 -155h46l5 -5v-130l-5 -5h-46c-28 -88 -111 -155 -239 -155h-40v-245l-5 -5h-130l-5 5v400h-55l-5 5v130l5 5h55v150zM180 560v-170h30c65 0 105 25 105 85s-40 85 -105 85h-30z" />
    <glyph glyph-name="uni20B2" unicode="&#x20b2;" horiz-adv-x="520" 
d="M247 800h110l5 -5v-87c41 -9 74 -28 98 -48v-145l-5 -5c-60 53 -105 65 -155 65c-70 0 -130 -65 -130 -225s60 -225 130 -225c21 0 41 1 60 9v141h-65l-5 5v130l5 5h200l5 -5v-360c-50 -40 -95 -50 -138 -58v-87l-5 -5h-110l-5 5v86c-134 30 -222 166 -222 359
s88 329 222 359v86z" />
    <glyph glyph-name="uni20B4" unicode="&#x20b4;" horiz-adv-x="520" 
d="M158 515l-108 80c55 75 130 120 215 120c120 0 205 -90 205 -205c0 -34 -10 -65 -30 -85h65l5 -5v-130l-5 -5h-245c-40 -21 -70 -43 -70 -75c0 -50 25 -80 75 -80c40 0 85 20 120 87h10l115 -77c-45 -100 -140 -155 -245 -155c-135 0 -225 105 -225 225c0 29 5 53 15 75
h-50l-5 5v130l5 5h230c49 25 85 48 85 85c0 30 -10 60 -55 60c-35 0 -65 -25 -97 -55h-10z" />
    <glyph glyph-name="uni20B5" unicode="&#x20b5;" horiz-adv-x="520" 
d="M267 800h110l5 -5v-87c41 -9 74 -28 98 -48v-145l-5 -5c-35 30 -65 47 -93 56v-433c28 9 58 26 93 57l5 -5v-145c-24 -21 -57 -39 -98 -48v-87l-5 -5h-110l-5 5v86c-134 30 -222 166 -222 359s88 329 222 359v86zM262 143v414c-42 -29 -72 -94 -72 -207s30 -178 72 -207z
" />
    <glyph glyph-name="uni2116" unicode="&#x2116;" horiz-adv-x="1000" 
d="M85 700h145l10 -5l180 -385v385l5 5h130l5 -5v-690l-5 -5h-145l-10 5l-180 385v-385l-5 -5h-130l-5 5v690zM795 605c91 0 165 -72 165 -160s-74 -160 -165 -160s-165 72 -165 160s74 160 165 160zM795 480c-20 0 -35 -15 -35 -35s15 -35 35 -35s35 15 35 35
s-15 35 -35 35zM655 235h290l5 -5v-130l-5 -5h-290l-5 5v130z" />
    <glyph glyph-name="uni2117" unicode="&#x2117;" horiz-adv-x="800" 
d="M395 160h-110l-5 5v360l5 5h130c85 0 165 -40 165 -150c0 -100 -80 -140 -165 -140h-15v-75zM400 410v-60h20c20 0 35 10 35 30s-15 30 -35 30h-20zM400 715c195 0 360 -155 360 -365s-165 -365 -360 -365s-360 155 -360 365s165 365 360 365zM400 595
c-125 0 -230 -105 -230 -245s105 -245 230 -245s230 105 230 245s-105 245 -230 245z" />
    <glyph glyph-name="trademark" unicode="&#x2122;" horiz-adv-x="1020" 
d="M35 700h350l5 -5v-130l-5 -5h-105v-235l-5 -5h-130l-5 5v235h-105l-5 5v130zM465 700h125l10 -5l100 -120l100 120l10 5h125l5 -5v-370l-5 -5h-130l-5 5v160l-95 -115h-10l-95 115v-160l-5 -5h-130l-5 5v370z" />
    <glyph glyph-name="Omega" unicode="&#x2126;" horiz-adv-x="820" 
d="M45 140h70c-45 55 -75 125 -75 220c0 200 165 355 370 355s370 -155 370 -355c0 -95 -30 -165 -75 -220h70l5 -5v-130l-5 -5h-280l-5 5v130l5 10c90 50 135 110 135 215c0 125 -100 210 -220 210s-220 -85 -220 -210c0 -105 45 -165 135 -215l5 -10v-130l-5 -5h-280l-5 5
v130z" />
    <glyph glyph-name="uni212E" unicode="&#x212e;" horiz-adv-x="790" 
d="M655 205v-160c-65 -40 -142 -60 -245 -60c-210 0 -370 165 -370 365s165 365 370 365c150 0 340 -110 340 -360c0 -5 0 -35 -5 -65l-10 -5h-530c25 -92 115 -155 205 -155s175 25 240 80zM205 425h390c-7 58 -70 145 -185 145c-90 0 -172 -52 -205 -145z" />
    <glyph glyph-name="onethird" unicode="&#x2153;" horiz-adv-x="800" 
d="M175 705l5 -5v-415l-5 -5h-110l-5 5v315l5 10zM465 700h145l5 -5l-391 -690l-10 -5h-144l-5 5l390 690zM495 420h275l5 -5l-80 -150c45 -25 80 -65 80 -130c0 -85 -75 -150 -155 -150c-48 0 -102 20 -135 65l75 85h5c19 -24 35 -30 55 -30s35 15 35 40s-15 40 -45 40
c-20 0 -45 -5 -60 -10l-5 5l60 120h-110l-5 5v110z" />
    <glyph glyph-name="twothirds" unicode="&#x2154;" horiz-adv-x="800" 
d="M20 545v135c25 20 55 35 105 35c70 0 145 -60 145 -150c0 -40 -20 -85 -48 -135l-17 -30h60l5 -5v-110l-5 -5h-260l-5 5l117 190c23 40 28 60 28 80s-15 40 -40 40c-40 0 -60 -20 -80 -55zM515 700h145l5 -5l-391 -690l-10 -5h-144l-5 5l390 690zM515 420h275l5 -5
l-80 -150c45 -25 80 -65 80 -130c0 -85 -75 -150 -155 -150c-48 0 -102 20 -135 65l75 85h5c19 -24 35 -30 55 -30s35 15 35 40s-15 40 -45 40c-20 0 -45 -5 -60 -10l-5 5l60 120h-110l-5 5v110z" />
    <glyph glyph-name="oneeighth" unicode="&#x215b;" horiz-adv-x="800" 
d="M175 705l5 -5v-415l-5 -5h-110l-5 5v315l5 10zM465 700h145l5 -5l-391 -690l-10 -5h-144l-5 5l390 690zM610 435c80 0 140 -53 140 -117c0 -36 -15 -68 -50 -93c40 -35 60 -63 60 -115c0 -65 -60 -125 -150 -125s-150 60 -150 125c0 52 20 80 60 115
c-35 25 -50 57 -50 93c0 64 60 117 140 117zM610 279c10 11 20 21 20 36c0 10 -7 20 -20 20c-15 0 -20 -10 -20 -20c0 -15 10 -25 20 -36zM610 175c-20 -15 -30 -40 -30 -55c0 -20 15 -35 30 -35s30 15 30 35c0 15 -10 40 -30 55z" />
    <glyph glyph-name="threeeighths" unicode="&#x215c;" horiz-adv-x="800" 
d="M35 700h275l5 -5l-80 -150c45 -25 80 -65 80 -130c0 -85 -75 -150 -155 -150c-48 0 -102 20 -135 65l75 85h5c19 -24 35 -30 55 -30s35 15 35 40s-15 40 -45 40c-20 0 -45 -5 -60 -10l-5 5l60 120h-110l-5 5v110zM525 700h145l5 -5l-391 -690l-10 -5h-144l-5 5l390 690z
M630 435c80 0 140 -53 140 -117c0 -36 -15 -68 -50 -93c40 -35 60 -63 60 -115c0 -65 -60 -125 -150 -125s-150 60 -150 125c0 52 20 80 60 115c-35 25 -50 57 -50 93c0 64 60 117 140 117zM630 279c10 11 20 21 20 36c0 10 -7 20 -20 20c-15 0 -20 -10 -20 -20
c0 -15 10 -25 20 -36zM630 175c-20 -15 -30 -40 -30 -55c0 -20 15 -35 30 -35s30 15 30 35c0 15 -10 40 -30 55z" />
    <glyph glyph-name="fiveeighths" unicode="&#x215d;" horiz-adv-x="800" 
d="M105 700h205l5 -5l-62 -115h-60l-3 -20c70 -15 125 -50 125 -145c0 -85 -75 -150 -155 -150c-48 0 -102 20 -135 65l75 85h5c19 -24 35 -30 55 -30s35 15 35 40s-15 40 -45 40s-45 -5 -75 -15l-5 5l30 240zM525 700h145l5 -5l-391 -690l-10 -5h-144l-5 5l390 690z
M630 435c80 0 140 -53 140 -117c0 -36 -15 -68 -50 -93c40 -35 60 -63 60 -115c0 -65 -60 -125 -150 -125s-150 60 -150 125c0 52 20 80 60 115c-35 25 -50 57 -50 93c0 64 60 117 140 117zM630 279c10 11 20 21 20 36c0 10 -7 20 -20 20c-15 0 -20 -10 -20 -20
c0 -15 10 -25 20 -36zM630 175c-20 -15 -30 -40 -30 -55c0 -20 15 -35 30 -35s30 15 30 35c0 15 -10 40 -30 55z" />
    <glyph glyph-name="seveneighths" unicode="&#x215e;" horiz-adv-x="800" 
d="M45 700h330l5 -5l-200 -410l-10 -5h-125l-5 5l150 295h-145l-5 5v110zM485 700h145l5 -5l-391 -690l-10 -5h-144l-5 5l390 690zM630 435c80 0 140 -53 140 -117c0 -36 -15 -68 -50 -93c40 -35 60 -63 60 -115c0 -65 -60 -125 -150 -125s-150 60 -150 125
c0 52 20 80 60 115c-35 25 -50 57 -50 93c0 64 60 117 140 117zM630 279c10 11 20 21 20 36c0 10 -7 20 -20 20c-15 0 -20 -10 -20 -20c0 -15 10 -25 20 -36zM630 175c-20 -15 -30 -40 -30 -55c0 -20 15 -35 30 -35s30 15 30 35c0 15 -10 40 -30 55z" />
    <glyph glyph-name="uni215F" unicode="&#x215f;" horiz-adv-x="360" 
d="M175 705l5 -5v-415l-5 -5h-110l-5 5v315l5 10zM465 700h145l5 -5l-391 -690l-10 -5h-144l-5 5l390 690z" />
    <glyph glyph-name="uni2190" unicode="&#x2190;" horiz-adv-x="700" 
d="M370 700h195l5 -5l-275 -275h380l5 -5v-130l-5 -5h-380l275 -275l-5 -5h-195l-10 5l-340 340v10l340 340z" />
    <glyph glyph-name="uni2191" unicode="&#x2191;" horiz-adv-x="700" 
d="M345 680h10l340 -340l5 -10v-195l-5 -5l-275 275v-380l-5 -5h-130l-5 5v380l-275 -275l-5 5v195l5 10z" />
    <glyph glyph-name="uni2192" unicode="&#x2192;" horiz-adv-x="700" 
d="M135 700h195l10 -5l340 -340v-10l-340 -340l-10 -5h-195l-5 5l275 275h-380l-5 5v130l5 5h380l-275 275z" />
    <glyph glyph-name="uni2193" unicode="&#x2193;" horiz-adv-x="700" 
d="M285 680h130l5 -5v-380l275 275l5 -5v-195l-5 -10l-340 -340h-10l-340 340l-5 10v195l5 5l275 -275v380z" />
    <glyph glyph-name="arrowboth" unicode="&#x2194;" horiz-adv-x="700" 
d="M130 540h195l5 -5l-115 -115h270l-115 115l5 5h195l10 -5l180 -180v-10l-180 -180l-10 -5h-195l-5 5l115 115h-270l115 -115l-5 -5h-195l-10 5l-180 180v10l180 180z" />
    <glyph glyph-name="arrowupdn" unicode="&#x2195;" horiz-adv-x="700" 
d="M345 760h10l180 -180l5 -10v-195l-5 -5l-115 115v-270l115 115l5 -5v-195l-5 -10l-180 -180h-10l-180 180l-5 10v195l5 5l115 -115v270l-115 -115l-5 5v195l5 10z" />
    <glyph glyph-name="uni2196" unicode="&#x2196;" horiz-adv-x="700" 
d="M40 653l7 7h481l11 -4l137 -138v-7h-388l268 -268v-8l-91 -91h-9l-268 268v-389h-7l-137 138l-4 11v481z" />
    <glyph glyph-name="uni2197" unicode="&#x2197;" horiz-adv-x="700" 
d="M653 660l7 -7v-481l-4 -11l-138 -138h-7v389l-268 -268h-8l-91 91v8l268 268h-389v7l138 138l11 4h481z" />
    <glyph glyph-name="uni2198" unicode="&#x2198;" horiz-adv-x="700" 
d="M660 47l-7 -7h-481l-11 4l-138 137v7h389l-268 268v9l91 91h8l268 -268v388h7l138 -137l4 -11v-481z" />
    <glyph glyph-name="uni2199" unicode="&#x2199;" horiz-adv-x="700" 
d="M47 40l-7 7v481l4 11l137 137h7v-388l268 268h9l91 -91v-9l-268 -268h388v-7l-137 -137l-11 -4h-481z" />
    <glyph glyph-name="Delta" unicode="&#x2206;" horiz-adv-x="700" 
d="M280 700h140l5 -5l230 -538l5 -22v-130l-5 -5h-610l-5 5v130l5 22l230 538zM350 520l-160 -380h320z" />
    <glyph glyph-name="product" unicode="&#x220f;" horiz-adv-x="760" 
d="M85 700h590l5 -5v-820l-5 -5h-130l-5 5v685h-320v-685l-5 -5h-130l-5 5v820z" />
    <glyph glyph-name="summation" unicode="&#x2211;" horiz-adv-x="600" 
d="M85 700h440l5 -5v-130l-5 -5h-258l188 -255v-10l-208 -285h308l5 -5v-130l-5 -5h-490l-5 5v130l5 10l215 285l-195 255l-5 10v130z" />
    <glyph glyph-name="minus" unicode="&#x2212;" horiz-adv-x="520" 
d="M70 435h380l5 -5v-130l-5 -5h-380l-5 5v130z" />
    <glyph glyph-name="uni2215" unicode="&#x2215;" horiz-adv-x="40" 
d="M145 700h145l5 -5l-391 -690l-10 -5h-144l-5 5l390 690z" />
    <glyph glyph-name="uni2219" unicode="&#x2219;" horiz-adv-x="260" 
d="M65 460h130l5 -5v-130l-5 -5h-130l-5 5v130z" />
    <glyph glyph-name="infinity" unicode="&#x221e;" horiz-adv-x="710" 
d="M40 365c0 91 71 165 160 165c55 0 90 -15 130 -55c50 65 95 80 155 80c101 0 185 -86 185 -190c0 -105 -84 -190 -185 -190c-60 0 -105 15 -155 80c-40 -40 -75 -55 -130 -55c-89 0 -160 73 -160 165zM260 365c-20 20 -30 25 -50 25c-15 0 -25 -10 -25 -25s10 -25 25 -25
c20 0 30 5 50 25zM400 365c35 -35 45 -50 80 -50c25 0 45 22 45 50c0 27 -20 50 -45 50c-35 0 -45 -15 -80 -50z" />
    <glyph glyph-name="integral" unicode="&#x222b;" horiz-adv-x="380" 
d="M340 555l-5 -5c-30 25 -55 32 -85 32c-45 0 -65 -32 -65 -92c0 -125 160 -325 160 -495c0 -140 -70 -225 -205 -225c-35 0 -60 5 -90 20v140l5 5c30 -25 55 -32 85 -32c45 0 65 32 65 92c0 125 -160 325 -160 495c0 140 70 225 205 225c35 0 60 -5 90 -20v-140z" />
    <glyph glyph-name="approxequal" unicode="&#x2248;" horiz-adv-x="520" 
d="M467 527l5 -5c-22 -55 -67 -137 -147 -137c-68 0 -108 37 -218 37c-20 0 -40 -10 -55 -20l-5 5c23 55 68 138 148 138c67 0 107 -38 217 -38c20 0 40 10 55 20zM467 327l5 -5c-22 -55 -67 -137 -147 -137c-68 0 -108 37 -218 37c-20 0 -40 -10 -55 -20l-5 5
c23 55 68 138 148 138c67 0 107 -38 217 -38c20 0 40 10 55 20z" />
    <glyph glyph-name="notequal" unicode="&#x2260;" horiz-adv-x="520" 
d="M70 535h182l35 95l10 5h148l5 -5l-35 -95h35l5 -5v-130l-5 -5h-91l-27 -60h118l5 -5v-130l-5 -5h-180l-35 -95l-10 -5h-148l-5 5l35 95h-37l-5 5v130l5 5h95l25 60h-120l-5 5v130z" />
    <glyph glyph-name="lessequal" unicode="&#x2264;" horiz-adv-x="520" 
d="M450 610l5 -5v-145l-5 -5l-210 -70l210 -70l5 -5v-145l-5 -5l-390 162l-5 5v115l5 5zM70 140h380l5 -5v-130l-5 -5h-380l-5 5v130z" />
    <glyph glyph-name="greaterequal" unicode="&#x2265;" horiz-adv-x="520" 
d="M65 605l5 5l390 -163l5 -5v-115l-5 -5l-390 -162l-5 5v145l5 5l210 70l-210 70l-5 5v145zM70 140h380l5 -5v-130l-5 -5h-380l-5 5v130z" />
    <glyph glyph-name="lozenge" unicode="&#x25ca;" horiz-adv-x="520" 
d="M205 600h110l5 -5l150 -290v-10l-150 -290l-5 -5h-110l-5 5l-150 290v10l150 290zM260 450l-65 -150l65 -150l65 150z" />
    <glyph glyph-name="uni2600" unicode="&#x2600;" horiz-adv-x="630" 
d="M250 660h130l5 -5v-50c18 -5 35 -12 52 -21l38 38h10l87 -87v-10l-38 -38c9 -17 16 -34 21 -52h50l5 -5v-130l-5 -5h-50c-5 -19 -12 -36 -21 -52l38 -38v-10l-87 -88h-10l-39 38c-16 -9 -33 -16 -51 -21v-49l-5 -5h-130l-5 5v49c-19 5 -36 12 -52 21l-38 -38h-10l-88 88
v10l38 38c-9 16 -16 33 -21 52h-49l-5 5v130l5 5h49c5 18 12 35 21 51l-38 39v10l88 87h10l38 -38c16 9 33 16 52 21v50zM315 480c-65 0 -110 -50 -110 -115s45 -115 110 -115s110 50 110 115s-45 115 -110 115z" />
    <glyph glyph-name="uni2601" unicode="&#x2601;" horiz-adv-x="820" 
d="M540 120h-280c-120 0 -220 80 -220 210c0 125 85 210 190 210c80 0 140 -50 151 -100c6 52 61 140 179 140c110 0 220 -80 220 -230c0 -90 -50 -230 -240 -230zM265 260h275c70 0 100 37 100 90c0 47 -25 95 -90 95c-53 0 -95 -50 -95 -105v-25l-5 -5h-110l-5 5v15
c0 45 -38 75 -85 75c-49 0 -70 -36 -70 -75c0 -45 27 -70 85 -70z" />
    <glyph glyph-name="uni2639" unicode="&#x2639;" horiz-adv-x="840" 
d="M255 455l70 70h10l70 -70v-10l-70 -70h-10l-70 70v10zM435 455l70 70h10l70 -70v-10l-70 -70h-10l-70 70v10zM420 715c195 0 360 -155 360 -365s-165 -365 -360 -365s-360 155 -360 365s165 365 360 365zM420 597c-125 0 -229 -110 -229 -247c0 -138 104 -248 229 -248
s228 110 228 248c0 137 -103 247 -228 247zM465 180h122l5 5c-10 127 -102 160 -172 160s-164 -33 -173 -160l5 -5h123l5 5c-5 20 15 35 40 35s45 -15 40 -35z" />
    <glyph glyph-name="smileface" unicode="&#x263a;" horiz-adv-x="840" 
d="M420 715c195 0 360 -155 360 -365s-165 -365 -360 -365s-360 155 -360 365s165 365 360 365zM420 597c-125 0 -229 -110 -229 -247c0 -138 104 -248 229 -248s228 110 228 248c0 137 -103 247 -228 247zM325 525h10l70 -70v-10l-70 -70h-10l-70 70v10zM505 525h10l70 -70
v-10l-70 -70h-10l-70 70v10zM252 325h123l5 -5c-5 -20 15 -35 40 -35s45 15 40 35l5 5h122l5 -5c-8 -128 -102 -160 -172 -160s-163 32 -173 160z" />
    <glyph glyph-name="invsmileface" unicode="&#x263b;" horiz-adv-x="840" 
d="M420 715c195 0 360 -155 360 -365s-165 -365 -360 -365s-360 155 -360 365s165 365 360 365zM325 525h-10l-70 -70v-10l70 -70h10l70 70v10zM525 525h-10l-70 -70v-10l70 -70h10l70 70v10zM375 305h-123l-5 -5c10 -128 103 -160 173 -160s164 32 172 160l-5 5h-122l-5 -5
c5 -20 -15 -35 -40 -35s-45 15 -40 35z" />
    <glyph glyph-name="sun" unicode="&#x263c;" horiz-adv-x="630" 
d="M250 660h130l5 -5v-50c18 -5 35 -12 52 -21l38 38h10l87 -87v-10l-38 -38c9 -17 16 -34 21 -52h50l5 -5v-130l-5 -5h-50c-5 -19 -12 -36 -21 -52l38 -38v-10l-87 -88h-10l-39 38c-16 -9 -33 -16 -51 -21v-49l-5 -5h-130l-5 5v49c-19 5 -36 12 -52 21l-38 -38h-10l-88 88
v10l38 38c-9 16 -16 33 -21 52h-49l-5 5v130l5 5h49c5 18 12 35 21 51l-38 39v10l88 87h10l38 -38c16 9 33 16 52 21v50zM315 480c-65 0 -110 -50 -110 -115s45 -115 110 -115s110 50 110 115s-45 115 -110 115z" />
    <glyph glyph-name="female" unicode="&#x2640;" horiz-adv-x="660" 
d="M265 -110l-5 6v94h-100l-5 5v130l5 5h100v54c-115 31 -200 136 -200 261c0 149 121 270 270 270s270 -121 270 -270c0 -125 -85 -230 -200 -261v-54h100l5 -5v-130l-5 -5h-100v-95l-5 -5h-130zM330 580c-72 0 -130 -60 -130 -135s58 -135 130 -135s130 60 130 135
s-58 135 -130 135z" />
    <glyph glyph-name="male" unicode="&#x2642;" horiz-adv-x="790" 
d="M330 390c-72 0 -130 -60 -130 -135s58 -135 130 -135s130 60 130 135s-58 135 -130 135zM700 675l50 -50v-221l-9 -4h-116v60l-63 -68c24 -40 38 -87 38 -137c0 -149 -121 -270 -270 -270s-270 121 -270 270s121 270 270 270c47 0 92 -13 131 -34l74 74h-60v104l5 6h220z
" />
    <glyph glyph-name="uni265A" unicode="&#x265a;" horiz-adv-x="810" 
d="M360 485h90v-65c75 95 145 120 205 120c45 0 105 -25 105 -100c0 -60 -25 -165 -50 -285l-35 -155h-540l-35 155c-25 120 -50 225 -50 285c0 75 60 100 105 100c60 0 130 -25 205 -120v65zM360 195v90c-35 105 -80 155 -141 155c-39 0 -74 -25 -74 -60
c0 -70 18 -124 30 -185h185zM450 285v-90h185c12 61 30 115 30 185c0 35 -35 60 -75 60c-60 0 -105 -50 -140 -155zM405 595c28 0 50 -22 50 -50s-22 -50 -50 -50s-50 22 -50 50s22 50 50 50zM405 120c-14 0 -25 -11 -25 -25s11 -25 25 -25s25 11 25 25s-11 25 -25 25z
M265 120c-14 0 -25 -11 -25 -25s11 -25 25 -25s25 11 25 25s-11 25 -25 25zM545 120c-14 0 -25 -11 -25 -25s11 -25 25 -25s25 11 25 25s-11 25 -25 25zM350 700h110l-2 -100h-106z" />
    <glyph glyph-name="uni278A" unicode="&#x278a;" horiz-adv-x="800" 
d="M400 715c193 0 350 -164 350 -365s-157 -365 -350 -365s-350 164 -350 365s157 365 350 365zM460 560l-5 5l-110 -95l-5 -10v-315l5 -5h110l5 5v415z" />
    <glyph glyph-name="uni278B" unicode="&#x278b;" horiz-adv-x="800" 
d="M400 715c193 0 350 -164 350 -365s-157 -365 -350 -365s-350 164 -350 365s157 365 350 365zM290 405l5 -5c20 35 40 55 80 55c25 0 40 -20 40 -40s-5 -40 -28 -80c-26 -42 -57 -93 -117 -190l5 -5h260l5 5v110l-5 5h-60l17 30c28 50 48 95 48 135c0 90 -75 150 -145 150
c-50 0 -80 -15 -105 -35v-135z" />
    <glyph glyph-name="uni278C" unicode="&#x278c;" horiz-adv-x="800" 
d="M400 715c193 0 350 -164 350 -365s-157 -365 -350 -365s-350 164 -350 365s157 365 350 365zM265 560l-5 -5v-110l5 -5h110l-60 -120l5 -5c15 5 40 10 60 10c30 0 45 -15 45 -40s-15 -40 -35 -40s-36 6 -55 30h-5l-75 -85c33 -45 87 -65 135 -65c80 0 155 65 155 150
c0 65 -35 105 -80 130l80 150l-5 5h-275z" />
    <glyph glyph-name="uni278D" unicode="&#x278d;" horiz-adv-x="800" 
d="M400 715c193 0 350 -164 350 -365s-157 -365 -350 -365s-350 164 -350 365s157 365 350 365zM505 590l-315 -380l5 -5h215v-60l5 -5h90l5 5v60h55l5 5v90l-5 5h-55v280zM410 380v-75h-60z" />
    <glyph glyph-name="uni278E" unicode="&#x278e;" horiz-adv-x="800" 
d="M400 715c193 0 350 -164 350 -365s-157 -365 -350 -365s-350 164 -350 365s157 365 350 365zM335 560l-5 -5l-30 -240l5 -5c30 10 45 15 75 15s45 -15 45 -40s-15 -40 -35 -40s-36 6 -55 30h-5l-75 -85c33 -45 87 -65 135 -65c80 0 155 65 155 150c0 95 -55 130 -125 145
l3 20h60l62 115l-5 5h-205z" />
    <glyph glyph-name="uni278F" unicode="&#x278f;" horiz-adv-x="800" 
d="M400 715c193 0 350 -164 350 -365s-157 -365 -350 -365s-350 164 -350 365s157 365 350 365zM525 555l-5 5h-145c-63 -55 -135 -143 -135 -257c0 -123 87 -178 164 -178c81 0 156 55 156 150c0 100 -75 145 -140 145c-5 0 -10 0 -25 -5c25 50 85 99 130 140zM360 301
c11 9 25 19 44 19c21 0 36 -15 36 -35c0 -25 -15 -40 -35 -40c-25 0 -45 20 -45 53v3z" />
    <glyph glyph-name="uni2790" unicode="&#x2790;" horiz-adv-x="800" 
d="M400 715c193 0 350 -164 350 -365s-157 -365 -350 -365s-350 164 -350 365s157 365 350 365zM270 560l-5 -5v-110l5 -5h145l-150 -295l5 -5h125l10 5l200 410l-5 5h-330z" />
    <glyph glyph-name="uni2791" unicode="&#x2791;" horiz-adv-x="800" 
d="M400 715c193 0 350 -164 350 -365s-157 -365 -350 -365s-350 164 -350 365s157 365 350 365zM400 575c-80 0 -140 -53 -140 -117c0 -36 15 -68 50 -93c-40 -35 -60 -63 -60 -115c0 -65 60 -125 150 -125s150 60 150 125c0 52 -20 80 -60 115c35 25 50 57 50 93
c0 64 -60 117 -140 117zM400 419c-10 11 -20 21 -20 36c0 10 5 20 20 20c13 0 20 -10 20 -20c0 -15 -10 -25 -20 -36zM400 315c20 -15 30 -40 30 -55c0 -20 -15 -35 -30 -35s-30 15 -30 35c0 15 10 40 30 55z" />
    <glyph glyph-name="uni2792" unicode="&#x2792;" horiz-adv-x="800" 
d="M400 715c193 0 350 -164 350 -365s-157 -365 -350 -365s-350 164 -350 365s157 365 350 365zM275 145l5 -5h145c63 55 135 143 135 257c0 123 -87 178 -164 178c-81 0 -156 -55 -156 -150c0 -100 75 -145 140 -145c5 0 10 0 25 5c-25 -50 -85 -99 -130 -140zM440 399
c-11 -9 -25 -19 -44 -19c-21 0 -36 15 -36 35c0 25 15 40 35 40c25 0 45 -20 45 -53v-3z" />
    <glyph glyph-name="uni2793" unicode="&#x2793;" horiz-adv-x="800" 
d="M400 715c193 0 350 -164 350 -365s-157 -365 -350 -365s-350 164 -350 365s157 365 350 365zM495 575c-105 0 -175 -95 -175 -225s70 -225 175 -225s175 95 175 225s-70 225 -175 225zM495 455c25 0 50 -25 50 -105s-25 -105 -50 -105s-50 25 -50 105s25 105 50 105z
M280 560l-5 5l-110 -95l-5 -10v-315l5 -5h110l5 5v415z" />
    <glyph glyph-name="fi" unicode="&#xfb01;" horiz-adv-x="700" 
d="M25 470h75v10c0 140 80 235 220 235c45 0 70 -7 100 -20v-140l-5 -5c-30 22 -55 30 -83 30c-67 0 -92 -40 -92 -105v-5h175l5 -5v-130l-5 -5h-175v-325l-5 -5h-130l-5 5v325h-75l-5 5v131zM505 470h130l5 -5v-460l-5 -5h-130l-5 5v460zM565 705h10l90 -90v-10l-90 -90
h-10l-90 90v10z" />
    <glyph glyph-name="fl" unicode="&#xfb02;" horiz-adv-x="800" 
d="M25 470h75v10c0 140 80 235 220 235c45 0 70 -7 100 -20v-140l-5 -5c-30 22 -55 30 -83 30c-67 0 -92 -40 -92 -105v-5h175l5 -5v-130l-5 -5h-175v-325l-5 -5h-130l-5 5v325h-75l-5 5v131zM495 700h130l5 -5v-505c0 -45 25 -70 60 -70s65 10 95 40l5 -5v-140
c-25 -15 -70 -30 -105 -30c-130 0 -195 80 -195 195v515z" />
    <glyph glyph-name="slash.a" horiz-adv-x="40" 
d="M145 700h145l5 -5l-391 -690l-10 -5h-144l-5 5l390 690z" />
    <glyph glyph-name="paragraph.C" horiz-adv-x="740" 
d="M420 700h255l5 -5v-690l-5 -5h-255c-215 0 -370 155 -370 350s155 350 370 350zM540 140v420h-60v-420h60z" />
    <glyph glyph-name="uni2190.a" horiz-adv-x="800" 
d="M505 540h-175l-10 -5l-180 -180v-10l180 -180l10 -5h175l5 5l-115 115h240l5 5v130l-5 5h-240l115 115zM400 715c193 0 350 -164 350 -365s-157 -365 -350 -365s-350 164 -350 365s157 365 350 365z" />
    <glyph glyph-name="uni2191.a" horiz-adv-x="800" 
d="M590 245v175l-5 10l-180 180h-10l-180 -180l-5 -10v-175l5 -5l115 115v-240l5 -5h130l5 5v240l115 -115zM400 715c193 0 350 -164 350 -365s-157 -365 -350 -365s-350 164 -350 365s157 365 350 365z" />
    <glyph glyph-name="uni2192.a" horiz-adv-x="800" 
d="M295 160h175l10 5l180 180v10l-180 180l-10 5h-175l-5 -5l115 -115h-240l-5 -5v-130l5 -5h240l-115 -115zM400 715c193 0 350 -164 350 -365s-157 -365 -350 -365s-350 164 -350 365s157 365 350 365z" />
    <glyph glyph-name="uni2193.a" horiz-adv-x="800" 
d="M210 455v-175l5 -10l180 -180h10l180 180l5 10v175l-5 5l-115 -115v240l-5 5h-130l-5 -5v-240l-115 115zM400 715c193 0 350 -164 350 -365s-157 -365 -350 -365s-350 164 -350 365s157 365 350 365z" />
    <glyph glyph-name="uni2196.a" horiz-adv-x="800" 
d="M609 410l-124 124l-11 3h-254l-7 -7v-254l3 -11l124 -124h7v163l170 -170h7l92 92v7l-170 170h163v7zM400 715c193 0 350 -164 350 -365s-157 -365 -350 -365s-350 164 -350 365s157 365 350 365z" />
    <glyph glyph-name="uni2197.a" horiz-adv-x="800" 
d="M460 141l124 124l3 11v254l-7 7h-254l-11 -3l-124 -124v-7h163l-170 -170v-7l92 -92h7l170 170v-163h7zM400 715c193 0 350 -164 350 -365s-157 -365 -350 -365s-350 164 -350 365s157 365 350 365z" />
    <glyph glyph-name="uni2198.a" horiz-adv-x="800" 
d="M191 290l124 -124l11 -3h254l7 7v254l-3 11l-124 124h-7v-163l-170 170h-7l-92 -92v-7l170 -170h-163v-7zM400 715c193 0 350 -164 350 -365s-157 -365 -350 -365s-350 164 -350 365s157 365 350 365z" />
    <glyph glyph-name="uni2199.a" horiz-adv-x="800" 
d="M340 559l-124 -124l-3 -11v-254l7 -7h254l11 3l124 124v7h-163l170 170v7l-92 92h-7l-170 -170v163h-7zM400 715c193 0 350 -164 350 -365s-157 -365 -350 -365s-350 164 -350 365s157 365 350 365z" />
    <glyph glyph-name="uni2600_uni2601" horiz-adv-x="1105" 
d="M250 680h130l5 -5v-50c18 -5 35 -12 52 -21l38 38h10l87 -87v-10l-19 -19c60 -10 104 -45 113 -86c6 52 61 140 179 140c110 0 220 -80 220 -230c0 -90 -50 -230 -240 -230h-280c-48 0 -92 12 -128 35c-11 -4 -21 -8 -32 -11v-49l-5 -5h-130l-5 5v49c-19 5 -36 12 -52 21
l-38 -38h-10l-88 88v10l38 38c-9 16 -16 33 -21 52h-49l-5 5v130l5 5h49c5 18 12 35 21 51l-38 39v10l88 87h10l38 -38c16 9 33 16 52 21v50zM315 500c-65 0 -110 -50 -110 -115s45 -115 110 -115c6 0 12 0 17 1c-5 18 -7 38 -7 59c0 63 22 114 57 148c-18 14 -41 22 -67 22
zM550 260h275c70 0 100 37 100 90c0 47 -25 95 -90 95c-53 0 -95 -50 -95 -105v-25l-5 -5h-110l-5 5v15c0 45 -38 75 -85 75c-49 0 -70 -36 -70 -75c0 -45 27 -70 85 -70z" />
    <glyph glyph-name="uni2601.001" horiz-adv-x="820" 
d="M-1 36l90 156c-31 35 -49 82 -49 138c0 125 85 210 190 210c80 0 140 -50 151 -100c6 52 61 140 179 140c110 0 220 -80 220 -230c0 -57 -23 -114 -63 -182l-116 -202l-7 -2l-113 65l-2 7l48 84h-77l-89 -154l-7 -2l-113 65l-2 7l48 84h-27c-17 0 -32 1 -48 4l-91 -158
l-7 -2l-113 65zM265 260h244c92 0 131 23 131 90c0 47 -25 95 -90 95c-53 0 -95 -50 -95 -105v-25l-5 -5h-110l-5 5v15c0 45 -38 75 -85 75c-49 0 -70 -36 -70 -75c0 -45 27 -70 85 -70z" />
    <glyph glyph-name="uni265A.a" horiz-adv-x="760" 
d="M360 485h45v-290h312l-7 -40h-610c-25 120 -50 225 -50 285c0 75 60 100 105 100c60 0 130 -25 205 -120v65zM145 380c0 -70 18 -124 30 -185h185v90c-35 105 -80 155 -140 155c-40 0 -75 -25 -75 -60zM125 40h560l-10 -40h-540zM350 700h25l30 -40l30 40h25l-40 -50
l38 -50h-23l-30 35l-30 -35h-23l38 50zM405 595v-100c-28 0 -50 22 -50 50s22 50 50 50z" />
    <glyph glyph-name="uni265A.b" horiz-adv-x="760" 
d="M660 155l-25 -115h-560l-25 115h610zM667 195h-82c12 61 30 115 30 185c0 35 -35 60 -75 60c-60 0 -105 -50 -140 -155v-90h-45v290h45v-65c75 95 145 120 205 120c45 0 105 -25 105 -100c0 -51 -15 -135 -43 -245zM405 545c0 -28 -22 -50 -50 -50v100
c28 0 50 -22 50 -50zM470 95c0 -14 11 -25 25 -25s25 11 25 25s-11 25 -25 25s-25 -11 -25 -25zM190 95c0 -14 11 -25 25 -25s25 11 25 25s-11 25 -25 25s-25 -11 -25 -25zM330 95c0 -14 11 -25 25 -25s25 11 25 25s-11 25 -25 25s-25 -11 -25 -25zM300 700l40 -50l-38 -50z
M410 700l-2 -100l-38 50zM325 700h60l-30 -40zM355 635l30 -35h-60z" />
    <glyph glyph-name="zero.o" 
d="M290 485c138 0 250 -112 250 -250s-112 -250 -250 -250s-250 112 -250 250s112 250 250 250zM290 345c-55 0 -100 -49 -100 -110s45 -110 100 -110s100 49 100 110s-45 110 -100 110z" />
    <glyph glyph-name="one.o" horiz-adv-x="260" 
d="M195 475l5 -5v-465l-5 -5h-130l-5 5v352l5 10z" />
    <glyph glyph-name="two.o" horiz-adv-x="480" 
d="M40 270v155c45 40 87 60 142 60c117 0 203 -75 203 -185c0 -45 -5 -70 -70 -145l-15 -15h115l5 -5v-130l-5 -5h-400l-5 5l180 205c13 17 48 50 48 90c0 24 -18 45 -56 45c-50 0 -87 -30 -137 -80z" />
    <glyph glyph-name="three.o" horiz-adv-x="540" 
d="M25 470h435l5 -5l-125 -255c110 -40 160 -110 160 -205c0 -145 -110 -250 -260 -250c-100 0 -185 70 -220 145l100 90h10c10 -35 50 -95 110 -95s110 45 110 110s-60 110 -120 110c-35 0 -60 -5 -95 -20l-5 5l117 230h-222l-5 5v130z" />
    <glyph glyph-name="four.o" horiz-adv-x="560" 
d="M435 495l5 -5v-350h95l5 -5v-130l-5 -5h-95v-225l-5 -5h-130l-5 5v225h-295l-5 5zM300 210l-55 -70h55v70z" />
    <glyph glyph-name="five.o" horiz-adv-x="540" 
d="M140 470h355l5 -5l-85 -135h-150l-5 -100c120 10 240 -80 240 -230c0 -135 -115 -245 -255 -245c-85 0 -165 35 -215 110l85 110h10c35 -55 70 -80 120 -80c55 0 105 45 105 105c0 65 -50 112 -115 112c-50 0 -70 -7 -125 -32l-5 5l30 380z" />
    <glyph glyph-name="six.o" horiz-adv-x="550" 
d="M472 700l5 -5c-91 -66 -188 -167 -244 -270c22 6 45 10 67 10c120 0 220 -100 220 -220c0 -130 -100 -230 -230 -230c-115 0 -250 85 -250 285c0 175 150 355 250 430h182zM185 250c5 -90 55 -125 105 -125c45 0 80 40 80 90c0 45 -35 80 -80 80s-75 -15 -105 -45z" />
    <glyph glyph-name="seven.o" horiz-adv-x="520" 
d="M35 470h480l5 -5l-290 -690l-10 -5h-155l-5 5l230 555h-255l-5 5v130z" />
    <glyph glyph-name="eight.o" horiz-adv-x="540" 
d="M270 715c105 0 200 -75 200 -185c0 -60 -30 -110 -85 -145c65 -45 115 -105 115 -185c0 -120 -105 -215 -230 -215s-230 95 -230 215c0 80 50 140 115 185c-55 35 -85 85 -85 145c0 110 95 185 200 185zM270 450c30 20 50 46 50 80c0 25 -20 45 -50 45s-50 -20 -50 -45
c0 -34 20 -60 50 -80zM270 320c-35 -30 -80 -65 -80 -120c0 -40 35 -75 80 -75s80 35 80 75c0 55 -45 90 -80 120z" />
    <glyph glyph-name="nine.o" horiz-adv-x="550" 
d="M78 -230l-5 5c91 66 188 167 244 270c-22 -6 -45 -10 -67 -10c-120 0 -220 100 -220 220c0 130 100 230 230 230c115 0 250 -85 250 -285c0 -175 -150 -355 -250 -430h-182zM365 220c-5 90 -55 125 -105 125c-45 0 -80 -40 -80 -90c0 -45 35 -80 80 -80s75 15 105 45z
" />
    </font>
</defs>
</svg>
