<?xml version="1.0" standalone="no"?>
<!DOCTYPE svg PUBLIC "-//W3C//DTD SVG 1.1//EN" "http://www.w3.org/Graphics/SVG/1.1/DTD/svg11.dtd" >
<svg xmlns="http://www.w3.org/2000/svg" xmlns:xlink="http://www.w3.org/1999/xlink" version="1.1">
<metadata>
Created by FontForge 20170910 at Tue Sep 11 08:44:26 2007
 By jimmywarting
(c) 2007 by P22 type foundry. All rights reserved.
</metadata>
<defs>
<font id="P22UndergroundCYPro-Book" horiz-adv-x="0" >
  <font-face 
    font-family="P22 Underground CY Pro"
    font-weight="400"
    font-stretch="normal"
    units-per-em="1000"
    panose-1="0 0 5 0 0 0 0 0 0 0"
    ascent="750"
    descent="-250"
    x-height="470"
    cap-height="700"
    bbox="-669 -328 1526 1015"
    underline-thickness="50"
    underline-position="-100"
    stemh="77"
    stemv="77"
    unicode-range="U+0020-FB02"
  />
<missing-glyph horiz-adv-x="711" 
d="M71 700h570l5 -5v-690l-5 -5h-570l-5 5v690zM111 605v-130h25v90l45 -50l45 50v-90h25v130h-25l-45 -55l-45 55h-25zM286 605v-130h25v130h-25zM346 605v-130h25v90l65 -90h30v130h-25v-90l-65 90h-30zM501 605v-130h45c40 0 70 20 70 65s-30 65 -70 65h-45zM526 580h20
c25 0 45 -10 45 -40s-20 -40 -45 -40h-20v80zM156 405v-25h45v-105h25v105h45v25h-115zM296 405v-130h25v60h65v-60h25v130h-25v-45h-65v45h-25zM446 405v-130h90v25h-65v30h45v25h-45v25h60v25h-85zM276 170v30c-10 5 -25 10 -45 10c-42 0 -75 -30 -75 -70s30 -70 75 -70
c15 0 35 5 50 15v66l-50 -1v-25h25v-25c-10 -5 -15 -5 -25 -5c-30 0 -45 20 -45 45s18 42 45 42c18 0 25 -1 45 -12zM361 205l-55 -130h30l10 25h50l10 -25h30l-55 130h-20zM371 170l17 -45h-34zM456 205v-130h25v40h20c30 0 50 20 50 45s-20 45 -50 45h-45zM481 180h20
c12 0 20 -7 20 -20c0 -12 -8 -20 -20 -20h-20v40z" />
    <glyph glyph-name="f_f" unicode="ff" horiz-adv-x="703" 
d="M31 470h75v21c0 122 65 204 178 204c34 0 55 -5 85 -20v-76l-5 -5c-30 23 -51 28 -80 28c-63 0 -101 -48 -101 -136v-16h237v41c0 122 66 204 179 204c33 0 54 -5 84 -20v-76l-5 -5c-30 23 -51 28 -79 28c-64 0 -102 -48 -102 -136v-36h181l5 -5v-67l-5 -5h-181v-388
l-5 -5h-67l-5 5v388h-237v-388l-5 -5h-67l-5 5v388h-75l-5 5v68z" />
    <glyph glyph-name="t_t" unicode="tt" horiz-adv-x="719" 
d="M116 590h67l5 -6v-114h237v115l5 5h67l5 -6v-114h192l5 -5v-67l-5 -5h-192v-214c0 -89 41 -121 87 -121c28 0 67 7 105 34l5 -5v-72c-28 -17 -76 -30 -110 -30c-102 0 -164 64 -164 189v219h-237v-214c0 -89 41 -121 76 -121c28 0 57 7 95 34l5 -5v-72
c-28 -17 -65 -30 -100 -30c-91 0 -153 64 -153 189v219h-80l-5 5v67l5 5h80v115z" />
    <glyph glyph-name="uni0457_uni0457" unicode="&#x457;&#x457;" horiz-adv-x="497" 
d="M91 470h67l5 -5v-460l-5 -5h-67l-5 5v460zM5 637h10l46 -46v-10l-46 -47h-10l-46 47v10zM244 637h10l46 -46v-10l-46 -47h-10l-47 47v10zM339 470h67l5 -5v-460l-5 -5h-67l-5 5v460zM482 637h10l46 -46v-10l-46 -47h-10l-46 47v10z" />
    <glyph glyph-name="uni0407_uni0407" unicode="&#x407;&#x407;" horiz-adv-x="497" 
d="M91 700h67l5 -5v-690l-5 -5h-67l-5 5v690zM7 861h10l52 -51v-10l-52 -51h-10l-51 51v10zM244 861h10l51 -51v-10l-51 -51h-10l-52 51v10zM339 700h67l5 -5v-690l-5 -5h-67l-5 5v690zM480 861h10l51 -51v-10l-51 -51h-10l-51 51v10z" />
    <glyph glyph-name=".notdef" horiz-adv-x="711" 
d="M71 700h570l5 -5v-690l-5 -5h-570l-5 5v690zM111 605v-130h25v90l45 -50l45 50v-90h25v130h-25l-45 -55l-45 55h-25zM286 605v-130h25v130h-25zM346 605v-130h25v90l65 -90h30v130h-25v-90l-65 90h-30zM501 605v-130h45c40 0 70 20 70 65s-30 65 -70 65h-45zM526 580h20
c25 0 45 -10 45 -40s-20 -40 -45 -40h-20v80zM156 405v-25h45v-105h25v105h45v25h-115zM296 405v-130h25v60h65v-60h25v130h-25v-45h-65v45h-25zM446 405v-130h90v25h-65v30h45v25h-45v25h60v25h-85zM276 170v30c-10 5 -25 10 -45 10c-42 0 -75 -30 -75 -70s30 -70 75 -70
c15 0 35 5 50 15v66l-50 -1v-25h25v-25c-10 -5 -15 -5 -25 -5c-30 0 -45 20 -45 45s18 42 45 42c18 0 25 -1 45 -12zM361 205l-55 -130h30l10 25h50l10 -25h30l-55 130h-20zM371 170l17 -45h-34zM456 205v-130h25v40h20c30 0 50 20 50 45s-20 45 -50 45h-45zM481 180h20
c12 0 20 -7 20 -20c0 -12 -8 -20 -20 -20h-20v40z" />
    <glyph glyph-name=".null" 
 />
    <glyph glyph-name="CR" 
 />
    <glyph glyph-name="space" unicode=" " horiz-adv-x="260" 
 />
    <glyph glyph-name="exclam" unicode="!" horiz-adv-x="271" 
d="M102 700h67l5 -5v-115l-14 -405l-5 -5h-39l-5 5l-14 405v115zM131 95h10l50 -50v-10l-50 -50h-10l-50 50v10z" />
    <glyph glyph-name="quotedbl" unicode="&#x22;" horiz-adv-x="451" 
d="M102 700h67l5 -5v-95l-14 -135l-5 -5h-39l-5 5l-14 135v95zM282 700h67l5 -5v-95l-14 -135l-5 -5h-39l-5 5l-14 135v95z" />
    <glyph glyph-name="numbersign" unicode="#" horiz-adv-x="611" 
d="M61 504h107l12 151l5 5h74l5 -5l-12 -151h126l12 151l5 5h74l5 -5l-12 -151h99l5 -5v-68l-5 -5h-106l-10 -122h106l5 -5v-68l-5 -5h-113l-15 -181l-5 -5h-74l-5 5l15 181h-126l-15 -181l-5 -5h-74l-5 5l15 181h-93l-5 5v68l5 5h100l10 122h-100l-5 5v68zM245 426
l-10 -122h126l10 122h-126z" />
    <glyph glyph-name="dollar" unicode="$" horiz-adv-x="531" 
d="M232 800h67l5 -5v-84c67 -13 122 -61 150 -108l-53 -41h-10c-22 29 -52 54 -87 65v-226c84 -40 179 -92 179 -204c0 -106 -83 -191 -179 -207v-85l-5 -5h-67l-5 5v83c-91 12 -158 66 -188 142l57 41h10c23 -55 68 -93 121 -104v278c-81 38 -160 88 -160 189
c0 91 64 163 160 177v84zM227 439v193c-46 -11 -79 -48 -79 -98c0 -45 36 -72 79 -95zM304 309v-239c49 13 98 58 98 127c0 54 -49 86 -98 112z" />
    <glyph glyph-name="percent" unicode="%" horiz-adv-x="811" 
d="M211 705c90 0 165 -70 165 -160s-75 -160 -165 -160s-165 70 -165 160s75 160 165 160zM211 635c-48 0 -88 -39 -88 -90s40 -90 88 -90s87 39 87 90s-39 90 -87 90zM599 700h78l5 -5l-460 -690l-10 -5h-78l-5 5l460 690zM601 315c90 0 165 -70 165 -160
s-75 -160 -165 -160s-165 70 -165 160s75 160 165 160zM601 245c-48 0 -88 -39 -88 -90s40 -90 88 -90s87 39 87 90s-39 90 -87 90z" />
    <glyph glyph-name="ampersand" unicode="&#x26;" horiz-adv-x="686" 
d="M623 375l4 -5c-26 -55 -71 -135 -123 -211c48 -48 105 -100 160 -153l-5 -6h-109c-31 26 -68 61 -99 94c-54 -64 -122 -109 -201 -109c-116 0 -204 94 -204 211c0 79 58 144 133 192c-37 42 -73 94 -73 158c0 93 70 169 164 169s164 -76 164 -169
c0 -70 -66 -137 -128 -172c43 -54 94 -108 140 -158c40 53 74 115 97 159h80zM255 421c39 25 97 73 97 125s-36 92 -81 92c-46 0 -83 -40 -83 -92c0 -50 43 -100 67 -125zM226 330c-50 -34 -99 -76 -99 -134c0 -72 55 -134 123 -134c51 0 104 37 143 89
c-56 58 -112 118 -167 179z" />
    <glyph glyph-name="quotesingle" unicode="'" horiz-adv-x="271" 
d="M102 700h67l5 -5v-95l-14 -135l-5 -5h-39l-5 5l-14 135v95z" />
    <glyph glyph-name="parenleft" unicode="(" horiz-adv-x="311" 
d="M256 720l5 -5c-58 -85 -126 -260 -126 -485s68 -400 126 -485l-5 -5h-79c-50 85 -120 255 -120 490s70 405 120 490h79z" />
    <glyph glyph-name="parenright" unicode=")" horiz-adv-x="311" 
d="M55 720h79c50 -85 120 -255 120 -490s-70 -405 -120 -490h-79l-5 5c59 85 127 260 127 485s-68 400 -127 485z" />
    <glyph glyph-name="asterisk" unicode="*" horiz-adv-x="451" 
d="M196 700h60l5 -5l-15 -139l119 80h5l31 -54v-5l-134 -57l134 -57v-5l-31 -54h-5l-119 80l15 -139l-5 -5h-60l-5 5l14 139l-119 -80h-5l-30 54v5l133 57l-133 57v5l30 54h5l119 -80l-14 139z" />
    <glyph glyph-name="plus" unicode="+" horiz-adv-x="531" 
d="M232 560h67l5 -5v-151h152l5 -5v-68l-5 -5h-152v-151l-5 -5h-67l-5 5v151h-151l-5 5v68l5 5h151v151z" />
    <glyph glyph-name="comma" unicode="," horiz-adv-x="271" 
d="M102 83h67l5 -5v-74c0 -68 -36 -109 -102 -109c-7 0 -13 0 -27 5v5c35 7 52 42 52 94v79z" />
    <glyph glyph-name="hyphen" unicode="-" horiz-adv-x="400" 
d="M45 274h310l5 -5v-68l-5 -5h-310l-5 5v68z" />
    <glyph glyph-name="period" unicode="." horiz-adv-x="271" 
d="M99 83h73l5 -5v-73l-5 -5h-73l-5 5v73z" />
    <glyph glyph-name="slash" unicode="/" horiz-adv-x="309" 
d="M221 700h67l5 -5l-200 -940l-5 -5h-67l-5 5l200 940z" />
    <glyph glyph-name="zero" unicode="0" horiz-adv-x="551" 
d="M276 715c144 0 224 -163 224 -365s-80 -365 -224 -365c-145 0 -225 163 -225 365s80 365 225 365zM276 638c-89 0 -143 -129 -143 -288s54 -288 143 -288c88 0 143 129 143 288s-55 288 -143 288z" />
    <glyph glyph-name="one" unicode="1" horiz-adv-x="249" 
d="M158 705l5 -5v-695l-5 -5h-67l-5 5v634l5 10z" />
    <glyph glyph-name="two" unicode="2" horiz-adv-x="491" 
d="M41 532v98c45 47 100 85 175 85c110 0 191 -84 191 -194c0 -80 -41 -149 -88 -225l-133 -219h243l5 -5v-67l-5 -5h-370l-5 5l193 320c48 78 79 141 79 196c0 71 -45 117 -110 117c-75 0 -133 -58 -170 -111z" />
    <glyph glyph-name="three" unicode="3" horiz-adv-x="511" 
d="M36 700h400l5 -5l-156 -274c109 -17 178 -98 178 -204c0 -128 -104 -232 -232 -232c-75 0 -150 35 -205 110l45 53h10c43 -51 88 -86 150 -86c85 0 151 69 151 155c0 80 -70 141 -166 141c-22 0 -39 -4 -64 -14l-5 5l163 274h-274l-5 5v67z" />
    <glyph glyph-name="four" unicode="4" horiz-adv-x="621" 
d="M439 705l5 -5v-411h145l5 -5v-68l-5 -5h-145v-206l-5 -5h-67l-5 5v206h-346l-5 5zM367 516l-190 -227h190v227z" />
    <glyph glyph-name="five" unicode="5" horiz-adv-x="501" 
d="M126 700h335l5 -5l-46 -72h-222l-19 -189c152 17 277 -78 277 -224c0 -130 -105 -225 -235 -225c-75 0 -145 35 -195 100l45 53h10c42 -53 90 -76 140 -76c87 0 154 62 154 148c0 97 -87 152 -181 152c-30 0 -62 -4 -102 -17l-5 5l34 345z" />
    <glyph glyph-name="six" unicode="6" horiz-adv-x="531" 
d="M363 700l5 -5c-85 -70 -187 -191 -221 -315c28 22 73 45 129 45c130 0 220 -100 220 -220s-90 -220 -220 -220c-115 0 -230 83 -230 285c0 175 130 365 230 430h87zM127 283v-13c0 -149 72 -208 149 -208c84 0 139 65 139 143c0 81 -58 143 -139 143
c-66 0 -107 -24 -149 -65z" />
    <glyph glyph-name="seven" unicode="7" horiz-adv-x="531" 
d="M72 700h429l5 -5l-346 -690l-10 -5h-78l-5 5l312 618h-307l-5 5v67z" />
    <glyph glyph-name="eight" unicode="8" horiz-adv-x="511" 
d="M256 715c97 0 169 -74 169 -169c0 -68 -41 -121 -105 -159c79 -39 143 -108 143 -195c0 -120 -90 -207 -207 -207s-207 87 -207 207c0 87 63 156 143 195c-65 38 -106 91 -106 159c0 95 73 169 170 169zM256 429c51 25 88 67 88 117c0 58 -39 92 -88 92
c-50 0 -88 -34 -88 -92c0 -50 36 -92 88 -117zM256 346c-67 -30 -126 -83 -126 -154c0 -83 54 -130 126 -130c71 0 126 47 126 130c0 71 -60 124 -126 154z" />
    <glyph glyph-name="nine" unicode="9" horiz-adv-x="531" 
d="M36 495c0 120 90 220 220 220c115 0 230 -83 230 -285c0 -175 -130 -365 -230 -430h-88l-5 5c86 70 187 191 222 315c-28 -22 -73 -45 -129 -45c-130 0 -220 100 -220 220zM256 352c65 0 107 24 148 65c1 4 1 9 1 13c0 149 -73 208 -149 208c-85 0 -139 -65 -139 -143
c0 -81 58 -143 139 -143z" />
    <glyph glyph-name="colon" unicode=":" horiz-adv-x="271" 
d="M99 403h73l5 -5v-73l-5 -5h-73l-5 5v73zM99 83h73l5 -5v-73l-5 -5h-73l-5 5v73z" />
    <glyph glyph-name="semicolon" unicode=";" horiz-adv-x="271" 
d="M102 83h67l5 -5v-74c0 -68 -36 -109 -102 -109c-7 0 -13 0 -27 5v5c35 7 52 42 52 94v79zM99 403h73l5 -5v-73l-5 -5h-73l-5 5v73z" />
    <glyph glyph-name="less" unicode="&#x3c;" horiz-adv-x="531" 
d="M456 551l5 -5v-75l-5 -5l-289 -101l289 -101l5 -5v-75l-5 -5l-390 151l-5 5v60l5 5z" />
    <glyph glyph-name="equal" unicode="=" horiz-adv-x="531" 
d="M82 504h380l5 -5v-68l-5 -5h-380l-5 5v68zM82 304h380l5 -5v-68l-5 -5h-380l-5 5v68z" />
    <glyph glyph-name="greater" unicode="&#x3e;" horiz-adv-x="531" 
d="M71 546l5 5l390 -151l5 -5v-60l-5 -5l-390 -151l-5 5v75l5 5l288 101l-288 101l-5 5v75z" />
    <glyph glyph-name="question" unicode="?" horiz-adv-x="441" 
d="M79 552l-53 38c35 75 100 125 185 125c104 0 179 -75 179 -172c0 -141 -172 -197 -172 -275c0 -34 13 -47 38 -67l-48 -50c-28 18 -72 58 -72 117c0 113 173 158 173 275c0 55 -44 95 -98 95c-59 0 -98 -34 -127 -86h-5zM201 95h10l50 -50v-10l-50 -50h-10l-50 50v10z
" />
    <glyph glyph-name="at" unicode="@" horiz-adv-x="851" 
d="M290 347l31 77c29 15 60 26 105 26c85 0 141 -54 141 -162v-108c0 -59 27 -75 59 -75c49 0 86 58 86 155c0 155 -130 279 -286 279c-157 0 -286 -134 -286 -299s129 -299 286 -299c55 0 100 12 148 45h8l28 -58c-65 -42 -120 -53 -184 -53c-195 0 -360 155 -360 365
s165 365 360 365c198 0 360 -155 360 -345c0 -134 -75 -221 -160 -221c-44 0 -79 7 -110 44c-27 -25 -72 -43 -110 -43c-70 0 -142 41 -142 122c0 99 120 132 233 142c0 59 -31 80 -73 80c-44 0 -82 -10 -129 -42zM497 140v101c-88 -5 -159 -31 -159 -79
c0 -38 28 -56 68 -56c25 0 63 11 91 34z" />
    <glyph glyph-name="A" unicode="A" horiz-adv-x="669" 
d="M299 700h70l5 -5l279 -690l-5 -5h-74l-5 5l-75 183h-320l-74 -183l-5 -5h-74l-5 5l278 690zM334 594l-129 -329h259z" />
    <glyph glyph-name="B" unicode="B" horiz-adv-x="600" 
d="M91 700h159c140 0 219 -70 219 -176c0 -59 -30 -98 -74 -123c109 -30 159 -102 159 -190c0 -120 -100 -211 -235 -211h-228l-5 5v690zM163 623v-204h87c82 0 131 36 131 105c0 61 -40 99 -131 99h-87zM163 341v-264h156c90 0 147 54 147 134c0 76 -57 130 -147 130h-156z
" />
    <glyph glyph-name="C" unicode="C" horiz-adv-x="731" 
d="M666 552l-5 -5c-67 55 -150 87 -235 87c-155 0 -282 -126 -282 -284s127 -284 282 -284c85 0 168 32 235 87l5 -5v-88c-65 -47 -145 -75 -240 -75c-205 0 -370 165 -370 365s165 365 370 365c95 0 175 -28 240 -75v-88z" />
    <glyph glyph-name="D" unicode="D" horiz-adv-x="726" 
d="M91 700h212c215 0 370 -155 370 -350s-155 -350 -370 -350h-212l-5 5v690zM163 623v-546h140c163 0 281 120 281 273s-118 273 -281 273h-140z" />
    <glyph glyph-name="E" unicode="E" horiz-adv-x="563" 
d="M91 700h397l5 -5v-67l-5 -5h-325v-199h245l5 -5v-68l-5 -5h-245v-269h355l5 -5v-67l-5 -5h-427l-5 5v690z" />
    <glyph glyph-name="F" unicode="F" horiz-adv-x="523" 
d="M91 700h397l5 -5v-67l-5 -5h-325v-199h245l5 -5v-68l-5 -5h-245v-341l-5 -5h-67l-5 5v690z" />
    <glyph glyph-name="G" unicode="G" horiz-adv-x="771" 
d="M686 562l-5 -5c-67 59 -160 77 -245 77c-168 0 -292 -126 -292 -284c0 -161 129 -284 297 -284c58 0 125 14 178 45v195h-158l-5 5v68l5 5h230l5 -5v-314c-75 -55 -165 -80 -255 -80c-215 0 -385 160 -385 365c0 200 165 365 380 365c95 0 185 -16 250 -65v-88z" />
    <glyph glyph-name="H" unicode="H" horiz-adv-x="729" 
d="M91 700h67l5 -5v-271h403v271l5 5h67l5 -5v-690l-5 -5h-67l-5 5v341h-403v-341l-5 -5h-67l-5 5v690z" />
    <glyph glyph-name="I" unicode="I" horiz-adv-x="249" 
d="M91 700h67l5 -5v-690l-5 -5h-67l-5 5v690z" />
    <glyph glyph-name="J" unicode="J" horiz-adv-x="466" 
d="M308 700h67l5 -5v-510c0 -123 -75 -200 -189 -200c-85 0 -147 44 -172 131l61 30h9c17 -56 54 -80 102 -80c73 0 112 46 112 145v484z" />
    <glyph glyph-name="K" unicode="K" horiz-adv-x="626" 
d="M91 700h67l5 -5v-250l298 250l10 5h97l5 -5l-355 -295l392 -395l-5 -5h-97l-10 5l-335 341v-341l-5 -5h-67l-5 5v690z" />
    <glyph glyph-name="L" unicode="L" horiz-adv-x="529" 
d="M90 700h69l4 -4v-619h326l4 -5v-68l-4 -4h-399l-4 4v692z" />
    <glyph glyph-name="M" unicode="M" horiz-adv-x="849" 
d="M91 700h63l10 -5l260 -321l260 321l10 5h64l5 -5v-690l-5 -5h-67l-5 5v579l-257 -317h-10l-256 317v-579l-5 -5h-67l-5 5v690z" />
    <glyph glyph-name="N" unicode="N" horiz-adv-x="769" 
d="M91 700h71l10 -5l434 -572v572l5 5h67l5 -5v-690l-5 -5h-71l-10 5l-434 572v-572l-5 -5h-67l-5 5v690z" />
    <glyph glyph-name="O" unicode="O" horiz-adv-x="851" 
d="M426 715c204 0 370 -164 370 -365s-166 -365 -370 -365s-370 164 -370 365s166 365 370 365zM426 634c-155 0 -282 -127 -282 -284s127 -284 282 -284s281 127 281 284s-126 284 -281 284z" />
    <glyph glyph-name="P" unicode="P" horiz-adv-x="561" 
d="M90 700h193c148 0 243 -89 243 -209s-95 -210 -243 -210h-120v-276l-5 -5h-67l-5 5v690zM163 623v-264h120c95 0 154 52 154 132c0 79 -59 132 -154 132h-120z" />
    <glyph glyph-name="Q" unicode="Q" horiz-adv-x="851" 
d="M799 54v-5l-45 -53h-5l-86 75c-62 -54 -149 -86 -237 -86c-204 0 -370 164 -370 365s166 365 370 365s370 -164 370 -365c0 -85 -29 -163 -79 -225zM574 241h5l73 -62c34 46 55 109 55 171c0 157 -126 284 -281 284s-282 -127 -282 -284s127 -284 282 -284
c65 0 125 21 171 59l-69 59v5z" />
    <glyph glyph-name="R" unicode="R" horiz-adv-x="616" 
d="M91 700h183c137 0 225 -79 225 -194c0 -89 -57 -153 -136 -180l237 -321l-5 -5h-90l-5 5l-230 306h-107v-306l-5 -5h-67l-5 5v690zM163 623v-234h106c80 0 141 40 141 117c0 73 -49 117 -136 117h-111z" />
    <glyph glyph-name="S" unicode="S" horiz-adv-x="521" 
d="M359 569h-10c-31 41 -60 65 -108 65c-51 0 -91 -39 -91 -93c0 -119 320 -115 320 -337c0 -121 -98 -219 -219 -219c-100 0 -175 55 -210 145l56 44h10c30 -71 78 -108 144 -108c75 0 131 59 131 138c0 152 -321 145 -321 337c0 96 79 174 180 174c80 0 140 -45 175 -105z
" />
    <glyph glyph-name="T" unicode="T" horiz-adv-x="620" 
d="M35 700h550l5 -5v-67l-5 -5h-236v-618l-5 -5h-68l-5 5v618h-236l-5 5v67z" />
    <glyph glyph-name="U" unicode="U" horiz-adv-x="769" 
d="M91 700h67l5 -5v-371c0 -166 95 -258 221 -258c127 0 222 92 222 258v371l5 5h67l5 -5v-385c0 -205 -129 -325 -299 -325s-298 120 -298 325v385z" />
    <glyph glyph-name="V" unicode="V" horiz-adv-x="649" 
d="M21 700h74l5 -5l224 -586l225 586l5 5h74l5 -5l-269 -690l-5 -5h-70l-5 5l-268 690z" />
    <glyph glyph-name="W" unicode="W" horiz-adv-x="969" 
d="M21 700h74l5 -5l174 -572l168 562l5 5h74l5 -5l168 -562l175 572l5 5h74l5 -5l-215 -690l-5 -5h-74l-5 5l-170 552l-170 -552l-5 -5h-73l-5 5l-215 690z" />
    <glyph glyph-name="X" unicode="X" horiz-adv-x="703" 
d="M48 700h88l10 -5l205 -262l205 262l10 5h89l5 -5l-259 -327l286 -363l-5 -5h-88l-10 5l-233 298l-232 -298l-10 -5h-88l-5 5l286 363l-259 327z" />
    <glyph glyph-name="Y" unicode="Y" horiz-adv-x="629" 
d="M21 700h85l10 -5l198 -257l200 257l9 5h85l5 -5l-260 -330v-360l-5 -5h-67l-5 5v360l-260 330z" />
    <glyph glyph-name="Z" unicode="Z" horiz-adv-x="614" 
d="M51 700h528l5 -5l-423 -618h423l5 -6v-66l-5 -5h-563l-5 5l422 618h-387l-5 5v67z" />
    <glyph glyph-name="bracketleft" unicode="[" horiz-adv-x="311" 
d="M62 720h199l5 -5v-67l-5 -5h-127v-826h127l5 -5v-67l-5 -5h-199l-5 5v970z" />
    <glyph glyph-name="backslash" unicode="\" horiz-adv-x="309" 
d="M21 700h67l5 -5l200 -940l-5 -5h-67l-5 5l-200 940z" />
    <glyph glyph-name="bracketright" unicode="]" horiz-adv-x="311" 
d="M51 720h198l5 -5v-970l-5 -5h-198l-5 5v67l5 5h126v826h-126l-5 5v67z" />
    <glyph glyph-name="asciicircum" unicode="^" horiz-adv-x="531" 
d="M236 700h60l5 -5l150 -390l-5 -5h-74l-5 5l-101 289l-102 -289l-5 -5h-74l-5 5l151 390z" />
    <glyph glyph-name="underscore" unicode="_" horiz-adv-x="500" 
d="M45 -61h410l5 -5v-68l-5 -5h-410l-5 5v68z" />
    <glyph glyph-name="grave" unicode="`" horiz-adv-x="610" 
d="M148 670h88l10 -5l138 -145l-5 -5h-68l-10 5l-157 145z" />
    <glyph glyph-name="a" unicode="a" horiz-adv-x="499" 
d="M74 366l35 88c30 15 72 31 127 31c116 0 187 -65 187 -200v-280l-5 -5h-67l-5 5v25c-38 -28 -93 -45 -137 -45c-86 0 -163 41 -163 132c0 136 145 172 300 182c0 78 -44 113 -113 113c-55 0 -100 -17 -154 -51zM346 101v132c-128 -7 -219 -40 -219 -109
c0 -45 36 -66 89 -66c45 0 92 18 130 43z" />
    <glyph glyph-name="b" unicode="b" horiz-adv-x="609" 
d="M91 700h67l5 -5v-264c34 32 86 54 143 54c138 0 247 -110 247 -250s-109 -250 -247 -250c-57 0 -109 22 -143 54v-34l-5 -5h-67l-5 5v690zM163 343v-216c36 -45 86 -69 143 -69c95 0 166 76 166 177s-71 177 -166 177c-57 0 -107 -28 -143 -69z" />
    <glyph glyph-name="c" unicode="c" horiz-adv-x="516" 
d="M470 356l-5 -5c-51 43 -100 61 -155 61c-105 0 -176 -78 -176 -177s71 -177 176 -177c55 0 104 18 155 61l5 -5v-79c-40 -30 -95 -50 -160 -50c-154 0 -257 112 -257 250s103 250 257 250c65 0 120 -20 160 -50v-79z" />
    <glyph glyph-name="d" unicode="d" horiz-adv-x="606" 
d="M448 700h67l5 -5v-690l-5 -5h-67l-5 5v34c-34 -32 -87 -54 -143 -54c-139 0 -247 110 -247 250s108 250 247 250c56 0 109 -22 143 -54v264zM443 127v216c-36 41 -87 69 -143 69c-95 0 -166 -76 -166 -177s71 -177 166 -177c56 0 107 24 143 69z" />
    <glyph glyph-name="e" unicode="e" horiz-adv-x="543" 
d="M494 129v-79c-40 -30 -110 -65 -184 -65c-148 0 -257 115 -257 254c0 136 93 246 237 246c131 0 207 -114 207 -236c0 -5 0 -14 -5 -25l-10 -5h-350c9 -91 77 -161 178 -161c64 0 131 29 179 76zM135 281h285c-5 74 -59 131 -130 131c-86 0 -142 -58 -155 -131z" />
    <glyph glyph-name="f" unicode="f" horiz-adv-x="389" 
d="M31 470h75v41c0 122 65 204 178 204c34 0 55 -5 85 -20v-76l-5 -5c-30 23 -51 28 -80 28c-63 0 -101 -48 -101 -136v-36h181l5 -5v-67l-5 -5h-181v-388l-5 -5h-67l-5 5v388h-75l-5 5v68z" />
    <glyph glyph-name="g" unicode="g" horiz-adv-x="506" 
d="M477 470l5 -5v-67l-5 -5h-67c20 -25 33 -58 33 -93c0 -104 -78 -185 -190 -185c-29 0 -57 6 -80 19c-7 -7 -12 -15 -12 -25c0 -71 326 -42 326 -223c0 -86 -85 -151 -225 -151c-139 0 -243 39 -243 146c0 60 56 107 116 147c-26 15 -49 36 -49 70c0 23 13 50 38 68
c-39 35 -61 80 -61 134c0 102 85 185 190 185c26 0 52 -6 75 -15h149zM253 415c-63 0 -113 -52 -113 -115s50 -115 113 -115s112 52 112 115s-49 115 -112 115zM198 1c-36 -21 -98 -69 -98 -120c0 -52 56 -76 162 -76c97 0 144 37 144 81c0 73 -143 94 -208 115z" />
    <glyph glyph-name="h" unicode="h" horiz-adv-x="600" 
d="M91 700h67l5 -5v-264c38 32 90 54 143 54c148 0 218 -85 218 -226v-254l-5 -5h-67l-5 5v249c0 100 -44 158 -141 158c-57 0 -114 -28 -143 -69v-338l-5 -5h-67l-5 5v690z" />
    <glyph glyph-name="i" unicode="i" horiz-adv-x="249" 
d="M91 470h67l5 -5v-460l-5 -5h-67l-5 5v460zM119 641h10l50 -50v-10l-50 -50h-10l-50 50v10z" />
    <glyph glyph-name="j" unicode="j" horiz-adv-x="249" 
d="M91 470h67l5 -5v-546c0 -126 -45 -184 -134 -184c-10 0 -35 0 -55 10v68l5 5c20 -10 33 -10 43 -10c34 0 64 15 64 108v549zM119 641h10l50 -50v-10l-50 -50h-10l-50 50v10z" />
    <glyph glyph-name="k" unicode="k" horiz-adv-x="503" 
d="M91 700h67l5 -5v-404l200 174l10 5h86l5 -5l-243 -206l266 -254l-5 -5h-86l-10 5l-223 206v-206l-5 -5h-67l-5 5v690z" />
    <glyph glyph-name="l" unicode="l" horiz-adv-x="329" 
d="M81 700h67l5 -5v-535c0 -75 28 -102 69 -102c29 0 56 9 86 38l5 -5v-76c-24 -15 -57 -30 -91 -30c-92 0 -146 58 -146 170v540z" />
    <glyph glyph-name="m" unicode="m" horiz-adv-x="910" 
d="M91 470h67l5 -5v-34c38 32 80 54 133 54c79 0 137 -31 168 -81c45 47 103 81 171 81c136 0 199 -79 199 -220v-260l-5 -5h-67l-5 5v255c0 100 -38 152 -122 152c-59 0 -104 -31 -136 -72v-335l-5 -5h-68l-5 5v259c0 95 -40 148 -125 148c-53 0 -100 -28 -133 -69v-338
l-5 -5h-67l-5 5v460z" />
    <glyph glyph-name="n" unicode="n" horiz-adv-x="600" 
d="M91 470h67l5 -5v-34c38 32 90 54 143 54c148 0 218 -85 218 -226v-254l-5 -5h-67l-5 5v249c0 100 -44 158 -141 158c-57 0 -114 -28 -143 -69v-338l-5 -5h-67l-5 5v460z" />
    <glyph glyph-name="o" unicode="o" horiz-adv-x="600" 
d="M300 485c139 0 247 -110 247 -250s-108 -250 -247 -250s-247 110 -247 250s108 250 247 250zM300 412c-95 0 -166 -76 -166 -177s71 -177 166 -177s166 76 166 177s-71 177 -166 177z" />
    <glyph glyph-name="p" unicode="p" horiz-adv-x="606" 
d="M91 470h67l5 -5v-34c34 32 86 54 143 54c138 0 247 -110 247 -250s-109 -250 -247 -250c-57 0 -109 22 -143 54v-264l-5 -5h-67l-5 5v690zM163 343v-216c36 -45 86 -69 143 -69c95 0 166 76 166 177s-71 177 -166 177c-57 0 -107 -28 -143 -69z" />
    <glyph glyph-name="q" unicode="q" horiz-adv-x="609" 
d="M451 470h67l5 -5v-690l-5 -5h-67l-5 5v264c-34 -32 -87 -54 -143 -54c-139 0 -247 110 -247 250s108 250 247 250c56 0 109 -22 143 -54v34zM446 127v216c-37 41 -87 69 -143 69c-95 0 -166 -76 -166 -177s71 -177 166 -177c56 0 106 24 143 69z" />
    <glyph glyph-name="r" unicode="r" horiz-adv-x="431" 
d="M91 470h67l5 -5v-34c38 32 93 54 146 54c30 0 62 -5 92 -20l5 -77l-5 -5c-32 25 -67 29 -92 29c-57 0 -117 -28 -146 -69v-338l-5 -5h-67l-5 5v460z" />
    <glyph glyph-name="s" unicode="s" horiz-adv-x="467" 
d="M380 369l-5 -5c-50 34 -100 48 -150 48c-54 0 -88 -28 -88 -63c0 -99 284 -32 284 -217c0 -83 -76 -147 -189 -147c-60 0 -128 14 -174 44v76l5 5c55 -36 114 -52 169 -52c74 0 108 29 108 74c0 107 -284 41 -284 217c0 77 70 136 169 136c60 0 115 -15 155 -40v-76z" />
    <glyph glyph-name="t" unicode="t" horiz-adv-x="404" 
d="M116 590h67l5 -6v-114h191l5 -5v-67l-5 -5h-191v-214c0 -89 41 -121 86 -121c28 0 67 7 105 34l5 -5v-72c-28 -17 -75 -30 -110 -30c-101 0 -163 64 -163 189v219h-80l-5 5v67l5 5h80v115z" />
    <glyph glyph-name="u" unicode="u" horiz-adv-x="600" 
d="M81 470h67l5 -5v-249c0 -100 44 -158 141 -158c57 0 114 28 143 69v338l5 5h67l5 -5v-460l-5 -5h-67l-5 5v34c-38 -32 -90 -54 -143 -54c-148 0 -218 85 -218 226v254z" />
    <glyph glyph-name="v" unicode="v" horiz-adv-x="500" 
d="M21 470h74l5 -5l150 -363l150 363l5 5h74l5 -5l-194 -460l-5 -5h-70l-5 5l-194 460z" />
    <glyph glyph-name="w" unicode="w" horiz-adv-x="794" 
d="M21 470h74l5 -5l144 -359l118 339l5 5h60l5 -5l118 -339l144 359l5 5h75l5 -5l-189 -460l-5 -5h-70l-5 5l-113 303l-113 -303l-5 -5h-70l-5 5l-188 460z" />
    <glyph glyph-name="x" unicode="x" horiz-adv-x="469" 
d="M31 470h77l10 -5l116 -160l116 160l10 5h78l5 -5l-162 -221l172 -239l-5 -5h-78l-10 5l-126 174l-126 -174l-10 -5h-77l-5 5l172 239l-162 221z" />
    <glyph glyph-name="y" unicode="y" horiz-adv-x="536" 
d="M21 470h77l10 -5l161 -328l158 328l10 5h78l5 -5l-294 -581c-40 -72 -85 -124 -191 -124l-5 7v58l5 5c59 0 96 33 125 89l66 136l-210 410z" />
    <glyph glyph-name="z" unicode="z" horiz-adv-x="450" 
d="M51 470h368l5 -5l-263 -388h258l5 -5v-67l-5 -5h-388l-5 5l263 388h-239l-4 5v67z" />
    <glyph glyph-name="braceleft" unicode="{" horiz-adv-x="380" 
d="M334 715v-67l-5 -5c-73 0 -102 -46 -102 -112c0 -64 9 -98 9 -151c0 -66 -26 -119 -78 -150c52 -31 78 -84 78 -150c0 -53 -9 -87 -9 -151c0 -66 29 -112 102 -112l5 -5v-67l-5 -5c-110 0 -183 60 -183 189c0 64 9 98 9 151c0 61 -29 111 -104 111l-5 5v68l5 5
c75 0 104 50 104 111c0 53 -9 87 -9 151c0 129 73 189 183 189z" />
    <glyph glyph-name="bar" unicode="|" horiz-adv-x="271" 
d="M102 700h67l5 -5v-990l-5 -5h-67l-5 5v990z" />
    <glyph glyph-name="braceright" unicode="}" horiz-adv-x="380" 
d="M46 715l5 5c110 0 183 -60 183 -189c0 -64 -9 -98 -9 -151c0 -61 29 -111 104 -111l5 -5v-68l-5 -5c-75 0 -104 -50 -104 -111c0 -53 9 -87 9 -151c0 -129 -73 -189 -183 -189l-5 5v67l5 5c73 0 102 46 102 112c0 64 -9 98 -9 151c0 66 26 119 78 150
c-52 31 -78 84 -78 150c0 53 9 87 9 151c0 66 -29 112 -102 112l-5 5v67z" />
    <glyph glyph-name="asciitilde" unicode="~" horiz-adv-x="531" 
d="M469 416l5 -5c-26 -55 -71 -102 -128 -102c-71 0 -119 41 -205 41c-28 0 -56 -10 -79 -36l-5 5c27 55 72 102 128 102c71 0 119 -41 206 -41c28 0 55 10 78 36z" />
    <glyph glyph-name="uni00A0" unicode="&#xa0;" horiz-adv-x="260" 
 />
    <glyph glyph-name="exclamdown" unicode="&#xa1;" horiz-adv-x="271" 
d="M169 -240h-67l-5 5v115l14 405l5 5h39l5 -5l14 -405v-115zM140 365h-10l-50 50v10l50 50h10l50 -50v-10z" />
    <glyph glyph-name="cent" unicode="&#xa2;" horiz-adv-x="531" 
d="M259 700h67l5 -5v-92c55 -5 99 -22 132 -48v-79l-5 -5c-41 36 -82 53 -127 58v-348c45 5 83 22 127 58l5 -5v-79c-33 -26 -77 -43 -132 -49v-101l-5 -5h-67l-5 5v104c-125 20 -208 122 -208 246s83 224 208 246v94zM254 186v338c-77 -20 -127 -87 -127 -169
s50 -149 127 -169z" />
    <glyph glyph-name="sterling" unicode="&#xa3;" horiz-adv-x="589" 
d="M416 556h-5c-15 41 -39 86 -87 86c-78 0 -103 -83 -111 -288h178l5 -5l-26 -68l-5 -5h-156c-6 -81 -28 -162 -53 -199h412l5 -5l-38 -69l-9 -3h-494l-5 5c60 50 92 171 102 271h-84l-5 5l26 68l5 5h61c8 235 54 361 199 361c58 0 98 -26 135 -80z" />
    <glyph glyph-name="currency" unicode="&#xa4;" horiz-adv-x="531" 
d="M76 599h10l62 -62c33 19 71 32 113 32c43 0 84 -14 118 -37l67 67h10l44 -44v-10l-65 -65c24 -34 39 -76 39 -120c0 -42 -13 -82 -36 -114l62 -61v-10l-44 -44h-10l-61 60c-35 -25 -78 -40 -124 -40c-45 0 -86 13 -119 36l-56 -56h-10l-45 44v10l56 55
c-25 33 -40 75 -40 120c0 47 16 91 44 125l-60 60v10zM261 499c-77 0 -140 -63 -140 -139s63 -139 140 -139s139 63 139 139s-62 139 -139 139z" />
    <glyph glyph-name="yen" unicode="&#xa5;" horiz-adv-x="531" 
d="M32 700h74l10 -5l150 -268l149 269l10 4h74l5 -5l-175 -301h130l5 -5v-68l-5 -5h-155v-82h155l5 -5v-68l-5 -5h-155v-151l-5 -5h-67l-5 5v151h-155l-5 5v68l5 5h155v82h-155l-5 5v68l5 5h131l-176 301z" />
    <glyph glyph-name="brokenbar" unicode="&#xa6;" horiz-adv-x="271" 
d="M102 700h67l5 -5v-446l-5 -5h-67l-5 5v446zM102 156h67l5 -5v-446l-5 -5h-67l-5 5v446z" />
    <glyph glyph-name="section" unicode="&#xa7;" horiz-adv-x="538" 
d="M391 572h-7c-31 41 -54 62 -100 62c-42 0 -75 -31 -75 -81c0 -119 283 -102 283 -323c0 -66 -27 -124 -72 -163c3 -9 5 -18 5 -28c0 -100 -78 -174 -176 -174c-94 0 -158 45 -193 132l60 44h7c31 -68 65 -95 126 -95c51 0 91 39 91 93c0 113 -291 95 -291 317
c0 66 30 126 79 164c-2 9 -4 22 -4 33c0 99 75 162 160 162c77 0 132 -42 167 -102zM167 441c-19 -23 -30 -52 -30 -85c0 -114 162 -132 244 -209c15 24 23 51 23 83c0 114 -158 131 -237 211z" />
    <glyph glyph-name="dieresis" unicode="&#xa8;" horiz-adv-x="600" 
d="M185 637h10l46 -46v-10l-46 -47h-10l-46 47v10zM405 637h10l46 -46v-10l-46 -47h-10l-46 47v10z" />
    <glyph glyph-name="copyright" unicode="&#xa9;" horiz-adv-x="811" 
d="M406 715c195 0 360 -155 360 -365s-165 -365 -360 -365s-360 155 -360 365s165 365 360 365zM406 649c-157 0 -286 -134 -286 -299s129 -299 286 -299c156 0 286 134 286 299s-130 299 -286 299zM536 438l-5 -5c-35 32 -75 42 -115 42c-67 0 -121 -54 -121 -120
s54 -120 121 -120c40 0 80 15 115 47l5 -7v-70c-28 -21 -74 -40 -120 -40c-108 0 -195 85 -195 190s87 190 195 190c46 0 92 -14 120 -35v-72z" />
    <glyph glyph-name="ordfeminine" unicode="&#xaa;" horiz-adv-x="411" 
d="M293 710h67l5 -5v-300l-5 -5h-67l-5 5v18c-27 -22 -54 -28 -82 -28c-91 0 -165 72 -165 160s74 160 165 160c28 0 55 -6 82 -28v18zM288 515v79c-19 34 -52 51 -82 51c-51 0 -88 -40 -88 -90s37 -90 88 -90c29 0 63 16 82 50zM56 354h310l5 -5v-68l-5 -5h-310l-5 5v68z
" />
    <glyph glyph-name="guillemotleft" unicode="&#xab;" horiz-adv-x="451" 
d="M221 435l5 -5v-93l-105 -102l105 -102v-93l-5 -5l-195 195v10zM401 435l5 -5v-93l-105 -102l105 -102v-93l-5 -5l-195 195v10z" />
    <glyph glyph-name="logicalnot" unicode="&#xac;" horiz-adv-x="531" 
d="M76 415h380l5 -5v-235l-5 -5h-67l-5 5v163h-308l-5 5v67z" />
    <glyph glyph-name="uni00AD" unicode="&#xad;" horiz-adv-x="411" 
d="M51 274h310l5 -5v-68l-5 -5h-310l-5 5v68z" />
    <glyph glyph-name="registered" unicode="&#xae;" horiz-adv-x="531" 
d="M266 730c121 0 220 -99 220 -220s-99 -220 -220 -220s-220 99 -220 220s99 220 220 220zM266 685c-94 0 -171 -79 -171 -175s77 -175 171 -175s171 79 171 175s-77 175 -171 175zM199 625h70c50 0 87 -27 87 -77c0 -37 -23 -57 -46 -66l56 -77l-5 -5h-42l-10 5l-45 66
h-25v-66l-5 -5h-35l-5 5v215zM239 580v-64h30c21 0 38 11 38 32s-16 32 -38 32h-30z" />
    <glyph glyph-name="macron" unicode="&#xaf;" horiz-adv-x="600" 
d="M145 624h310l5 -5v-67l-5 -5h-310l-5 5v67z" />
    <glyph glyph-name="degree" unicode="&#xb0;" horiz-adv-x="411" 
d="M206 725c91 0 165 -72 165 -160s-74 -160 -165 -160s-165 72 -165 160s74 160 165 160zM206 655c-48 0 -88 -41 -88 -90s40 -90 88 -90s87 41 87 90s-39 90 -87 90z" />
    <glyph glyph-name="plusminus" unicode="&#xb1;" horiz-adv-x="531" 
d="M232 560h67l5 -5v-151h152l5 -5v-68l-5 -5h-152v-151l-5 -5h-67l-5 5v151h-151l-5 5v68l5 5h151v151zM76 89h380l5 -5v-68l-5 -5h-380l-5 5v68z" />
    <glyph glyph-name="twosuperior" unicode="&#xb2;" horiz-adv-x="313" 
d="M33 757v72c27 26 58 46 100 46c67 0 124 -52 124 -128c0 -40 -19 -91 -49 -141l-62 -103h116l5 -5v-53l-5 -5h-228l-5 5l121 190c31 51 40 84 40 112c0 41 -25 65 -57 65c-49 0 -72 -28 -95 -60z" />
    <glyph glyph-name="threesuperior" unicode="&#xb3;" horiz-adv-x="331" 
d="M34 860h248l5 -5l-88 -154c67 -17 104 -61 104 -132c0 -79 -69 -144 -147 -144c-45 0 -95 20 -130 65l38 46h6c26 -32 53 -48 86 -48c43 0 80 37 80 81c0 47 -30 80 -87 80c-14 0 -33 -4 -50 -10l-5 5l94 153h-154l-5 5v53z" />
    <glyph glyph-name="acute" unicode="&#xb4;" horiz-adv-x="600" 
d="M364 670h88l4 -5l-157 -145l-10 -5h-68l-5 5l138 145z" />
    <glyph glyph-name="mu" unicode="&#xb5;" horiz-adv-x="606" 
d="M91 470h74l5 -5v-259c0 -100 54 -148 137 -148c61 0 119 28 155 69c-5 78 -5 152 -5 223v115l5 5h67l5 -5v-115c1 -156 5 -255 25 -345l-5 -5h-68l-5 5c-3 16 -4 31 -7 47c-51 -45 -113 -67 -167 -67c-59 0 -107 17 -137 48v-258l-5 -5h-74l-5 5v690z" />
    <glyph glyph-name="paragraph" unicode="&#xb6;" horiz-adv-x="620" 
d="M530 700l4 -5v-690l-5 -5h-67l-5 5v618h-103v-618l-5 -5h-67l-5 5v265c-141 7 -231 100 -231 215c0 120 100 215 240 215h244z" />
    <glyph glyph-name="periodcentered" unicode="&#xb7;" horiz-adv-x="271" 
d="M99 403h73l5 -5v-73l-5 -5h-73l-5 5v73z" />
    <glyph glyph-name="cedilla" unicode="&#xb8;" horiz-adv-x="600" 
d="M272 0h59l-12 -57c39 -14 65 -43 65 -89c0 -55 -50 -99 -113 -99c-36 0 -73 16 -92 44l32 40h5c18 -20 36 -28 55 -28c31 0 50 19 50 43c0 25 -19 51 -71 44l-5 5z" />
    <glyph glyph-name="onesuperior" unicode="&#xb9;" horiz-adv-x="234" 
d="M150 865l5 -5v-415l-5 -5h-53l-5 5v364l5 10z" />
    <glyph glyph-name="ordmasculine" unicode="&#xba;" horiz-adv-x="411" 
d="M206 715c91 0 165 -72 165 -160s-74 -160 -165 -160s-165 72 -165 160s74 160 165 160zM206 645c-48 0 -88 -41 -88 -90s40 -90 88 -90s87 41 87 90s-39 90 -87 90zM56 354h310l5 -5v-68l-5 -5h-310l-5 5v68z" />
    <glyph glyph-name="guillemotright" unicode="&#xbb;" horiz-adv-x="451" 
d="M46 430l5 5l195 -195v-10l-195 -195l-5 5v93l105 102l-105 102v93zM226 430l5 5l195 -195v-10l-195 -195l-5 5v93l105 102l-105 102v93z" />
    <glyph glyph-name="onequarter" unicode="&#xbc;" horiz-adv-x="811" 
d="M165 705l5 -5v-415l-5 -5h-53l-5 5v364l5 10zM533 700h71l5 -5l-392 -690l-10 -5h-70l-5 5l391 690zM691 429l5 -5v-241h78l5 -5v-53l-5 -5h-78v-115l-5 -5h-53l-5 5v115h-211l-5 5zM633 287l-90 -104h90v104z" />
    <glyph glyph-name="onehalf" unicode="&#xbd;" horiz-adv-x="811" 
d="M165 705l5 -5v-415l-5 -5h-53l-5 5v364l5 10zM527 700h71l5 -5l-392 -690l-10 -5h-70l-5 5l391 690zM513 317v72c27 26 58 46 100 46c67 0 124 -52 124 -128c0 -40 -19 -91 -49 -141l-62 -103h116l5 -5v-53l-5 -5h-228l-5 5l121 190c31 51 40 84 40 112
c0 41 -25 65 -57 65c-49 0 -72 -28 -95 -60z" />
    <glyph glyph-name="threequarters" unicode="&#xbe;" horiz-adv-x="811" 
d="M49 700h249l5 -5l-89 -154c67 -17 105 -61 105 -131c0 -80 -69 -145 -148 -145c-46 0 -94 20 -128 64l38 46h6c26 -31 52 -47 84 -47c44 0 81 37 81 82c0 46 -30 79 -88 79c-13 0 -32 -4 -49 -10l-5 5l94 153h-155l-3 4v55zM582 700h70l5 -5l-391 -690l-10 -5h-71l-5 5
l392 690zM691 429l5 -5v-241h78l5 -5v-53l-5 -5h-78v-115l-5 -5h-53l-5 5v115h-211l-5 5zM633 287l-90 -104h90v104z" />
    <glyph glyph-name="questiondown" unicode="&#xbf;" horiz-adv-x="441" 
d="M357 -92l53 -38c-35 -75 -100 -125 -185 -125c-104 0 -179 75 -179 172c0 141 172 197 172 275c0 34 -13 47 -38 67l48 50c28 -18 72 -58 72 -117c0 -113 -173 -158 -173 -275c0 -55 44 -95 98 -95c59 0 98 34 127 86h5zM235 365h-10l-50 50v10l50 50h10l50 -50v-10z" />
    <glyph glyph-name="Agrave" unicode="&#xc0;" horiz-adv-x="669" 
d="M299 700h70l5 -5l279 -690l-5 -5h-74l-5 5l-75 183h-320l-74 -183l-5 -5h-74l-5 5l278 690zM334 594l-129 -329h259zM173 875h97l10 -5l138 -125l-5 -5h-74l-10 5l-160 125z" />
    <glyph glyph-name="Aacute" unicode="&#xc1;" horiz-adv-x="669" 
d="M299 700h70l5 -5l279 -690l-5 -5h-74l-5 5l-75 183h-320l-74 -183l-5 -5h-74l-5 5l278 690zM334 594l-129 -329h259zM399 875h97l4 -5l-160 -125l-10 -5h-74l-5 5l138 125z" />
    <glyph glyph-name="Acircumflex" unicode="&#xc2;" horiz-adv-x="669" 
d="M299 700h70l5 -5l279 -690l-5 -5h-74l-5 5l-75 183h-320l-74 -183l-5 -5h-74l-5 5l278 690zM334 594l-129 -329h259zM297 875h74l10 -5l120 -125l-5 -5h-74l-10 5l-78 79l-78 -79l-10 -5h-74l-5 5l120 125z" />
    <glyph glyph-name="Atilde" unicode="&#xc3;" horiz-adv-x="669" 
d="M299 700h70l5 -5l279 -690l-5 -5h-74l-5 5l-75 183h-320l-74 -183l-5 -5h-74l-5 5l278 690zM334 594l-129 -329h259zM534 852l5 -5c-27 -55 -69 -95 -125 -95c-72 0 -124 48 -203 48c-28 0 -53 -11 -76 -37l-5 5c26 55 69 95 125 95c71 0 124 -48 203 -48
c28 0 53 11 76 37z" />
    <glyph glyph-name="Adieresis" unicode="&#xc4;" horiz-adv-x="669" 
d="M299 700h70l5 -5l279 -690l-5 -5h-74l-5 5l-75 183h-320l-74 -183l-5 -5h-74l-5 5l278 690zM334 594l-129 -329h259zM214 861h10l52 -51v-10l-52 -51h-10l-51 51v10zM444 861h10l52 -51v-10l-52 -51h-10l-51 51v10z" />
    <glyph glyph-name="Aring" unicode="&#xc5;" horiz-adv-x="669" 
d="M299 700h70l5 -5l279 -690l-5 -5h-74l-5 5l-75 183h-320l-74 -183l-5 -5h-74l-5 5l278 690zM334 594l-129 -329h259zM334 895c55 0 100 -43 100 -95s-45 -95 -100 -95s-100 43 -100 95s45 95 100 95zM334 850c-28 0 -51 -23 -51 -50s23 -50 51 -50c29 0 51 23 51 50
s-22 50 -51 50z" />
    <glyph glyph-name="AE" unicode="&#xc6;" horiz-adv-x="1023" 
d="M546 700h402l5 -5v-67l-5 -5h-325v-199h245l5 -5v-68l-5 -5h-245v-269h355l5 -5v-67l-5 -5h-427l-5 5v183h-293l-137 -183l-10 -5h-85l-5 5l520 690zM546 575l-235 -310h235v310z" />
    <glyph glyph-name="Ccedilla" unicode="&#xc7;" horiz-adv-x="731" 
d="M666 552l-5 -5c-67 55 -150 87 -235 87c-155 0 -282 -126 -282 -284s127 -284 282 -284c85 0 168 32 235 87l5 -5v-88c-65 -47 -145 -75 -240 -75c-205 0 -370 165 -370 365s165 365 370 365c95 0 175 -28 240 -75v-88zM404 -60h68l5 -5l-48 -165l-5 -5h-53l-5 5l28 165z
" />
    <glyph glyph-name="Egrave" unicode="&#xc8;" horiz-adv-x="563" 
d="M91 700h397l5 -5v-67l-5 -5h-325v-199h245l5 -5v-68l-5 -5h-245v-269h355l5 -5v-67l-5 -5h-427l-5 5v690zM140 875h97l10 -5l138 -125l-5 -5h-74l-10 5l-160 125z" />
    <glyph glyph-name="Eacute" unicode="&#xc9;" horiz-adv-x="563" 
d="M91 700h397l5 -5v-67l-5 -5h-325v-199h245l5 -5v-68l-5 -5h-245v-269h355l5 -5v-67l-5 -5h-427l-5 5v690zM366 875h97l4 -5l-160 -125l-10 -5h-74l-5 5l138 125z" />
    <glyph glyph-name="Ecircumflex" unicode="&#xca;" horiz-adv-x="563" 
d="M91 700h397l5 -5v-67l-5 -5h-325v-199h245l5 -5v-68l-5 -5h-245v-269h355l5 -5v-67l-5 -5h-427l-5 5v690zM264 875h74l10 -5l120 -125l-5 -5h-74l-10 5l-78 79l-78 -79l-10 -5h-74l-5 5l120 125z" />
    <glyph glyph-name="Edieresis" unicode="&#xcb;" horiz-adv-x="563" 
d="M91 700h397l5 -5v-67l-5 -5h-325v-199h245l5 -5v-68l-5 -5h-245v-269h355l5 -5v-67l-5 -5h-427l-5 5v690zM181 861h10l52 -51v-10l-52 -51h-10l-51 51v10zM411 861h10l52 -51v-10l-52 -51h-10l-51 51v10z" />
    <glyph glyph-name="Igrave" unicode="&#xcc;" horiz-adv-x="249" 
d="M91 700h67l5 -5v-690l-5 -5h-67l-5 5v690zM-17 875h97l10 -5l118 -125l-5 -5h-74l-10 5l-140 125z" />
    <glyph glyph-name="Iacute" unicode="&#xcd;" horiz-adv-x="249" 
d="M91 700h67l5 -5v-690l-5 -5h-67l-5 5v690zM169 875h97l4 -5l-140 -125l-10 -5h-74l-5 5l118 125z" />
    <glyph glyph-name="Icircumflex" unicode="&#xce;" horiz-adv-x="249" 
d="M91 700h67l5 -5v-690l-5 -5h-67l-5 5v690zM87 875h74l10 -5l100 -125l-5 -5h-74l-10 5l-58 71l-58 -71l-10 -5h-74l-5 5l100 125z" />
    <glyph glyph-name="Idieresis" unicode="&#xcf;" horiz-adv-x="249" 
d="M91 700h67l5 -5v-690l-5 -5h-67l-5 5v690zM24 861h10l52 -51v-10l-52 -51h-10l-51 51v10zM214 861h10l52 -51v-10l-52 -51h-10l-51 51v10z" />
    <glyph glyph-name="Eth" unicode="&#xd0;" horiz-adv-x="726" 
d="M91 700h212c215 0 370 -155 370 -350s-155 -350 -370 -350h-212l-5 5v321h-75l-5 5v68l5 5h75v291zM163 623v-219h176l5 -5v-68l-5 -5h-176v-249h140c163 0 281 120 281 273s-118 273 -281 273h-140z" />
    <glyph glyph-name="Ntilde" unicode="&#xd1;" horiz-adv-x="769" 
d="M91 700h71l10 -5l434 -572v572l5 5h67l5 -5v-690l-5 -5h-71l-10 5l-434 572v-572l-5 -5h-67l-5 5v690zM604 852l5 -5c-27 -55 -69 -95 -125 -95c-72 0 -124 48 -203 48c-28 0 -53 -11 -76 -37l-5 5c26 55 69 95 125 95c71 0 124 -48 203 -48c28 0 53 11 76 37z" />
    <glyph glyph-name="Ograve" unicode="&#xd2;" horiz-adv-x="851" 
d="M426 715c204 0 370 -164 370 -365s-166 -365 -370 -365s-370 164 -370 365s166 365 370 365zM426 634c-155 0 -282 -127 -282 -284s127 -284 282 -284s281 127 281 284s-126 284 -281 284zM264 875h97l10 -5l138 -125l-5 -5h-74l-10 5l-160 125z" />
    <glyph glyph-name="Oacute" unicode="&#xd3;" horiz-adv-x="851" 
d="M426 715c204 0 370 -164 370 -365s-166 -365 -370 -365s-370 164 -370 365s166 365 370 365zM426 634c-155 0 -282 -127 -282 -284s127 -284 282 -284s281 127 281 284s-126 284 -281 284zM490 875h97l4 -5l-160 -125l-10 -5h-74l-5 5l138 125z" />
    <glyph glyph-name="Ocircumflex" unicode="&#xd4;" horiz-adv-x="851" 
d="M426 715c204 0 370 -164 370 -365s-166 -365 -370 -365s-370 164 -370 365s166 365 370 365zM426 634c-155 0 -282 -127 -282 -284s127 -284 282 -284s281 127 281 284s-126 284 -281 284zM388 875h74l10 -5l120 -125l-5 -5h-74l-10 5l-78 79l-78 -79l-10 -5h-74l-5 5
l120 125z" />
    <glyph glyph-name="Otilde" unicode="&#xd5;" horiz-adv-x="851" 
d="M426 715c204 0 370 -164 370 -365s-166 -365 -370 -365s-370 164 -370 365s166 365 370 365zM426 634c-155 0 -282 -127 -282 -284s127 -284 282 -284s281 127 281 284s-126 284 -281 284zM625 852l5 -5c-27 -55 -69 -95 -125 -95c-72 0 -124 48 -203 48
c-28 0 -53 -11 -76 -37l-5 5c26 55 69 95 125 95c71 0 124 -48 203 -48c28 0 53 11 76 37z" />
    <glyph glyph-name="Odieresis" unicode="&#xd6;" horiz-adv-x="851" 
d="M426 715c204 0 370 -164 370 -365s-166 -365 -370 -365s-370 164 -370 365s166 365 370 365zM426 634c-155 0 -282 -127 -282 -284s127 -284 282 -284s281 127 281 284s-126 284 -281 284zM305 861h10l52 -51v-10l-52 -51h-10l-51 51v10zM535 861h10l52 -51v-10l-52 -51
h-10l-51 51v10z" />
    <glyph glyph-name="multiply" unicode="&#xd7;" horiz-adv-x="531" 
d="M132 543h10l124 -124l123 124h10l45 -44v-10l-124 -124l124 -124v-10l-45 -44h-10l-123 124l-124 -124h-10l-44 44v10l124 124l-124 124v10z" />
    <glyph glyph-name="Oslash" unicode="&#xd8;" horiz-adv-x="851" 
d="M426 715c86 0 166 -30 229 -80l108 108h5l49 -49v-5l-107 -107c53 -63 86 -144 86 -232c0 -201 -166 -365 -370 -365c-90 0 -171 32 -235 84l-102 -102h-5l-50 49v5l102 102c-50 62 -80 141 -80 227c0 201 166 365 370 365zM199 183l396 393c-47 36 -106 58 -169 58
c-155 0 -282 -127 -282 -284c0 -62 20 -120 55 -167zM648 521l-397 -393c48 -39 108 -62 175 -62c155 0 281 127 281 284c0 64 -22 124 -59 171z" />
    <glyph glyph-name="Ugrave" unicode="&#xd9;" horiz-adv-x="769" 
d="M91 700h67l5 -5v-371c0 -166 95 -258 221 -258c127 0 222 92 222 258v371l5 5h67l5 -5v-385c0 -205 -129 -325 -299 -325s-298 120 -298 325v385zM223 875h97l10 -5l138 -125l-5 -5h-74l-10 5l-160 125z" />
    <glyph glyph-name="Uacute" unicode="&#xda;" horiz-adv-x="769" 
d="M91 700h67l5 -5v-371c0 -166 95 -258 221 -258c127 0 222 92 222 258v371l5 5h67l5 -5v-385c0 -205 -129 -325 -299 -325s-298 120 -298 325v385zM449 875h97l4 -5l-160 -125l-10 -5h-74l-5 5l138 125z" />
    <glyph glyph-name="Ucircumflex" unicode="&#xdb;" horiz-adv-x="769" 
d="M91 700h67l5 -5v-371c0 -166 95 -258 221 -258c127 0 222 92 222 258v371l5 5h67l5 -5v-385c0 -205 -129 -325 -299 -325s-298 120 -298 325v385zM347 875h74l10 -5l120 -125l-5 -5h-74l-10 5l-78 79l-78 -79l-10 -5h-74l-5 5l120 125z" />
    <glyph glyph-name="Udieresis" unicode="&#xdc;" horiz-adv-x="769" 
d="M91 700h67l5 -5v-371c0 -166 95 -258 221 -258c127 0 222 92 222 258v371l5 5h67l5 -5v-385c0 -205 -129 -325 -299 -325s-298 120 -298 325v385zM264 861h10l52 -51v-10l-52 -51h-10l-51 51v10zM494 861h10l52 -51v-10l-52 -51h-10l-51 51v10z" />
    <glyph glyph-name="Yacute" unicode="&#xdd;" horiz-adv-x="629" 
d="M21 700h85l10 -5l198 -257l200 257l9 5h85l5 -5l-260 -330v-360l-5 -5h-67l-5 5v360l-260 330zM379 875h97l4 -5l-160 -125l-10 -5h-74l-5 5l138 125z" />
    <glyph glyph-name="Thorn" unicode="&#xde;" horiz-adv-x="567" 
d="M91 700h67l5 -5v-131h126c148 0 242 -89 242 -209s-94 -209 -242 -209h-126v-141l-5 -5h-67l-5 5v690zM163 487v-264h126c95 0 154 53 154 132s-59 132 -154 132h-126z" />
    <glyph glyph-name="germandbls" unicode="&#xdf;" horiz-adv-x="589" 
d="M91 0l-5 5v506c0 122 75 204 180 204c100 0 167 -60 167 -149c0 -110 -66 -137 -66 -203c0 -76 176 -69 176 -228c0 -84 -70 -150 -169 -150c-46 0 -88 9 -135 35v77l5 5c54 -35 90 -44 130 -44c53 0 88 31 88 77c0 98 -176 89 -176 228c0 83 66 119 66 196
c0 46 -29 83 -86 83c-59 0 -103 -48 -103 -136v-501l-5 -5h-67z" />
    <glyph glyph-name="agrave" unicode="&#xe0;" horiz-adv-x="499" 
d="M74 366l35 88c30 15 72 31 127 31c116 0 187 -65 187 -200v-280l-5 -5h-67l-5 5v25c-38 -28 -93 -45 -137 -45c-86 0 -163 41 -163 132c0 136 145 172 300 182c0 78 -44 113 -113 113c-55 0 -100 -17 -154 -51zM346 101v132c-128 -7 -219 -40 -219 -109
c0 -45 36 -66 89 -66c45 0 92 18 130 43zM96 670h88l10 -5l138 -145l-5 -5h-68l-10 5l-157 145z" />
    <glyph glyph-name="aacute" unicode="&#xe1;" horiz-adv-x="499" 
d="M74 366l35 88c30 15 72 31 127 31c116 0 187 -65 187 -200v-280l-5 -5h-67l-5 5v25c-38 -28 -93 -45 -137 -45c-86 0 -163 41 -163 132c0 136 145 172 300 182c0 78 -44 113 -113 113c-55 0 -100 -17 -154 -51zM346 101v132c-128 -7 -219 -40 -219 -109
c0 -45 36 -66 89 -66c45 0 92 18 130 43zM312 670h88l4 -5l-157 -145l-10 -5h-68l-5 5l138 145z" />
    <glyph glyph-name="acircumflex" unicode="&#xe2;" horiz-adv-x="499" 
d="M74 366l35 88c30 15 72 31 127 31c116 0 187 -65 187 -200v-280l-5 -5h-67l-5 5v25c-38 -28 -93 -45 -137 -45c-86 0 -163 41 -163 132c0 136 145 172 300 182c0 78 -44 113 -113 113c-55 0 -100 -17 -154 -51zM346 101v132c-128 -7 -219 -40 -219 -109
c0 -45 36 -66 89 -66c45 0 92 18 130 43zM218 670h60l10 -5l127 -145l-5 -5h-71l-10 5l-81 92l-81 -92l-10 -5h-71l-5 5l127 145z" />
    <glyph glyph-name="atilde" unicode="&#xe3;" horiz-adv-x="499" 
d="M74 366l35 88c30 15 72 31 127 31c116 0 187 -65 187 -200v-280l-5 -5h-67l-5 5v25c-38 -28 -93 -45 -137 -45c-86 0 -163 41 -163 132c0 136 145 172 300 182c0 78 -44 113 -113 113c-55 0 -100 -17 -154 -51zM346 101v132c-128 -7 -219 -40 -219 -109
c0 -45 36 -66 89 -66c45 0 92 18 130 43zM427 622l5 -5c-23 -55 -67 -95 -123 -95c-69 0 -104 48 -166 48c-28 0 -51 -11 -74 -37l-5 5c23 55 67 95 123 95c69 0 104 -48 166 -48c28 0 51 11 74 37z" />
    <glyph glyph-name="adieresis" unicode="&#xe4;" horiz-adv-x="499" 
d="M74 366l35 88c30 15 72 31 127 31c116 0 187 -65 187 -200v-280l-5 -5h-67l-5 5v25c-38 -28 -93 -45 -137 -45c-86 0 -163 41 -163 132c0 136 145 172 300 182c0 78 -44 113 -113 113c-55 0 -100 -17 -154 -51zM346 101v132c-128 -7 -219 -40 -219 -109
c0 -45 36 -66 89 -66c45 0 92 18 130 43zM133 637h10l46 -46v-10l-46 -47h-10l-46 47v10zM353 637h10l46 -46v-10l-46 -47h-10l-46 47v10z" />
    <glyph glyph-name="aring" unicode="&#xe5;" horiz-adv-x="499" 
d="M74 366l35 88c30 15 72 31 127 31c116 0 187 -65 187 -200v-280l-5 -5h-67l-5 5v25c-38 -28 -93 -45 -137 -45c-86 0 -163 41 -163 132c0 136 145 172 300 182c0 78 -44 113 -113 113c-55 0 -100 -17 -154 -51zM346 101v132c-128 -7 -219 -40 -219 -109
c0 -45 36 -66 89 -66c45 0 92 18 130 43zM248 695c55 0 100 -43 100 -95s-45 -95 -100 -95s-100 43 -100 95s45 95 100 95zM248 650c-29 0 -51 -23 -51 -50s22 -50 51 -50s51 23 51 50s-22 50 -51 50z" />
    <glyph glyph-name="ae" unicode="&#xe6;" horiz-adv-x="831" 
d="M74 366l35 88c30 15 71 31 126 31c81 0 138 -31 163 -93c37 57 105 93 183 93c128 0 205 -114 205 -236c0 -5 0 -14 -5 -25l-10 -5h-345c10 -91 79 -161 174 -161c65 0 129 29 178 76l5 -5v-79c-41 -30 -108 -65 -183 -65c-74 0 -160 38 -205 114
c-42 -80 -118 -114 -189 -114c-83 0 -160 41 -160 139c0 130 170 161 301 168c0 87 -45 120 -116 120c-55 0 -98 -17 -152 -51zM347 183v43c-111 -4 -220 -33 -220 -102c0 -45 36 -66 79 -66c75 0 141 55 141 125zM429 281h280c-5 74 -60 131 -128 131
c-82 0 -139 -58 -152 -131z" />
    <glyph glyph-name="ccedilla" unicode="&#xe7;" horiz-adv-x="516" 
d="M470 356l-5 -5c-51 43 -100 61 -155 61c-105 0 -176 -78 -176 -177s71 -177 176 -177c55 0 104 18 155 61l5 -5v-79c-40 -30 -95 -50 -160 -50c-154 0 -257 112 -257 250s103 250 257 250c65 0 120 -20 160 -50v-79zM288 -60h68l5 -5l-48 -165l-5 -5h-53l-5 5l28 165z
" />
    <glyph glyph-name="egrave" unicode="&#xe8;" horiz-adv-x="543" 
d="M494 129v-79c-40 -30 -110 -65 -184 -65c-148 0 -257 115 -257 254c0 136 93 246 237 246c131 0 207 -114 207 -236c0 -5 0 -14 -5 -25l-10 -5h-350c9 -91 77 -161 178 -161c64 0 131 29 179 76zM135 281h285c-5 74 -59 131 -130 131c-86 0 -142 -58 -155 -131zM131 670
h88l10 -5l138 -145l-5 -5h-68l-10 5l-157 145z" />
    <glyph glyph-name="eacute" unicode="&#xe9;" horiz-adv-x="543" 
d="M494 129v-79c-40 -30 -110 -65 -184 -65c-148 0 -257 115 -257 254c0 136 93 246 237 246c131 0 207 -114 207 -236c0 -5 0 -14 -5 -25l-10 -5h-350c9 -91 77 -161 178 -161c64 0 131 29 179 76zM135 281h285c-5 74 -59 131 -130 131c-86 0 -142 -58 -155 -131zM347 670
h88l4 -5l-157 -145l-10 -5h-68l-5 5l138 145z" />
    <glyph glyph-name="ecircumflex" unicode="&#xea;" horiz-adv-x="543" 
d="M494 129v-79c-40 -30 -110 -65 -184 -65c-148 0 -257 115 -257 254c0 136 93 246 237 246c131 0 207 -114 207 -236c0 -5 0 -14 -5 -25l-10 -5h-350c9 -91 77 -161 178 -161c64 0 131 29 179 76zM135 281h285c-5 74 -59 131 -130 131c-86 0 -142 -58 -155 -131zM253 670
h60l10 -5l127 -145l-5 -5h-71l-10 5l-81 92l-81 -92l-10 -5h-71l-5 5l127 145z" />
    <glyph glyph-name="edieresis" unicode="&#xeb;" horiz-adv-x="543" 
d="M494 129v-79c-40 -30 -110 -65 -184 -65c-148 0 -257 115 -257 254c0 136 93 246 237 246c131 0 207 -114 207 -236c0 -5 0 -14 -5 -25l-10 -5h-350c9 -91 77 -161 178 -161c64 0 131 29 179 76zM135 281h285c-5 74 -59 131 -130 131c-86 0 -142 -58 -155 -131zM168 637
h10l46 -46v-10l-46 -47h-10l-46 47v10zM388 637h10l46 -46v-10l-46 -47h-10l-46 47v10z" />
    <glyph glyph-name="igrave" unicode="&#xec;" horiz-adv-x="249" 
d="M91 470h67l5 -5v-460l-5 -5h-67l-5 5v460zM-10 670h80l10 -5l108 -145l-5 -5h-67l-10 5l-120 145z" />
    <glyph glyph-name="iacute" unicode="&#xed;" horiz-adv-x="249" 
d="M91 470h67l5 -5v-460l-5 -5h-67l-5 5v460zM179 670h80l4 -5l-120 -145l-10 -5h-67l-5 5l108 145z" />
    <glyph glyph-name="icircumflex" unicode="&#xee;" horiz-adv-x="249" 
d="M91 470h67l5 -5v-460l-5 -5h-67l-5 5v460zM94 670h60l10 -5l107 -145l-5 -5h-70l-10 5l-62 82l-61 -82l-10 -5h-71l-5 5l107 145z" />
    <glyph glyph-name="idieresis" unicode="&#xef;" horiz-adv-x="249" 
d="M91 470h67l5 -5v-460l-5 -5h-67l-5 5v460zM29 637h10l47 -46v-10l-47 -47h-10l-46 47v10zM209 637h10l47 -46v-10l-47 -47h-10l-46 47v10z" />
    <glyph glyph-name="eth" unicode="&#xf0;" horiz-adv-x="591" 
d="M190 700h96c27 -15 48 -35 77 -60l148 51l5 -5v-63l-5 -10l-92 -36c72 -88 127 -201 127 -310c0 -200 -137 -282 -255 -282c-135 0 -245 108 -245 240s110 240 245 240c54 0 98 -11 133 -33c-21 45 -43 77 -84 121l-159 -55l-5 5v63l5 10l103 36c-31 32 -64 59 -99 83z
M454 321c-50 53 -94 71 -163 71c-93 0 -164 -75 -164 -167s71 -167 164 -167c81 0 174 63 174 209c0 16 -3 34 -11 54z" />
    <glyph glyph-name="ntilde" unicode="&#xf1;" horiz-adv-x="600" 
d="M91 470h67l5 -5v-34c38 32 90 54 143 54c148 0 218 -85 218 -226v-254l-5 -5h-67l-5 5v249c0 100 -44 158 -141 158c-57 0 -114 -28 -143 -69v-338l-5 -5h-67l-5 5v460zM486 622l5 -5c-23 -55 -67 -95 -123 -95c-69 0 -104 48 -166 48c-28 0 -51 -11 -74 -37l-5 5
c23 55 67 95 123 95c69 0 104 -48 166 -48c28 0 51 11 74 37z" />
    <glyph glyph-name="ograve" unicode="&#xf2;" horiz-adv-x="600" 
d="M300 485c139 0 247 -110 247 -250s-108 -250 -247 -250s-247 110 -247 250s108 250 247 250zM300 412c-95 0 -166 -76 -166 -177s71 -177 166 -177s166 76 166 177s-71 177 -166 177zM148 670h88l10 -5l138 -145l-5 -5h-68l-10 5l-157 145z" />
    <glyph glyph-name="oacute" unicode="&#xf3;" horiz-adv-x="600" 
d="M300 485c139 0 247 -110 247 -250s-108 -250 -247 -250s-247 110 -247 250s108 250 247 250zM300 412c-95 0 -166 -76 -166 -177s71 -177 166 -177s166 76 166 177s-71 177 -166 177zM364 670h88l4 -5l-157 -145l-10 -5h-68l-5 5l138 145z" />
    <glyph glyph-name="ocircumflex" unicode="&#xf4;" horiz-adv-x="600" 
d="M300 485c139 0 247 -110 247 -250s-108 -250 -247 -250s-247 110 -247 250s108 250 247 250zM300 412c-95 0 -166 -76 -166 -177s71 -177 166 -177s166 76 166 177s-71 177 -166 177zM270 670h60l10 -5l127 -145l-5 -5h-71l-10 5l-81 92l-81 -92l-10 -5h-71l-5 5l127 145
z" />
    <glyph glyph-name="otilde" unicode="&#xf5;" horiz-adv-x="600" 
d="M300 485c139 0 247 -110 247 -250s-108 -250 -247 -250s-247 110 -247 250s108 250 247 250zM300 412c-95 0 -166 -76 -166 -177s71 -177 166 -177s166 76 166 177s-71 177 -166 177zM479 622l5 -5c-23 -55 -67 -95 -123 -95c-69 0 -104 48 -166 48
c-28 0 -51 -11 -74 -37l-5 5c23 55 67 95 123 95c69 0 104 -48 166 -48c28 0 51 11 74 37z" />
    <glyph glyph-name="odieresis" unicode="&#xf6;" horiz-adv-x="600" 
d="M300 485c139 0 247 -110 247 -250s-108 -250 -247 -250s-247 110 -247 250s108 250 247 250zM300 412c-95 0 -166 -76 -166 -177s71 -177 166 -177s166 76 166 177s-71 177 -166 177zM185 637h10l46 -46v-10l-46 -47h-10l-46 47v10zM405 637h10l46 -46v-10l-46 -47h-10
l-46 47v10z" />
    <glyph glyph-name="divide" unicode="&#xf7;" horiz-adv-x="531" 
d="M261 569h10l48 -49v-10l-48 -49h-10l-49 49v10zM76 404h380l5 -5v-68l-5 -5h-380l-5 5v68zM261 269h10l48 -49v-10l-48 -49h-10l-49 49v10z" />
    <glyph glyph-name="oslash" unicode="&#xf8;" horiz-adv-x="586" 
d="M508 501h8l46 -45v-9l-67 -67c28 -41 45 -90 45 -145c0 -140 -109 -250 -247 -250c-56 0 -107 18 -147 49l-68 -67h-9l-45 46v8l68 68c-29 40 -46 91 -46 146c0 140 108 250 247 250c56 0 107 -19 148 -50zM149 146l237 234c-26 20 -58 32 -93 32
c-95 0 -166 -76 -166 -177c0 -33 8 -64 22 -89zM436 322l-236 -233c26 -19 57 -31 93 -31c95 0 166 76 166 177c0 32 -8 62 -23 87z" />
    <glyph glyph-name="ugrave" unicode="&#xf9;" horiz-adv-x="600" 
d="M81 470h67l5 -5v-249c0 -100 44 -158 141 -158c57 0 114 28 143 69v338l5 5h67l5 -5v-460l-5 -5h-67l-5 5v34c-38 -32 -90 -54 -143 -54c-148 0 -218 85 -218 226v254zM144 670h88l10 -5l138 -145l-5 -5h-68l-10 5l-157 145z" />
    <glyph glyph-name="uacute" unicode="&#xfa;" horiz-adv-x="600" 
d="M81 470h67l5 -5v-249c0 -100 44 -158 141 -158c57 0 114 28 143 69v338l5 5h67l5 -5v-460l-5 -5h-67l-5 5v34c-38 -32 -90 -54 -143 -54c-148 0 -218 85 -218 226v254zM360 670h88l4 -5l-157 -145l-10 -5h-68l-5 5l138 145z" />
    <glyph glyph-name="ucircumflex" unicode="&#xfb;" horiz-adv-x="600" 
d="M81 470h67l5 -5v-249c0 -100 44 -158 141 -158c57 0 114 28 143 69v338l5 5h67l5 -5v-460l-5 -5h-67l-5 5v34c-38 -32 -90 -54 -143 -54c-148 0 -218 85 -218 226v254zM266 670h60l10 -5l127 -145l-5 -5h-71l-10 5l-81 92l-81 -92l-10 -5h-71l-5 5l127 145z" />
    <glyph glyph-name="udieresis" unicode="&#xfc;" horiz-adv-x="600" 
d="M81 470h67l5 -5v-249c0 -100 44 -158 141 -158c57 0 114 28 143 69v338l5 5h67l5 -5v-460l-5 -5h-67l-5 5v34c-38 -32 -90 -54 -143 -54c-148 0 -218 85 -218 226v254zM181 637h10l46 -46v-10l-46 -47h-10l-46 47v10zM401 637h10l46 -46v-10l-46 -47h-10l-46 47v10z" />
    <glyph glyph-name="yacute" unicode="&#xfd;" horiz-adv-x="536" 
d="M21 470h77l10 -5l161 -328l158 328l10 5h78l5 -5l-294 -581c-40 -72 -85 -124 -191 -124l-5 7v58l5 5c59 0 96 33 125 89l66 136l-210 410zM333 670h88l4 -5l-157 -145l-10 -5h-68l-5 5l138 145z" />
    <glyph glyph-name="thorn" unicode="&#xfe;" horiz-adv-x="599" 
d="M86 695l5 5h67l5 -5v-264c34 32 86 54 143 54c138 0 247 -110 247 -250s-109 -250 -247 -250c-57 0 -109 22 -143 54v-264l-5 -5h-67l-5 5v920zM163 343v-216c36 -45 86 -69 143 -69c95 0 166 76 166 177s-71 177 -166 177c-57 0 -107 -28 -143 -69z" />
    <glyph glyph-name="ydieresis" unicode="&#xff;" horiz-adv-x="536" 
d="M21 470h77l10 -5l161 -328l158 328l10 5h78l5 -5l-294 -581c-40 -72 -85 -124 -191 -124l-5 7v58l5 5c59 0 96 33 125 89l66 136l-210 410zM154 637h10l46 -46v-10l-46 -47h-10l-46 47v10zM374 637h10l46 -46v-10l-46 -47h-10l-46 47v10z" />
    <glyph glyph-name="dotlessi" unicode="&#x131;" horiz-adv-x="249" 
d="M91 470h67l5 -5v-460l-5 -5h-67l-5 5v460z" />
    <glyph glyph-name="Lslash" unicode="&#x141;" horiz-adv-x="529" 
d="M90 700h69l4 -4v-324l215 121l5 -5v-63l-5 -10l-215 -121v-217h326l4 -5v-68l-4 -4h-399l-4 4v247l-75 -41l-5 5v63l5 10l75 42v366z" />
    <glyph glyph-name="lslash" unicode="&#x142;" horiz-adv-x="329" 
d="M81 700h67l5 -5v-265l95 55l5 -5v-64l-5 -10l-95 -55v-191c0 -75 28 -102 69 -102c29 0 56 9 86 38l5 -5v-76c-24 -15 -57 -30 -91 -30c-92 0 -146 58 -146 170v154l-72 -41l-5 5v64l5 10l72 40v308z" />
    <glyph glyph-name="OE" unicode="&#x152;" horiz-adv-x="1091" 
d="M999 700l5 -5v-67l-5 -5h-336c63 -47 108 -119 124 -199h132l5 -5v-68l-5 -5h-123c-2 -105 -44 -198 -133 -269h366l5 -5v-67l-5 -5h-498c-30 -10 -70 -15 -105 -15c-204 0 -370 164 -370 365s166 365 370 365c35 0 75 -5 105 -15h468zM426 634
c-155 0 -282 -127 -282 -284s127 -284 282 -284s281 127 281 284s-126 284 -281 284z" />
    <glyph glyph-name="oe" unicode="&#x153;" horiz-adv-x="953" 
d="M904 129v-79c-40 -30 -110 -65 -184 -65c-94 0 -178 48 -219 123c-40 -77 -115 -123 -208 -123c-139 0 -247 110 -247 250s108 250 247 250c92 0 168 -46 208 -118c36 72 105 118 199 118c131 0 207 -114 207 -236c0 -5 0 -14 -5 -25l-10 -5h-350c9 -91 82 -161 178 -161
c64 0 131 29 179 76zM293 412c-95 0 -166 -76 -166 -177s71 -177 166 -177s166 76 166 177s-71 177 -166 177zM545 281h285c-5 74 -59 131 -130 131c-86 0 -142 -58 -155 -131z" />
    <glyph glyph-name="Scaron" unicode="&#x160;" horiz-adv-x="521" 
d="M359 569h-10c-31 41 -60 65 -108 65c-51 0 -91 -39 -91 -93c0 -119 320 -115 320 -337c0 -121 -98 -219 -219 -219c-100 0 -175 55 -210 145l56 44h10c30 -71 78 -108 144 -108c75 0 131 59 131 138c0 152 -321 145 -321 337c0 96 79 174 180 174c80 0 140 -45 175 -105z
M78 875h74l10 -5l78 -79l78 79l10 5h74l5 -5l-120 -125l-10 -5h-74l-10 7l-120 123z" />
    <glyph glyph-name="scaron" unicode="&#x161;" horiz-adv-x="467" 
d="M380 369l-5 -5c-50 34 -100 48 -150 48c-54 0 -88 -28 -88 -63c0 -99 284 -32 284 -217c0 -83 -76 -147 -189 -147c-60 0 -128 14 -174 44v76l5 5c55 -36 114 -52 169 -52c74 0 108 29 108 74c0 107 -284 41 -284 217c0 77 70 136 169 136c60 0 115 -15 155 -40v-76z
M61 670h71l10 -5l81 -92l81 92l10 5h71l5 -5l-127 -145l-10 -5h-60l-10 5l-127 145z" />
    <glyph glyph-name="Ydieresis" unicode="&#x178;" horiz-adv-x="629" 
d="M21 700h85l10 -5l198 -257l200 257l9 5h85l5 -5l-260 -330v-360l-5 -5h-67l-5 5v360l-260 330zM194 861h10l52 -51v-10l-52 -51h-10l-51 51v10zM424 861h10l52 -51v-10l-52 -51h-10l-51 51v10z" />
    <glyph glyph-name="Zcaron" unicode="&#x17d;" horiz-adv-x="614" 
d="M51 700h528l5 -5l-423 -618h423l5 -6v-66l-5 -5h-563l-5 5l422 618h-387l-5 5v67zM145 875h74l10 -5l78 -79l78 79l10 5h74l5 -5l-120 -125l-10 -5h-74l-10 7l-120 123z" />
    <glyph glyph-name="zcaron" unicode="&#x17e;" horiz-adv-x="450" 
d="M51 470h368l5 -5l-263 -388h258l5 -5v-67l-5 -5h-388l-5 5l263 388h-239l-4 5v67zM68 670h71l10 -5l81 -92l81 92l10 5h71l5 -5l-127 -145l-10 -5h-60l-10 5l-127 145z" />
    <glyph glyph-name="florin" unicode="&#x192;" horiz-adv-x="394" 
d="M31 470h75v41c0 122 65 204 178 204c34 0 55 -5 85 -20v-76l-5 -5c-30 23 -51 28 -80 28c-63 0 -101 -48 -101 -136v-36h181l5 -5v-67l-5 -5h-181v-474c0 -126 -45 -184 -134 -184c-10 0 -35 0 -55 10v68l5 5c20 -10 33 -10 43 -10c34 0 64 15 64 108v477h-75l-5 5v68z
" />
    <glyph glyph-name="uni02B0" unicode="&#x2b0;" horiz-adv-x="416" 
d="M71 700h53l5 -5v-154c24 18 55 29 90 29c92 0 141 -58 141 -142v-143l-5 -5h-53l-5 5v132c0 61 -31 87 -77 87c-36 0 -72 -16 -91 -40v-179l-5 -5h-53l-5 5v410z" />
    <glyph glyph-name="uni02B1" unicode="&#x2b1;" horiz-adv-x="416" 
d="M240 651l-5 -5c-20 10 -33 10 -43 10c-34 0 -63 -22 -63 -94v-21c24 18 55 29 90 29c92 0 141 -58 141 -142v-143l-5 -5h-53l-5 5v132c0 61 -31 87 -77 87c-36 0 -72 -16 -91 -40v-179l-5 -5h-53l-5 5v254c0 125 38 176 119 176c10 0 35 0 55 -10v-54z" />
    <glyph glyph-name="uni02B2" unicode="&#x2b2;" horiz-adv-x="234" 
d="M111 560h53l5 -5v-297c0 -97 -33 -143 -101 -143c-10 0 -32 0 -52 10v61l5 5c20 -10 30 -10 40 -10c28 0 45 20 45 82v292zM132 702h10l42 -41v-10l-42 -42h-10l-41 42v10z" />
    <glyph glyph-name="uni02B3" unicode="&#x2b3;" horiz-adv-x="311" 
d="M69 560h55l5 -5v-14c29 19 57 29 84 29c20 0 31 0 56 -10l4 -66l-5 -4c-17 10 -33 14 -55 14c-26 0 -62 -13 -84 -40v-179l-5 -5h-53l-5 5v270z" />
    <glyph glyph-name="uni02B4" unicode="&#x2b4;" horiz-adv-x="311" 
d="M242 280h-55l-4 5v14c-29 -19 -57 -29 -85 -29c-19 0 -31 0 -56 10l-3 66l5 4c17 -10 32 -14 54 -14c26 0 62 13 85 40v179l5 5h53l5 -5v-270z" />
    <glyph glyph-name="uni02B5" unicode="&#x2b5;" horiz-adv-x="339" 
d="M175 560h53l5 -5v-292c0 -62 16 -82 45 -82c10 0 20 0 40 10l5 -5v-61c-20 -10 -42 -10 -52 -10c-69 0 -101 54 -101 143v41c-29 -19 -57 -29 -85 -29c-19 0 -31 0 -56 10l-3 66l5 4c17 -10 33 -14 54 -14c26 0 62 13 85 40v179z" />
    <glyph glyph-name="uni02B6" unicode="&#x2b6;" horiz-adv-x="340" 
d="M71 560h53l5 -5v-82h49l68 83l9 4h65l4 -5l-78 -96c36 -13 58 -40 58 -87c0 -62 -47 -92 -105 -92h-129l-4 5v270zM129 416v-80h54c32 0 54 9 54 40c0 30 -22 40 -54 40h-54z" />
    <glyph glyph-name="uni02B7" unicode="&#x2b7;" horiz-adv-x="514" 
d="M20 560h57l9 -5l75 -191l65 181l5 5h53l5 -5l65 -181l75 191l8 5h57l5 -5l-109 -270l-5 -5h-59l-5 5l-64 162l-63 -162l-5 -5h-60l-5 5l-108 270z" />
    <glyph glyph-name="uni02B8" unicode="&#x2b8;" horiz-adv-x="340" 
d="M21 560h59l10 -5l81 -174l79 174l10 5h59l5 -5l-173 -346c-25 -43 -60 -74 -122 -74l-5 5v53l5 5c34 0 54 13 72 42l35 71l-120 244z" />
    <glyph glyph-name="uni02B9" unicode="&#x2b9;" horiz-adv-x="271" 
d="M130 700h75l5 -5l-57 -230l-5 -5h-46l-5 5l28 230z" />
    <glyph glyph-name="uni02BA" unicode="&#x2ba;" horiz-adv-x="451" 
d="M130 700h75l5 -5l-57 -230l-5 -5h-46l-5 5l28 230zM310 700h75l5 -5l-57 -230l-5 -5h-46l-5 5l28 230z" />
    <glyph glyph-name="uni02BE" unicode="&#x2be;" horiz-adv-x="600" 
d="M250 690l5 5c51 -1 95 -44 95 -95s-44 -94 -95 -95l-5 5v35l5 5c27 5 46 23 46 50s-19 45 -46 50l-5 5v35z" />
    <glyph glyph-name="uni02BF" unicode="&#x2bf;" horiz-adv-x="600" 
d="M350 690v-35l-5 -5c-27 -5 -46 -23 -46 -50s19 -45 46 -50l5 -5v-35l-5 -5c-51 1 -95 44 -95 95s44 94 95 95z" />
    <glyph glyph-name="uni02C0" unicode="&#x2c0;" horiz-adv-x="346" 
d="M83 605l-47 35c30 45 61 75 125 75c82 0 139 -58 139 -134c0 -111 -108 -129 -108 -236v-60l-5 -5h-53l-5 5v60c0 142 104 146 104 236c0 37 -32 68 -72 68c-32 0 -55 -18 -73 -44h-5z" />
    <glyph glyph-name="uni02C1" unicode="&#x2c1;" horiz-adv-x="346" 
d="M263 605h-5c-18 26 -41 44 -73 44c-41 0 -72 -31 -72 -68c0 -90 103 -94 103 -236v-60l-5 -5h-52l-5 5v60c0 107 -108 125 -108 236c0 76 57 134 139 134c64 0 95 -30 125 -75z" />
    <glyph glyph-name="uni02C4" unicode="&#x2c4;" horiz-adv-x="600" 
d="M270 680h60l10 -5l90 -165l-5 -5h-64l-10 5l-51 111l-51 -111l-10 -5h-64l-5 5l90 165z" />
    <glyph glyph-name="uni02C5" unicode="&#x2c5;" horiz-adv-x="600" 
d="M175 680h64l10 -5l51 -111l51 111l10 5h64l5 -5l-90 -165l-10 -5h-60l-10 5l-90 165z" />
    <glyph glyph-name="circumflex" unicode="&#x2c6;" horiz-adv-x="600" 
d="M270 670h60l10 -5l127 -145l-5 -5h-71l-10 5l-81 92l-81 -92l-10 -5h-71l-5 5l127 145z" />
    <glyph glyph-name="caron" unicode="&#x2c7;" horiz-adv-x="600" 
d="M138 670h71l10 -5l81 -92l81 92l10 5h71l5 -5l-127 -145l-10 -5h-60l-10 5l-127 145z" />
    <glyph glyph-name="uni02C8" unicode="&#x2c8;" horiz-adv-x="600" 
d="M266 670h68l5 -5v-145l-5 -5h-68l-5 5v145z" />
    <glyph glyph-name="uni02C9" unicode="&#x2c9;" horiz-adv-x="600" 
d="M145 619h310l5 -5v-68l-5 -5h-310l-5 5v68z" />
    <glyph glyph-name="uni02CA" unicode="&#x2ca;" horiz-adv-x="600" 
d="M364 670h88l4 -5l-157 -145l-10 -5h-68l-5 5l138 145z" />
    <glyph glyph-name="uni02CB" unicode="&#x2cb;" horiz-adv-x="600" 
d="M148 670h88l10 -5l138 -145l-5 -5h-68l-10 5l-157 145z" />
    <glyph glyph-name="uni02CC" unicode="&#x2cc;" horiz-adv-x="600" 
d="M266 -40h68l5 -5v-145l-5 -5h-68l-5 5v145z" />
    <glyph glyph-name="uni02CD" unicode="&#x2cd;" horiz-adv-x="600" 
d="M145 -86h310l5 -5v-67l-5 -5h-310l-5 5v67z" />
    <glyph glyph-name="uni02CE" unicode="&#x2ce;" horiz-adv-x="600" 
d="M148 -40h88l10 -5l138 -145l-5 -5h-68l-10 5l-157 145z" />
    <glyph glyph-name="uni02CF" unicode="&#x2cf;" horiz-adv-x="600" 
d="M364 -40h88l4 -5l-157 -145l-10 -5h-68l-5 5l138 145z" />
    <glyph glyph-name="uni02D0" unicode="&#x2d0;" horiz-adv-x="311" 
d="M41 470h230l5 -5v-39l-5 -18l-82 -133l-5 -5h-56l-5 5l-82 133l-5 18v39zM128 200h56l5 -5l82 -133l5 -18v-39l-5 -5h-230l-5 5v39l5 18l82 133z" />
    <glyph glyph-name="uni02D1" unicode="&#x2d1;" horiz-adv-x="311" 
d="M41 470h230l5 -5v-39l-5 -18l-82 -133l-5 -5h-56l-5 5l-82 133l-5 18v39z" />
    <glyph glyph-name="uni02D2" unicode="&#x2d2;" horiz-adv-x="600" 
d="M250 325l5 5c51 -1 95 -44 95 -95s-44 -94 -95 -95l-5 5v35l5 5c27 5 46 23 46 50s-19 45 -46 50l-5 5v35z" />
    <glyph glyph-name="uni02D3" unicode="&#x2d3;" horiz-adv-x="600" 
d="M350 325v-35l-5 -5c-27 -5 -46 -23 -46 -50s19 -45 46 -50l5 -5v-35l-5 -5c-51 1 -95 44 -95 95s44 94 95 95z" />
    <glyph glyph-name="uni02D4" unicode="&#x2d4;" horiz-adv-x="600" 
d="M266 -69h68l5 -5v-87h86l5 -5v-53l-5 -5h-250l-5 5v53l5 5h86v87z" />
    <glyph glyph-name="uni02D5" unicode="&#x2d5;" horiz-adv-x="600" 
d="M175 -80h250l5 -5v-53l-5 -5h-86v-87l-5 -5h-68l-5 5v87h-86l-5 5v53z" />
    <glyph glyph-name="uni02D6" unicode="&#x2d6;" horiz-adv-x="600" 
d="M274 -60h52l5 -5v-62h74l5 -5v-49l-5 -5h-74v-64l-5 -5h-52l-5 5v64h-74l-5 5v49l5 5h74v62z" />
    <glyph glyph-name="uni02D7" unicode="&#x2d7;" horiz-adv-x="600" 
d="M175 -119h250l5 -5v-52l-5 -5h-250l-5 5v52z" />
    <glyph glyph-name="breve" unicode="&#x2d8;" horiz-adv-x="600" 
d="M144 670h64l5 -5c3 -51 38 -82 87 -82s84 31 87 82l5 5h64l5 -5c-10 -108 -83 -152 -161 -152s-151 44 -161 152z" />
    <glyph glyph-name="dotaccent" unicode="&#x2d9;" horiz-adv-x="606" 
d="M295 641h10l50 -50v-10l-50 -50h-10l-50 50v10z" />
    <glyph glyph-name="ring" unicode="&#x2da;" horiz-adv-x="600" 
d="M300 695c55 0 100 -43 100 -95s-45 -95 -100 -95s-100 43 -100 95s45 95 100 95zM300 650c-29 0 -51 -23 -51 -50s22 -50 51 -50s51 23 51 50s-22 50 -51 50z" />
    <glyph glyph-name="ogonek" unicode="&#x2db;" horiz-adv-x="600" 
d="M500 95v-75c-80 -61 -112 -99 -112 -144c0 -32 27 -58 61 -58c10 0 26 0 46 20l5 -5v-58c-20 -15 -40 -20 -65 -20c-61 0 -114 48 -114 106c0 79 38 133 179 234z" />
    <glyph glyph-name="tilde" unicode="&#x2dc;" horiz-adv-x="600" 
d="M479 622l5 -5c-23 -55 -67 -95 -123 -95c-69 0 -104 48 -166 48c-28 0 -51 -11 -74 -37l-5 5c23 55 67 95 123 95c69 0 104 -48 166 -48c28 0 51 11 74 37z" />
    <glyph glyph-name="hungarumlaut" unicode="&#x2dd;" horiz-adv-x="600" 
d="M256 670h73l5 -5l-106 -145l-10 -5h-57l-5 5l90 145zM446 670h73l5 -5l-106 -145l-10 -5h-57l-5 5l90 145z" />
    <glyph glyph-name="uni02DE" unicode="&#x2de;" horiz-adv-x="591" 
d="M474 383l5 5l130 36l5 -5c-7 -53 20 -71 44 -71s43 18 43 49c0 19 -7 37 -27 56v5l40 31c27 -18 43 -55 43 -92c0 -62 -43 -113 -99 -113c-46 0 -75 27 -89 65l-75 -20l-5 3z" />
    <glyph glyph-name="uni02DF" unicode="&#x2df;" horiz-adv-x="600" 
d="M236 684h5l59 -51l60 51h5l31 -35v-5l-56 -39l56 -39v-5l-31 -35h-5l-60 51l-59 -51h-5l-32 35v5l56 39l-56 39v5z" />
    <glyph glyph-name="uni02E0" unicode="&#x2e0;" horiz-adv-x="340" 
d="M21 560h64l5 -5l80 -192l80 192l5 5h64l5 -5l-107 -244c32 -42 45 -74 45 -104c0 -51 -40 -92 -92 -92s-92 41 -92 92c0 30 13 62 45 104l-107 244zM170 266c-19 -26 -25 -45 -25 -59s10 -26 25 -26s25 12 25 26s-6 33 -25 59z" />
    <glyph glyph-name="uni02E1" unicode="&#x2e1;" horiz-adv-x="254" 
d="M91 700h53l5 -5v-292c0 -62 16 -82 45 -82c10 0 20 0 40 10l5 -5v-61c-20 -10 -43 -10 -53 -10c-68 0 -100 46 -100 143v297z" />
    <glyph glyph-name="uni02E2" unicode="&#x2e2;" horiz-adv-x="293" 
d="M240 492l-5 -5c-40 20 -53 24 -84 24c-21 0 -36 -14 -36 -29c0 -43 145 -19 145 -116c0 -53 -47 -96 -119 -96c-36 0 -67 5 -98 20v62l5 5c35 -19 58 -27 93 -27c36 0 52 16 52 36c0 43 -145 28 -145 116c0 47 36 88 97 88c40 0 60 -5 95 -20v-58z" />
    <glyph glyph-name="uni02E3" unicode="&#x2e3;" horiz-adv-x="294" 
d="M25 560h57l9 -5l56 -83l57 83l8 5h57l5 -5l-92 -130l97 -135l-5 -5h-60l-9 5l-58 88l-58 -88l-8 -5h-61l-4 5l96 135l-91 130z" />
    <glyph glyph-name="uni02E4" unicode="&#x2e4;" horiz-adv-x="346" 
d="M263 605h-5c-18 26 -41 44 -73 44c-41 0 -72 -31 -72 -68c0 -90 103 -94 103 -236v-60l-5 -5h-52l-5 5v60c0 107 -108 125 -108 236c0 76 57 134 139 134c64 0 95 -30 125 -75z" />
    <glyph glyph-name="uni02E5" unicode="&#x2e5;" horiz-adv-x="329" 
d="M51 720h187l5 -5v-710l-5 -5h-67l-5 5v638h-115l-5 5v67z" />
    <glyph glyph-name="uni02E6" unicode="&#x2e6;" horiz-adv-x="329" 
d="M171 700h67l5 -5v-690l-5 -5h-67l-5 5v481h-115l-5 5v68l5 5h115v131z" />
    <glyph glyph-name="uni02E7" unicode="&#x2e7;" horiz-adv-x="329" 
d="M171 700h67l5 -5v-690l-5 -5h-67l-5 5v306h-115l-5 5v68l5 5h115v306z" />
    <glyph glyph-name="uni02E8" unicode="&#x2e8;" horiz-adv-x="329" 
d="M171 700h67l5 -5v-690l-5 -5h-67l-5 5v131h-115l-5 5v68l5 5h115v481z" />
    <glyph glyph-name="uni02E9" unicode="&#x2e9;" horiz-adv-x="329" 
d="M171 700h67l5 -5v-690l-5 -5h-187l-5 5v67l5 5h115v618z" />
    <glyph glyph-name="uni02EF" unicode="&#x2ef;" horiz-adv-x="600" 
d="M175 -30h64l10 -5l51 -111l51 111l10 5h64l5 -5l-90 -165l-10 -5h-60l-10 5l-90 165z" />
    <glyph glyph-name="uni02F0" unicode="&#x2f0;" horiz-adv-x="600" 
d="M270 -30h60l10 -5l90 -165l-5 -5h-64l-10 5l-51 111l-51 -111l-10 -5h-64l-5 5l90 165z" />
    <glyph glyph-name="uni02F3" unicode="&#x2f3;" horiz-adv-x="600" 
d="M300 -15c55 0 100 -43 100 -95s-45 -95 -100 -95s-100 43 -100 95s45 95 100 95zM300 -60c-29 0 -51 -23 -51 -50s22 -50 51 -50s51 23 51 50s-22 50 -51 50z" />
    <glyph glyph-name="uni02F4" unicode="&#x2f4;" horiz-adv-x="600" 
d="M148 310h88l10 -5l138 -145l-5 -5h-68l-10 5l-157 145z" />
    <glyph glyph-name="uni02F6" unicode="&#x2f6;" horiz-adv-x="600" 
d="M256 310h73l5 -5l-106 -145l-10 -5h-57l-5 5l90 145zM446 310h73l5 -5l-106 -145l-10 -5h-57l-5 5l90 145z" />
    <glyph glyph-name="uni02F7" unicode="&#x2f7;" horiz-adv-x="600" 
d="M479 -88l5 -5c-23 -55 -67 -95 -123 -95c-69 0 -104 48 -166 48c-28 0 -51 -11 -74 -37l-5 5c23 55 67 95 123 95c69 0 104 -48 166 -48c28 0 51 11 74 37z" />
    <glyph glyph-name="uni0300" unicode="&#x300;" 
d="M-452 670h88l10 -5l138 -145l-5 -5h-68l-10 5l-157 145z" />
    <glyph glyph-name="uni0301" unicode="&#x301;" 
d="M-236 670h88l4 -5l-157 -145l-10 -5h-68l-5 5l138 145z" />
    <glyph glyph-name="uni0302" unicode="&#x302;" 
d="M-330 670h60l10 -5l127 -145l-5 -5h-71l-10 5l-81 92l-81 -92l-10 -5h-71l-5 5l127 145z" />
    <glyph glyph-name="uni0303" unicode="&#x303;" 
d="M-121 622l5 -5c-23 -55 -67 -95 -123 -95c-69 0 -104 48 -166 48c-28 0 -51 -11 -74 -37l-5 5c23 55 67 95 123 95c69 0 104 -48 166 -48c28 0 51 11 74 37z" />
    <glyph glyph-name="uni0304" unicode="&#x304;" 
d="M-455 624h310l5 -5v-67l-5 -5h-310l-5 5v67z" />
    <glyph glyph-name="uni0305" unicode="&#x305;" 
d="M-455 624h310l5 -5v-67l-5 -5h-310l-5 5v67z" />
    <glyph glyph-name="uni0306" unicode="&#x306;" 
d="M-456 670h64l5 -5c3 -51 38 -82 87 -82s84 31 87 82l5 5h64l5 -5c-10 -108 -83 -152 -161 -152s-151 44 -161 152z" />
    <glyph glyph-name="uni0307" unicode="&#x307;" 
d="M-305 641h10l50 -50v-10l-50 -50h-10l-50 50v10z" />
    <glyph glyph-name="uni0308" unicode="&#x308;" 
d="M-415 637h10l46 -46v-10l-46 -47h-10l-46 47v10zM-195 637h10l46 -46v-10l-46 -47h-10l-46 47v10z" />
    <glyph glyph-name="uni0309" unicode="&#x309;" 
d="M-361 611l-31 40c18 28 56 44 92 44c59 0 103 -42 103 -90c0 -60 -68 -68 -68 -95l-5 -5h-60l-5 5c0 56 74 53 74 95c0 20 -15 34 -39 34c-19 0 -37 -8 -56 -28h-5z" />
    <glyph glyph-name="uni030A" unicode="&#x30a;" 
d="M-300 695c55 0 100 -43 100 -95s-45 -95 -100 -95s-100 43 -100 95s45 95 100 95zM-300 650c-29 0 -51 -23 -51 -50s22 -50 51 -50s51 23 51 50s-22 50 -51 50z" />
    <glyph glyph-name="uni030B" unicode="&#x30b;" 
d="M-344 670h73l5 -5l-106 -145l-10 -5h-57l-5 5l90 145zM-154 670h73l5 -5l-106 -145l-10 -5h-57l-5 5l90 145z" />
    <glyph glyph-name="uni030C" unicode="&#x30c;" 
d="M-462 670h71l10 -5l81 -92l81 92l10 5h71l5 -5l-127 -145l-10 -5h-60l-10 5l-127 145z" />
    <glyph glyph-name="uni030D" unicode="&#x30d;" 
d="M-334 670h68l5 -5v-145l-5 -5h-68l-5 5v145z" />
    <glyph glyph-name="uni030E" unicode="&#x30e;" 
d="M-424 670h68l5 -5v-145l-5 -5h-68l-5 5v145zM-244 670h68l5 -5v-145l-5 -5h-68l-5 5v145z" />
    <glyph glyph-name="uni030F" unicode="&#x30f;" 
d="M-519 670h73l10 -5l90 -145l-5 -5h-57l-10 5l-106 145zM-329 670h73l10 -5l90 -145l-5 -5h-57l-10 5l-106 145z" />
    <glyph glyph-name="uni0310" unicode="&#x310;" 
d="M-456 670h64l5 -5c3 -51 38 -82 87 -82s84 31 87 82l5 5h64l5 -5c-10 -108 -83 -152 -161 -152s-151 44 -161 152zM-305 781h10l50 -50v-10l-50 -50h-10l-50 50v10z" />
    <glyph glyph-name="uni0311" unicode="&#x311;" 
d="M-456 515l-5 5c10 108 83 152 161 152s151 -44 161 -152l-5 -5h-64l-5 5c-3 51 -38 82 -87 82s-84 -31 -87 -82l-5 -5h-64z" />
    <glyph glyph-name="uni0312" unicode="&#x312;" 
d="M-295 695h53l5 -5l-28 -165l-10 -5h-69l-5 5l49 165z" />
    <glyph glyph-name="uni0313" unicode="&#x313;" 
d="M-311 695h69l5 -5l-49 -165l-5 -5h-53l-5 5l28 165z" />
    <glyph glyph-name="uni0314" unicode="&#x314;" 
d="M-358 695h69l10 -5l28 -165l-5 -5h-53l-5 5l-49 165z" />
    <glyph glyph-name="uni0315" unicode="&#x315;" 
d="M-18 740h67l5 -5l-40 -165l-5 -5h-51l-5 5l24 165z" />
    <glyph glyph-name="uni0316" unicode="&#x316;" 
d="M-441 -40h88l10 -5l138 -145l-5 -5h-68l-10 5l-157 145z" />
    <glyph glyph-name="uni0317" unicode="&#x317;" 
d="M-225 -40h88l4 -5l-157 -145l-10 -5h-68l-5 5l138 145z" />
    <glyph glyph-name="uni031A" unicode="&#x31a;" 
d="M-200 619h174l5 -5v-174l-5 -5h-68l-5 5v101h-101l-5 5v68z" />
    <glyph glyph-name="uni031B" unicode="&#x31b;" 
d="M-54 550h68l5 -5v-35c0 -95 -57 -140 -138 -140v5c45 21 60 52 60 130v40z" />
    <glyph glyph-name="uni031C" unicode="&#x31c;" 
d="M-250 -60v-35l-5 -5c-27 -5 -46 -23 -46 -50s19 -45 46 -50l5 -5v-35l-5 -5c-51 1 -95 44 -95 95s44 94 95 95z" />
    <glyph glyph-name="uni031D" unicode="&#x31d;" 
d="M-334 -80h68l5 -5v-87h86l5 -5v-53l-5 -5h-250l-5 5v53l5 5h86v87z" />
    <glyph glyph-name="uni031E" unicode="&#x31e;" 
d="M-432 -80h250l5 -5v-53l-5 -5h-87v-87l-5 -5h-67l-5 5v87h-86l-5 5v53z" />
    <glyph glyph-name="uni0320" unicode="&#x320;" 
d="M-425 -119h250l5 -5v-52l-5 -5h-250l-5 5v52z" />
    <glyph glyph-name="uni0321" unicode="&#x321;" 
d="M-148 40h67l5 -5v-116c0 -126 -45 -184 -133 -184c-10 0 -35 0 -55 10v68l5 5c20 -10 33 -10 43 -10c34 0 63 15 63 108v119z" />
    <glyph glyph-name="uni0322" unicode="&#x322;" 
d="M-148 40h67l5 -5v-119c0 -93 30 -108 64 -108c10 0 23 0 43 10l5 -5v-68c-20 -10 -45 -10 -55 -10c-89 0 -134 58 -134 184v116z" />
    <glyph glyph-name="uni0323" unicode="&#x323;" 
d="M-305 -75h10l50 -50v-10l-50 -50h-10l-50 50v10z" />
    <glyph glyph-name="uni0324" unicode="&#x324;" 
d="M-415 -73h10l46 -46v-10l-46 -47h-10l-46 47v10zM-195 -73h10l46 -46v-10l-46 -47h-10l-46 47v10z" />
    <glyph glyph-name="uni0325" unicode="&#x325;" 
d="M-300 -55c55 0 100 -43 100 -95s-45 -95 -100 -95s-100 43 -100 95s45 95 100 95zM-300 -100c-29 0 -51 -23 -51 -50s22 -50 51 -50s51 23 51 50s-22 50 -51 50z" />
    <glyph glyph-name="uni0326" unicode="&#x326;" 
d="M-322 -60h68l5 -5l-48 -165l-5 -5h-53l-5 5l28 165z" />
    <glyph glyph-name="uni0327" unicode="&#x327;" 
d="M-328 0h59l-12 -57c39 -14 65 -43 65 -89c0 -55 -50 -99 -113 -99c-36 0 -73 16 -92 44l32 40h5c18 -20 36 -28 55 -28c31 0 50 19 50 43c0 25 -19 51 -71 44l-5 5z" />
    <glyph glyph-name="uni0328" unicode="&#x328;" 
d="M-100 95v-75c-80 -61 -112 -99 -112 -144c0 -32 27 -58 61 -58c10 0 26 0 46 20l5 -5v-58c-20 -15 -40 -20 -65 -20c-61 0 -114 48 -114 106c0 79 38 133 179 234z" />
    <glyph glyph-name="uni0329" unicode="&#x329;" 
d="M-334 -40h68l5 -5v-145l-5 -5h-68l-5 5v145z" />
    <glyph glyph-name="uni032A" unicode="&#x32a;" 
d="M-463 -40h308l5 -5v-145l-5 -5h-68l-5 5v87h-162v-87l-5 -5h-68l-5 5v145z" />
    <glyph glyph-name="uni032C" unicode="&#x32c;" 
d="M-459 -40h71l10 -5l81 -92l81 92l10 5h71l5 -5l-127 -145l-10 -5h-60l-10 5l-127 145z" />
    <glyph glyph-name="uni032D" unicode="&#x32d;" 
d="M-330 -40h60l10 -5l127 -145l-5 -5h-71l-10 5l-81 92l-81 -92l-10 -5h-71l-5 5l127 145z" />
    <glyph glyph-name="uni032E" unicode="&#x32e;" 
d="M-456 -40h64l5 -5c3 -51 38 -82 87 -82s84 31 87 82l5 5h64l5 -5c-10 -108 -83 -152 -161 -152s-151 44 -161 152z" />
    <glyph glyph-name="uni032F" unicode="&#x32f;" 
d="M-456 -195l-5 5c10 108 83 152 161 152s151 -44 161 -152l-5 -5h-64l-5 5c-3 51 -38 82 -87 82s-84 -31 -87 -82l-5 -5h-64z" />
    <glyph glyph-name="uni0330" unicode="&#x330;" 
d="M-121 -88l5 -5c-23 -55 -67 -95 -123 -95c-69 0 -104 48 -166 48c-28 0 -51 -11 -74 -37l-5 5c23 55 67 95 123 95c69 0 104 -48 166 -48c28 0 51 11 74 37z" />
    <glyph glyph-name="uni0331" unicode="&#x331;" 
d="M-455 -86h310l5 -5v-67l-5 -5h-310l-5 5v67z" />
    <glyph glyph-name="uni0334" unicode="&#x334;" 
d="M-121 277l5 -5c-23 -55 -67 -95 -123 -95c-69 0 -104 48 -166 48c-28 0 -51 -11 -74 -37l-5 5c23 55 67 95 123 95c69 0 104 -48 166 -48c28 0 51 11 74 37z" />
    <glyph glyph-name="uni0335" unicode="&#x335;" 
d="M-455 279h310l5 -5v-67l-5 -5h-310l-5 5v67z" />
    <glyph glyph-name="uni0336" unicode="&#x336;" 
d="M-585 274h570l5 -5v-68l-5 -5h-570l-5 5v68z" />
    <glyph glyph-name="uni0339" unicode="&#x339;" 
d="M-350 -60l5 5c51 -1 95 -44 95 -95s-44 -94 -95 -95l-5 5v35l5 5c27 5 46 23 46 50s-19 45 -46 50l-5 5v35z" />
    <glyph glyph-name="uni033A" unicode="&#x33a;" 
d="M-454 -40h68l5 -5v-87h162v87l5 5h68l5 -5v-145l-5 -5h-308l-5 5v145z" />
    <glyph glyph-name="uni033B" unicode="&#x33b;" 
d="M-419 -61h238l5 -5v-168l-5 -5h-238l-5 5v168zM-361 -116v-68h122v68h-122z" />
    <glyph glyph-name="uni033D" unicode="&#x33d;" 
d="M-364 684h5l59 -43l59 43h5l31 -34v-5l-55 -40l55 -40v-5l-31 -34h-5l-59 43l-59 -43h-5l-31 34v5l55 40l-55 40v5z" />
    <glyph glyph-name="uni033E" unicode="&#x33e;" 
d="M-341 704l5 5c57 -3 89 -22 89 -64c0 -45 -43 -57 -43 -92c0 -18 8 -32 31 -47l-5 -5c-57 3 -89 22 -89 64c0 45 43 57 43 92c0 18 -8 32 -31 47z" />
    <glyph glyph-name="uni0342" unicode="&#x342;" 
d="M-121 622l5 -5c-23 -55 -67 -95 -123 -95c-69 0 -104 48 -166 48c-28 0 -51 -11 -74 -37l-5 5c23 55 67 95 123 95c69 0 104 -48 166 -48c28 0 51 11 74 37z" />
    <glyph glyph-name="uni0344" unicode="&#x344;" 
d="M-310 690h69l5 -5l-46 -165l-5 -5h-53l-5 5l25 165zM-422 637h10l46 -46v-10l-46 -47h-10l-47 47v10zM-188 637h10l47 -46v-10l-47 -47h-10l-46 47v10z" />
    <glyph glyph-name="uni0345" unicode="&#x345;" 
d="M-334 -60h68l5 -5v-19c0 -93 29 -108 63 -108c10 0 23 0 43 10l5 -5v-68c-20 -10 -45 -10 -55 -10c-89 0 -134 58 -134 184v16z" />
    <glyph glyph-name="uni0346" unicode="&#x346;" 
d="M-454 670h308l5 -5v-145l-5 -5h-68l-5 5v87h-162v-87l-5 -5h-68l-5 5v145z" />
    <glyph glyph-name="uni0348" unicode="&#x348;" 
d="M-424 -40h68l5 -5v-145l-5 -5h-68l-5 5v145zM-244 -40h68l5 -5v-145l-5 -5h-68l-5 5v145z" />
    <glyph glyph-name="uni034D" unicode="&#x34d;" 
d="M-394 -39h44l5 -5l-48 -52h186l-48 52l5 5h44l10 -5l70 -71v-10l-70 -71l-10 -5h-44l-5 5l48 52h-186l48 -52l-5 -5h-44l-10 5l-70 71v10l70 71z" />
    <glyph glyph-name="uni034E" unicode="&#x34e;" 
d="M-305 -40h10l71 -71l5 -10v-43l-5 -5l-52 48v-114l-5 -5h-38l-5 5v114l-52 -48l-5 5v43l5 10z" />
    <glyph glyph-name="uni0351" unicode="&#x351;" 
d="M-250 690v-35l-5 -5c-27 -5 -46 -23 -46 -50s19 -45 46 -50l5 -5v-35l-5 -5c-51 1 -95 44 -95 95s44 94 95 95z" />
    <glyph glyph-name="uni0352" unicode="&#x352;" 
d="M-456 655l-5 5c10 108 83 152 161 152s151 -44 161 -152l-5 -5h-64l-5 5c-3 51 -38 82 -87 82s-84 -31 -87 -82l-5 -5h-64zM-305 641h10l50 -50v-10l-50 -50h-10l-50 50v10z" />
    <glyph glyph-name="uni0353" unicode="&#x353;" 
d="M-364 -26h5l59 -43l59 43h5l31 -34v-5l-55 -40l55 -40v-5l-31 -34h-5l-59 43l-59 -43h-5l-31 34v5l55 40l-55 40v5z" />
    <glyph glyph-name="uni0357" unicode="&#x357;" 
d="M-350 690l5 5c51 -1 95 -44 95 -95s-44 -94 -95 -95l-5 5v35l5 5c27 5 46 23 46 50s-19 45 -46 50l-5 5v35z" />
    <glyph glyph-name="uni0359" unicode="&#x359;" 
d="M-323 -55h46l5 -5l-7 -54l50 30h5l17 -40v-5l-59 -21l59 -21v-5l-17 -40h-5l-50 30l7 -54l-5 -5h-46l-5 5l7 54l-50 -30h-5l-17 40v5l59 21l-59 21v5l17 40h5l50 -30l-7 54z" />
    <glyph glyph-name="pi" unicode="&#x3c0;" horiz-adv-x="634" 
d="M21 470h593l5 -5v-67l-5 -5h-121v-227c0 -93 29 -108 63 -108c10 0 23 0 43 10l5 -5v-68c-20 -10 -45 -10 -55 -10c-88 0 -133 58 -133 184v224h-198c0 -142 -10 -275 -37 -388l-5 -5h-75l-5 5c35 113 45 240 45 388h-120l-5 5v67z" />
    <glyph glyph-name="uni0400" unicode="&#x400;" horiz-adv-x="563" 
d="M91 700h397l5 -5v-67l-5 -5h-325v-199h245l5 -5v-68l-5 -5h-245v-269h355l5 -5v-67l-5 -5h-427l-5 5v690zM140 875h97l10 -5l138 -125l-5 -5h-74l-10 5l-160 125z" />
    <glyph glyph-name="uni0401" unicode="&#x401;" horiz-adv-x="563" 
d="M91 700h397l5 -5v-67l-5 -5h-325v-199h245l5 -5v-68l-5 -5h-245v-269h355l5 -5v-67l-5 -5h-427l-5 5v690zM181 861h10l52 -51v-10l-52 -51h-10l-51 51v10zM411 861h10l52 -51v-10l-52 -51h-10l-51 51v10z" />
    <glyph glyph-name="uni0402" unicode="&#x402;" horiz-adv-x="791" 
d="M41 700h510l5 -5v-67l-5 -5h-237v-217c40 35 110 58 169 58c157 0 261 -100 261 -285v-190c0 -126 -45 -184 -133 -184c-10 0 -35 0 -55 10v68l5 5c20 -10 33 -10 43 -10c34 0 63 15 63 108v175c0 150 -66 222 -184 222c-73 0 -135 -29 -169 -74v-304l-5 -5h-67l-5 5v618
h-196l-5 5v67z" />
    <glyph glyph-name="uni0403" unicode="&#x403;" horiz-adv-x="551" 
d="M91 700h397l5 -5v-67l-5 -5h-325v-618l-5 -5h-67l-5 5v690zM366 875h97l4 -5l-160 -125l-10 -5h-74l-5 5l138 125z" />
    <glyph glyph-name="uni0404" unicode="&#x404;" horiz-adv-x="731" 
d="M666 552l-5 -5c-67 55 -150 87 -235 87c-139 0 -257 -100 -278 -230h357l5 -5v-68l-5 -5h-361c14 -148 135 -260 282 -260c85 0 168 32 235 87l5 -5v-88c-65 -47 -145 -75 -240 -75c-205 0 -370 165 -370 365s165 365 370 365c95 0 175 -28 240 -75v-88z" />
    <glyph glyph-name="uni0405" unicode="&#x405;" horiz-adv-x="521" 
d="M359 569h-10c-31 41 -60 65 -108 65c-51 0 -91 -39 -91 -93c0 -119 320 -115 320 -337c0 -121 -98 -219 -219 -219c-100 0 -175 55 -210 145l56 44h10c30 -71 78 -108 144 -108c75 0 131 59 131 138c0 152 -321 145 -321 337c0 96 79 174 180 174c80 0 140 -45 175 -105z
" />
    <glyph glyph-name="uni0406" unicode="&#x406;" horiz-adv-x="249" 
d="M91 700h67l5 -5v-690l-5 -5h-67l-5 5v690z" />
    <glyph glyph-name="uni0407" unicode="&#x407;" horiz-adv-x="249" 
d="M91 700h67l5 -5v-690l-5 -5h-67l-5 5v690zM24 861h10l52 -51v-10l-52 -51h-10l-51 51v10zM214 861h10l52 -51v-10l-52 -51h-10l-51 51v10z" />
    <glyph glyph-name="uni0408" unicode="&#x408;" horiz-adv-x="466" 
d="M308 700h67l5 -5v-510c0 -123 -75 -200 -189 -200c-85 0 -147 44 -172 131l61 30h9c17 -56 54 -80 102 -80c73 0 112 46 112 145v484z" />
    <glyph glyph-name="uni0409" unicode="&#x409;" horiz-adv-x="1026" 
d="M231 700h387l5 -5v-271h122c143 0 235 -93 235 -213s-92 -211 -235 -211h-194l-5 5v618h-250l-78 -493c-20 -88 -82 -145 -187 -145l-5 6v62l5 5c60 0 98 38 113 108l82 529zM623 346v-269h122c92 0 147 57 147 134c0 81 -55 135 -147 135h-122z" />
    <glyph glyph-name="uni040A" unicode="&#x40a;" horiz-adv-x="1026" 
d="M91 700h67l5 -5v-271h383v271l5 5h67l5 -5v-271h122c143 0 235 -93 235 -213s-92 -211 -235 -211h-194l-5 5v341h-383v-341l-5 -5h-67l-5 5v690zM623 346v-269h122c92 0 147 57 147 134c0 81 -55 135 -147 135h-122z" />
    <glyph glyph-name="uni040B" unicode="&#x40b;" horiz-adv-x="814" 
d="M35 700h510l5 -5v-67l-5 -5h-236v-217c40 35 110 58 168 58c157 0 262 -100 262 -285v-174l-5 -5h-68l-5 5v156c0 150 -65 222 -184 222c-73 0 -135 -29 -168 -74v-304l-5 -5h-68l-5 5v618h-196l-5 5v67z" />
    <glyph glyph-name="uni040C" unicode="&#x40c;" horiz-adv-x="623" 
d="M400 875h97l4 -5l-160 -125l-10 -5h-74l-5 5l138 125zM91 700h67l5 -5v-271h84l247 271l10 5h81l5 -5l-277 -303l294 -387l-5 -5h-81l-10 5l-264 341h-84v-341l-5 -5h-67l-5 5v690z" />
    <glyph glyph-name="uni040D" unicode="&#x40d;" horiz-adv-x="769" 
d="M91 700h67l5 -5v-572l433 572l10 5h72l5 -5v-690l-5 -5h-67l-5 5v572l-434 -572l-10 -5h-71l-5 5v690zM223 875h97l10 -5l138 -125l-5 -5h-74l-10 5l-160 125z" />
    <glyph glyph-name="uni040E" unicode="&#x40e;" horiz-adv-x="623" 
d="M21 700h77l9 -5l204 -432l205 432l8 5h78l5 -5l-293 -589c-38 -69 -97 -121 -223 -121l-5 7v61l5 5c82 0 130 31 157 81l21 42l-253 514zM147 875h63l5 -5c14 -49 54 -65 96 -65s82 16 96 65l5 5h64l5 -5c-10 -95 -90 -135 -170 -135s-159 40 -169 135z" />
    <glyph glyph-name="uni040F" unicode="&#x40f;" horiz-adv-x="709" 
d="M91 700h67l5 -5v-618h383v618l5 5h67l5 -5v-690l-5 -5h-225v-175l-5 -5h-67l-5 5v175h-225l-5 5v690z" />
    <glyph glyph-name="uni0410" unicode="&#x410;" horiz-adv-x="669" 
d="M299 700h70l5 -5l279 -690l-5 -5h-74l-5 5l-75 183h-320l-74 -183l-5 -5h-74l-5 5l278 690zM334 594l-129 -329h259z" />
    <glyph glyph-name="uni0411" unicode="&#x411;" horiz-adv-x="600" 
d="M91 700h397l5 -5v-67l-5 -5h-325v-203h156c143 0 235 -89 235 -209s-92 -211 -235 -211h-228l-5 5v690zM163 343v-266h156c92 0 147 57 147 134c0 78 -55 132 -147 132h-156z" />
    <glyph glyph-name="uni0412" unicode="&#x412;" horiz-adv-x="600" 
d="M91 700h159c140 0 219 -70 219 -176c0 -59 -30 -98 -74 -123c109 -30 159 -102 159 -190c0 -120 -100 -211 -235 -211h-228l-5 5v690zM163 623v-204h87c82 0 131 36 131 105c0 61 -40 99 -131 99h-87zM163 341v-264h156c90 0 147 54 147 134c0 76 -57 130 -147 130h-156z
" />
    <glyph glyph-name="uni0413" unicode="&#x413;" horiz-adv-x="523" 
d="M91 700h397l5 -5v-67l-5 -5h-325v-618l-5 -5h-67l-5 5v690z" />
    <glyph glyph-name="uni0414" unicode="&#x414;" horiz-adv-x="769" 
d="M221 700h417l5 -5v-618h75l5 -5v-247l-5 -5h-67l-5 5v175h-523v-175l-5 -5h-67l-5 5v247l5 5h70c18 20 32 56 43 109l52 509zM286 623l-45 -455c-6 -40 -15 -77 -25 -91h350v546h-280z" />
    <glyph glyph-name="uni0415" unicode="&#x415;" horiz-adv-x="563" 
d="M91 700h397l5 -5v-67l-5 -5h-325v-199h245l5 -5v-68l-5 -5h-245v-269h355l5 -5v-67l-5 -5h-427l-5 5v690z" />
    <glyph glyph-name="uni0416" unicode="&#x416;" horiz-adv-x="917" 
d="M425 700h67l5 -5v-271h85l206 271l10 5h81l5 -5l-236 -303l253 -387l-5 -5h-81l-10 5l-223 341h-85v-341l-5 -5h-67l-5 5v341h-85l-223 -341l-10 -5h-81l-5 5l253 387l-236 303l5 5h81l10 -5l206 -271h85v271z" />
    <glyph glyph-name="uni0417" unicode="&#x417;" horiz-adv-x="549" 
d="M101 571l-45 49c40 55 110 95 190 95c138 0 224 -86 224 -195c0 -63 -38 -116 -79 -141c70 -24 119 -89 119 -174c0 -120 -101 -220 -254 -220c-80 0 -180 35 -230 105l42 60h10c41 -53 115 -84 178 -84c107 0 166 65 166 139c0 68 -47 119 -128 119h-118l-5 5v67l5 5
h108c48 0 98 46 98 112c0 67 -55 121 -136 121c-52 0 -103 -25 -135 -63h-10z" />
    <glyph glyph-name="uni0418" unicode="&#x418;" horiz-adv-x="769" 
d="M91 700h67l5 -5v-572l433 572l10 5h72l5 -5v-690l-5 -5h-67l-5 5v572l-434 -572l-10 -5h-71l-5 5v690z" />
    <glyph glyph-name="uni0419" unicode="&#x419;" horiz-adv-x="769" 
d="M91 700h67l5 -5v-572l433 572l10 5h72l5 -5v-690l-5 -5h-67l-5 5v572l-434 -572l-10 -5h-71l-5 5v690zM220 875h63l5 -5c14 -49 54 -65 96 -65s82 16 96 65l5 5h64l5 -5c-10 -95 -90 -135 -170 -135s-159 40 -169 135z" />
    <glyph glyph-name="uni041A" unicode="&#x41a;" horiz-adv-x="623" 
d="M91 700h67l5 -5v-271h84l247 271l10 5h81l5 -5l-277 -303l294 -387l-5 -5h-81l-10 5l-264 341h-84v-341l-5 -5h-67l-5 5v690z" />
    <glyph glyph-name="uni041B" unicode="&#x41b;" horiz-adv-x="729" 
d="M231 700h407l5 -5v-690l-5 -5h-67l-5 5v618h-270l-78 -493c-20 -88 -82 -145 -187 -145l-5 6v62l5 5c60 0 98 38 113 108l82 529z" />
    <glyph glyph-name="uni041C" unicode="&#x41c;" horiz-adv-x="849" 
d="M91 700h63l10 -5l260 -321l260 321l10 5h64l5 -5v-690l-5 -5h-67l-5 5v579l-257 -317h-10l-256 317v-579l-5 -5h-67l-5 5v690z" />
    <glyph glyph-name="uni041D" unicode="&#x41d;" horiz-adv-x="729" 
d="M91 700h67l5 -5v-271h403v271l5 5h67l5 -5v-690l-5 -5h-67l-5 5v341h-403v-341l-5 -5h-67l-5 5v690z" />
    <glyph glyph-name="uni041E" unicode="&#x41e;" horiz-adv-x="851" 
d="M426 715c204 0 370 -164 370 -365s-166 -365 -370 -365s-370 164 -370 365s166 365 370 365zM426 634c-155 0 -282 -127 -282 -284s127 -284 282 -284s281 127 281 284s-126 284 -281 284z" />
    <glyph glyph-name="uni041F" unicode="&#x41f;" horiz-adv-x="709" 
d="M91 700h527l5 -5v-690l-5 -5h-67l-5 5v618h-383v-618l-5 -5h-67l-5 5v690z" />
    <glyph glyph-name="uni0420" unicode="&#x420;" horiz-adv-x="561" 
d="M90 700h193c148 0 243 -89 243 -209s-95 -210 -243 -210h-120v-276l-5 -5h-67l-5 5v690zM163 623v-264h120c95 0 154 52 154 132c0 79 -59 132 -154 132h-120z" />
    <glyph glyph-name="uni0421" unicode="&#x421;" horiz-adv-x="731" 
d="M666 552l-5 -5c-67 55 -150 87 -235 87c-155 0 -282 -126 -282 -284s127 -284 282 -284c85 0 168 32 235 87l5 -5v-88c-65 -47 -145 -75 -240 -75c-205 0 -370 165 -370 365s165 365 370 365c95 0 175 -28 240 -75v-88z" />
    <glyph glyph-name="uni0422" unicode="&#x422;" horiz-adv-x="620" 
d="M35 700h550l5 -5v-67l-5 -5h-236v-618l-5 -5h-68l-5 5v618h-236l-5 5v67z" />
    <glyph glyph-name="uni0423" unicode="&#x423;" horiz-adv-x="623" 
d="M21 700h77l9 -5l204 -432l205 432l8 5h78l5 -5l-293 -589c-38 -69 -97 -121 -223 -121l-5 7v61l5 5c82 0 130 31 157 81l21 42l-253 514z" />
    <glyph glyph-name="uni0424" unicode="&#x424;" horiz-adv-x="791" 
d="M362 740h67l5 -5v-85c195 -14 312 -145 312 -300s-117 -286 -312 -300v-85l-5 -5h-67l-5 5v85c-194 14 -311 145 -311 300s117 286 311 300v85zM357 127v446c-145 -10 -223 -108 -223 -223s78 -213 223 -223zM434 573v-446c145 10 223 108 223 223s-78 213 -223 223z" />
    <glyph glyph-name="uni0425" unicode="&#x425;" horiz-adv-x="703" 
d="M48 700h88l10 -5l205 -262l205 262l10 5h89l5 -5l-259 -327l286 -363l-5 -5h-88l-10 5l-233 298l-232 -298l-10 -5h-88l-5 5l286 363l-259 327z" />
    <glyph glyph-name="uni0426" unicode="&#x426;" horiz-adv-x="743" 
d="M91 700h67l5 -5v-618h383v618l5 5h67l5 -5v-618h75l5 -5v-247l-5 -5h-67l-5 5v175h-535l-5 5v690z" />
    <glyph glyph-name="uni0427" unicode="&#x427;" horiz-adv-x="669" 
d="M81 700h67l5 -5v-136c0 -150 66 -222 184 -222c73 0 135 29 169 74v284l5 5h67l5 -5v-690l-5 -5h-67l-5 5v309c-40 -35 -110 -58 -169 -58c-157 0 -261 100 -261 285v154z" />
    <glyph glyph-name="uni0428" unicode="&#x428;" horiz-adv-x="929" 
d="M91 700h67l5 -5v-618h263v618l5 5h67l5 -5v-618h263v618l5 5h67l5 -5v-690l-5 -5h-747l-5 5v690z" />
    <glyph glyph-name="uni0429" unicode="&#x429;" horiz-adv-x="963" 
d="M91 700h67l5 -5v-618h263v618l5 5h67l5 -5v-618h263v618l5 5h67l5 -5v-618h75l5 -5v-247l-5 -5h-67l-5 5v175h-755l-5 5v690z" />
    <glyph glyph-name="uni042A" unicode="&#x42a;" horiz-adv-x="720" 
d="M35 700h277l5 -5v-271h122c143 0 235 -93 235 -213s-92 -211 -235 -211h-194l-5 5v618h-205l-5 5v67zM317 346v-269h122c92 0 147 57 147 134c0 81 -55 135 -147 135h-122z" />
    <glyph glyph-name="uni042B" unicode="&#x42b;" horiz-adv-x="789" 
d="M631 700h67l5 -5v-690l-5 -5h-67l-5 5v690zM91 700h67l5 -5v-271h122c143 0 235 -93 235 -213s-92 -211 -235 -211h-194l-5 5v690zM163 346v-269h122c92 0 147 57 147 134c0 81 -55 135 -147 135h-122z" />
    <glyph glyph-name="uni042C" unicode="&#x42c;" horiz-adv-x="586" 
d="M91 700h67l5 -5v-271h142c143 0 235 -93 235 -213s-92 -211 -235 -211h-214l-5 5v690zM163 346v-269h142c92 0 147 57 147 134c0 81 -55 135 -147 135h-142z" />
    <glyph glyph-name="uni042D" unicode="&#x42d;" horiz-adv-x="731" 
d="M66 552v88c65 47 145 75 240 75c205 0 370 -165 370 -365s-165 -365 -370 -365c-95 0 -175 28 -240 75v88l5 5c66 -55 150 -87 235 -87c147 0 267 112 281 260h-361l-5 5v68l5 5h358c-22 130 -140 230 -278 230c-85 0 -169 -32 -235 -87z" />
    <glyph glyph-name="uni042E" unicode="&#x42e;" horiz-adv-x="1051" 
d="M91 700h67l5 -5v-291h117c24 174 170 311 356 311c204 0 360 -164 360 -365s-156 -365 -360 -365c-197 0 -350 151 -360 341h-113v-321l-5 -5h-67l-5 5v690zM636 634c-155 0 -272 -127 -272 -284s117 -284 272 -284s271 127 271 284s-116 284 -271 284z" />
    <glyph glyph-name="uni042F" unicode="&#x42f;" horiz-adv-x="616" 
d="M525 700l5 -5v-690l-5 -5h-67l-5 5v306h-107l-230 -306l-5 -5h-90l-5 5l237 321c-79 27 -136 91 -136 180c0 115 87 194 224 194h184zM453 623h-112c-86 0 -136 -44 -136 -117c0 -77 61 -117 142 -117h106v234z" />
    <glyph glyph-name="uni0430" unicode="&#x430;" horiz-adv-x="499" 
d="M74 366l35 88c30 15 72 31 127 31c116 0 187 -65 187 -200v-280l-5 -5h-67l-5 5v25c-38 -28 -93 -45 -137 -45c-86 0 -163 41 -163 132c0 136 145 172 300 182c0 78 -44 113 -113 113c-55 0 -100 -17 -154 -51zM346 101v132c-128 -7 -219 -40 -219 -109
c0 -45 36 -66 89 -66c45 0 92 18 130 43z" />
    <glyph glyph-name="uni0431" unicode="&#x431;" horiz-adv-x="591" 
d="M486 710v-67l-5 -5c-17 -5 -44 -10 -65 -10c-40 0 -80 10 -120 10c-82 0 -153 -97 -158 -230c33 28 97 57 168 57c129 0 237 -106 237 -235c0 -139 -108 -245 -237 -245c-133 0 -257 89 -257 350c0 270 136 380 247 380c45 0 85 -10 120 -10c25 0 50 5 65 10zM134 312
c0 -169 70 -254 172 -254c90 0 156 76 156 172c0 87 -70 162 -156 162c-77 0 -128 -29 -172 -80z" />
    <glyph glyph-name="uni0432" unicode="&#x432;" horiz-adv-x="534" 
d="M91 470h209c87 0 159 -41 159 -131c0 -45 -26 -73 -56 -90c53 -10 86 -52 86 -113c0 -85 -73 -136 -158 -136h-240l-5 5v460zM163 393v-122h137c44 0 78 20 78 61s-34 61 -78 61h-137zM163 209v-132h168c39 0 77 20 77 66s-37 66 -77 66h-168z" />
    <glyph glyph-name="uni0433" unicode="&#x433;" horiz-adv-x="426" 
d="M91 470h310l5 -5v-67l-5 -5h-238v-388l-5 -5h-67l-5 5v460z" />
    <glyph glyph-name="uni0434" unicode="&#x434;" horiz-adv-x="597" 
d="M160 470h312l5 -5v-388h75l5 -5v-207l-5 -5h-67l-5 5v135h-363v-135l-5 -5h-67l-5 5v207l5 5h44c15 19 28 46 35 87l31 301zM225 393l-24 -236c-7 -43 -14 -69 -20 -80h219v316h-175z" />
    <glyph glyph-name="uni0435" unicode="&#x435;" horiz-adv-x="543" 
d="M494 129v-79c-40 -30 -110 -65 -184 -65c-148 0 -257 115 -257 254c0 136 93 246 237 246c131 0 207 -114 207 -236c0 -5 0 -14 -5 -25l-10 -5h-350c9 -91 77 -161 178 -161c64 0 131 29 179 76zM135 281h285c-5 74 -59 131 -130 131c-86 0 -142 -58 -155 -131z" />
    <glyph glyph-name="uni0436" unicode="&#x436;" horiz-adv-x="709" 
d="M321 470h67l5 -5v-176h69l120 176l10 5h79l5 -5l-152 -211l169 -249l-5 -5h-86l-10 5l-130 206h-69v-206l-5 -5h-67l-5 5v206h-69l-131 -206l-10 -5h-85l-5 5l168 249l-151 211l5 5h78l10 -5l121 -176h69v176z" />
    <glyph glyph-name="uni0437" unicode="&#x437;" horiz-adv-x="473" 
d="M66 366v80c48 28 94 39 150 39c129 0 191 -65 191 -141c0 -44 -28 -75 -62 -95c48 -19 82 -59 82 -119c0 -80 -71 -145 -211 -145c-63 0 -130 15 -170 45v79l5 5c50 -42 112 -56 165 -56c92 0 134 34 134 83c0 39 -32 68 -85 68h-104l-5 5v52l5 5h93c36 0 76 23 76 66
c0 41 -36 75 -114 75c-46 0 -94 -10 -145 -51z" />
    <glyph glyph-name="uni0438" unicode="&#x438;" horiz-adv-x="600" 
d="M91 470h67l5 -5v-346l265 346l10 5h70l6 -5v-460l-6 -5h-67l-4 5v346l-266 -346l-10 -5h-70l-5 5v460z" />
    <glyph glyph-name="uni0439" unicode="&#x439;" horiz-adv-x="600" 
d="M91 470h67l5 -5v-346l265 346l10 5h70l6 -5v-460l-6 -5h-67l-4 5v346l-266 -346l-10 -5h-70l-5 5v460zM144 670h64l5 -5c3 -51 38 -82 87 -82s84 31 87 82l5 5h64l5 -5c-10 -108 -83 -152 -161 -152s-151 44 -161 152z" />
    <glyph glyph-name="uni043A" unicode="&#x43a;" horiz-adv-x="529" 
d="M91 470h67l5 -5v-176h79l150 176l10 5h79l5 -5l-178 -211l205 -249l-5 -5h-86l-10 5l-170 206h-79v-206l-5 -5h-67l-5 5v460z" />
    <glyph glyph-name="uni043B" unicode="&#x43b;" horiz-adv-x="569" 
d="M166 470h312l5 -5v-460l-5 -5h-67l-5 5v388h-175l-38 -264c-19 -87 -62 -144 -162 -144l-5 7v61l5 5c45 0 73 35 88 106l42 301z" />
    <glyph glyph-name="uni043C" unicode="&#x43c;" horiz-adv-x="674" 
d="M91 470h63l10 -5l173 -217l173 217l10 5h64l5 -5v-460l-5 -5h-68l-5 5v344l-169 -212h-10l-169 212v-344l-5 -5h-67l-5 5v460z" />
    <glyph glyph-name="uni043D" unicode="&#x43d;" horiz-adv-x="580" 
d="M91 470h67l5 -5v-176h254v176l5 5h67l5 -5v-460l-5 -5h-67l-5 5v206h-254v-206l-5 -5h-67l-5 5v460z" />
    <glyph glyph-name="uni043E" unicode="&#x43e;" horiz-adv-x="600" 
d="M300 485c139 0 247 -110 247 -250s-108 -250 -247 -250s-247 110 -247 250s108 250 247 250zM300 412c-95 0 -166 -76 -166 -177s71 -177 166 -177s166 76 166 177s-71 177 -166 177z" />
    <glyph glyph-name="uni043F" unicode="&#x43f;" horiz-adv-x="580" 
d="M91 470h398l5 -5v-460l-5 -5h-67l-5 5v388h-254v-388l-5 -5h-67l-5 5v460z" />
    <glyph glyph-name="uni0440" unicode="&#x440;" horiz-adv-x="606" 
d="M91 470h67l5 -5v-34c34 32 86 54 143 54c138 0 247 -110 247 -250s-109 -250 -247 -250c-57 0 -109 22 -143 54v-264l-5 -5h-67l-5 5v690zM163 343v-216c36 -45 86 -69 143 -69c95 0 166 76 166 177s-71 177 -166 177c-57 0 -107 -28 -143 -69z" />
    <glyph glyph-name="uni0441" unicode="&#x441;" horiz-adv-x="516" 
d="M470 356l-5 -5c-51 43 -100 61 -155 61c-105 0 -176 -78 -176 -177s71 -177 176 -177c55 0 104 18 155 61l5 -5v-79c-40 -30 -95 -50 -160 -50c-154 0 -257 112 -257 250s103 250 257 250c65 0 120 -20 160 -50v-79z" />
    <glyph glyph-name="uni0442" unicode="&#x442;" horiz-adv-x="494" 
d="M32 470h430l5 -5v-67l-5 -5h-176v-388l-5 -5h-67l-5 5v388h-177l-5 5v67z" />
    <glyph glyph-name="uni0443" unicode="&#x443;" horiz-adv-x="536" 
d="M21 470h77l10 -5l161 -328l158 328l10 5h78l5 -5l-294 -581c-40 -72 -85 -124 -191 -124l-5 7v58l5 5c59 0 96 33 125 89l66 136l-210 410z" />
    <glyph glyph-name="uni0444" unicode="&#x444;" horiz-adv-x="660" 
d="M296 700h68l5 -5v-214c150 -12 245 -122 245 -246c0 -125 -98 -234 -245 -246v-214l-5 -5h-68l-5 5v214c-147 12 -245 121 -245 246c0 124 95 234 245 246v214zM291 62v346c-107 -12 -164 -88 -164 -173s60 -161 164 -173zM369 408v-346c104 12 164 88 164 173
s-57 161 -164 173z" />
    <glyph glyph-name="uni0445" unicode="&#x445;" horiz-adv-x="469" 
d="M31 470h77l10 -5l116 -160l116 160l10 5h78l5 -5l-162 -221l172 -239l-5 -5h-78l-10 5l-126 174l-126 -174l-10 -5h-77l-5 5l172 239l-162 221z" />
    <glyph glyph-name="uni0446" unicode="&#x446;" horiz-adv-x="614" 
d="M91 470h67l5 -5v-388h254v388l5 5h67l5 -5v-388h75l5 -5v-207l-5 -5h-67l-5 5v135h-406l-5 5v460z" />
    <glyph glyph-name="uni0447" unicode="&#x447;" horiz-adv-x="549" 
d="M61 470h67l5 -5v-85c0 -91 47 -140 131 -140c50 0 97 20 122 49v176l5 5h67l5 -5v-460l-5 -5h-67l-5 5v198c-35 -22 -77 -37 -122 -37c-135 0 -208 77 -208 209v90z" />
    <glyph glyph-name="uni0448" unicode="&#x448;" horiz-adv-x="829" 
d="M91 470h67l5 -5v-388h213v388l5 5h67l5 -5v-388h213v388l5 5h67l5 -5v-460l-5 -5h-647l-5 5v460z" />
    <glyph glyph-name="uni0449" unicode="&#x449;" horiz-adv-x="863" 
d="M91 470h67l5 -5v-388h213v388l5 5h67l5 -5v-388h213v388l5 5h67l5 -5v-388h75l5 -5v-207l-5 -5h-67l-5 5v135h-655l-5 5v460z" />
    <glyph glyph-name="uni044A" unicode="&#x44a;" horiz-adv-x="583" 
d="M35 470h217l5 -5v-156h110c96 0 170 -52 170 -155s-74 -154 -170 -154h-182l-5 5v388h-145l-5 5v67zM257 231v-154h84c71 0 115 16 115 77s-44 77 -115 77h-84z" />
    <glyph glyph-name="uni044B" unicode="&#x44b;" horiz-adv-x="691" 
d="M91 470h67l5 -5v-156h110c96 0 170 -52 170 -155s-74 -154 -170 -154h-182l-5 5v460zM163 231v-154h110c57 0 89 29 89 77c0 49 -32 77 -89 77h-110zM534 470h67l5 -5v-460l-5 -5h-67l-5 5v460z" />
    <glyph glyph-name="uni044C" unicode="&#x44c;" horiz-adv-x="509" 
d="M91 470h67l5 -5v-156h130c96 0 170 -52 170 -155s-74 -154 -170 -154h-202l-5 5v460zM163 231v-154h130c57 0 89 29 89 77c0 49 -32 77 -89 77h-130z" />
    <glyph glyph-name="uni044D" unicode="&#x44d;" horiz-adv-x="511" 
d="M49 356v79c40 30 95 50 160 50c153 0 257 -112 257 -250s-104 -250 -257 -250c-65 0 -120 20 -160 50v79l5 5c51 -43 100 -61 155 -61c97 0 160 60 172 146h-235l-5 5v52l5 5h235c-12 86 -75 146 -172 146c-55 0 -104 -18 -155 -61z" />
    <glyph glyph-name="uni044E" unicode="&#x44e;" horiz-adv-x="791" 
d="M91 470h67l5 -5v-186h97c19 118 120 206 241 206c135 0 245 -110 245 -250s-110 -250 -245 -250c-124 0 -228 93 -242 216h-96v-196l-5 -5h-67l-5 5v460zM501 412c-92 0 -164 -76 -164 -177s72 -177 164 -177c91 0 164 76 164 177s-73 177 -164 177z" />
    <glyph glyph-name="uni044F" unicode="&#x44f;" horiz-adv-x="514" 
d="M424 470l5 -5v-460l-5 -5h-68l-5 5v156h-107l-121 -156l-10 -5h-92l-5 5l134 169c-59 18 -104 64 -104 142c0 104 75 154 165 154h213zM351 393h-137c-47 0 -87 -24 -87 -77c0 -52 40 -77 87 -77h137v154z" />
    <glyph glyph-name="uni0450" unicode="&#x450;" horiz-adv-x="543" 
d="M494 129v-79c-40 -30 -110 -65 -184 -65c-148 0 -257 115 -257 254c0 136 93 246 237 246c131 0 207 -114 207 -236c0 -5 0 -14 -5 -25l-10 -5h-350c9 -91 77 -161 178 -161c64 0 131 29 179 76zM135 281h285c-5 74 -59 131 -130 131c-86 0 -142 -58 -155 -131zM138 670
h88l10 -5l138 -145l-5 -5h-68l-10 5l-157 145z" />
    <glyph glyph-name="uni0451" unicode="&#x451;" horiz-adv-x="543" 
d="M494 129v-79c-40 -30 -110 -65 -184 -65c-148 0 -257 115 -257 254c0 136 93 246 237 246c131 0 207 -114 207 -236c0 -5 0 -14 -5 -25l-10 -5h-350c9 -91 77 -161 178 -161c64 0 131 29 179 76zM135 281h285c-5 74 -59 131 -130 131c-86 0 -142 -58 -155 -131zM175 637
h10l46 -46v-10l-46 -47h-10l-46 47v10zM395 637h10l46 -46v-10l-46 -47h-10l-46 47v10z" />
    <glyph glyph-name="uni0452" unicode="&#x452;" horiz-adv-x="600" 
d="M91 700h67l5 -5v-91h198l5 -5v-68l-5 -5h-198v-135c38 32 90 54 143 54c148 0 218 -85 218 -226v-300c0 -126 -45 -184 -133 -184c-10 0 -35 0 -55 10v68l5 5c20 -10 33 -10 43 -10c34 0 63 15 63 108v298c0 100 -44 158 -141 158c-57 0 -114 -28 -143 -69v-298l-5 -5
h-67l-5 5v521h-75l-5 5v68l5 5h75v91z" />
    <glyph glyph-name="uni0453" unicode="&#x453;" horiz-adv-x="426" 
d="M310 670h88l4 -5l-157 -145l-10 -5h-68l-5 5l138 145zM91 470h310l5 -5v-67l-5 -5h-238v-388l-5 -5h-67l-5 5v460z" />
    <glyph glyph-name="uni0454" unicode="&#x454;" horiz-adv-x="509" 
d="M463 356l-5 -5c-52 43 -100 61 -155 61c-97 0 -160 -60 -173 -146h235l5 -5v-52l-5 -5h-235c13 -86 76 -146 173 -146c55 0 103 18 155 61l5 -5v-79c-40 -30 -95 -50 -160 -50c-154 0 -257 112 -257 250s103 250 257 250c65 0 120 -20 160 -50v-79z" />
    <glyph glyph-name="uni0455" unicode="&#x455;" horiz-adv-x="467" 
d="M380 369l-5 -5c-50 34 -100 48 -150 48c-54 0 -88 -28 -88 -63c0 -99 284 -32 284 -217c0 -83 -76 -147 -189 -147c-60 0 -128 14 -174 44v76l5 5c55 -36 114 -52 169 -52c74 0 108 29 108 74c0 107 -284 41 -284 217c0 77 70 136 169 136c60 0 115 -15 155 -40v-76z" />
    <glyph glyph-name="uni0456" unicode="&#x456;" horiz-adv-x="249" 
d="M91 470h67l5 -5v-460l-5 -5h-67l-5 5v460zM119 641h10l50 -50v-10l-50 -50h-10l-50 50v10z" />
    <glyph glyph-name="uni0457" unicode="&#x457;" horiz-adv-x="249" 
d="M91 470h67l5 -5v-460l-5 -5h-67l-5 5v460zM29 637h10l47 -46v-10l-47 -47h-10l-46 47v10zM209 637h10l47 -46v-10l-47 -47h-10l-46 47v10z" />
    <glyph glyph-name="uni0458" unicode="&#x458;" horiz-adv-x="249" 
d="M91 470h67l5 -5v-546c0 -126 -45 -184 -134 -184c-10 0 -35 0 -55 10v68l5 5c20 -10 33 -10 43 -10c34 0 64 15 64 108v549zM119 641h10l50 -50v-10l-50 -50h-10l-50 50v10z" />
    <glyph glyph-name="uni0459" unicode="&#x459;" horiz-adv-x="769" 
d="M166 470h292l5 -5v-156h90c96 0 170 -52 170 -155s-74 -154 -170 -154h-162l-5 5v388h-155l-38 -264c-19 -87 -62 -144 -162 -144l-5 7v61l5 5c45 0 73 35 88 106l42 301zM463 231v-154h90c57 0 89 29 89 77c0 49 -32 77 -89 77h-90z" />
    <glyph glyph-name="uni045A" unicode="&#x45a;" horiz-adv-x="800" 
d="M91 470h67l5 -5v-166h254v166l5 5h67l5 -5v-166h90c96 0 170 -47 170 -150s-74 -149 -170 -149h-162l-5 5v216h-254v-216l-5 -5h-67l-5 5v460zM494 221v-144h90c57 0 89 24 89 72c0 49 -32 72 -89 72h-90z" />
    <glyph glyph-name="uni045B" unicode="&#x45b;" horiz-adv-x="600" 
d="M91 700h67l5 -5v-91h198l5 -5v-68l-5 -5h-198v-135c38 32 90 54 143 54c148 0 218 -85 218 -226v-214l-5 -5h-67l-5 5v209c0 100 -44 158 -141 158c-57 0 -114 -28 -143 -69v-298l-5 -5h-67l-5 5v521h-75l-5 5v68l5 5h75v91z" />
    <glyph glyph-name="uni045C" unicode="&#x45c;" horiz-adv-x="529" 
d="M351 670h88l4 -5l-157 -145l-10 -5h-68l-5 5l138 145zM91 470h67l5 -5v-176h79l150 176l10 5h79l5 -5l-178 -211l205 -249l-5 -5h-86l-10 5l-170 206h-79v-206l-5 -5h-67l-5 5v460z" />
    <glyph glyph-name="uni045D" unicode="&#x45d;" horiz-adv-x="600" 
d="M91 470h67l5 -5v-346l265 346l10 5h70l6 -5v-460l-6 -5h-67l-4 5v346l-266 -346l-10 -5h-70l-5 5v460zM148 670h88l10 -5l138 -145l-5 -5h-68l-10 5l-157 145z" />
    <glyph glyph-name="uni045E" unicode="&#x45e;" horiz-adv-x="536" 
d="M21 470h77l10 -5l161 -328l158 328l10 5h78l5 -5l-294 -581c-40 -72 -85 -124 -191 -124l-5 7v58l5 5c59 0 96 33 125 89l66 136l-210 410zM113 670h64l5 -5c3 -51 38 -82 87 -82s84 31 87 82l5 5h64l5 -5c-10 -108 -83 -152 -161 -152s-151 44 -161 152z" />
    <glyph glyph-name="uni045F" unicode="&#x45f;" horiz-adv-x="580" 
d="M91 470h67l5 -5v-388h254v388l5 5h67l5 -5v-460l-5 -5h-160v-135l-5 -5h-68l-5 5v135h-160l-5 5v460z" />
    <glyph glyph-name="uni0460" unicode="&#x460;" horiz-adv-x="1000" 
d="M204 700h79l5 -5c-99 -121 -151 -257 -151 -375c0 -185 85 -262 184 -262c74 0 140 45 140 130v308l4 4h70l4 -4v-308c0 -85 66 -130 140 -130c99 0 184 77 184 262c0 117 -52 254 -151 375l5 5h79l10 -5c85 -109 138 -243 138 -375c0 -231 -124 -335 -265 -335
c-83 0 -143 34 -179 79c-36 -45 -96 -79 -179 -79c-141 0 -265 104 -265 335c0 133 53 266 138 376z" />
    <glyph glyph-name="uni0461" unicode="&#x461;" horiz-adv-x="791" 
d="M361 370h69l4 -4v-178c0 -85 47 -130 107 -130c73 0 114 69 114 177c0 65 -20 135 -65 231l4 4h78l4 -4c40 -91 60 -151 60 -231c0 -155 -70 -250 -195 -250c-77 0 -110 31 -145 76c-36 -45 -69 -76 -145 -76c-125 0 -195 95 -195 250c0 80 20 140 60 231l4 4h77l4 -4
c-45 -96 -64 -166 -64 -231c0 -108 41 -177 114 -177c60 0 106 45 106 130v178z" />
    <glyph glyph-name="uni0462" unicode="&#x462;" horiz-adv-x="731" 
d="M231 740h67l5 -5v-106h248l5 -5v-68l-5 -5h-248v-127h142c143 0 235 -93 235 -213s-92 -211 -235 -211h-214l-5 5v546h-185l-5 5v68l5 5h185v106zM303 346v-269h142c92 0 147 57 147 134c0 81 -55 135 -147 135h-142z" />
    <glyph glyph-name="uni0463" unicode="&#x463;" horiz-adv-x="609" 
d="M191 700h67l5 -5v-179h165l5 -5v-67l-5 -5h-165v-130h130c96 0 170 -52 170 -155s-74 -154 -170 -154h-202l-5 5v434h-145l-5 5v67l5 5h145v179zM263 231v-154h130c57 0 89 29 89 77c0 49 -32 77 -89 77h-130z" />
    <glyph glyph-name="uni0464" unicode="&#x464;" horiz-adv-x="1051" 
d="M91 700h67l5 -5v-291h117c26 174 179 311 366 311c95 0 175 -28 240 -75v-88l-5 -5c-67 55 -150 87 -235 87c-139 0 -257 -100 -278 -230h354l5 -5v-68l-5 -5h-358c14 -148 135 -260 282 -260c85 0 168 32 235 87l5 -5v-88c-65 -47 -145 -75 -240 -75
c-197 0 -358 152 -370 341h-113v-321l-5 -5h-67l-5 5v690z" />
    <glyph glyph-name="uni0465" unicode="&#x465;" horiz-adv-x="719" 
d="M91 470h67l5 -5v-195h96c15 121 113 215 254 215c65 0 120 -20 160 -50v-79l-5 -5c-52 43 -100 61 -155 61c-97 0 -160 -60 -173 -146h235l5 -5v-52l-5 -5h-235c13 -86 76 -146 173 -146c55 0 103 18 155 61l5 -5v-79c-40 -30 -95 -50 -160 -50c-144 0 -243 97 -256 222
h-94v-202l-5 -5h-67l-5 5v460z" />
    <glyph glyph-name="uni0466" unicode="&#x466;" horiz-adv-x="669" 
d="M299 700h70l5 -5l279 -690l-5 -5h-74l-5 5l-75 183h-121v-183l-5 -5h-67l-5 5v183h-122l-74 -183l-5 -5h-74l-5 5l278 690zM334 594l-129 -329h259z" />
    <glyph glyph-name="uni0467" unicode="&#x467;" horiz-adv-x="489" 
d="M209 470h70l5 -5l189 -460l-5 -5h-79l-5 5l-45 113h-56v-113l-5 -5h-67l-5 5v113h-57l-45 -113l-5 -5h-78l-5 5l188 460zM244 364l-64 -169h129z" />
    <glyph glyph-name="uni0468" unicode="&#x468;" horiz-adv-x="911" 
d="M91 700h67l5 -5v-271h264l110 271l5 5h70l5 -5l279 -690l-5 -5h-75l-5 5l-74 183h-121v-183l-5 -5h-67l-5 5v183h-122l-74 -183l-5 -5h-74l-5 5l137 341h-233v-341l-5 -5h-67l-5 5v690zM577 594l-129 -329h258z" />
    <glyph glyph-name="uni0469" unicode="&#x469;" horiz-adv-x="697" 
d="M91 470h67l5 -5v-186h174l76 186l5 5h70l5 -5l188 -460l-5 -5h-78l-5 5l-45 113h-57v-113l-5 -5h-67l-5 5v113h-56l-45 -113l-5 -5h-79l-5 5l80 196h-141v-196l-5 -5h-67l-5 5v460zM453 364l-65 -169h129z" />
    <glyph glyph-name="uni046A" unicode="&#x46a;" horiz-adv-x="786" 
d="M58 700h670l5 -5l-254 -298l291 -392l-5 -5h-83l-10 5l-241 339v-339l-5 -5h-67l-5 5v339l-241 -339l-10 -5h-82l-5 5l290 392l-253 298zM212 623l181 -211l181 211h-362z" />
    <glyph glyph-name="uni046B" unicode="&#x46b;" horiz-adv-x="580" 
d="M35 470h510l5 -5l-174 -208l188 -252l-5 -5h-83l-10 5l-138 199v-199l-5 -5h-67l-5 5v199l-138 -199l-10 -5h-82l-5 5l188 252l-174 208zM188 393l102 -121l101 121h-203z" />
    <glyph glyph-name="uni046C" unicode="&#x46c;" horiz-adv-x="1014" 
d="M91 700h67l5 -5v-271h338l-231 271l5 5h670l5 -5l-254 -298l291 -392l-5 -5h-83l-10 5l-241 339v-339l-5 -5h-67l-5 5v339l-240 -339l-10 -5h-83l-5 5l254 341h-324v-341l-5 -5h-67l-5 5v690zM428 623l182 -211l181 211h-363z" />
    <glyph glyph-name="uni046D" unicode="&#x46d;" horiz-adv-x="783" 
d="M91 470h67l5 -5v-186h224l-154 186l5 5h510l5 -5l-174 -211l188 -249l-5 -5h-83l-10 5l-138 196v-196l-5 -5h-67l-5 5v196l-138 -196l-10 -5h-82l-5 5l148 196h-204v-196l-5 -5h-67l-5 5v460zM391 393l102 -124l101 124h-203z" />
    <glyph glyph-name="uni046E" unicode="&#x46e;" horiz-adv-x="549" 
d="M84 876h74l10 -5l78 -79l78 79l10 5h74l5 -5l-120 -125l-10 -5h-74l-10 7l-120 123zM101 571l-45 49c40 55 110 95 190 95c138 0 224 -86 224 -195c0 -63 -38 -116 -79 -141c70 -24 119 -89 119 -174c0 -120 -100 -220 -257 -220h-89l27 -160l-5 -5h-60l-5 5l-50 232l5 5
h163c117 0 183 69 183 143c0 68 -47 119 -128 119h-118l-5 5v67l5 5h108c48 0 98 46 98 112c0 67 -55 121 -136 121c-52 0 -103 -25 -135 -63h-10z" />
    <glyph glyph-name="uni046F" unicode="&#x46f;" horiz-adv-x="473" 
d="M61 670h70l10 -5l82 -92l81 92l10 5h71l5 -5l-127 -145l-10 -5h-60l-10 5l-127 145zM66 366v80c48 28 94 39 150 39c129 0 191 -65 191 -141c0 -44 -28 -75 -62 -95c48 -19 82 -59 82 -119c0 -80 -63 -145 -204 -145h-56l22 -140l-5 -5h-60l-5 5l-45 212l5 5h130
c92 0 141 30 141 79c0 39 -32 68 -85 68h-104l-5 5v52l5 5h93c36 0 76 23 76 66c0 41 -36 75 -114 75c-46 0 -94 -10 -145 -51z" />
    <glyph glyph-name="uni0470" unicode="&#x470;" horiz-adv-x="743" 
d="M78 700h67l5 -5v-129c0 -147 76 -240 183 -255v384l5 5h67l5 -5v-384c107 15 183 108 183 255v129l5 5h67l5 -5v-144c0 -189 -109 -305 -260 -322v-224l-5 -5h-67l-5 5v224c-151 17 -260 133 -260 322v144z" />
    <glyph glyph-name="uni0471" unicode="&#x471;" horiz-adv-x="629" 
d="M81 470h68l4 -4v-246c0 -99 47 -151 131 -158v634l4 4h69l4 -4v-634c80 11 135 78 135 183c0 75 -8 129 -40 221l4 4h73l4 -4c27 -84 40 -131 40 -221c0 -144 -90 -249 -216 -259v-212l-4 -4h-69l-4 4v211c-135 7 -208 90 -208 229v252z" />
    <glyph glyph-name="uni0472" unicode="&#x472;" horiz-adv-x="851" 
d="M426 715c204 0 370 -164 370 -365s-166 -365 -370 -365s-370 164 -370 365s166 365 370 365zM148 404h556c-25 130 -137 230 -278 230c-142 0 -253 -100 -278 -230zM707 326h-563c15 -153 139 -260 282 -260s266 107 281 260z" />
    <glyph glyph-name="uni0473" unicode="&#x473;" horiz-adv-x="600" 
d="M300 485c139 0 247 -110 247 -250s-108 -250 -247 -250s-247 110 -247 250s108 250 247 250zM137 266h325c-12 85 -78 146 -162 146c-85 0 -151 -61 -163 -146zM462 204h-325c12 -85 78 -146 163 -146c84 0 150 61 162 146z" />
    <glyph glyph-name="uni0474" unicode="&#x474;" horiz-adv-x="680" 
d="M21 700h74l5 -5l224 -586l177 461c32 84 70 145 168 145l5 -6v-62l-5 -5c-44 0 -72 -39 -98 -106l-207 -531l-5 -5h-70l-5 5l-268 690z" />
    <glyph glyph-name="uni0475" unicode="&#x475;" horiz-adv-x="511" 
d="M21 470h74l5 -5l150 -356l92 231c32 84 70 145 169 145l5 -6v-62l-5 -5c-45 0 -72 -39 -99 -106l-122 -301l-5 -5h-70l-5 5l-194 460z" />
    <glyph glyph-name="uni0476" unicode="&#x476;" horiz-adv-x="680" 
d="M21 700h74l5 -5l224 -586l177 461c32 84 70 145 168 145l5 -6v-62l-5 -5c-44 0 -72 -39 -98 -106l-207 -531l-5 -5h-70l-5 5l-268 690zM86 875h79l10 -5l84 -125l-5 -5h-63l-10 5l-100 125zM296 875h79l10 -5l84 -125l-5 -5h-63l-10 5l-100 125z" />
    <glyph glyph-name="uni0477" unicode="&#x477;" horiz-adv-x="511" 
d="M31 670h73l10 -5l90 -145l-5 -5h-57l-10 5l-106 145zM221 670h73l10 -5l90 -145l-5 -5h-57l-10 5l-106 145zM21 470h74l5 -5l150 -356l92 231c32 84 70 145 169 145l5 -6v-62l-5 -5c-45 0 -72 -39 -99 -106l-122 -301l-5 -5h-70l-5 5l-194 460z" />
    <glyph glyph-name="uni0478" unicode="&#x478;" horiz-adv-x="1387" 
d="M426 715c204 0 370 -164 370 -365s-166 -365 -370 -365s-370 164 -370 365s166 365 370 365zM426 634c-155 0 -282 -127 -282 -284s127 -284 282 -284s281 127 281 284s-126 284 -281 284zM872 470h77l10 -5l161 -328l158 328l10 5h78l5 -5l-294 -581
c-40 -72 -85 -124 -191 -124l-5 7v58l5 5c59 0 96 33 125 89l66 136l-210 410z" />
    <glyph glyph-name="uni0479" unicode="&#x479;" horiz-adv-x="1096" 
d="M300 485c139 0 247 -110 247 -250s-108 -250 -247 -250s-247 110 -247 250s108 250 247 250zM300 412c-95 0 -166 -76 -166 -177s71 -177 166 -177s166 76 166 177s-71 177 -166 177zM581 470h77l10 -5l161 -328l158 328l10 5h78l5 -5l-294 -581
c-40 -72 -85 -124 -191 -124l-5 7v58l5 5c59 0 96 33 125 89l66 136l-210 410z" />
    <glyph glyph-name="uni047A" unicode="&#x47a;" horiz-adv-x="851" 
d="M421 756h10l45 -45c180 -24 320 -177 320 -361s-140 -337 -320 -361l-45 -45h-10l-46 45c-180 24 -319 177 -319 361s139 337 319 361zM421 582l-47 46c-131 -23 -230 -139 -230 -278s99 -256 230 -279l47 47h10l46 -47c130 23 230 140 230 279s-100 255 -230 278
l-46 -46h-10z" />
    <glyph glyph-name="uni047B" unicode="&#x47b;" horiz-adv-x="600" 
d="M295 521h10l41 -41c116 -21 201 -122 201 -245c0 -124 -85 -224 -201 -245l-41 -41h-10l-41 41c-116 21 -201 121 -201 245c0 123 85 224 201 245zM295 357l-45 45c-68 -20 -116 -85 -116 -167s48 -148 116 -167l45 45h10l45 -45c68 19 116 85 116 167s-48 147 -116 167
l-45 -45h-10z" />
    <glyph glyph-name="uni047C" unicode="&#x47c;" horiz-adv-x="1000" 
d="M301 863h58l282 -47v59l5 5h53l5 -5v-118l-5 -5h-58l-282 47v-59l-5 -5h-53l-5 5v118zM204 700h79l5 -5c-99 -121 -151 -257 -151 -375c0 -185 85 -262 184 -262c74 0 140 45 140 130v308l4 4h70l4 -4v-308c0 -85 66 -130 140 -130c99 0 184 77 184 262
c0 117 -52 254 -151 375l5 5h79l10 -5c85 -109 138 -243 138 -375c0 -231 -124 -335 -265 -335c-83 0 -143 34 -179 79c-36 -45 -96 -79 -179 -79c-141 0 -265 104 -265 335c0 133 53 266 138 376z" />
    <glyph glyph-name="uni047D" unicode="&#x47d;" horiz-adv-x="791" 
d="M206 643h58l263 -37v59l5 5h53l5 -5v-118l-5 -5h-58l-263 37v-59l-5 -5h-53l-5 5v118zM361 370h69l4 -4v-178c0 -85 47 -130 107 -130c73 0 114 69 114 177c0 65 -20 135 -65 231l4 4h78l4 -4c40 -91 60 -151 60 -231c0 -155 -70 -250 -195 -250c-77 0 -110 31 -145 76
c-36 -45 -69 -76 -145 -76c-125 0 -195 95 -195 250c0 80 20 140 60 231l4 4h77l4 -4c-45 -96 -64 -166 -64 -231c0 -108 41 -177 114 -177c60 0 106 45 106 130v178z" />
    <glyph glyph-name="uni047E" unicode="&#x47e;" horiz-adv-x="1000" 
d="M301 875h398l5 -5v-125l-5 -5h-53l-5 5v67h-110v-67l-5 -5h-52l-5 5v67h-110v-67l-5 -5h-53l-5 5v125zM204 700h79l5 -5c-99 -121 -151 -257 -151 -375c0 -185 85 -262 184 -262c74 0 140 45 140 130v308l4 4h70l4 -4v-308c0 -85 66 -130 140 -130c99 0 184 77 184 262
c0 117 -52 254 -151 375l5 5h79l10 -5c85 -109 138 -243 138 -375c0 -231 -124 -335 -265 -335c-83 0 -143 34 -179 79c-36 -45 -96 -79 -179 -79c-141 0 -265 104 -265 335c0 133 53 266 138 376z" />
    <glyph glyph-name="uni047F" unicode="&#x47f;" horiz-adv-x="791" 
d="M206 670h379l5 -5v-145l-5 -5h-53l-5 5v87h-100v-87l-5 -5h-53l-5 5v87h-100v-87l-5 -5h-53l-5 5v145zM361 370h69l4 -4v-178c0 -85 47 -130 107 -130c73 0 114 69 114 177c0 65 -20 135 -65 231l4 4h78l4 -4c40 -91 60 -151 60 -231c0 -155 -70 -250 -195 -250
c-77 0 -110 31 -145 76c-36 -45 -69 -76 -145 -76c-125 0 -195 95 -195 250c0 80 20 140 60 231l4 4h77l4 -4c-45 -96 -64 -166 -64 -231c0 -108 41 -177 114 -177c60 0 106 45 106 130v178z" />
    <glyph glyph-name="uni0480" unicode="&#x480;" horiz-adv-x="711" 
d="M666 552l-5 -5c-67 55 -150 87 -235 87c-155 0 -282 -126 -282 -284s127 -288 296 -288h122l5 -5l-49 -232l-5 -5h-60l-5 5l26 160h-48c-205 0 -370 165 -370 365s165 365 370 365c95 0 175 -28 240 -75v-88z" />
    <glyph glyph-name="uni0481" unicode="&#x481;" horiz-adv-x="509" 
d="M463 356l-5 -5c-50 42 -97 61 -152 61c-108 0 -179 -79 -179 -172c0 -103 71 -178 213 -178h62l5 -5l-44 -212l-5 -5h-60l-5 5l21 140h-13c-152 7 -255 110 -255 255c0 135 105 245 260 245c62 0 117 -20 157 -50v-79z" />
    <glyph glyph-name="uni048A" unicode="&#x48a;" horiz-adv-x="769" 
d="M91 700h67l5 -5v-572l433 572l10 5h72l5 -5v-618h68l5 -5l-40 -247l-5 -5h-60l-5 5l24 175h-59l-5 5v572l-434 -572l-10 -5h-71l-5 5v690zM220 875h63l5 -5c14 -49 54 -65 96 -65s82 16 96 65l5 5h64l5 -5c-10 -95 -90 -135 -170 -135s-159 40 -169 135z" />
    <glyph glyph-name="uni048B" unicode="&#x48b;" horiz-adv-x="600" 
d="M91 470h67l5 -5v-346l265 346l10 5h70l6 -5v-388h68l5 -5l-34 -207l-5 -5h-60l-5 5l19 135h-61l-4 5v346l-266 -346l-10 -5h-70l-5 5v460zM144 670h64l5 -5c3 -51 38 -82 87 -82s84 31 87 82l5 5h64l5 -5c-10 -108 -83 -152 -161 -152s-151 44 -161 152z" />
    <glyph glyph-name="uni048C" unicode="&#x48c;" horiz-adv-x="611" 
d="M111 740h67l5 -5v-106h102l5 -5v-68l-5 -5h-102v-127h142c143 0 235 -93 235 -213s-92 -211 -235 -211h-214l-5 5v546h-95l-5 5v68l5 5h95v106zM183 346v-269h142c92 0 147 57 147 134c0 81 -55 135 -147 135h-142z" />
    <glyph glyph-name="uni048D" unicode="&#x48d;" horiz-adv-x="551" 
d="M111 700h67l5 -5v-179h102l5 -5v-67l-5 -5h-102v-130h130c96 0 170 -52 170 -155s-74 -154 -170 -154h-202l-5 5v434h-95l-5 5v67l5 5h95v179zM183 231v-154h130c57 0 89 29 89 77c0 49 -32 77 -89 77h-130z" />
    <glyph glyph-name="uni048E" unicode="&#x48e;" horiz-adv-x="567" 
d="M90 700h199c148 0 242 -89 242 -209c0 -52 -17 -96 -50 -130l68 -57v-6l-45 -52h-6l-77 65c-36 -19 -81 -30 -132 -30h-126v-276l-5 -5h-67l-5 5v690zM163 623v-264h126c24 0 46 3 65 9l-77 66v6l44 51h7l86 -73c19 17 29 42 29 73c0 79 -59 132 -154 132h-126z" />
    <glyph glyph-name="uni048F" unicode="&#x48f;" horiz-adv-x="606" 
d="M86 465l5 5h67l5 -5v-34c34 32 86 54 143 54c138 0 247 -110 247 -250c0 -54 -16 -102 -44 -142l72 -60v-7l-45 -51h-6l-73 62c-42 -33 -94 -52 -151 -52s-109 22 -143 54v-264l-5 -5h-67l-5 5v690zM163 343v-216c36 -45 86 -69 143 -69c34 0 65 11 91 30l-88 74v7l45 51
h6l88 -76c15 26 24 57 24 91c0 101 -71 177 -166 177c-57 0 -107 -28 -143 -69z" />
    <glyph glyph-name="uni0490" unicode="&#x490;" horiz-adv-x="529" 
d="M91 700h325v135l5 5h67l5 -5v-207l-5 -5h-325v-618l-5 -5h-67l-5 5v690z" />
    <glyph glyph-name="uni0491" unicode="&#x491;" horiz-adv-x="420" 
d="M91 470h226v115l5 5h67l5 -5v-187l-5 -5h-226v-388l-5 -5h-67l-5 5v460z" />
    <glyph glyph-name="uni0492" unicode="&#x492;" horiz-adv-x="523" 
d="M91 700h397l5 -5v-67l-5 -5h-325v-199h205l5 -5v-68l-5 -5h-205v-341l-5 -5h-67l-5 5v341h-75l-5 5v68l5 5h75v271z" />
    <glyph glyph-name="uni0493" unicode="&#x493;" horiz-adv-x="426" 
d="M91 470h310l5 -5v-67l-5 -5h-238v-134h129l5 -5v-67l-5 -5h-129v-177l-5 -5h-67l-5 5v177h-75l-5 5v67l5 5h75v206z" />
    <glyph glyph-name="uni0494" unicode="&#x494;" horiz-adv-x="654" 
d="M91 700h397l5 -5v-67l-5 -5h-325v-210c47 35 110 51 168 51c164 0 268 -118 268 -320c0 -216 -101 -339 -248 -339c-41 0 -77 7 -102 24v83l5 5c31 -25 56 -35 98 -35c88 0 165 80 165 262c0 160 -76 239 -186 239c-72 0 -127 -29 -168 -74v-304l-5 -5h-67l-5 5v690z" />
    <glyph glyph-name="uni0495" unicode="&#x495;" horiz-adv-x="554" 
d="M91 470h310l5 -5v-67l-5 -5h-238v-149c43 27 83 41 136 41c117 0 214 -84 214 -265c0 -188 -91 -285 -209 -285c-38 0 -65 6 -90 18v79l5 5c32 -20 47 -25 86 -25c59 0 127 54 127 208c0 138 -70 184 -133 184c-68 0 -103 -27 -136 -63v-136l-5 -5h-67l-5 5v460z" />
    <glyph glyph-name="uni0496" unicode="&#x496;" horiz-adv-x="931" 
d="M425 700h67l5 -5v-271h85l206 271l10 5h81l5 -5l-236 -303l253 -387v-180l-5 -5h-67l-5 5v175l-19 5l-223 341h-85v-341l-5 -5h-67l-5 5v341h-85l-223 -341l-10 -5h-81l-5 5l253 387l-236 303l5 5h81l10 -5l206 -271h85v271z" />
    <glyph glyph-name="uni0497" unicode="&#x497;" horiz-adv-x="723" 
d="M321 470h67l5 -5v-176h68l121 176l10 5h79l5 -5l-152 -211l169 -249v-140l-5 -5h-67l-5 5v135l-24 5l-131 206h-68v-206l-5 -5h-67l-5 5v206h-69l-131 -206l-10 -5h-85l-5 5l168 249l-151 211l5 5h78l10 -5l121 -176h69v176z" />
    <glyph glyph-name="uni0498" unicode="&#x498;" horiz-adv-x="571" 
d="M91 571l-45 49c40 55 120 95 200 95c145 0 240 -85 240 -195c0 -63 -38 -116 -80 -141c70 -24 120 -89 120 -174c0 -111 -94 -204 -234 -217c44 -46 59 -84 59 -132c0 -57 -52 -101 -108 -101c-25 0 -45 5 -65 20v58l5 5c20 -20 36 -20 46 -20c30 0 55 21 55 52
c0 34 -17 72 -65 117c-69 10 -141 44 -183 103l42 60h10c41 -53 105 -84 168 -84c113 0 181 65 181 139c0 68 -46 119 -134 119h-147l-5 5v67l5 5h137c55 0 104 46 104 112c0 67 -67 121 -151 121c-52 0 -113 -25 -145 -63h-10z" />
    <glyph glyph-name="uni0499" unicode="&#x499;" horiz-adv-x="473" 
d="M66 366v80c48 28 94 39 150 39c129 0 191 -65 191 -141c0 -44 -28 -75 -62 -95c48 -19 82 -59 82 -119c0 -73 -58 -133 -174 -143c43 -45 58 -84 58 -131c0 -57 -52 -101 -108 -101c-25 0 -45 5 -65 20v58l5 5c20 -20 36 -20 46 -20c30 0 55 21 55 52
c0 34 -16 72 -65 117c-52 5 -101 18 -133 43v79l5 5c50 -42 112 -56 165 -56c92 0 134 34 134 83c0 39 -32 68 -85 68h-104l-5 5v52l5 5h93c36 0 76 23 76 66c0 41 -36 75 -114 75c-46 0 -94 -10 -145 -51z" />
    <glyph glyph-name="uni049A" unicode="&#x49a;" horiz-adv-x="637" 
d="M91 700h67l5 -5v-271h84l247 271l10 5h81l5 -5l-277 -303l294 -387v-180l-5 -5h-67l-5 5v175l-19 5l-264 341h-84v-341l-5 -5h-67l-5 5v690z" />
    <glyph glyph-name="uni049B" unicode="&#x49b;" horiz-adv-x="543" 
d="M91 470h67l5 -5v-176h79l150 176l10 5h79l5 -5l-178 -211l205 -249v-140l-5 -5h-67l-5 5v135l-24 5l-170 206h-79v-206l-5 -5h-67l-5 5v460z" />
    <glyph glyph-name="uni049C" unicode="&#x49c;" horiz-adv-x="623" 
d="M91 700h67l5 -5v-271h67v190l5 5h53l5 -5v-140l201 221l10 5h81l5 -5l-277 -303l294 -387l-5 -5h-81l-10 5l-218 282v-125l-5 -5h-53l-5 5v184h-67v-341l-5 -5h-67l-5 5v690z" />
    <glyph glyph-name="uni049D" unicode="&#x49d;" horiz-adv-x="529" 
d="M91 470h67l5 -5v-176h54v99l5 5h53l5 -5v-55l112 132l10 5h79l5 -5l-178 -211l205 -249l-5 -5h-86l-10 5l-132 160v-63l-5 -5h-53l-5 5v109h-54v-206l-5 -5h-67l-5 5v460z" />
    <glyph glyph-name="uni049E" unicode="&#x49e;" horiz-adv-x="623" 
d="M91 700h67l5 -5v-101h75l5 -5v-68l-5 -5h-75v-92h84l247 271l10 5h81l5 -5l-277 -303l294 -387l-5 -5h-81l-10 5l-264 341h-84v-341l-5 -5h-67l-5 5v511h-75l-5 5v68l5 5h75v101z" />
    <glyph glyph-name="uni049F" unicode="&#x49f;" horiz-adv-x="529" 
d="M91 700h67l5 -5v-91h95l5 -5v-68l-5 -5h-95v-237h79l150 176l10 5h79l5 -5l-178 -211l205 -249l-5 -5h-86l-10 5l-170 206h-79v-206l-5 -5h-67l-5 5v521h-75l-5 5v69l5 4h75v91z" />
    <glyph glyph-name="uni04A0" unicode="&#x4a0;" horiz-adv-x="777" 
d="M35 700h277l5 -5v-271h84l247 271l10 5h81l5 -5l-276 -303l293 -387l-5 -5h-81l-10 5l-264 341h-84v-341l-5 -5h-67l-5 5v618h-205l-5 5v67z" />
    <glyph glyph-name="uni04A1" unicode="&#x4a1;" horiz-adv-x="623" 
d="M35 470h217l5 -5v-176h79l150 176l10 5h79l5 -5l-178 -211l205 -249l-5 -5h-86l-10 5l-170 206h-79v-206l-5 -5h-67l-5 5v388h-145l-5 5v67z" />
    <glyph glyph-name="uni04A2" unicode="&#x4a2;" horiz-adv-x="763" 
d="M91 700h67l5 -5v-271h403v271l5 5h67l5 -5v-618h75l5 -5v-247l-5 -5h-67l-5 5v175h-75l-5 5v341h-403v-341l-5 -5h-67l-5 5v690z" />
    <glyph glyph-name="uni04A3" unicode="&#x4a3;" horiz-adv-x="603" 
d="M91 470h67l5 -5v-176h243v176l5 5h67l5 -5v-388h75l5 -5v-207l-5 -5h-67l-5 5v135h-75l-5 5v206h-243v-206l-5 -5h-67l-5 5v460z" />
    <glyph glyph-name="uni04A4" unicode="&#x4a4;" horiz-adv-x="863" 
d="M91 700h67l5 -5v-271h383v271l5 5h277l5 -5v-67l-5 -5h-205v-618l-5 -5h-67l-5 5v341h-383v-341l-5 -5h-67l-5 5v690z" />
    <glyph glyph-name="uni04A5" unicode="&#x4a5;" horiz-adv-x="663" 
d="M91 470h67l5 -5v-176h243v176l5 5h217l5 -5v-67l-5 -5h-145v-388l-5 -5h-67l-5 5v206h-243v-206l-5 -5h-67l-5 5v460z" />
    <glyph glyph-name="uni04A6" unicode="&#x4a6;" horiz-adv-x="1094" 
d="M91 700h507l5 -5v-282c47 35 110 51 168 51c164 0 268 -118 268 -320c0 -216 -101 -339 -248 -339c-41 0 -77 7 -102 24v83l5 5c31 -25 56 -35 98 -35c88 0 165 80 165 262c0 160 -76 239 -186 239c-72 0 -127 -29 -168 -74v-304l-5 -5h-67l-5 5v618h-363v-618l-5 -5h-67
l-5 5v690z" />
    <glyph glyph-name="uni04A7" unicode="&#x4a7;" horiz-adv-x="866" 
d="M91 470h378l5 -5v-190c44 26 83 44 136 44c118 0 214 -91 214 -279c0 -201 -90 -305 -208 -305c-39 0 -65 6 -90 18v79l5 5c31 -20 46 -25 85 -25c60 0 127 62 127 228c0 145 -69 199 -133 199s-99 -27 -136 -64v-170l-5 -5h-67l-5 5v388h-234v-388l-5 -5h-67l-5 5v460z
" />
    <glyph glyph-name="uni04A8" unicode="&#x4a8;" horiz-adv-x="831" 
d="M666 552l-5 -5c-67 55 -150 87 -235 87c-155 0 -282 -126 -282 -284c0 -125 80 -230 190 -268c-6 18 -8 38 -8 58c0 186 112 305 250 305c113 0 200 -86 200 -205c0 -106 -88 -204 -233 -235c-24 -8 -51 -13 -79 -16c44 -63 116 -103 192 -103c51 0 103 15 165 62l5 -5
v-83c-52 -35 -103 -55 -170 -55c-125 0 -240 75 -296 186c-173 30 -304 181 -304 359c0 200 165 365 370 365c95 0 175 -28 240 -75v-88zM426 66c117 -5 261 60 261 174c0 74 -47 124 -111 124c-98 0 -162 -98 -162 -224c0 -26 4 -51 12 -74z" />
    <glyph glyph-name="uni04A9" unicode="&#x4a9;" horiz-adv-x="566" 
d="M463 356l-5 -5c-52 43 -100 61 -155 61c-98 0 -176 -86 -176 -191c0 -58 30 -126 87 -157c21 137 110 207 199 207c85 0 144 -62 144 -137c0 -105 -98 -180 -236 -180c-12 0 -21 2 -32 4c15 -96 99 -146 164 -146c31 0 46 5 78 25l5 -5v-79c-25 -12 -45 -18 -83 -18
c-116 0 -232 96 -247 244c-96 39 -160 135 -160 242c0 143 110 264 257 264c65 0 120 -20 160 -50v-79zM292 32c20 -3 39 -4 58 -2c88 8 126 54 126 104c0 31 -27 56 -63 56c-54 0 -110 -47 -121 -158z" />
    <glyph glyph-name="uni04AA" unicode="&#x4aa;" horiz-adv-x="731" 
d="M666 552l-5 -5c-67 55 -150 87 -235 87c-155 0 -282 -126 -282 -284s127 -284 282 -284c85 0 168 32 235 87l5 -5v-88c-58 -42 -128 -69 -210 -74c43 -45 58 -83 58 -130c0 -57 -52 -101 -108 -101c-25 0 -45 5 -65 20v58l5 5c20 -20 35 -20 45 -20c30 0 56 21 56 52
c0 34 -17 72 -66 118c-184 21 -325 176 -325 362c0 200 165 365 370 365c95 0 175 -28 240 -75v-88z" />
    <glyph glyph-name="uni04AB" unicode="&#x4ab;" horiz-adv-x="509" 
d="M463 356l-5 -5c-52 43 -100 61 -155 61c-105 0 -176 -78 -176 -177s71 -177 176 -177c55 0 103 18 155 61l5 -5v-79c-34 -26 -78 -43 -130 -48c43 -45 58 -84 58 -131c0 -57 -52 -101 -108 -101c-25 0 -45 5 -65 20v58l5 5c20 -20 36 -20 46 -20c30 0 55 21 55 52
c0 35 -17 73 -67 119c-128 19 -211 121 -211 246c0 138 103 250 257 250c65 0 120 -20 160 -50v-79z" />
    <glyph glyph-name="uni04AC" unicode="&#x4ac;" horiz-adv-x="620" 
d="M35 700h550l5 -5v-67l-5 -5h-236v-546h75l5 -5v-247l-5 -5h-68l-5 5v175h-75l-5 5v618h-236l-5 5v67z" />
    <glyph glyph-name="uni04AD" unicode="&#x4ad;" horiz-adv-x="466" 
d="M18 470h430l5 -5v-67l-5 -5h-177v-316h75l5 -5v-207l-5 -5h-67l-5 5v135h-75l-5 5v388h-176l-5 5v67z" />
    <glyph glyph-name="uni04AE" unicode="&#x4ae;" horiz-adv-x="629" 
d="M21 700h85l10 -5l198 -257l200 257l9 5h85l5 -5l-260 -330v-360l-5 -5h-67l-5 5v360l-260 330z" />
    <glyph glyph-name="uni04AF" unicode="&#x4af;" horiz-adv-x="500" 
d="M21 470h74l5 -5l150 -363l150 363l5 5h74l5 -5l-195 -463v-227l-5 -5h-68l-5 5v227l-195 463z" />
    <glyph glyph-name="uni04B0" unicode="&#x4b0;" horiz-adv-x="629" 
d="M21 700h85l10 -5l198 -257l200 257l9 5h85l5 -5l-230 -291h123l5 -5v-68l-5 -5h-153v-321l-5 -5h-67l-5 5v321h-154l-5 5v68l5 5h123l-229 291z" />
    <glyph glyph-name="uni04B1" unicode="&#x4b1;" horiz-adv-x="500" 
d="M21 470h74l5 -5l150 -363l150 363l5 5h74l5 -5l-183 -431h118l5 -5v-68l-5 -5h-130v-181l-5 -5h-68l-5 5v181h-130l-5 5v68l5 5h118l-183 431z" />
    <glyph glyph-name="uni04B2" unicode="&#x4b2;" horiz-adv-x="717" 
d="M48 700h88l10 -5l205 -262l205 262l10 5h89l5 -5l-259 -327l286 -363v-180l-5 -5h-67l-5 5v175l-26 5l-233 298l-232 -298l-10 -5h-88l-5 5l286 363l-259 327z" />
    <glyph glyph-name="uni04B3" unicode="&#x4b3;" horiz-adv-x="483" 
d="M31 470h77l10 -5l116 -160l116 160l10 5h78l5 -5l-162 -221l172 -239v-140l-5 -5h-67l-5 5v135l-16 5l-126 174l-126 -174l-10 -5h-77l-5 5l172 239l-162 221z" />
    <glyph glyph-name="uni04B4" unicode="&#x4b4;" horiz-adv-x="889" 
d="M35 700h490l5 -5v-67l-5 -5h-216v-546h382v618l5 5h68l5 -5v-618h75l5 -5v-247l-5 -5h-68l-5 5v175h-535l-5 5v618h-196l-5 5v67z" />
    <glyph glyph-name="uni04B5" unicode="&#x4b5;" horiz-adv-x="680" 
d="M35 470h330l5 -5v-67l-5 -5h-136v-316h254v388l5 5h67l5 -5v-388h75l5 -5v-207l-5 -5h-67l-5 5v135h-407l-5 5v388h-116l-5 5v67z" />
    <glyph glyph-name="uni04B6" unicode="&#x4b6;" horiz-adv-x="703" 
d="M81 700h67l5 -5v-136c0 -150 66 -222 184 -222c73 0 135 29 169 74v284l5 5h67l5 -5v-618h75l5 -5v-247l-5 -5h-67l-5 5v175h-75l-5 5v309c-40 -35 -110 -58 -169 -58c-157 0 -261 100 -261 285v154z" />
    <glyph glyph-name="uni04B7" unicode="&#x4b7;" horiz-adv-x="603" 
d="M81 470h67l5 -5v-85c0 -91 47 -140 131 -140c50 0 97 20 122 49v176l5 5h67l5 -5v-388h75l5 -5v-207l-5 -5h-67l-5 5v135h-75l-5 5v198c-35 -22 -77 -37 -122 -37c-135 0 -208 77 -208 209v90z" />
    <glyph glyph-name="uni04B8" unicode="&#x4b8;" horiz-adv-x="691" 
d="M81 700h67l5 -5v-136c0 -136 54 -209 153 -220v135l5 5h67l5 -5v-132c53 9 95 33 123 69v284l5 5h67l5 -5v-690l-5 -5h-67l-5 5v309c-30 -26 -75 -46 -123 -53v-125l-5 -5h-67l-5 5v122c-140 12 -230 111 -230 283v154z" />
    <glyph glyph-name="uni04B9" unicode="&#x4b9;" horiz-adv-x="569" 
d="M81 470h67l5 -5v-85c0 -79 35 -125 98 -136v90l5 5h53l5 -5v-91c36 6 72 23 92 46v176l5 5h67l5 -5v-460l-5 -5h-67l-5 5v198c-27 -17 -61 -29 -92 -34v-93l-5 -5h-53l-5 5v92c-113 12 -175 86 -175 207v90z" />
    <glyph glyph-name="uni04BA" unicode="&#x4ba;" horiz-adv-x="669" 
d="M91 700h67l5 -5v-289c40 35 110 58 168 58c158 0 262 -100 262 -285v-174l-5 -5h-67l-5 5v156c0 150 -66 222 -185 222c-72 0 -135 -29 -168 -74v-304l-5 -5h-67l-5 5v690z" />
    <glyph glyph-name="uni04BB" unicode="&#x4bb;" horiz-adv-x="600" 
d="M91 700h67l5 -5v-264c38 32 90 54 143 54c148 0 218 -85 218 -226v-254l-5 -5h-67l-5 5v249c0 100 -44 158 -141 158c-57 0 -114 -28 -143 -69v-338l-5 -5h-67l-5 5v690z" />
    <glyph glyph-name="uni04BC" unicode="&#x4bc;" horiz-adv-x="980" 
d="M111 505l5 -5c-10 -20 -10 -33 -10 -43c0 -37 21 -62 101 -63c22 179 177 321 367 321c150 0 340 -102 340 -352c0 -5 0 -31 -5 -42l-10 -5h-603c17 -143 133 -250 278 -250c93 0 182 26 248 81l5 -5v-88c-65 -45 -143 -69 -253 -69c-194 0 -351 147 -368 331
c-123 1 -180 49 -180 134c0 10 0 35 10 55h75zM296 394h534c-3 155 -133 240 -256 240c-145 0 -258 -105 -278 -240z" />
    <glyph glyph-name="uni04BD" unicode="&#x4bd;" horiz-adv-x="676" 
d="M97 407l5 -5c-10 -20 -10 -33 -10 -43c0 -34 23 -68 97 -76c19 114 106 202 234 202c131 0 207 -114 207 -236c0 -5 0 -14 -5 -25l-10 -5h-350c9 -91 81 -161 178 -161c63 0 131 29 179 76l5 -5v-79c-41 -30 -111 -65 -184 -65c-137 0 -247 105 -257 234
c-111 6 -160 54 -160 133c0 10 0 35 10 55h61zM268 281h285c-5 74 -59 131 -130 131c-86 0 -143 -58 -155 -131z" />
    <glyph glyph-name="uni04BE" unicode="&#x4be;" horiz-adv-x="980" 
d="M111 505l5 -5c-10 -20 -10 -33 -10 -43c0 -37 21 -62 101 -63c22 179 177 321 367 321c150 0 340 -102 340 -352c0 -5 0 -31 -5 -42l-10 -5h-603c17 -143 133 -250 278 -250c93 0 182 26 248 81l5 -5v-88c-57 -39 -122 -62 -210 -67c-48 -45 -64 -83 -64 -117
c0 -31 26 -52 56 -52c10 0 25 0 45 20l5 -5v-58c-20 -15 -40 -20 -65 -20c-56 0 -108 44 -108 101c0 47 15 86 58 131c-180 13 -323 154 -338 329c-123 1 -180 49 -180 134c0 10 0 35 10 55h75zM296 394h534c-3 155 -133 240 -256 240c-145 0 -258 -105 -278 -240z" />
    <glyph glyph-name="uni04BF" unicode="&#x4bf;" horiz-adv-x="676" 
d="M97 407l5 -5c-10 -20 -10 -33 -10 -43c0 -35 23 -68 97 -76c19 114 106 202 234 202c131 0 207 -114 207 -236c0 -5 0 -14 -5 -25l-10 -5h-350c9 -91 81 -161 178 -161c63 0 131 29 179 76l5 -5v-79c-79 -61 -114 -114 -114 -169c0 -35 30 -63 66 -63c10 0 25 1 43 19
l5 -5v-58c-20 -15 -38 -19 -62 -19c-66 0 -119 50 -119 112c0 43 13 84 52 126c-18 -7 -38 -8 -55 -8c-147 0 -248 114 -257 234c-111 6 -160 54 -160 133c0 10 0 35 10 55h61zM268 281h285c-5 74 -59 131 -130 131c-86 0 -143 -58 -155 -131z" />
    <glyph glyph-name="uni04C0" unicode="&#x4c0;" horiz-adv-x="249" 
d="M91 700h67l5 -5v-690l-5 -5h-67l-5 5v690z" />
    <glyph glyph-name="uni04C1" unicode="&#x4c1;" horiz-adv-x="917" 
d="M425 700h67l5 -5v-271h85l206 271l10 5h81l5 -5l-236 -303l253 -387l-5 -5h-81l-10 5l-223 341h-85v-341l-5 -5h-67l-5 5v341h-85l-223 -341l-10 -5h-81l-5 5l253 387l-236 303l5 5h81l10 -5l206 -271h85v271zM294 875h63l5 -5c14 -49 54 -65 96 -65s82 16 96 65l5 5h64
l5 -5c-10 -95 -90 -135 -170 -135s-159 40 -169 135z" />
    <glyph glyph-name="uni04C2" unicode="&#x4c2;" horiz-adv-x="709" 
d="M321 470h67l5 -5v-176h69l120 176l10 5h79l5 -5l-152 -211l169 -249l-5 -5h-86l-10 5l-130 206h-69v-206l-5 -5h-67l-5 5v206h-69l-131 -206l-10 -5h-85l-5 5l168 249l-151 211l5 5h78l10 -5l121 -176h69v176zM198 670h64l5 -5c3 -51 38 -82 87 -82s84 31 87 82l5 5h64
l5 -5c-10 -108 -83 -152 -161 -152s-151 44 -161 152z" />
    <glyph glyph-name="uni04C3" unicode="&#x4c3;" horiz-adv-x="629" 
d="M91 700h67l5 -5v-271h64l247 271l10 5h81l5 -5l-259 -286c138 -33 255 -140 255 -325c0 -162 -77 -279 -210 -279c-42 0 -78 7 -103 24v83l5 5c31 -25 56 -35 98 -35c75 0 128 74 128 202c0 175 -139 262 -277 262h-44v-341l-5 -5h-67l-5 5v690z" />
    <glyph glyph-name="uni04C4" unicode="&#x4c4;" horiz-adv-x="529" 
d="M91 470h67l5 -5v-176h58l151 176l10 5h79l5 -5l-160 -189c95 -31 187 -117 187 -262c0 -187 -84 -279 -194 -279c-39 0 -65 6 -90 18v79l5 5c31 -20 46 -25 85 -25c52 0 113 49 113 202c0 131 -110 197 -211 197h-38v-206l-5 -5h-67l-5 5v460z" />
    <glyph glyph-name="uni04C5" unicode="&#x4c5;" horiz-adv-x="743" 
d="M231 700h407l5 -5v-618h82l5 -5l-40 -247l-5 -5h-60l-5 5l24 175h-73l-5 5v618h-270l-78 -493c-20 -88 -82 -145 -187 -145l-5 6v62l5 5c60 0 98 38 113 108l82 529z" />
    <glyph glyph-name="uni04C6" unicode="&#x4c6;" horiz-adv-x="569" 
d="M166 470h312l5 -5v-388h68l5 -5l-34 -207l-5 -5h-60l-5 5l18 135h-59l-5 5v388h-175l-38 -264c-19 -87 -62 -144 -162 -144l-5 7v61l5 5c45 0 73 35 88 106l42 301z" />
    <glyph glyph-name="uni04C7" unicode="&#x4c7;" horiz-adv-x="729" 
d="M91 700h67l5 -5v-271h403v271l5 5h67l5 -5v-706c0 -126 -45 -184 -134 -184c-10 0 -35 0 -55 10v68l5 5c20 -10 33 -10 43 -10c34 0 64 15 64 108v360h-403v-341l-5 -5h-67l-5 5v690z" />
    <glyph glyph-name="uni04C8" unicode="&#x4c8;" horiz-adv-x="569" 
d="M91 470h67l5 -5v-176h243v176l5 5h67l5 -5v-546c0 -126 -45 -184 -134 -184c-10 0 -35 0 -55 10v68l5 5c20 -10 33 -10 43 -10c34 0 64 15 64 108v295h-243v-206l-5 -5h-67l-5 5v460z" />
    <glyph glyph-name="uni04C9" unicode="&#x4c9;" horiz-adv-x="743" 
d="M91 700h67l5 -5v-271h403v271l5 5h67l5 -5v-618h82l5 -5l-40 -247l-5 -5h-60l-5 5l24 175h-73l-5 5v341h-403v-341l-5 -5h-67l-5 5v690z" />
    <glyph glyph-name="uni04CA" unicode="&#x4ca;" horiz-adv-x="569" 
d="M91 470h67l5 -5v-176h243v176l5 5h67l5 -5v-388h68l5 -5l-34 -207l-5 -5h-60l-5 5l18 135h-59l-5 5v206h-243v-206l-5 -5h-67l-5 5v460z" />
    <glyph glyph-name="uni04CB" unicode="&#x4cb;" horiz-adv-x="669" 
d="M81 700h67l5 -5v-136c0 -150 66 -222 184 -222c73 0 135 29 169 74v284l5 5h67l5 -5v-690l-5 -5h-75v-175l-5 -5h-67l-5 5v247l5 5h75v237c-40 -35 -110 -58 -169 -58c-157 0 -261 100 -261 285v154z" />
    <glyph glyph-name="uni04CC" unicode="&#x4cc;" horiz-adv-x="569" 
d="M81 470h67l5 -5v-85c0 -91 47 -140 131 -140c50 0 97 20 122 49v176l5 5h67l5 -5v-460l-5 -5h-75v-135l-5 -5h-67l-5 5v207l5 5h75v126c-35 -22 -77 -37 -122 -37c-135 0 -208 77 -208 209v90z" />
    <glyph glyph-name="uni04CD" unicode="&#x4cd;" horiz-adv-x="874" 
d="M102 700h64l10 -5l260 -321l260 321l10 5h63l5 -5v-618h82l5 -5l-40 -247l-5 -5h-60l-5 5l25 175h-74l-5 5v579l-256 -317h-10l-257 317v-579l-5 -5h-67l-5 5v690z" />
    <glyph glyph-name="uni04CE" unicode="&#x4ce;" horiz-adv-x="674" 
d="M91 470h63l10 -5l173 -217l173 217l10 5h64l5 -5v-388h67l5 -5l-34 -207l-5 -5h-60l-5 5l19 135h-60l-5 5v344l-169 -212h-10l-169 212v-344l-5 -5h-67l-5 5v460z" />
    <glyph glyph-name="uni04CF" unicode="&#x4cf;" horiz-adv-x="249" 
d="M91 700h67l5 -5v-690l-5 -5h-67l-5 5v690z" />
    <glyph glyph-name="uni04D0" unicode="&#x4d0;" horiz-adv-x="669" 
d="M299 700h70l5 -5l279 -690l-5 -5h-74l-5 5l-75 183h-320l-74 -183l-5 -5h-74l-5 5l278 690zM334 594l-129 -329h259zM170 875h63l5 -5c14 -49 54 -65 96 -65s82 16 96 65l5 5h64l5 -5c-10 -95 -90 -135 -170 -135s-159 40 -169 135z" />
    <glyph glyph-name="uni04D1" unicode="&#x4d1;" horiz-adv-x="499" 
d="M74 366l35 88c30 15 72 31 127 31c116 0 187 -65 187 -200v-280l-5 -5h-67l-5 5v25c-38 -28 -93 -45 -137 -45c-86 0 -163 41 -163 132c0 136 145 172 300 182c0 78 -44 113 -113 113c-55 0 -100 -17 -154 -51zM346 101v132c-128 -7 -219 -40 -219 -109
c0 -45 36 -66 89 -66c45 0 92 18 130 43zM92 670h64l5 -5c3 -51 38 -82 87 -82s84 31 87 82l5 5h64l5 -5c-10 -108 -83 -152 -161 -152s-151 44 -161 152z" />
    <glyph glyph-name="uni04D2" unicode="&#x4d2;" horiz-adv-x="669" 
d="M299 700h70l5 -5l279 -690l-5 -5h-74l-5 5l-75 183h-320l-74 -183l-5 -5h-74l-5 5l278 690zM334 594l-129 -329h259zM214 861h10l52 -51v-10l-52 -51h-10l-51 51v10zM444 861h10l52 -51v-10l-52 -51h-10l-51 51v10z" />
    <glyph glyph-name="uni04D3" unicode="&#x4d3;" horiz-adv-x="499" 
d="M74 366l35 88c30 15 72 31 127 31c116 0 187 -65 187 -200v-280l-5 -5h-67l-5 5v25c-38 -28 -93 -45 -137 -45c-86 0 -163 41 -163 132c0 136 145 172 300 182c0 78 -44 113 -113 113c-55 0 -100 -17 -154 -51zM346 101v132c-128 -7 -219 -40 -219 -109
c0 -45 36 -66 89 -66c45 0 92 18 130 43zM133 637h10l46 -46v-10l-46 -47h-10l-46 47v10zM353 637h10l46 -46v-10l-46 -47h-10l-46 47v10z" />
    <glyph glyph-name="uni04D4" unicode="&#x4d4;" horiz-adv-x="1029" 
d="M546 700h402l5 -5v-67l-5 -5h-325v-199h245l5 -5v-68l-5 -5h-245v-269h355l5 -5v-67l-5 -5h-427l-5 5v183h-293l-137 -183l-10 -5h-85l-5 5l520 690zM546 575l-235 -310h235v310z" />
    <glyph glyph-name="uni04D5" unicode="&#x4d5;" horiz-adv-x="831" 
d="M74 366l35 88c30 15 71 31 126 31c81 0 138 -31 163 -93c37 57 105 93 183 93c128 0 205 -114 205 -236c0 -5 0 -14 -5 -25l-10 -5h-345c10 -91 79 -161 174 -161c65 0 129 29 178 76l5 -5v-79c-41 -30 -108 -65 -183 -65c-74 0 -160 38 -205 114
c-42 -80 -118 -114 -189 -114c-83 0 -160 41 -160 139c0 130 170 161 301 168c0 87 -45 120 -116 120c-55 0 -98 -17 -152 -51zM347 183v43c-111 -4 -220 -33 -220 -102c0 -45 36 -66 79 -66c75 0 141 55 141 125zM429 281h280c-5 74 -60 131 -128 131
c-82 0 -139 -58 -152 -131z" />
    <glyph glyph-name="uni04D6" unicode="&#x4d6;" horiz-adv-x="563" 
d="M91 700h397l5 -5v-67l-5 -5h-325v-199h245l5 -5v-68l-5 -5h-245v-269h355l5 -5v-67l-5 -5h-427l-5 5v690zM137 875h63l5 -5c14 -49 54 -65 96 -65s82 16 96 65l5 5h64l5 -5c-10 -95 -90 -135 -170 -135s-159 40 -169 135z" />
    <glyph glyph-name="uni04D7" unicode="&#x4d7;" horiz-adv-x="543" 
d="M494 129v-79c-40 -30 -110 -65 -184 -65c-148 0 -257 115 -257 254c0 136 93 246 237 246c131 0 207 -114 207 -236c0 -5 0 -14 -5 -25l-10 -5h-350c9 -91 77 -161 178 -161c64 0 131 29 179 76zM135 281h285c-5 74 -59 131 -130 131c-86 0 -142 -58 -155 -131zM127 670
h64l5 -5c3 -51 38 -82 87 -82s84 31 87 82l5 5h64l5 -5c-10 -108 -83 -152 -161 -152s-151 44 -161 152z" />
    <glyph glyph-name="uni04D8" unicode="&#x4d8;" horiz-adv-x="831" 
d="M153 558v88c65 45 143 69 253 69c205 0 370 -165 370 -365s-165 -365 -370 -365c-150 0 -340 102 -340 352c0 5 0 31 5 42l10 5h603c-17 143 -133 250 -278 250c-93 0 -182 -26 -248 -81zM684 306h-534c3 -155 133 -240 256 -240c145 0 258 105 278 240z" />
    <glyph glyph-name="uni04D9" unicode="&#x4d9;" horiz-adv-x="536" 
d="M74 366l35 88c30 15 69 31 134 31c146 0 247 -105 247 -255c0 -135 -92 -245 -224 -245c-134 0 -220 100 -220 242c0 5 0 25 5 36l10 5h347c-12 81 -69 144 -165 144c-64 0 -109 -15 -164 -51zM410 205h-287c4 -96 62 -147 143 -147c73 0 135 51 144 147z" />
    <glyph glyph-name="uni04DA" unicode="&#x4da;" horiz-adv-x="831" 
d="M153 558v88c65 45 143 69 253 69c205 0 370 -165 370 -365s-165 -365 -370 -365c-150 0 -340 102 -340 352c0 5 0 31 5 42l10 5h603c-17 143 -133 250 -278 250c-93 0 -182 -26 -248 -81zM684 306h-534c3 -155 133 -240 256 -240c145 0 258 105 278 240zM285 861h10
l52 -51v-10l-52 -51h-10l-51 51v10zM515 861h10l52 -51v-10l-52 -51h-10l-51 51v10z" />
    <glyph glyph-name="uni04DB" unicode="&#x4db;" horiz-adv-x="536" 
d="M74 366l35 88c30 15 69 31 134 31c146 0 247 -105 247 -255c0 -135 -92 -245 -224 -245c-134 0 -220 100 -220 242c0 5 0 25 5 36l10 5h347c-12 81 -69 144 -165 144c-64 0 -109 -15 -164 -51zM410 205h-287c4 -96 62 -147 143 -147c73 0 135 51 144 147zM138 637h10
l46 -46v-10l-46 -47h-10l-46 47v10zM358 637h10l46 -46v-10l-46 -47h-10l-46 47v10z" />
    <glyph glyph-name="uni04DC" unicode="&#x4dc;" horiz-adv-x="917" 
d="M425 700h67l5 -5v-271h85l206 271l10 5h81l5 -5l-236 -303l253 -387l-5 -5h-81l-10 5l-223 341h-85v-341l-5 -5h-67l-5 5v341h-85l-223 -341l-10 -5h-81l-5 5l253 387l-236 303l5 5h81l10 -5l206 -271h85v271zM338 861h10l52 -51v-10l-52 -51h-10l-51 51v10zM568 861h10
l52 -51v-10l-52 -51h-10l-51 51v10z" />
    <glyph glyph-name="uni04DD" unicode="&#x4dd;" horiz-adv-x="709" 
d="M321 470h67l5 -5v-176h69l120 176l10 5h79l5 -5l-152 -211l169 -249l-5 -5h-86l-10 5l-130 206h-69v-206l-5 -5h-67l-5 5v206h-69l-131 -206l-10 -5h-85l-5 5l168 249l-151 211l5 5h78l10 -5l121 -176h69v176zM239 637h10l46 -46v-10l-46 -47h-10l-46 47v10zM459 637h10
l46 -46v-10l-46 -47h-10l-46 47v10z" />
    <glyph glyph-name="uni04DE" unicode="&#x4de;" horiz-adv-x="549" 
d="M101 571l-45 49c40 55 110 95 190 95c138 0 224 -86 224 -195c0 -63 -38 -116 -79 -141c70 -24 119 -89 119 -174c0 -120 -101 -220 -254 -220c-80 0 -180 35 -230 105l42 60h10c41 -53 115 -84 178 -84c107 0 166 65 166 139c0 68 -47 119 -128 119h-118l-5 5v67l5 5
h108c48 0 98 46 98 112c0 67 -55 121 -136 121c-52 0 -103 -25 -135 -63h-10zM135 861h10l52 -51v-10l-52 -51h-10l-51 51v10zM365 861h10l52 -51v-10l-52 -51h-10l-51 51v10z" />
    <glyph glyph-name="uni04DF" unicode="&#x4df;" horiz-adv-x="473" 
d="M72 366v80c48 28 94 39 150 39c129 0 191 -65 191 -141c0 -44 -28 -75 -62 -95c48 -19 82 -59 82 -119c0 -80 -71 -145 -211 -145c-63 0 -130 15 -170 45v79l5 5c50 -42 112 -56 165 -56c92 0 134 34 134 83c0 39 -32 68 -85 68h-104l-5 5v52l5 5h93c36 0 76 23 76 66
c0 41 -36 75 -114 75c-46 0 -94 -10 -145 -51zM108 637h10l46 -46v-10l-46 -47h-10l-46 47v10zM328 637h10l46 -46v-10l-46 -47h-10l-46 47v10z" />
    <glyph glyph-name="uni04E0" unicode="&#x4e0;" horiz-adv-x="511" 
d="M36 700h400l5 -5l-156 -274c109 -17 178 -98 178 -204c0 -128 -104 -232 -232 -232c-75 0 -150 35 -205 110l45 53h10c43 -51 88 -86 150 -86c85 0 151 69 151 155c0 80 -70 141 -166 141c-22 0 -39 -4 -64 -14l-5 5l163 274h-274l-5 5v67z" />
    <glyph glyph-name="uni04E1" unicode="&#x4e1;" horiz-adv-x="486" 
d="M41 470h368l5 -5l-166 -257c119 -14 202 -94 202 -224c0 -138 -107 -249 -244 -249c-70 0 -129 24 -180 74l40 54h10c41 -41 90 -55 130 -55c90 0 163 76 163 176c0 96 -82 165 -181 165c-25 0 -45 -5 -70 -15l-5 5l170 254h-242l-5 5v67z" />
    <glyph glyph-name="uni04E2" unicode="&#x4e2;" horiz-adv-x="769" 
d="M91 700h67l5 -5v-572l433 572l10 5h72l5 -5v-690l-5 -5h-67l-5 5v572l-434 -572l-10 -5h-71l-5 5v690zM219 844h330l5 -5v-68l-5 -5h-330l-5 5v68z" />
    <glyph glyph-name="uni04E3" unicode="&#x4e3;" horiz-adv-x="600" 
d="M91 470h67l5 -5v-346l265 346l10 5h70l6 -5v-460l-6 -5h-67l-4 5v346l-266 -346l-10 -5h-70l-5 5v460zM145 624h310l5 -5v-67l-5 -5h-310l-5 5v67z" />
    <glyph glyph-name="uni04E4" unicode="&#x4e4;" horiz-adv-x="769" 
d="M91 700h67l5 -5v-572l433 572l10 5h72l5 -5v-690l-5 -5h-67l-5 5v572l-434 -572l-10 -5h-71l-5 5v690zM264 861h10l52 -51v-10l-52 -51h-10l-51 51v10zM494 861h10l52 -51v-10l-52 -51h-10l-51 51v10z" />
    <glyph glyph-name="uni04E5" unicode="&#x4e5;" horiz-adv-x="600" 
d="M91 470h67l5 -5v-346l265 346l10 5h70l6 -5v-460l-6 -5h-67l-4 5v346l-266 -346l-10 -5h-70l-5 5v460zM185 637h10l46 -46v-10l-46 -47h-10l-46 47v10zM405 637h10l46 -46v-10l-46 -47h-10l-46 47v10z" />
    <glyph glyph-name="uni04E6" unicode="&#x4e6;" horiz-adv-x="851" 
d="M426 715c204 0 370 -164 370 -365s-166 -365 -370 -365s-370 164 -370 365s166 365 370 365zM426 634c-155 0 -282 -127 -282 -284s127 -284 282 -284s281 127 281 284s-126 284 -281 284zM305 861h10l52 -51v-10l-52 -51h-10l-51 51v10zM535 861h10l52 -51v-10l-52 -51
h-10l-51 51v10z" />
    <glyph glyph-name="uni04E7" unicode="&#x4e7;" horiz-adv-x="600" 
d="M300 485c139 0 247 -110 247 -250s-108 -250 -247 -250s-247 110 -247 250s108 250 247 250zM300 412c-95 0 -166 -76 -166 -177s71 -177 166 -177s166 76 166 177s-71 177 -166 177zM185 637h10l46 -46v-10l-46 -47h-10l-46 47v10zM405 637h10l46 -46v-10l-46 -47h-10
l-46 47v10z" />
    <glyph glyph-name="uni04E8" unicode="&#x4e8;" horiz-adv-x="851" 
d="M426 715c204 0 370 -164 370 -365s-166 -365 -370 -365s-370 164 -370 365s166 365 370 365zM148 404h556c-25 130 -137 230 -278 230c-142 0 -253 -100 -278 -230zM707 326h-563c15 -153 139 -260 282 -260s266 107 281 260z" />
    <glyph glyph-name="uni04E9" unicode="&#x4e9;" horiz-adv-x="600" 
d="M300 485c139 0 247 -110 247 -250s-108 -250 -247 -250s-247 110 -247 250s108 250 247 250zM137 266h325c-12 85 -78 146 -162 146c-85 0 -151 -61 -163 -146zM462 204h-325c12 -85 78 -146 163 -146c84 0 150 61 162 146z" />
    <glyph glyph-name="uni04EA" unicode="&#x4ea;" horiz-adv-x="851" 
d="M305 861h10l52 -51v-10l-52 -51h-10l-51 51v10zM535 861h10l52 -51v-10l-52 -51h-10l-51 51v10zM426 715c204 0 370 -164 370 -365s-166 -365 -370 -365s-370 164 -370 365s166 365 370 365zM148 404h556c-25 130 -137 230 -278 230c-142 0 -253 -100 -278 -230zM707 326
h-563c15 -153 139 -260 282 -260s266 107 281 260z" />
    <glyph glyph-name="uni04EB" unicode="&#x4eb;" horiz-adv-x="600" 
d="M300 485c139 0 247 -110 247 -250s-108 -250 -247 -250s-247 110 -247 250s108 250 247 250zM137 266h325c-12 85 -78 146 -162 146c-85 0 -151 -61 -163 -146zM462 204h-325c12 -85 78 -146 163 -146c84 0 150 61 162 146zM185 637h10l46 -46v-10l-46 -47h-10l-46 47v10
zM405 637h10l46 -46v-10l-46 -47h-10l-46 47v10z" />
    <glyph glyph-name="uni04EC" unicode="&#x4ec;" horiz-adv-x="731" 
d="M66 552v88c65 47 145 75 240 75c205 0 370 -165 370 -365s-165 -365 -370 -365c-95 0 -175 28 -240 75v88l5 5c66 -55 150 -87 235 -87c147 0 267 112 281 260h-361l-5 5v68l5 5h358c-22 130 -140 230 -278 230c-85 0 -169 -32 -235 -87zM191 867h10l46 -46v-10l-46 -47
h-10l-46 47v10zM411 867h10l46 -46v-10l-46 -47h-10l-46 47v10z" />
    <glyph glyph-name="uni04ED" unicode="&#x4ed;" horiz-adv-x="511" 
d="M49 356v79c40 30 95 50 160 50c153 0 257 -112 257 -250s-104 -250 -257 -250c-65 0 -120 20 -160 50v79l5 5c51 -43 100 -61 155 -61c97 0 160 60 172 146h-235l-5 5v52l5 5h235c-12 86 -75 146 -172 146c-55 0 -104 -18 -155 -61zM94 637h10l46 -46v-10l-46 -47h-10
l-46 47v10zM314 637h10l46 -46v-10l-46 -47h-10l-46 47v10z" />
    <glyph glyph-name="uni04EE" unicode="&#x4ee;" horiz-adv-x="623" 
d="M21 700h77l9 -5l204 -432l205 432l8 5h78l5 -5l-293 -589c-38 -69 -97 -121 -223 -121l-5 7v61l5 5c82 0 130 31 157 81l21 42l-253 514zM146 844h330l5 -5v-68l-5 -5h-330l-5 5v68z" />
    <glyph glyph-name="uni04EF" unicode="&#x4ef;" horiz-adv-x="536" 
d="M21 470h77l10 -5l161 -328l158 328l10 5h78l5 -5l-294 -581c-40 -72 -85 -124 -191 -124l-5 7v58l5 5c59 0 96 33 125 89l66 136l-210 410zM114 624h310l5 -5v-67l-5 -5h-310l-5 5v67z" />
    <glyph glyph-name="uni04F0" unicode="&#x4f0;" horiz-adv-x="623" 
d="M21 700h77l9 -5l204 -432l205 432l8 5h78l5 -5l-293 -589c-38 -69 -97 -121 -223 -121l-5 7v61l5 5c82 0 130 31 157 81l21 42l-253 514zM191 861h10l52 -51v-10l-52 -51h-10l-51 51v10zM421 861h10l52 -51v-10l-52 -51h-10l-51 51v10z" />
    <glyph glyph-name="uni04F1" unicode="&#x4f1;" horiz-adv-x="536" 
d="M21 470h77l10 -5l161 -328l158 328l10 5h78l5 -5l-294 -581c-40 -72 -85 -124 -191 -124l-5 7v58l5 5c59 0 96 33 125 89l66 136l-210 410zM154 637h10l46 -46v-10l-46 -47h-10l-46 47v10zM374 637h10l46 -46v-10l-46 -47h-10l-46 47v10z" />
    <glyph glyph-name="uni04F2" unicode="&#x4f2;" horiz-adv-x="623" 
d="M21 700h77l9 -5l204 -432l205 432l8 5h78l5 -5l-293 -589c-38 -69 -97 -121 -223 -121l-5 7v61l5 5c82 0 130 31 157 81l21 42l-253 514zM261 875h79l5 -5l-100 -125l-10 -5h-64l-5 5l85 125zM471 875h79l5 -5l-100 -125l-10 -5h-64l-5 5l85 125z" />
    <glyph glyph-name="uni04F3" unicode="&#x4f3;" horiz-adv-x="536" 
d="M21 470h77l10 -5l161 -328l158 328l10 5h78l5 -5l-294 -581c-40 -72 -85 -124 -191 -124l-5 7v58l5 5c59 0 96 33 125 89l66 136l-210 410zM225 670h73l5 -5l-106 -145l-10 -5h-57l-5 5l90 145zM415 670h73l5 -5l-106 -145l-10 -5h-57l-5 5l90 145z" />
    <glyph glyph-name="uni04F4" unicode="&#x4f4;" horiz-adv-x="669" 
d="M81 700h67l5 -5v-136c0 -150 66 -222 184 -222c73 0 135 29 169 74v284l5 5h67l5 -5v-690l-5 -5h-67l-5 5v309c-40 -35 -110 -58 -169 -58c-157 0 -261 100 -261 285v154zM215 861h10l52 -51v-10l-52 -51h-10l-51 51v10zM445 861h10l52 -51v-10l-52 -51h-10l-51 51v10z
" />
    <glyph glyph-name="uni04F5" unicode="&#x4f5;" horiz-adv-x="569" 
d="M75 470h67l5 -5v-85c0 -91 47 -140 131 -140c50 0 97 20 122 49v176l5 5h67l5 -5v-460l-5 -5h-67l-5 5v198c-35 -22 -77 -37 -122 -37c-135 0 -208 77 -208 209v90zM165 637h10l46 -46v-10l-46 -47h-10l-46 47v10zM385 637h10l46 -46v-10l-46 -47h-10l-46 47v10z" />
    <glyph glyph-name="uni04F6" unicode="&#x4f6;" horiz-adv-x="523" 
d="M91 700h397l5 -5v-67l-5 -5h-325v-546h75l5 -5v-247l-5 -5h-67l-5 5v175h-75l-5 5v690z" />
    <glyph glyph-name="uni04F7" unicode="&#x4f7;" horiz-adv-x="426" 
d="M91 470h310l5 -5v-67l-5 -5h-238v-316h75l5 -5v-207l-5 -5h-67l-5 5v135h-75l-5 5v460z" />
    <glyph glyph-name="uni04F8" unicode="&#x4f8;" horiz-adv-x="789" 
d="M631 700h67l5 -5v-690l-5 -5h-67l-5 5v690zM91 700h67l5 -5v-271h122c143 0 235 -93 235 -213s-92 -211 -235 -211h-194l-5 5v690zM163 346v-269h122c92 0 147 57 147 134c0 81 -55 135 -147 135h-122zM274 861h10l52 -51v-10l-52 -51h-10l-51 51v10zM504 861h10l52 -51
v-10l-52 -51h-10l-51 51v10z" />
    <glyph glyph-name="uni04F9" unicode="&#x4f9;" horiz-adv-x="691" 
d="M91 470h67l5 -5v-156h110c96 0 170 -52 170 -155s-74 -154 -170 -154h-182l-5 5v460zM163 231v-154h110c57 0 89 29 89 77c0 49 -32 77 -89 77h-110zM534 470h67l5 -5v-460l-5 -5h-67l-5 5v460zM231 637h10l46 -46v-10l-46 -47h-10l-46 47v10zM451 637h10l46 -46v-10
l-46 -47h-10l-46 47v10z" />
    <glyph glyph-name="uni04FA" unicode="&#x4fa;" horiz-adv-x="523" 
d="M91 700h397l5 -5v-67l-5 -5h-325v-199h205l5 -5v-68l-5 -5h-205v-269h75l5 -5v-83c0 -126 -45 -184 -134 -184c-10 0 -35 0 -55 10v68l5 5c20 -10 33 -10 43 -10c34 0 64 15 64 108v14h-75l-5 5v341h-75l-5 5v68l5 5h75v271z" />
    <glyph glyph-name="uni04FB" unicode="&#x4fb;" horiz-adv-x="426" 
d="M91 470h310l5 -5v-67l-5 -5h-238v-134h129l5 -5v-67l-5 -5h-129v-105h75l5 -5v-153c0 -126 -45 -184 -134 -184c-10 0 -35 0 -55 10v68l5 5c20 -10 33 -10 43 -10c34 0 64 15 64 108v84h-75l-5 5v177h-75l-5 5v67l5 5h75v206z" />
    <glyph glyph-name="uni04FC" unicode="&#x4fc;" horiz-adv-x="703" 
d="M48 700h88l10 -5l205 -262l205 262l10 5h89l5 -5l-252 -320c104 -111 246 -244 246 -381c0 -107 -63 -189 -175 -189c-42 0 -75 7 -100 24v83l5 5c31 -25 53 -35 95 -35c61 0 94 48 94 112c0 101 -142 232 -214 316l-240 -305l-10 -5h-88l-5 5l286 363l-259 327z" />
    <glyph glyph-name="uni04FD" unicode="&#x4fd;" horiz-adv-x="469" 
d="M31 470h77l10 -5l116 -159l116 159l10 5h78l5 -5l-155 -214c103 -117 175 -210 175 -347c0 -94 -70 -169 -156 -169c-41 0 -75 7 -100 24v83l5 5c32 -25 54 -35 95 -35c42 0 75 42 75 92c0 101 -68 199 -141 282l-133 -181l-10 -5h-77l-5 5l176 236l-166 224z" />
    <glyph glyph-name="uni04FE" unicode="&#x4fe;" horiz-adv-x="703" 
d="M48 700h88l10 -5l205 -265l205 265l10 5h89l5 -5l-228 -291h157l5 -5v-68l-5 -5h-157l255 -321l-5 -5h-88l-10 5l-233 295l-232 -295l-10 -5h-88l-5 5l255 321h-157l-5 5v68l5 5h157l-228 291z" />
    <glyph glyph-name="uni04FF" unicode="&#x4ff;" horiz-adv-x="469" 
d="M31 470h77l10 -5l116 -159l116 159l10 5h78l5 -5l-135 -181h110l5 -5v-68l-5 -5h-110l145 -201l-5 -5h-78l-10 5l-126 175l-126 -175l-10 -5h-77l-5 5l145 201h-110l-5 5v68l5 5h110l-135 181z" />
    <glyph glyph-name="uni2000" unicode="&#x2000;" horiz-adv-x="500" 
 />
    <glyph glyph-name="uni2001" unicode="&#x2001;" horiz-adv-x="1000" 
 />
    <glyph glyph-name="uni2002" unicode="&#x2002;" horiz-adv-x="500" 
 />
    <glyph glyph-name="uni2003" unicode="&#x2003;" horiz-adv-x="1000" 
 />
    <glyph glyph-name="uni2004" unicode="&#x2004;" horiz-adv-x="333" 
 />
    <glyph glyph-name="uni2005" unicode="&#x2005;" horiz-adv-x="250" 
 />
    <glyph glyph-name="uni2006" unicode="&#x2006;" horiz-adv-x="167" 
 />
    <glyph glyph-name="uni2007" unicode="&#x2007;" horiz-adv-x="565" 
 />
    <glyph glyph-name="uni2008" unicode="&#x2008;" horiz-adv-x="283" 
 />
    <glyph glyph-name="uni2009" unicode="&#x2009;" horiz-adv-x="200" 
 />
    <glyph glyph-name="uni200A" unicode="&#x200a;" horiz-adv-x="100" 
 />
    <glyph glyph-name="uni200B" unicode="&#x200b;" 
 />
    <glyph glyph-name="uni200C" unicode="&#x200c;" 
 />
    <glyph glyph-name="uni200D" unicode="&#x200d;" 
 />
    <glyph glyph-name="uni200E" unicode="&#x200e;" horiz-adv-x="420" 
d="M91 580h186v74h10l107 -108v-10l-107 -107h-10v74h-114v-498l-5 -5h-67l-5 5v570z" />
    <glyph glyph-name="uni200F" unicode="&#x200f;" horiz-adv-x="420" 
d="M133 654h10v-74h186l5 -5v-570l-5 -5h-67l-5 5v498h-114v-74h-10l-107 107v10z" />
    <glyph glyph-name="uni2010" unicode="&#x2010;" horiz-adv-x="411" 
d="M51 274h310l5 -5v-68l-5 -5h-310l-5 5v68z" />
    <glyph glyph-name="uni2011" unicode="&#x2011;" horiz-adv-x="411" 
d="M51 274h310l5 -5v-68l-5 -5h-310l-5 5v68z" />
    <glyph glyph-name="figuredash" unicode="&#x2012;" horiz-adv-x="531" 
d="M45 274h441l5 -5v-68l-5 -5h-441l-5 5v68z" />
    <glyph glyph-name="endash" unicode="&#x2013;" horiz-adv-x="500" 
d="M45 274h410l5 -5v-68l-5 -5h-410l-5 5v68z" />
    <glyph glyph-name="emdash" unicode="&#x2014;" horiz-adv-x="1000" 
d="M45 274h910l5 -5v-68l-5 -5h-910l-5 5v68z" />
    <glyph glyph-name="uni2015" unicode="&#x2015;" horiz-adv-x="1000" 
d="M45 274h910l5 -5v-68l-5 -5h-910l-5 5v68z" />
    <glyph glyph-name="uni2016" unicode="&#x2016;" horiz-adv-x="457" 
d="M91 700h67l5 -5v-690l-5 -5h-67l-5 5v690zM300 700h67l5 -5v-690l-5 -5h-67l-5 5v690z" />
    <glyph glyph-name="underscoredbl" unicode="&#x2017;" horiz-adv-x="500" 
d="M45 -250h410l5 -5v-68l-5 -5h-410l-5 5v68zM45 -61h410l5 -5v-68l-5 -5h-410l-5 5v68z" />
    <glyph glyph-name="quoteleft" unicode="&#x2018;" horiz-adv-x="260" 
d="M158 471h-67l-5 5v84c0 95 56 140 138 140v-5c-45 -21 -61 -52 -61 -130v-89z" />
    <glyph glyph-name="quoteright" unicode="&#x2019;" horiz-adv-x="260" 
d="M102 700h67l5 -5v-84c0 -95 -56 -140 -138 -140v5c45 21 61 53 61 130v89z" />
    <glyph glyph-name="quotesinglbase" unicode="&#x201a;" horiz-adv-x="260" 
d="M108 89h67l5 -5v-84c0 -95 -56 -140 -138 -140v5c45 21 61 53 61 130v89z" />
    <glyph glyph-name="quotereversed" unicode="&#x201b;" horiz-adv-x="260" 
d="M91 700h67l5 -5v-89c0 -77 16 -109 61 -130v-5c-82 0 -138 45 -138 140v84z" />
    <glyph glyph-name="quotedblleft" unicode="&#x201c;" horiz-adv-x="429" 
d="M158 471h-67l-5 5v84c0 95 56 140 138 140v-5c-45 -21 -61 -52 -61 -130v-89zM326 501h-67l-5 5v54c0 95 57 140 138 140v-5c-45 -21 -61 -52 -61 -130v-59z" />
    <glyph glyph-name="quotedblright" unicode="&#x201d;" horiz-adv-x="429" 
d="M102 700h67l5 -5v-84c0 -95 -56 -140 -138 -140v5c45 21 61 53 61 130v89zM271 700h67l5 -5v-54c0 -95 -57 -140 -138 -140v5c45 21 61 53 61 130v59z" />
    <glyph glyph-name="quotedblbase" unicode="&#x201e;" horiz-adv-x="429" 
d="M108 89h67l5 -5v-84c0 -95 -56 -140 -138 -140v5c45 21 61 53 61 130v89zM277 89h67l5 -5v-54c0 -95 -57 -140 -138 -140v5c45 21 61 53 61 130v59z" />
    <glyph glyph-name="uni201F" unicode="&#x201f;" horiz-adv-x="429" 
d="M91 700h67l5 -5v-59c0 -77 16 -109 61 -130v-5c-82 0 -138 45 -138 140v54zM259 700h67l5 -5v-89c0 -77 16 -109 61 -130v-5c-81 0 -138 45 -138 140v84z" />
    <glyph glyph-name="dagger" unicode="&#x2020;" horiz-adv-x="451" 
d="M196 700h60l5 -5l-15 -158l155 14l5 -5v-56l-5 -5l-155 14l15 -144v-10l-22 -275l-5 -6h-17l-5 6l-21 275v10l14 144l-154 -14l-5 5v56l5 5l154 -14l-14 158z" />
    <glyph glyph-name="daggerdbl" unicode="&#x2021;" horiz-adv-x="451" 
d="M196 700h60l5 -5l-15 -158l155 14l5 -5v-56l-5 -5l-155 14l15 -144v-10l-15 -144l155 14l5 -5v-56l-5 -5l-155 14l15 -158l-5 -5h-60l-5 5l14 158l-154 -14l-5 5v56l5 5l154 -14l-14 144v10l14 144l-154 -14l-5 5v56l5 5l154 -14l-14 158z" />
    <glyph glyph-name="bullet" unicode="&#x2022;" horiz-adv-x="500" 
d="M245 400h10l160 -160v-10l-160 -160h-10l-160 160v10z" />
    <glyph glyph-name="uni2023" unicode="&#x2023;" horiz-adv-x="511" 
d="M151 395l10 5l280 -160v-10l-280 -160l-10 5v320z" />
    <glyph glyph-name="onedotenleader" unicode="&#x2024;" horiz-adv-x="500" 
d="M213 83h73l5 -5v-73l-5 -5h-73l-5 5v73z" />
    <glyph glyph-name="twodotenleader" unicode="&#x2025;" horiz-adv-x="511" 
d="M99 83h73l5 -5v-73l-5 -5h-73l-5 5v73zM349 83h73l5 -5v-73l-5 -5h-73l-5 5v73z" />
    <glyph glyph-name="ellipsis" unicode="&#x2026;" horiz-adv-x="1000" 
d="M99 83h73l5 -5v-73l-5 -5h-73l-5 5v73zM432 83h73l5 -5v-73l-5 -5h-73l-5 5v73zM765 83h73l5 -5v-73l-5 -5h-73l-5 5v73z" />
    <glyph glyph-name="uni2027" unicode="&#x2027;" horiz-adv-x="271" 
d="M99 268h73l5 -5v-73l-5 -5h-73l-5 5v73z" />
    <glyph glyph-name="perthousand" unicode="&#x2030;" horiz-adv-x="1191" 
d="M211 705c90 0 165 -70 165 -160s-75 -160 -165 -160s-165 70 -165 160s75 160 165 160zM211 635c-48 0 -88 -39 -88 -90s40 -90 88 -90s87 39 87 90s-39 90 -87 90zM599 700h78l5 -5l-460 -690l-10 -5h-78l-5 5l460 690zM601 315c90 0 165 -70 165 -160
s-75 -160 -165 -160s-165 70 -165 160s75 160 165 160zM601 245c-48 0 -88 -39 -88 -90s40 -90 88 -90s87 39 87 90s-39 90 -87 90zM981 315c90 0 165 -70 165 -160s-75 -160 -165 -160s-165 70 -165 160s75 160 165 160zM981 245c-48 0 -88 -39 -88 -90s40 -90 88 -90
s87 39 87 90s-39 90 -87 90z" />
    <glyph glyph-name="uni2031" unicode="&#x2031;" horiz-adv-x="1571" 
d="M211 705c90 0 165 -70 165 -160s-75 -160 -165 -160s-165 70 -165 160s75 160 165 160zM211 635c-48 0 -88 -39 -88 -90s40 -90 88 -90s87 39 87 90s-39 90 -87 90zM599 700h78l5 -5l-460 -690l-10 -5h-78l-5 5l460 690zM601 315c90 0 165 -70 165 -160
s-75 -160 -165 -160s-165 70 -165 160s75 160 165 160zM601 245c-48 0 -88 -39 -88 -90s40 -90 88 -90s87 39 87 90s-39 90 -87 90zM981 315c90 0 165 -70 165 -160s-75 -160 -165 -160s-165 70 -165 160s75 160 165 160zM981 245c-48 0 -88 -39 -88 -90s40 -90 88 -90
s87 39 87 90s-39 90 -87 90zM1361 315c90 0 165 -70 165 -160s-75 -160 -165 -160s-165 70 -165 160s75 160 165 160zM1361 245c-48 0 -88 -39 -88 -90s40 -90 88 -90s87 39 87 90s-39 90 -87 90z" />
    <glyph glyph-name="uni2032" unicode="&#x2032;" horiz-adv-x="271" 
d="M124 700h75l5 -5l-57 -230l-5 -5h-46l-5 5l28 230z" />
    <glyph glyph-name="uni2033" unicode="&#x2033;" horiz-adv-x="451" 
d="M130 700h75l5 -5l-57 -230l-5 -5h-46l-5 5l28 230zM310 700h75l5 -5l-57 -230l-5 -5h-46l-5 5l28 230z" />
    <glyph glyph-name="uni2034" unicode="&#x2034;" horiz-adv-x="631" 
d="M130 700h75l5 -5l-57 -230l-5 -5h-46l-5 5l28 230zM490 700h75l5 -5l-57 -230l-5 -5h-46l-5 5l28 230zM310 700h75l5 -5l-57 -230l-5 -5h-46l-5 5l28 230z" />
    <glyph glyph-name="uni2035" unicode="&#x2035;" horiz-adv-x="271" 
d="M72 700h76l5 -5l27 -230l-5 -5h-46l-5 5l-57 230z" />
    <glyph glyph-name="uni2036" unicode="&#x2036;" horiz-adv-x="451" 
d="M78 700h76l5 -5l27 -230l-5 -5h-46l-5 5l-57 230zM258 700h76l5 -5l27 -230l-5 -5h-46l-5 5l-57 230z" />
    <glyph glyph-name="uni2037" unicode="&#x2037;" horiz-adv-x="631" 
d="M78 700h76l5 -5l27 -230l-5 -5h-46l-5 5l-57 230zM438 700h76l5 -5l27 -230l-5 -5h-46l-5 5l-57 230zM258 700h76l5 -5l27 -230l-5 -5h-46l-5 5l-57 230z" />
    <glyph glyph-name="guilsinglleft" unicode="&#x2039;" horiz-adv-x="271" 
d="M221 435l5 -5v-93l-105 -102l105 -102v-93l-5 -5l-195 195v10z" />
    <glyph glyph-name="guilsinglright" unicode="&#x203a;" horiz-adv-x="271" 
d="M46 430l5 5l195 -195v-10l-195 -195l-5 5v93l105 102l-105 102v93z" />
    <glyph glyph-name="uni203B" unicode="&#x203b;" horiz-adv-x="711" 
d="M16 700h79l10 -5l251 -290l251 290l10 5h78l5 -5l-298 -345l298 -345l-5 -5h-78l-10 5l-251 289l-251 -289l-10 -5h-79l-5 5l298 345l-298 345zM86 406h10l51 -51v-10l-51 -51h-10l-52 51v10zM616 406h10l51 -51v-10l-51 -51h-10l-52 51v10zM299 66v10l52 51h10l51 -51
v-10l-51 -52h-10zM299 624v10l52 52h10l51 -52v-10l-51 -51h-10z" />
    <glyph glyph-name="exclamdbl" unicode="&#x203c;" horiz-adv-x="451" 
d="M102 700h67l5 -5v-115l-14 -405l-5 -5h-39l-5 5l-14 405v115zM131 92h10l48 -48v-10l-48 -49h-10l-49 49v10zM282 700h67l5 -5v-115l-14 -405l-5 -5h-39l-5 5l-14 405v115zM311 92h10l48 -48v-10l-48 -49h-10l-49 49v10z" />
    <glyph glyph-name="uni203D" unicode="&#x203d;" horiz-adv-x="580" 
d="M18 672l60 23l9 -4l46 -127l83 -251c44 89 231 81 231 209c0 66 -44 116 -106 116c-39 0 -70 -20 -101 -48l-5 1l-39 61c40 40 90 63 145 63c107 0 188 -85 188 -193c0 -198 -271 -176 -271 -288c0 -16 3 -29 13 -48l-51 -27l-9 4l-155 378l-43 122zM241 92h10l48 -48
v-10l-48 -49h-10l-49 49v10z" />
    <glyph glyph-name="uni203E" unicode="&#x203e;" horiz-adv-x="500" 
d="M45 839h410l5 -5v-68l-5 -5h-410l-5 5v68z" />
    <glyph glyph-name="uni2042" unicode="&#x2042;" horiz-adv-x="851" 
d="M602 360h60l5 -5l-15 -139l119 80h5l31 -54v-5l-134 -57l134 -57v-5l-31 -54h-5l-119 80l15 -139l-5 -5h-60l-5 5l14 139l-119 -80h-5l-30 54v5l133 57l-133 57v5l30 54h5l119 -80l-14 139zM402 700h60l5 -5l-15 -139l119 80h5l31 -54v-5l-134 -57l134 -57v-5l-31 -54h-5
l-119 80l15 -139l-5 -5h-60l-5 5l14 139l-119 -80h-5l-30 54v5l133 57l-133 57v5l30 54h5l119 -80l-14 139zM202 360h60l5 -5l-15 -139l119 80h5l31 -54v-5l-134 -57l134 -57v-5l-31 -54h-5l-119 80l15 -139l-5 -5h-60l-5 5l14 139l-119 -80h-5l-30 54v5l133 57l-133 57v5
l30 54h5l119 -80l-14 139z" />
    <glyph glyph-name="uni2043" unicode="&#x2043;" horiz-adv-x="471" 
d="M81 274h310l5 -5v-68l-5 -5h-310l-5 5v68z" />
    <glyph glyph-name="fraction" unicode="&#x2044;" horiz-adv-x="123" 
d="M224 700h71l5 -5l-392 -690l-10 -5h-70l-5 5l391 690z" />
    <glyph glyph-name="uni2045" unicode="&#x2045;" horiz-adv-x="311" 
d="M62 720h199l5 -5v-67l-5 -5h-127v-369h127l5 -5v-68l-5 -5h-127v-379h127l5 -5v-67l-5 -5h-199l-5 5v970z" />
    <glyph glyph-name="uni2046" unicode="&#x2046;" horiz-adv-x="311" 
d="M51 720h198l5 -5v-970l-5 -5h-198l-5 5v67l5 5h126v379h-126l-5 5v68l5 5h126v369h-126l-5 5v67z" />
    <glyph glyph-name="uni2047" unicode="&#x2047;" horiz-adv-x="863" 
d="M79 552l-53 38c35 75 100 125 185 125c104 0 179 -75 179 -172c0 -141 -172 -197 -172 -275c0 -34 13 -47 38 -67l-48 -50c-28 18 -72 58 -72 117c0 113 173 158 173 275c0 55 -44 95 -98 95c-59 0 -98 -34 -127 -86h-5zM201 95h10l50 -50v-10l-50 -50h-10l-50 50v10z
M500 552l-53 38c35 75 100 125 185 125c104 0 179 -75 179 -172c0 -141 -172 -197 -172 -275c0 -34 13 -47 38 -67l-48 -50c-28 18 -72 58 -72 117c0 113 173 158 173 275c0 55 -44 95 -98 95c-59 0 -98 -34 -127 -86h-5zM622 95h10l50 -50v-10l-50 -50h-10l-50 50v10z" />
    <glyph glyph-name="uni2048" unicode="&#x2048;" horiz-adv-x="683" 
d="M79 552l-53 38c35 75 100 125 185 125c104 0 179 -75 179 -172c0 -141 -172 -197 -172 -275c0 -34 13 -47 38 -67l-48 -50c-28 18 -72 58 -72 117c0 113 173 158 173 275c0 55 -44 95 -98 95c-59 0 -98 -34 -127 -86h-5zM201 95h10l50 -50v-10l-50 -50h-10l-50 50v10z
M513 700h67l5 -5v-115l-14 -405l-5 -5h-39l-5 5l-14 405v115zM542 95h10l50 -50v-10l-50 -50h-10l-50 50v10z" />
    <glyph glyph-name="uni2049" unicode="&#x2049;" horiz-adv-x="683" 
d="M102 700h67l5 -5v-115l-14 -405l-5 -5h-39l-5 5l-14 405v115zM131 95h10l50 -50v-10l-50 -50h-10l-50 50v10zM320 552l-53 38c35 75 100 125 185 125c104 0 179 -75 179 -172c0 -141 -172 -197 -172 -275c0 -34 13 -47 38 -67l-48 -50c-28 18 -72 58 -72 117
c0 113 173 158 173 275c0 55 -44 95 -98 95c-59 0 -98 -34 -127 -86h-5zM442 95h10l50 -50v-10l-50 -50h-10l-50 50v10z" />
    <glyph glyph-name="uni204B" unicode="&#x204b;" horiz-adv-x="620" 
d="M90 700h244c140 0 240 -95 240 -215c0 -115 -90 -208 -231 -215v-265l-5 -5h-67l-5 5v618h-103v-618l-5 -5h-67l-5 5v690z" />
    <glyph glyph-name="uni204C" unicode="&#x204c;" horiz-adv-x="511" 
d="M251 385h150l5 -5v-290l-5 -5h-150c-94 0 -170 67 -170 150s76 150 170 150zM343 148v174h-92v-174h92z" />
    <glyph glyph-name="uni204D" unicode="&#x204d;" horiz-adv-x="511" 
d="M111 385h149c94 0 170 -67 170 -150s-76 -150 -170 -150h-149l-5 5v290zM169 322v-174h91v174h-91z" />
    <glyph glyph-name="uni204E" unicode="&#x204e;" horiz-adv-x="451" 
d="M196 560h60l5 -5l-15 -139l119 80h5l31 -54v-5l-134 -57l134 -57v-5l-31 -54h-5l-119 80l15 -139l-5 -5h-60l-5 5l14 139l-119 -80h-5l-30 54v5l133 57l-133 57v5l30 54h5l119 -80l-14 139z" />
    <glyph glyph-name="uni204F" unicode="&#x204f;" horiz-adv-x="271" 
d="M102 83h67l5 -5v-79c0 -52 17 -87 52 -94v-5c-13 -5 -20 -5 -27 -5c-65 0 -102 41 -102 109v74zM99 403h73l5 -5v-73l-5 -5h-73l-5 5v73z" />
    <glyph glyph-name="uni2051" unicode="&#x2051;" horiz-adv-x="451" 
d="M196 720h60l5 -5l-15 -139l119 80h5l31 -54v-5l-134 -57l134 -57v-5l-31 -54h-5l-119 80l15 -139l-5 -5h-60l-5 5l14 139l-119 -80h-5l-30 54v5l133 57l-133 57v5l30 54h5l119 -80l-14 139zM196 340h60l5 -5l-15 -139l119 80h5l31 -54v-5l-134 -57l134 -57v-5l-31 -54h-5
l-119 80l15 -139l-5 -5h-60l-5 5l14 139l-119 -80h-5l-30 54v5l133 57l-133 57v5l30 54h5l119 -80l-14 139z" />
    <glyph glyph-name="uni2052" unicode="&#x2052;" horiz-adv-x="583" 
d="M61 700h73l5 -5v-73l-5 -5h-73l-5 5v73zM484 700h78l5 -5l-459 -690l-10 -5h-77l-5 5l458 690zM449 83h72l5 -5v-73l-5 -5h-72l-5 5v73z" />
    <glyph glyph-name="uni2053" unicode="&#x2053;" horiz-adv-x="511" 
d="M475 286l5 -5c-26 -55 -71 -102 -128 -102c-71 0 -119 41 -205 41c-28 0 -56 -10 -79 -36l-5 5c27 55 72 102 128 102c71 0 119 -41 206 -41c28 0 55 10 78 36z" />
    <glyph glyph-name="uni2055" unicode="&#x2055;" horiz-adv-x="651" 
d="M296 660h60l5 -5l-7 -204l139 147h10l41 -41v-10l-147 -139l204 7l5 -5v-60l-5 -5l-204 7l147 -138v-10l-41 -40h-10l-139 145l7 -204l-5 -5h-60l-5 5l7 204l-139 -145h-10l-41 40v10l146 138l-203 -7l-5 5v60l5 5l203 -7l-146 139v10l41 41h10l139 -147l-7 204z" />
    <glyph glyph-name="uni2056" unicode="&#x2056;" horiz-adv-x="671" 
d="M99 700h73l5 -5v-73l-5 -5h-73l-5 5v73zM499 390h73l5 -5v-73l-5 -5h-73l-5 5v73zM99 83h73l5 -5v-73l-5 -5h-73l-5 5v73z" />
    <glyph glyph-name="uni2057" unicode="&#x2057;" horiz-adv-x="811" 
d="M130 700h75l5 -5l-57 -230l-5 -5h-46l-5 5l28 230zM490 700h75l5 -5l-57 -230l-5 -5h-46l-5 5l28 230zM670 700h75l5 -5l-57 -230l-5 -5h-46l-5 5l28 230zM310 700h75l5 -5l-57 -230l-5 -5h-46l-5 5l28 230z" />
    <glyph glyph-name="uni2058" unicode="&#x2058;" horiz-adv-x="851" 
d="M389 700h73l5 -5v-73l-5 -5h-73l-5 5v73zM99 412h73l5 -5v-73l-5 -5h-73l-5 5v73zM679 412h73l5 -5v-73l-5 -5h-73l-5 5v73zM389 83h73l5 -5v-73l-5 -5h-73l-5 5v73z" />
    <glyph glyph-name="uni2059" unicode="&#x2059;" horiz-adv-x="771" 
d="M99 700h73l5 -5v-73l-5 -5h-73l-5 5v73zM599 83h73l5 -5v-73l-5 -5h-73l-5 5v73zM599 700h73l5 -5v-73l-5 -5h-73l-5 5v73zM349 412h73l5 -5v-73l-5 -5h-73l-5 5v73zM99 83h73l5 -5v-73l-5 -5h-73l-5 5v73z" />
    <glyph glyph-name="uni205A" unicode="&#x205a;" horiz-adv-x="271" 
d="M99 700h73l5 -5v-73l-5 -5h-73l-5 5v73zM99 83h73l5 -5v-73l-5 -5h-73l-5 5v73z" />
    <glyph glyph-name="uni205B" unicode="&#x205b;" horiz-adv-x="851" 
d="M389 740h73l5 -5v-73l-5 -5h-73l-5 5v73zM99 412h73l5 -5v-73l-5 -5h-73l-5 5v73zM679 412h73l5 -5v-73l-5 -5h-73l-5 5v73zM389 43h73l5 -5v-73l-5 -5h-73l-5 5v73z" />
    <glyph glyph-name="uni205C" unicode="&#x205c;" horiz-adv-x="771" 
d="M352 700h67l5 -5v-286h291l5 -5v-68l-5 -5h-291v-326l-5 -5h-67l-5 5v326h-291l-5 5v68l5 5h291v286zM105 83h73l5 -5v-73l-5 -5h-73l-5 5v73zM105 700h73l5 -5v-73l-5 -5h-73l-5 5v73zM605 83h73l5 -5v-73l-5 -5h-73l-5 5v73zM605 700h73l5 -5v-73l-5 -5h-73l-5 5v73z
" />
    <glyph glyph-name="uni205D" unicode="&#x205d;" horiz-adv-x="271" 
d="M99 700h73l5 -5v-73l-5 -5h-73l-5 5v73zM99 412h73l5 -5v-73l-5 -5h-73l-5 5v73zM99 83h73l5 -5v-73l-5 -5h-73l-5 5v73z" />
    <glyph glyph-name="uni205E" unicode="&#x205e;" horiz-adv-x="271" 
d="M99 700h73l5 -5v-73l-5 -5h-73l-5 5v73zM99 289h73l5 -5v-73l-5 -5h-73l-5 5v73zM99 494h73l5 -5v-73l-5 -5h-73l-5 5v73zM99 83h73l5 -5v-73l-5 -5h-73l-5 5v73z" />
    <glyph glyph-name="zerosuperior" unicode="&#x2070;" horiz-adv-x="420" 
d="M216 875c97 0 164 -95 164 -225s-67 -225 -164 -225s-164 95 -164 225s67 225 164 225zM216 812c-51 0 -97 -54 -97 -162s46 -162 97 -162s97 54 97 162s-46 162 -97 162z" />
    <glyph glyph-name="uni2071" unicode="&#x2071;" horiz-adv-x="194" 
d="M71 720h53l5 -5v-270l-5 -5h-53l-5 5v270zM92 862h10l42 -41v-10l-42 -42h-10l-41 42v10z" />
    <glyph glyph-name="foursuperior" unicode="&#x2074;" horiz-adv-x="386" 
d="M282 869l5 -5v-241h78l5 -5v-53l-5 -5h-78v-115l-5 -5h-53l-5 5v115h-210l-5 5zM224 727l-90 -104h90v104z" />
    <glyph glyph-name="fivesuperior" unicode="&#x2075;" horiz-adv-x="339" 
d="M94 860h200l4 -4l-39 -59h-110l-10 -83c93 7 164 -47 164 -145c0 -79 -69 -144 -149 -144c-46 0 -95 21 -128 65l39 46h6c26 -32 50 -48 83 -48c45 0 82 37 82 81c0 55 -37 88 -96 88c-19 0 -48 -3 -71 -11l-3 4l23 205z" />
    <glyph glyph-name="sixsuperior" unicode="&#x2076;" horiz-adv-x="366" 
d="M256 860l4 -5c-54 -43 -112 -111 -136 -178c18 14 40 27 77 27c77 0 139 -57 139 -141c0 -80 -62 -138 -142 -138c-74 0 -152 55 -152 176c0 113 81 212 140 259h70zM113 601v-7c0 -72 39 -106 85 -106c43 0 76 32 76 75c0 46 -35 78 -76 78c-39 0 -59 -16 -85 -40z" />
    <glyph glyph-name="sevensuperior" unicode="&#x2077;" horiz-adv-x="391" 
d="M77 860h280l5 -5l-212 -410l-10 -5h-63l-5 5l185 352h-180l-5 5v53z" />
    <glyph glyph-name="eightsuperior" unicode="&#x2078;" horiz-adv-x="366" 
d="M183 875c69 0 114 -48 114 -108c0 -40 -24 -72 -64 -96c48 -25 87 -62 87 -116c0 -71 -64 -130 -137 -130c-74 0 -137 59 -137 130c0 54 39 91 87 116c-40 24 -64 56 -64 96c0 60 45 108 114 108zM183 705c32 18 47 38 47 62s-21 45 -47 45c-27 0 -47 -21 -47 -45
s15 -44 47 -62zM183 640c-44 -21 -70 -47 -70 -85c0 -36 31 -67 70 -67c38 0 70 31 70 67c0 38 -27 64 -70 85z" />
    <glyph glyph-name="ninesuperior" unicode="&#x2079;" horiz-adv-x="366" 
d="M110 440l-4 5c53 43 112 111 136 178c-18 -14 -41 -27 -78 -27c-76 0 -138 57 -138 141c0 80 62 138 142 138c73 0 152 -55 152 -176c0 -113 -81 -212 -140 -259h-70zM253 699v7c0 72 -39 106 -85 106c-44 0 -76 -32 -76 -75c0 -46 34 -78 76 -78c39 0 59 16 85 40z" />
    <glyph glyph-name="uni207A" unicode="&#x207a;" horiz-adv-x="420" 
d="M190 794h52l5 -5v-113h113l5 -5v-52l-5 -5h-113v-113l-5 -5h-52l-5 5v113h-113l-5 5v52l5 5h113v113z" />
    <glyph glyph-name="uni207B" unicode="&#x207b;" horiz-adv-x="420" 
d="M72 676h288l5 -5v-52l-5 -5h-288l-5 5v52z" />
    <glyph glyph-name="uni207C" unicode="&#x207c;" horiz-adv-x="420" 
d="M72 756h288l5 -5v-52l-5 -5h-288l-5 5v52zM72 596h288l5 -5v-52l-5 -5h-288l-5 5v52z" />
    <glyph glyph-name="uni207D" unicode="&#x207d;" horiz-adv-x="280" 
d="M252 935l5 -5c-68 -82 -109 -167 -109 -285s41 -203 109 -285l-5 -5h-75c-53 68 -100 155 -100 290s47 222 100 290h75z" />
    <glyph glyph-name="uni207E" unicode="&#x207e;" horiz-adv-x="280" 
d="M40 935h75c53 -68 100 -155 100 -290s-47 -222 -100 -290h-75l-5 5c68 82 109 167 109 285s-41 203 -109 285z" />
    <glyph glyph-name="uni207F" unicode="&#x207f;" horiz-adv-x="416" 
d="M71 720h53l5 -5v-14c24 18 55 29 90 29c92 0 141 -58 141 -142v-143l-5 -5h-53l-5 5v132c0 61 -31 87 -77 87c-36 0 -72 -16 -91 -40v-179l-5 -5h-53l-5 5v270z" />
    <glyph glyph-name="zeroinferior" unicode="&#x2080;" horiz-adv-x="420" 
d="M216 275c97 0 164 -95 164 -225s-67 -225 -164 -225s-164 95 -164 225s67 225 164 225zM216 212c-51 0 -97 -54 -97 -162s46 -162 97 -162s97 54 97 162s-46 162 -97 162z" />
    <glyph glyph-name="oneinferior" unicode="&#x2081;" horiz-adv-x="234" 
d="M150 265l5 -5v-415l-5 -5h-53l-5 5v364l5 10z" />
    <glyph glyph-name="twoinferior" unicode="&#x2082;" horiz-adv-x="313" 
d="M33 157v72c27 26 58 46 100 46c67 0 124 -52 124 -128c0 -40 -19 -91 -49 -141l-62 -103h116l5 -5v-53l-5 -5h-228l-5 5l121 190c31 51 40 84 40 112c0 41 -25 65 -57 65c-49 0 -72 -28 -95 -60z" />
    <glyph glyph-name="threeinferior" unicode="&#x2083;" horiz-adv-x="331" 
d="M34 260h248l5 -5l-88 -154c67 -17 104 -61 104 -132c0 -79 -69 -144 -147 -144c-45 0 -95 20 -130 65l38 46h6c26 -32 53 -48 86 -48c43 0 80 37 80 81c0 47 -30 80 -87 80c-14 0 -33 -4 -50 -10l-5 5l94 153h-154l-5 5v53z" />
    <glyph glyph-name="fourinferior" unicode="&#x2084;" horiz-adv-x="386" 
d="M282 269l5 -5v-241h78l5 -5v-53l-5 -5h-78v-115l-5 -5h-53l-5 5v115h-210l-5 5zM224 127l-90 -104h90v104z" />
    <glyph glyph-name="fiveinferior" unicode="&#x2085;" horiz-adv-x="339" 
d="M94 260h200l4 -4l-39 -59h-110l-10 -83c93 7 164 -47 164 -145c0 -79 -69 -144 -149 -144c-46 0 -95 21 -128 65l39 46h6c26 -32 50 -48 83 -48c45 0 82 37 82 81c0 55 -37 88 -96 88c-19 0 -48 -3 -71 -11l-3 4l23 205z" />
    <glyph glyph-name="sixinferior" unicode="&#x2086;" horiz-adv-x="366" 
d="M256 260l4 -5c-54 -43 -112 -111 -136 -178c18 14 40 27 77 27c77 0 139 -57 139 -141c0 -80 -62 -138 -142 -138c-74 0 -152 55 -152 176c0 113 81 212 140 259h70zM113 1v-7c0 -72 39 -106 85 -106c43 0 76 32 76 75c0 46 -35 78 -76 78c-39 0 -59 -16 -85 -40z" />
    <glyph glyph-name="seveninferior" unicode="&#x2087;" horiz-adv-x="391" 
d="M77 260h280l5 -5l-212 -410l-10 -5h-63l-5 5l185 352h-180l-5 5v53z" />
    <glyph glyph-name="eightinferior" unicode="&#x2088;" horiz-adv-x="366" 
d="M183 275c69 0 114 -48 114 -108c0 -40 -24 -72 -64 -96c48 -25 87 -62 87 -116c0 -71 -64 -130 -137 -130c-74 0 -137 59 -137 130c0 54 39 91 87 116c-40 24 -64 56 -64 96c0 60 45 108 114 108zM183 105c32 18 47 38 47 62s-21 45 -47 45c-27 0 -47 -21 -47 -45
s15 -44 47 -62zM183 40c-44 -21 -70 -47 -70 -85c0 -36 31 -67 70 -67c38 0 70 31 70 67c0 38 -27 64 -70 85z" />
    <glyph glyph-name="nineinferior" unicode="&#x2089;" horiz-adv-x="366" 
d="M110 -160l-4 5c53 43 112 111 136 178c-18 -14 -41 -27 -78 -27c-76 0 -138 57 -138 141c0 80 62 138 142 138c73 0 152 -55 152 -176c0 -113 -81 -212 -140 -259h-70zM253 99v7c0 72 -39 106 -85 106c-44 0 -76 -32 -76 -75c0 -46 34 -78 76 -78c39 0 59 16 85 40z" />
    <glyph glyph-name="uni208A" unicode="&#x208a;" horiz-adv-x="420" 
d="M184 194h52l5 -5v-113h113l5 -5v-52l-5 -5h-113v-113l-5 -5h-52l-5 5v113h-113l-5 5v52l5 5h113v113z" />
    <glyph glyph-name="uni208B" unicode="&#x208b;" horiz-adv-x="420" 
d="M66 76h288l5 -5v-52l-5 -5h-288l-5 5v52z" />
    <glyph glyph-name="uni208C" unicode="&#x208c;" horiz-adv-x="420" 
d="M66 156h288l5 -5v-52l-5 -5h-288l-5 5v52zM66 -4h288l5 -5v-52l-5 -5h-288l-5 5v52z" />
    <glyph glyph-name="uni208D" unicode="&#x208d;" horiz-adv-x="280" 
d="M246 335l5 -5c-68 -82 -109 -167 -109 -285s41 -203 109 -285l-5 -5h-75c-53 68 -100 155 -100 290s47 222 100 290h75z" />
    <glyph glyph-name="uni208E" unicode="&#x208e;" horiz-adv-x="280" 
d="M34 335h75c53 -68 100 -155 100 -290s-47 -222 -100 -290h-75l-5 5c68 82 109 167 109 285s-41 203 -109 285z" />
    <glyph glyph-name="colonmonetary" unicode="&#x20a1;" horiz-adv-x="531" 
d="M285 800h53l5 -5l-15 -80c23 1 46 -4 65 -9l16 89l5 5h53l5 -5l-20 -112c14 -7 28 -16 41 -28v-90l-5 -5c-16 18 -33 32 -51 44l-96 -538c58 2 107 30 147 74l5 -5v-90c-44 -41 -105 -59 -167 -58l-14 -82l-5 -5h-53l-5 5l15 87c-22 6 -42 14 -60 25l-21 -112l-5 -5h-53
l-5 5l28 155c-63 66 -98 170 -98 290c0 181 81 326 214 358l16 87zM315 638l-96 -535c17 -16 38 -28 59 -35l101 562c-20 6 -40 9 -64 8zM169 179l78 433c-73 -40 -116 -139 -116 -262c0 -68 13 -127 38 -171z" />
    <glyph glyph-name="uni20A2" unicode="&#x20a2;" horiz-adv-x="531" 
d="M282 410h67l5 -5v-28c38 29 82 48 125 48v-68l-4 -5c-45 0 -91 -25 -121 -63v-224c50 8 89 31 127 75l5 -5v-90c-45 -42 -100 -60 -156 -60c-166 0 -266 163 -266 365s100 365 266 365c56 0 111 -18 156 -60v-90l-5 -5c-45 52 -95 78 -151 78c-112 0 -184 -128 -184 -288
c0 -137 52 -243 131 -275v330z" />
    <glyph glyph-name="franc" unicode="&#x20a3;" horiz-adv-x="531" 
d="M111 700h357l5 -5v-67l-5 -5h-285v-169h181l5 -5v-68l-5 -5h-181v-91h181l5 -5v-67l-5 -5h-181v-203l-5 -5h-67l-5 5v203h-95l-5 5v67l5 5h95v91h-95l-5 5v68l5 5h95v241z" />
    <glyph glyph-name="lira" unicode="&#x20a4;" horiz-adv-x="531" 
d="M435 556h-5c-15 41 -40 86 -88 86c-64 0 -91 -62 -104 -194h152l5 -5l-26 -67l-5 -5h-130c-3 -57 -5 -70 -7 -92h166l5 -5l-27 -67l-5 -5h-149c-10 -53 -26 -102 -42 -125h337l5 -5l-38 -69l-9 -3h-419l-5 5c44 36 74 116 89 197h-89l-5 5l27 67l5 5h73c3 35 6 60 7 92
h-99l-5 5l26 67l5 5h78c18 170 69 267 191 267c58 0 98 -26 135 -80z" />
    <glyph glyph-name="uni20A6" unicode="&#x20a6;" horiz-adv-x="531" 
d="M82 700h82l10 -5l112 -291h91v291l5 5h67l5 -5v-291h61l5 -5v-68l-5 -5h-61v-321l-5 -5h-81l-10 5l-124 321h-80v-321l-5 -5h-67l-5 5v321h-61l-5 5v68l5 5h61v291zM154 529v-125h51zM315 326l62 -155v155h-62z" />
    <glyph glyph-name="peseta" unicode="&#x20a7;" horiz-adv-x="1064" 
d="M90 700h159c148 0 242 -89 242 -209c0 -7 0 -14 -1 -21h45v115l5 5h67l5 -6v-114h182c25 9 47 15 77 15c33 0 67 -5 107 -25v-73l-5 -5c-47 26 -72 30 -109 30c-42 0 -71 -27 -71 -63c0 -89 226 -53 226 -217c0 -99 -75 -147 -232 -147c-159 0 -252 54 -252 199v209h-71
c-35 -69 -111 -112 -215 -112h-86v-276l-5 -5h-67l-5 5v690zM163 623v-264h86c95 0 154 52 154 132c0 79 -59 132 -154 132h-86zM612 393v-206c0 -90 53 -129 175 -129c107 0 150 18 150 74c0 85 -225 58 -225 217c0 16 4 31 14 44h-114z" />
    <glyph glyph-name="uni20A8" unicode="&#x20a8;" horiz-adv-x="866" 
d="M102 700h149c138 0 225 -79 225 -194c0 -96 -70 -159 -148 -180l100 -136c63 -87 121 -132 223 -132c56 0 88 30 88 74c0 81 -228 64 -228 220c0 68 60 133 150 133c50 0 75 -5 115 -25v-73l-5 -5c-45 25 -70 30 -110 30c-43 0 -68 -27 -68 -60c0 -86 227 -61 227 -220
c0 -83 -73 -147 -169 -147c-145 0 -218 55 -295 165l-120 161h-62v-306l-5 -5h-67l-5 5v690zM174 623v-234h72c80 0 141 40 141 117c0 73 -49 117 -136 117h-77z" />
    <glyph glyph-name="dong" unicode="&#x20ab;" horiz-adv-x="531" 
d="M372 720h67l5 -5v-56h61l5 -5v-68l-5 -5h-61v-396l-5 -5h-67l-5 5v17c-28 -20 -63 -37 -111 -37c-105 0 -190 85 -190 190s85 190 190 190c48 0 83 -15 111 -37v73h-166l-5 5v68l5 5h166v56zM367 284v142c-35 35 -64 46 -101 46c-70 0 -119 -53 -119 -117
s49 -117 119 -117c37 0 71 16 101 46zM81 89h370l5 -5v-68l-5 -5h-370l-5 5v68z" />
    <glyph glyph-name="Euro" unicode="&#x20ac;" horiz-adv-x="797" 
d="M731 552l-5 -5c-66 55 -150 87 -235 87c-112 0 -210 -69 -253 -166h388l5 -5v-67l-5 -5h-414c-1 -14 -2 -27 -2 -41c0 -18 1 -35 4 -51h332l5 -5v-67l-5 -5h-303c44 -92 139 -156 248 -156c85 0 169 32 235 87l5 -5v-88c-65 -47 -145 -75 -240 -75
c-159 0 -294 99 -345 237h-120l-5 5l55 67l10 5h39c-3 16 -4 34 -4 51c0 14 1 27 2 41h-97l-5 5l55 67l10 5h56c49 142 187 247 349 247c95 0 175 -28 240 -75v-88z" />
    <glyph glyph-name="uni20AE" unicode="&#x20ae;" horiz-adv-x="531" 
d="M41 700h450l5 -5v-67l-5 -5h-187v-137l103 60l7 -2l34 -58l-2 -7l-142 -82v-121l103 60l7 -2l34 -58l-2 -7l-142 -81v-183l-5 -5h-67l-5 5v140l-103 -61l-7 2l-34 58l2 7l142 82v122l-103 -61l-7 2l-34 58l2 7l142 82v180h-186l-5 5v67z" />
    <glyph glyph-name="uni20B1" unicode="&#x20b1;" horiz-adv-x="531" 
d="M81 700h136c133 0 220 -70 239 -171h55l5 -5v-67l-5 -5h-55c-19 -101 -106 -171 -239 -171h-63v-276l-5 -5h-67l-5 5v447h-61l-5 5v67l5 5h61v166zM154 623v-94h209c-14 59 -67 94 -146 94h-63zM154 452v-93h63c79 0 132 34 146 93h-209z" />
    <glyph glyph-name="uni20B2" unicode="&#x20b2;" horiz-adv-x="531" 
d="M257 800h67l5 -5v-81c54 -3 99 -25 137 -59v-90l-5 -5c-36 40 -78 74 -132 77v-253h156l5 -5v-327c-36 -33 -83 -53 -127 -61c-12 -3 -23 -4 -34 -5v-81l-5 -5h-67l-5 5v91c-131 32 -208 169 -208 354c0 184 77 321 208 354v91zM126 350c0 -134 46 -234 126 -268v535
c-80 -34 -126 -133 -126 -267zM413 306h-84v-243c25 1 53 7 84 29v214z" />
    <glyph glyph-name="uni20B4" unicode="&#x20b4;" horiz-adv-x="531" 
d="M11 304h79c46 55 130 85 191 122h-270l-5 5v68l5 5h368c5 8 9 18 9 30c0 64 -47 100 -112 100c-55 0 -95 -27 -130 -72h-10l-53 41c38 60 106 112 186 112c104 0 200 -64 200 -181c0 -12 -3 -22 -8 -30h60l5 -5v-68l-5 -5h-93c-49 -53 -133 -82 -192 -122h285l5 -5v-68
l-5 -5h-380c-4 -9 -6 -18 -6 -29c0 -74 55 -131 139 -131c73 0 127 37 157 105h10l56 -41c-35 -87 -119 -145 -222 -145c-121 0 -221 92 -221 212c0 11 1 20 4 29h-47l-5 5v68z" />
    <glyph glyph-name="uni20B5" unicode="&#x20b5;" horiz-adv-x="531" 
d="M291 800h67l5 -5v-84c44 -5 87 -23 123 -56v-90l-5 -5c-37 41 -74 64 -118 73v-566c44 9 81 31 118 73l5 -5v-90c-36 -33 -79 -51 -123 -56v-84l-5 -5h-67l-5 5v84c-139 25 -222 176 -222 361c0 184 83 336 222 361v84zM146 350c0 -139 53 -252 140 -280v559
c-87 -28 -140 -141 -140 -279z" />
    <glyph glyph-name="uni2116" unicode="&#x2116;" horiz-adv-x="949" 
d="M91 700h74l10 -5l251 -527v527l5 5h67l5 -5v-690l-5 -5h-74l-10 5l-251 527v-527l-5 -5h-67l-5 5v690zM738 605c91 0 165 -72 165 -160s-74 -160 -165 -160s-165 72 -165 160s74 160 165 160zM738 535c-48 0 -88 -41 -88 -90s40 -90 88 -90s87 41 87 90s-39 90 -87 90z
M709 215h67l5 -5v-90l-5 -5h-67l-5 5v90z" />
    <glyph glyph-name="uni2117" unicode="&#x2117;" horiz-adv-x="811" 
d="M366 160h-60l-5 5v360l5 5h99c85 0 159 -36 159 -134s-74 -135 -159 -135h-34v-96zM371 460v-129h44c36 0 75 18 75 65s-39 64 -75 64h-44zM406 715c195 0 360 -155 360 -365s-165 -365 -360 -365s-360 155 -360 365s165 365 360 365zM406 649
c-157 0 -286 -134 -286 -299s129 -299 286 -299c156 0 286 134 286 299s-130 299 -286 299z" />
    <glyph glyph-name="trademark" unicode="&#x2122;" horiz-adv-x="969" 
d="M41 700h350l5 -5v-67l-5 -5h-137v-298l-5 -5h-67l-5 5v298h-136l-5 5v67zM471 700h63l10 -5l130 -167l130 167l10 5h64l5 -5v-370l-5 -5h-67l-5 5v254l-127 -162h-10l-126 162v-254l-5 -5h-67l-5 5v370z" />
    <glyph glyph-name="Omega" unicode="&#x2126;" horiz-adv-x="851" 
d="M66 77h136c-81 60 -141 146 -141 283c0 200 165 355 370 355s370 -155 370 -355c0 -137 -59 -223 -140 -283h135l5 -5v-67l-5 -5h-274l-5 5v67l5 9c122 50 191 151 191 279c0 156 -127 274 -282 274c-154 0 -281 -118 -281 -274c0 -128 69 -229 191 -279l5 -9v-67l-5 -5
h-275l-5 5v67z" />
    <glyph glyph-name="uni212E" unicode="&#x212e;" horiz-adv-x="831" 
d="M679 142v-88c-65 -45 -144 -69 -253 -69c-205 0 -370 165 -370 365s165 365 370 365c150 0 340 -102 340 -352c0 -5 0 -31 -5 -42l-10 -5h-604c17 -143 134 -250 279 -250c93 0 181 26 248 81zM147 394h535c-4 155 -133 240 -256 240c-145 0 -258 -105 -279 -240z" />
    <glyph glyph-name="onethird" unicode="&#x2153;" horiz-adv-x="811" 
d="M165 705l5 -5v-415l-5 -5h-53l-5 5v364l5 10zM513 700h71l5 -5l-392 -690l-10 -5h-70l-5 5l391 690zM498 420h248l5 -5l-88 -154c67 -17 104 -61 104 -131c0 -80 -68 -145 -147 -145c-46 0 -94 20 -129 64l39 46h6c25 -31 51 -47 84 -47c44 0 80 37 80 82
c0 46 -30 79 -87 79c-13 0 -33 -4 -49 -10l-5 5l93 153h-154l-4 4v55z" />
    <glyph glyph-name="twothirds" unicode="&#x2154;" horiz-adv-x="811" 
d="M36 597v72c27 26 58 46 100 46c67 0 124 -52 124 -128c0 -40 -19 -91 -49 -141l-62 -103h116l5 -5v-53l-5 -5h-228l-5 5l121 190c31 51 40 84 40 112c0 41 -25 65 -57 65c-49 0 -72 -28 -95 -60zM554 700h71l5 -5l-391 -690l-10 -5h-71l-5 5l391 690zM512 420h249l5 -5
l-89 -154c67 -17 104 -61 104 -131c0 -80 -68 -145 -147 -145c-46 0 -94 20 -128 64l38 46h6c26 -31 51 -47 84 -47c44 0 80 37 80 82c0 46 -30 79 -87 79c-13 0 -33 -4 -49 -10l-5 5l93 153h-154l-3 4v55z" />
    <glyph glyph-name="oneeighth" unicode="&#x215b;" horiz-adv-x="811" 
d="M165 705l5 -5v-415l-5 -5h-53l-5 5v364l5 10zM520 700h71l5 -5l-392 -690l-10 -5h-70l-5 5l391 690zM616 435c69 0 114 -48 114 -108c0 -40 -24 -72 -64 -96c48 -25 87 -62 87 -116c0 -71 -64 -130 -137 -130c-74 0 -137 59 -137 130c0 54 39 91 87 116
c-40 24 -65 56 -65 96c0 60 45 108 115 108zM616 265c32 18 47 38 47 62s-21 45 -47 45c-27 0 -48 -21 -48 -45s16 -44 48 -62zM616 200c-44 -21 -70 -47 -70 -85c0 -36 31 -67 70 -67c38 0 70 31 70 67c0 38 -27 64 -70 85z" />
    <glyph glyph-name="threeeighths" unicode="&#x215c;" horiz-adv-x="811" 
d="M49 700h249l5 -5l-89 -154c67 -17 105 -61 105 -131c0 -80 -69 -145 -148 -145c-46 0 -94 20 -128 64l38 46h6c26 -31 52 -47 84 -47c44 0 81 37 81 82c0 46 -30 79 -88 79c-13 0 -32 -4 -49 -10l-5 5l94 153h-155l-3 4v55zM569 700h70l5 -5l-391 -690l-10 -5h-71l-5 5
l392 690zM630 435c69 0 114 -48 114 -108c0 -40 -24 -72 -64 -96c48 -25 87 -62 87 -116c0 -71 -64 -130 -137 -130s-137 59 -137 130c0 54 39 91 87 116c-40 24 -64 56 -64 96c0 60 45 108 114 108zM630 265c32 18 47 38 47 62s-20 45 -47 45s-47 -21 -47 -45
s15 -44 47 -62zM630 200c-44 -21 -70 -47 -70 -85c0 -36 31 -67 70 -67s70 31 70 67c0 38 -26 64 -70 85z" />
    <glyph glyph-name="fiveeighths" unicode="&#x215d;" horiz-adv-x="811" 
d="M103 700h210l3 -4l-38 -59h-121l-9 -79c98 10 163 -58 163 -146c0 -77 -65 -143 -147 -143c-46 0 -92 22 -123 62l33 48h5c27 -33 55 -47 85 -47c55 0 81 29 81 80c0 59 -38 85 -96 85c-20 0 -48 -3 -71 -11l-4 4l24 205zM569 700h70l5 -5l-391 -690l-10 -5h-71l-5 5
l392 690zM630 435c69 0 114 -48 114 -108c0 -40 -24 -72 -64 -96c48 -25 87 -62 87 -116c0 -71 -64 -130 -137 -130s-137 59 -137 130c0 54 39 91 87 116c-40 24 -64 56 -64 96c0 60 45 108 114 108zM630 265c32 18 47 38 47 62s-20 45 -47 45s-47 -21 -47 -45
s15 -44 47 -62zM630 200c-44 -21 -70 -47 -70 -85c0 -36 31 -67 70 -67s70 31 70 67c0 38 -26 64 -70 85z" />
    <glyph glyph-name="seveneighths" unicode="&#x215e;" horiz-adv-x="811" 
d="M64 700h281l4 -5l-212 -410l-10 -5h-63l-5 5l185 352h-180l-5 5v53zM532 700h70l5 -5l-391 -690l-10 -5h-71l-5 5l392 690zM630 435c69 0 114 -48 114 -108c0 -40 -24 -72 -64 -96c48 -25 87 -62 87 -116c0 -71 -64 -130 -137 -130s-137 59 -137 130c0 54 39 91 87 116
c-40 24 -64 56 -64 96c0 60 45 108 114 108zM630 265c32 18 47 38 47 62s-20 45 -47 45s-47 -21 -47 -45s15 -44 47 -62zM630 200c-44 -21 -70 -47 -70 -85c0 -36 31 -67 70 -67s70 31 70 67c0 38 -26 64 -70 85z" />
    <glyph glyph-name="uni215F" unicode="&#x215f;" horiz-adv-x="511" 
d="M236 705l5 -5v-415l-5 -5h-52l-5 5v364l5 10zM613 700h70l5 -5l-391 -690l-10 -5h-71l-5 5l392 690z" />
    <glyph glyph-name="uni2190" unicode="&#x2190;" horiz-adv-x="711" 
d="M376 700h100l5 -5l-306 -306h506l5 -5v-68l-5 -5h-506l306 -306l-5 -5h-100l-10 5l-340 340v10l340 340z" />
    <glyph glyph-name="uni2191" unicode="&#x2191;" horiz-adv-x="711" 
d="M351 680h10l340 -340l5 -10v-101l-5 -5l-307 307v-506l-5 -5h-67l-5 5v506l-306 -307l-5 5v101l5 10z" />
    <glyph glyph-name="uni2192" unicode="&#x2192;" horiz-adv-x="711" 
d="M235 700h101l10 -5l340 -340v-10l-340 -340l-10 -5h-101l-5 5l307 306h-506l-5 5v68l5 5h506l-307 306z" />
    <glyph glyph-name="uni2193" unicode="&#x2193;" horiz-adv-x="711" 
d="M322 680h67l5 -5v-506l307 307l5 -5v-101l-5 -10l-340 -340h-10l-340 340l-5 10v101l5 5l306 -307v506z" />
    <glyph glyph-name="arrowboth" unicode="&#x2194;" horiz-adv-x="711" 
d="M167 540h101l5 -5l-147 -146h459l-146 146l5 5h100l10 -5l180 -180v-10l-180 -180l-10 -5h-100l-5 5l146 146h-459l147 -146l-5 -5h-101l-10 5l-180 180v10l180 180z" />
    <glyph glyph-name="arrowupdn" unicode="&#x2195;" horiz-adv-x="711" 
d="M351 729h10l180 -180l5 -10v-101l-5 -5l-147 146v-458l147 146l5 -5v-101l-5 -10l-180 -180h-10l-180 180l-5 10v101l5 5l146 -146v458l-146 -146l-5 5v101l5 10z" />
    <glyph glyph-name="uni2196" unicode="&#x2196;" horiz-adv-x="711" 
d="M46 653l7 7h481l11 -4l70 -71v-7h-433l358 -357v-8l-47 -47h-8l-358 358v-434h-7l-70 71l-4 11v481z" />
    <glyph glyph-name="uni2197" unicode="&#x2197;" horiz-adv-x="711" 
d="M659 660l7 -7v-481l-4 -11l-71 -71h-7v434l-358 -358h-7l-47 47v8l357 357h-433v7l71 71l11 4h481z" />
    <glyph glyph-name="uni2198" unicode="&#x2198;" horiz-adv-x="711" 
d="M666 47l-7 -7h-481l-11 4l-71 71v7h433l-357 357v8l47 47h7l358 -358v434h7l71 -71l4 -11v-481z" />
    <glyph glyph-name="uni2199" unicode="&#x2199;" horiz-adv-x="711" 
d="M53 40l-7 7v481l4 11l70 71h7v-434l358 358h8l47 -47v-8l-358 -357h433v-7l-70 -71l-11 -4h-481z" />
    <glyph glyph-name="Delta" unicode="&#x2206;" horiz-adv-x="680" 
d="M307 700h77l5 -5l259 -604l5 -19v-67l-5 -5h-604l-5 5v67l5 19l258 604zM346 594l-225 -517h450z" />
    <glyph glyph-name="product" unicode="&#x220f;" horiz-adv-x="709" 
d="M91 700h527l5 -5v-820l-5 -5h-67l-5 5v748h-383v-748l-5 -5h-67l-5 5v820z" />
    <glyph glyph-name="summation" unicode="&#x2211;" horiz-adv-x="580" 
d="M91 700h408l5 -5v-67l-5 -5h-306l223 -318v-10l-243 -348h356l5 -5v-67l-5 -5h-458l-5 5v67l5 10l246 348l-226 318l-5 10v67z" />
    <glyph glyph-name="minus" unicode="&#x2212;" horiz-adv-x="531" 
d="M76 404h380l5 -5v-68l-5 -5h-380l-5 5v68z" />
    <glyph glyph-name="uni2215" unicode="&#x2215;" horiz-adv-x="123" 
d="M224 700h71l5 -5l-392 -690l-10 -5h-70l-5 5l391 690z" />
    <glyph glyph-name="uni2219" unicode="&#x2219;" horiz-adv-x="271" 
d="M99 403h73l5 -5v-73l-5 -5h-73l-5 5v73z" />
    <glyph glyph-name="infinity" unicode="&#x221e;" horiz-adv-x="721" 
d="M46 365c0 83 68 149 152 149c55 0 98 -20 138 -78c42 67 95 103 163 103c97 0 177 -75 177 -174s-80 -174 -177 -174c-68 0 -121 36 -163 103c-40 -58 -83 -78 -138 -78c-84 0 -152 66 -152 149zM294 365c-24 46 -55 72 -96 72c-40 0 -71 -33 -71 -72s29 -72 71 -72
c41 0 72 26 96 72zM374 365c35 -59 77 -97 125 -97c52 0 96 40 96 97c0 56 -44 97 -96 97c-48 0 -90 -38 -125 -97z" />
    <glyph glyph-name="integral" unicode="&#x222b;" horiz-adv-x="391" 
d="M330 618l-5 -5c-30 24 -55 29 -83 29c-63 0 -106 -52 -106 -140c0 -138 191 -353 191 -523c0 -124 -71 -209 -183 -209c-33 0 -58 5 -88 20v77l5 5c30 -24 55 -29 83 -29c62 0 106 52 106 140c0 138 -191 353 -191 523c0 124 71 209 183 209c33 0 58 -5 88 -20v-77z" />
    <glyph glyph-name="approxequal" unicode="&#x2248;" horiz-adv-x="531" 
d="M475 516l5 -5c-26 -55 -71 -102 -128 -102c-71 0 -119 41 -205 41c-28 0 -56 -10 -79 -36l-5 5c27 55 72 102 128 102c71 0 119 -41 206 -41c28 0 55 10 78 36zM475 316l5 -5c-26 -55 -71 -102 -128 -102c-71 0 -119 41 -205 41c-28 0 -56 -10 -79 -36l-5 5
c27 55 72 102 128 102c71 0 119 -41 206 -41c28 0 55 10 78 36z" />
    <glyph glyph-name="notequal" unicode="&#x2260;" horiz-adv-x="531" 
d="M76 504h202l51 126l10 5h72l5 -5l-50 -126h90l5 -5v-68l-5 -5h-121l-49 -122h170l5 -5v-68l-5 -5h-204l-51 -126l-10 -5h-72l-5 5l50 126h-88l-5 5v68l5 5h118l49 122h-167l-5 5v68z" />
    <glyph glyph-name="lessequal" unicode="&#x2264;" horiz-adv-x="531" 
d="M462 551l5 -5v-75l-5 -5l-289 -101l289 -101l5 -5v-75l-5 -5l-390 151l-5 5v60l5 5zM82 89h380l5 -5v-68l-5 -5h-380l-5 5v68z" />
    <glyph glyph-name="greaterequal" unicode="&#x2265;" horiz-adv-x="531" 
d="M82 89h380l5 -5v-68l-5 -5h-380l-5 5v68zM77 546l5 5l390 -151l5 -5v-60l-5 -5l-390 -151l-5 5v75l5 5l288 101l-288 101l-5 5v75z" />
    <glyph glyph-name="lozenge" unicode="&#x25ca;" horiz-adv-x="531" 
d="M234 600h63l5 -5l150 -290v-10l-150 -290l-5 -5h-63l-5 5l-150 290v10l150 290zM266 512l-102 -212l102 -212l102 212z" />
    <glyph glyph-name="uni2600" unicode="&#x2600;" horiz-adv-x="641" 
d="M127 603h10l54 -54c26 19 57 32 91 37v69l5 5h67l5 -5v-69c34 -5 65 -18 92 -37l53 54h10l45 -44v-10l-53 -53c21 -27 34 -58 40 -92h65l5 -5v-68l-5 -5h-65c-6 -34 -19 -66 -40 -93l53 -52v-10l-45 -44h-10l-53 54c-27 -19 -58 -33 -92 -37v-69l-5 -5h-67l-5 5v69
c-34 4 -65 18 -91 37l-54 -54h-10l-44 44v10l52 52c-21 27 -34 59 -39 93h-65l-5 5v68l5 5h65c5 34 18 65 39 92l-52 53v10zM321 516c-82 0 -148 -67 -148 -151s66 -151 148 -151s148 67 148 151s-66 151 -148 151z" />
    <glyph glyph-name="uni2601" unicode="&#x2601;" horiz-adv-x="831" 
d="M546 120h-280c-120 0 -220 80 -220 210c0 125 85 200 190 200c71 0 130 -41 149 -90c12 56 67 140 181 140c110 0 220 -80 220 -230c0 -90 -50 -230 -240 -230zM271 197h275c117 0 162 81 162 153c0 83 -64 157 -142 157c-77 0 -135 -65 -135 -151v-61l-5 -5h-67l-5 5v51
c0 58 -50 111 -111 111c-71 0 -120 -51 -120 -127c0 -83 63 -133 148 -133z" />
    <glyph glyph-name="uni2639" unicode="&#x2639;" horiz-adv-x="851" 
d="M284 455l47 46h10l46 -46v-10l-46 -46h-10l-47 46v10zM464 455l47 46h10l46 -46v-10l-46 -46h-10l-47 46v10zM426 715c195 0 360 -155 360 -365s-165 -365 -360 -365s-360 155 -360 365s165 365 360 365zM426 649c-157 0 -286 -134 -286 -299s129 -299 286 -299
c156 0 286 134 286 299s-130 299 -286 299zM581 180h-63l-5 5c-3 51 -39 82 -87 82c-49 0 -85 -31 -87 -82l-5 -5h-64l-5 5c9 108 83 152 161 152s150 -44 160 -152z" />
    <glyph glyph-name="smileface" unicode="&#x263a;" horiz-adv-x="851" 
d="M426 715c195 0 360 -155 360 -365s-165 -365 -360 -365s-360 155 -360 365s165 365 360 365zM426 649c-157 0 -286 -134 -286 -299s129 -299 286 -299c156 0 286 134 286 299s-130 299 -286 299zM331 501h10l46 -46v-10l-46 -46h-10l-47 46v10zM511 501h10l46 -46v-10
l-46 -46h-10l-47 46v10zM270 317h64l5 -5c2 -51 38 -82 87 -82c48 0 84 31 87 82l5 5h63l5 -5c-9 -108 -82 -152 -160 -152s-151 44 -161 152z" />
    <glyph glyph-name="invsmileface" unicode="&#x263b;" horiz-adv-x="851" 
d="M426 715c195 0 360 -155 360 -365s-165 -365 -360 -365s-360 155 -360 365s165 365 360 365zM334 501h-10l-47 -46v-10l47 -46h10l46 46v10zM528 501h-10l-47 -46v-10l47 -46h10l46 46v10zM294 317h-64l-5 -5c10 -122 103 -186 201 -186s191 64 200 186l-5 5h-63l-5 -5
c-3 -66 -59 -116 -127 -116c-69 0 -125 50 -127 116z" />
    <glyph glyph-name="sun" unicode="&#x263c;" horiz-adv-x="641" 
d="M287 660h67l5 -5v-69c34 -5 65 -18 92 -37l53 54h10l45 -44v-10l-53 -53c21 -27 34 -58 40 -92h65l5 -5v-68l-5 -5h-65c-6 -34 -19 -66 -40 -93l53 -52v-10l-45 -44h-10l-53 54c-27 -19 -58 -33 -92 -37v-69l-5 -5h-67l-5 5v69c-34 4 -65 18 -91 37l-54 -54h-10l-44 44
v10l52 52c-21 27 -34 59 -39 93h-65l-5 5v68l5 5h65c5 34 18 65 39 92l-52 53v10l44 44h10l54 -54c26 19 57 32 91 37v69zM321 516c-82 0 -148 -67 -148 -151s66 -151 148 -151s148 67 148 151s-66 151 -148 151z" />
    <glyph glyph-name="female" unicode="&#x2640;" horiz-adv-x="671" 
d="M302 -110l-5 6v94h-92l-5 5v67l5 5h92v111c-131 18 -231 131 -231 267c0 149 121 270 270 270s270 -121 270 -270c0 -136 -101 -249 -232 -267v-111h92l5 -5v-67l-5 -5h-92v-95l-5 -5h-67zM336 642c-104 0 -189 -88 -189 -197s85 -197 189 -197s189 88 189 197
s-85 197 -189 197z" />
    <glyph glyph-name="male" unicode="&#x2642;" horiz-adv-x="786" 
d="M336 452c-104 0 -189 -88 -189 -197s85 -197 189 -197s189 88 189 197s-85 197 -189 197zM714 659l26 -26v-180l-9 -6h-61v92l-117 -121c34 -49 53 -92 53 -163c0 -149 -121 -270 -270 -270s-270 121 -270 270s121 270 270 270c71 0 110 -18 159 -53l124 124h-91v55l5 8
h181z" />
    <glyph glyph-name="uni265A" unicode="&#x265a;" horiz-adv-x="810" 
d="M360 485h90v-65c75 95 145 120 205 120c45 0 105 -25 105 -100c0 -60 -25 -165 -50 -285l-35 -155h-540l-35 155c-25 120 -50 225 -50 285c0 75 60 100 105 100c60 0 130 -25 205 -120v65zM360 195v90c-35 105 -80 155 -141 155c-39 0 -74 -25 -74 -60
c0 -70 18 -124 30 -185h185zM450 285v-90h185c12 61 30 115 30 185c0 35 -35 60 -75 60c-60 0 -105 -50 -140 -155zM405 595c28 0 50 -22 50 -50s-22 -50 -50 -50s-50 22 -50 50s22 50 50 50zM405 120c-14 0 -25 -11 -25 -25s11 -25 25 -25s25 11 25 25s-11 25 -25 25z
M265 120c-14 0 -25 -11 -25 -25s11 -25 25 -25s25 11 25 25s-11 25 -25 25zM545 120c-14 0 -25 -11 -25 -25s11 -25 25 -25s25 11 25 25s-11 25 -25 25zM350 700h110l-2 -100h-106z" />
    <glyph glyph-name="uni278A" unicode="&#x278a;" horiz-adv-x="811" 
d="M406 715c193 0 350 -164 350 -365s-157 -365 -350 -365s-350 164 -350 365s157 365 350 365zM437 560l-5 5l-53 -46l-5 -10v-364l5 -5h53l5 5v415z" />
    <glyph glyph-name="uni278B" unicode="&#x278b;" horiz-adv-x="811" 
d="M406 715c193 0 350 -164 350 -365s-157 -365 -350 -365s-350 164 -350 365s157 365 350 365zM296 529v-72l5 -5c23 32 46 60 95 60c32 0 57 -24 57 -65c0 -28 -9 -61 -40 -112l-122 -190l5 -5h229l5 5v53l-5 5h-117l63 103c30 50 49 101 49 141c0 76 -57 128 -124 128
c-42 0 -73 -20 -100 -46z" />
    <glyph glyph-name="uni278C" unicode="&#x278c;" horiz-adv-x="811" 
d="M406 715c193 0 350 -164 350 -365s-157 -365 -350 -365s-350 164 -350 365s157 365 350 365zM276 560l-5 -5v-53l5 -5h155l-94 -153l5 -5c17 6 36 10 49 10c58 0 88 -33 88 -80c0 -44 -37 -81 -80 -81c-33 0 -60 16 -86 48h-6l-38 -46c35 -45 85 -65 130 -65
c78 0 147 65 147 144c0 71 -37 115 -105 132l89 154l-5 5h-249z" />
    <glyph glyph-name="uni278D" unicode="&#x278d;" horiz-adv-x="811" 
d="M406 715c193 0 350 -164 350 -365s-157 -365 -350 -365s-350 164 -350 365s157 365 350 365zM490 564l-5 5l-274 -304l5 -5h211v-115l5 -5h53l5 5v115h78l5 5v53l-5 5h-78v241zM337 323l90 104v-104h-90z" />
    <glyph glyph-name="uni278E" unicode="&#x278e;" horiz-adv-x="811" 
d="M406 715c193 0 350 -164 350 -365s-157 -365 -350 -365s-350 164 -350 365s157 365 350 365zM337 560l-5 -5l-23 -205l3 -4c23 8 52 11 71 11c59 0 96 -33 96 -88c0 -44 -37 -81 -82 -81c-33 0 -57 16 -83 48h-6l-39 -46c33 -44 82 -65 128 -65c80 0 149 65 149 144
c0 98 -71 152 -164 145l9 83h111l39 59l-4 4h-200z" />
    <glyph glyph-name="uni278F" unicode="&#x278f;" horiz-adv-x="811" 
d="M406 715c193 0 350 -164 350 -365s-157 -365 -350 -365s-350 164 -350 365s157 365 350 365zM473 555l-4 5h-70c-59 -47 -140 -146 -140 -259c0 -121 78 -176 152 -176c80 0 142 58 142 138c0 84 -62 141 -139 141c-37 0 -59 -13 -77 -27c24 67 82 135 136 178zM326 301
c25 24 45 40 85 40c41 0 76 -32 76 -78c0 -43 -33 -75 -76 -75c-46 0 -85 34 -85 106v7z" />
    <glyph glyph-name="uni2790" unicode="&#x2790;" horiz-adv-x="811" 
d="M406 715c193 0 350 -164 350 -365s-157 -365 -350 -365s-350 164 -350 365s157 365 350 365zM276 560l-5 -5v-53l5 -5h181l-186 -352l5 -5h64l10 5l211 410l-5 5h-280z" />
    <glyph glyph-name="uni2791" unicode="&#x2791;" horiz-adv-x="811" 
d="M406 715c193 0 350 -164 350 -365s-157 -365 -350 -365s-350 164 -350 365s157 365 350 365zM406 575c-70 0 -115 -48 -115 -108c0 -40 25 -72 65 -96c-48 -25 -87 -62 -87 -116c0 -71 63 -130 137 -130c73 0 137 59 137 130c0 54 -39 91 -87 116c40 24 64 56 64 96
c0 60 -45 108 -114 108zM406 405c-32 18 -48 38 -48 62s21 45 48 45c26 0 47 -21 47 -45s-15 -44 -47 -62zM406 340c43 -21 70 -47 70 -85c0 -36 -32 -67 -70 -67c-39 0 -70 31 -70 67c0 38 26 64 70 85z" />
    <glyph glyph-name="uni2792" unicode="&#x2792;" horiz-adv-x="811" 
d="M406 715c193 0 350 -164 350 -365s-157 -365 -350 -365s-350 164 -350 365s157 365 350 365zM339 145l4 -5h70c58 47 140 146 140 259c0 121 -79 176 -153 176c-79 0 -141 -58 -141 -138c0 -84 62 -141 138 -141c37 0 60 13 77 27c-23 -67 -82 -135 -135 -178zM486 399
c-26 -24 -46 -40 -86 -40c-41 0 -75 32 -75 78c0 43 32 75 76 75c45 0 85 -34 85 -106v-7z" />
    <glyph glyph-name="uni2793" unicode="&#x2793;" horiz-adv-x="811" 
d="M406 715c193 0 350 -164 350 -365s-157 -365 -350 -365s-350 164 -350 365s157 365 350 365zM493 575c-97 0 -164 -95 -164 -225s67 -225 164 -225s164 95 164 225s-67 225 -164 225zM493 512c51 0 97 -54 97 -162s-46 -162 -97 -162c-52 0 -97 54 -97 162s45 162 97 162
zM247 560l-5 5l-53 -46l-5 -10v-364l5 -5h53l5 5v415z" />
    <glyph glyph-name="fi" unicode="&#xfb01;" horiz-adv-x="637" 
d="M31 470h75v41c0 122 65 204 178 204c34 0 55 -5 85 -20v-76l-5 -5c-30 23 -51 28 -80 28c-63 0 -101 -48 -101 -136v-36h181l5 -5v-67l-5 -5h-181v-388l-5 -5h-67l-5 5v388h-75l-5 5v68zM480 470h67l5 -5v-460l-5 -5h-67l-5 5v460zM508 641h10l50 -50v-10l-50 -50h-10
l-50 50v10z" />
    <glyph glyph-name="fl" unicode="&#xfb02;" horiz-adv-x="717" 
d="M31 470h75v41c0 122 65 204 178 204c34 0 55 -5 85 -20v-76l-5 -5c-30 23 -51 28 -80 28c-63 0 -101 -48 -101 -136v-36h181l5 -5v-67l-5 -5h-181v-388l-5 -5h-67l-5 5v388h-75l-5 5v68zM470 700h67l5 -5v-535c0 -75 28 -102 69 -102c29 0 56 9 86 38l5 -5v-76
c-24 -15 -57 -30 -91 -30c-92 0 -146 58 -146 170v540z" />
    <glyph glyph-name="slash.a" horiz-adv-x="123" 
d="M224 700h71l5 -5l-392 -690l-10 -5h-70l-5 5l391 690z" />
    <glyph glyph-name="paragraph.C" horiz-adv-x="740" 
d="M426 700h223l5 -5v-690l-5 -5h-223c-215 0 -370 155 -370 350s155 350 370 350zM577 77v546h-91v-546h91z" />
    <glyph glyph-name="uni2190.a" horiz-adv-x="811" 
d="M436 540h-100l-10 -5l-180 -180v-10l180 -180l10 -5h100l5 5l-146 146h346l5 5v68l-5 5h-346l146 146zM406 715c193 0 350 -164 350 -365s-157 -365 -350 -365s-350 164 -350 365s157 365 350 365z" />
    <glyph glyph-name="uni2191.a" horiz-adv-x="811" 
d="M596 319v101l-5 10l-180 180h-10l-180 -180l-5 -10v-101l5 -5l146 147v-346l5 -5h67l5 5v346l147 -147zM406 715c193 0 350 -164 350 -365s-157 -365 -350 -365s-350 164 -350 365s157 365 350 365z" />
    <glyph glyph-name="uni2192.a" horiz-adv-x="811" 
d="M375 160h101l10 5l180 180v10l-180 180l-10 5h-101l-5 -5l147 -146h-346l-5 -5v-68l5 -5h346l-147 -146zM406 715c193 0 350 -164 350 -365s-157 -365 -350 -365s-350 164 -350 365s157 365 350 365z" />
    <glyph glyph-name="uni2193.a" horiz-adv-x="811" 
d="M216 381v-101l5 -10l180 -180h10l180 180l5 10v101l-5 5l-147 -147v346l-5 5h-67l-5 -5v-346l-146 147zM406 715c193 0 350 -164 350 -365s-157 -365 -350 -365s-350 164 -350 365s157 365 350 365z" />
    <glyph glyph-name="uni2196.a" horiz-adv-x="811" 
d="M561 462l-70 72l-11 3h-254l-7 -7v-254l3 -11l71 -71h7v207l245 -245h7l47 48v7l-245 244h207v7zM406 715c193 0 350 -164 350 -365s-157 -365 -350 -365s-350 164 -350 365s157 365 350 365z" />
    <glyph glyph-name="uni2197.a" horiz-adv-x="811" 
d="M518 194l72 71l3 11v254l-7 7h-254l-11 -3l-71 -72v-7h207l-245 -244v-7l48 -48h7l244 245v-207h7zM406 715c193 0 350 -164 350 -365s-157 -365 -350 -365s-350 164 -350 365s157 365 350 365z" />
    <glyph glyph-name="uni2198.a" horiz-adv-x="811" 
d="M250 238l71 -72l11 -3h254l7 7v254l-3 11l-72 71h-7v-207l-244 245h-7l-48 -48v-7l245 -244h-207v-7zM406 715c193 0 350 -164 350 -365s-157 -365 -350 -365s-350 164 -350 365s157 365 350 365z" />
    <glyph glyph-name="uni2199.a" horiz-adv-x="811" 
d="M293 506l-71 -71l-3 -11v-254l7 -7h254l11 3l70 72v7h-207l245 244v7l-47 48h-7l-245 -245v207h-7zM406 715c193 0 350 -164 350 -365s-157 -365 -350 -365s-350 164 -350 365s157 365 350 365z" />
    <glyph glyph-name="uni2600_uni2601" horiz-adv-x="1101" 
d="M127 623h10l54 -54c26 19 57 32 91 37v69l5 5h67l5 -5v-69c34 -5 65 -18 92 -37l53 54h10l45 -44v-10l-40 -40c64 -5 117 -44 135 -89c12 56 67 140 181 140c110 0 220 -80 220 -230c0 -90 -50 -230 -240 -230h-280c-57 0 -109 18 -148 50c-9 -3 -18 -5 -28 -6v-69l-5 -5
h-67l-5 5v69c-34 4 -65 18 -91 37l-54 -54h-10l-44 44v10l52 52c-21 27 -34 59 -39 93h-65l-5 5v68l5 5h65c5 34 18 65 39 92l-52 53v10zM321 536c-82 0 -148 -67 -148 -151s66 -151 148 -151c5 0 11 0 17 1c-15 27 -23 59 -23 95c0 84 40 145 97 173c-25 20 -57 33 -91 33z
M540 197h275c117 0 162 81 162 153c0 83 -64 157 -142 157c-77 0 -134 -65 -134 -151v-61l-5 -5h-67l-5 5v51c0 58 -51 111 -112 111c-71 0 -119 -51 -119 -127c0 -83 62 -133 147 -133z" />
    <glyph glyph-name="uni2601.001" horiz-adv-x="831" 
d="M36 20l85 148c-46 36 -75 91 -75 162c0 125 85 200 190 200c71 0 130 -41 149 -90c12 56 67 140 181 140c110 0 220 -80 220 -230c0 -62 -24 -147 -101 -193l-102 -175l-7 -2l-58 33l-2 7l59 102c-9 -1 -19 -2 -29 -2h-123l-80 -138l-7 -2l-58 33l-2 7l58 100h-68
c-27 0 -52 4 -76 12l-87 -150l-7 -2l-58 33zM271 197h275c117 0 162 81 162 153c0 83 -64 157 -142 157c-77 0 -135 -65 -135 -151v-61l-5 -5h-67l-5 5v51c0 58 -50 111 -111 111c-71 0 -120 -51 -120 -127c0 -83 63 -133 148 -133z" />
    <glyph glyph-name="uni265A.a" horiz-adv-x="760" 
d="M360 485h45v-290h312l-7 -40h-610c-25 120 -50 225 -50 285c0 75 60 100 105 100c60 0 130 -25 205 -120v65zM145 380c0 -70 18 -124 30 -185h185v90c-35 105 -80 155 -140 155c-40 0 -75 -25 -75 -60zM125 40h560l-10 -40h-540zM350 700h25l30 -40l30 40h25l-40 -50
l38 -50h-23l-30 35l-30 -35h-23l38 50zM405 595v-100c-28 0 -50 22 -50 50s22 50 50 50z" />
    <glyph glyph-name="uni265A.b" horiz-adv-x="760" 
d="M660 155l-25 -115h-560l-25 115h610zM667 195h-82c12 61 30 115 30 185c0 35 -35 60 -75 60c-60 0 -105 -50 -140 -155v-90h-45v290h45v-65c75 95 145 120 205 120c45 0 105 -25 105 -100c0 -51 -15 -135 -43 -245zM405 545c0 -28 -22 -50 -50 -50v100
c28 0 50 -22 50 -50zM470 95c0 -14 11 -25 25 -25s25 11 25 25s-11 25 -25 25s-25 -11 -25 -25zM190 95c0 -14 11 -25 25 -25s25 11 25 25s-11 25 -25 25s-25 -11 -25 -25zM330 95c0 -14 11 -25 25 -25s25 11 25 25s-11 25 -25 25s-25 -11 -25 -25zM300 700l40 -50l-38 -50z
M410 700l-2 -100l-38 50zM325 700h60l-30 -40zM355 635l30 -35h-60z" />
    <glyph glyph-name="zero.o" horiz-adv-x="571" 
d="M286 485c140 0 240 -112 240 -250s-100 -250 -240 -250s-240 112 -240 250s100 250 240 250zM286 408c-95 0 -159 -77 -159 -173s64 -173 159 -173s159 77 159 173s-64 173 -159 173z" />
    <glyph glyph-name="one.o" horiz-adv-x="249" 
d="M158 475l5 -5v-465l-5 -5h-67l-5 5v404l5 10z" />
    <glyph glyph-name="two.o" horiz-adv-x="429" 
d="M50 341v84c45 40 84 60 139 60c95 0 167 -67 167 -161c0 -45 -15 -80 -77 -152l-82 -95h181l5 -5v-67l-5 -5h-337l-5 5l180 205c30 34 58 74 58 114c0 49 -36 84 -85 84c-50 0 -84 -22 -134 -72z" />
    <glyph glyph-name="three.o" horiz-adv-x="506" 
d="M33 470h400l5 -5l-156 -274c109 -17 178 -98 178 -204c0 -128 -104 -232 -232 -232c-75 0 -150 35 -205 110l45 53h10c43 -51 88 -86 150 -86c85 0 151 69 151 155c0 80 -70 141 -166 141c-22 0 -39 -4 -64 -14l-5 5l163 274h-274l-5 5v67z" />
    <glyph glyph-name="four.o" horiz-adv-x="613" 
d="M442 475l5 -5v-393h145l5 -5v-67l-5 -5h-145v-225l-5 -5h-67l-5 5v225h-335l-5 5zM370 286l-179 -209h179v209z" />
    <glyph glyph-name="five.o" horiz-adv-x="501" 
d="M126 470h335l5 -5l-46 -72h-222l-19 -189c152 17 277 -78 277 -224c0 -130 -105 -225 -235 -225c-75 0 -145 35 -195 100l45 53h10c42 -53 90 -76 140 -76c87 0 154 62 154 148c0 97 -87 152 -181 152c-30 0 -62 -4 -102 -17l-5 5l34 345z" />
    <glyph glyph-name="six.o" horiz-adv-x="534" 
d="M363 700l5 -5c-85 -70 -187 -191 -221 -315c28 22 73 45 129 45c130 0 220 -100 220 -220s-90 -220 -220 -220c-115 0 -230 83 -230 285c0 175 130 365 230 430h87zM127 283v-13c0 -149 72 -208 149 -208c84 0 139 65 139 143c0 81 -58 143 -139 143
c-66 0 -107 -24 -149 -65z" />
    <glyph glyph-name="seven.o" horiz-adv-x="531" 
d="M72 470h429l5 -5l-306 -690l-10 -5h-78l-5 5l272 618h-307l-5 5v67z" />
    </font>
</defs>
</svg>
